<svg xmlns="http://www.w3.org/2000/svg" width="100" height="100" viewBox="0 0 100 100">
  <g id="Gruppe_2" data-name="Gruppe 2" transform="translate(-207 -683)">
    <rect id="Rechteck_12" data-name="Rechteck 12" width="100" height="100" transform="translate(207 683)" fill="#a8ecbc"/>
    <g id="ic_pinpoint" transform="translate(225 700.31)">
      <path id="Pfad_114" data-name="Pfad 114" d="M3,16a11,11,0,1,1,22,0c0,7.91-9.78,14.6-11,24.3C12.78,30.55,3,23.86,3,16Z" fill="#ed7899"/>
      <path id="Pfad_115" data-name="Pfad 115" d="M39,36a11,11,0,0,1,22,0c0,7.91-9.78,14.6-11,24.3C48.78,50.55,39,43.86,39,36Z" fill="#85cbf8"/>
      <path id="Pfad_116" data-name="Pfad 116" d="M50,31a5,5,0,1,0,5,5A5,5,0,0,0,50,31ZM14,11a5,5,0,1,0,5,5,5,5,0,0,0-5-5Z" fill="#f9dd8f"/>
      <path id="Pfad_117" data-name="Pfad 117" d="M14,4A12,12,0,0,0,2,16c0,4.26,2.54,8,5.22,12,2.56,3.82,5.21,7.77,5.79,12.38a1,1,0,0,0,2,0c.58-4.61,3.23-8.56,5.79-12.37C23.46,24,26,20.22,26,16A12,12,0,0,0,14,4Zm5.12,22.89A43.05,43.05,0,0,0,14,36.06a43,43,0,0,0-5.12-9.18C6.37,23.14,4,19.61,4,16a10,10,0,1,1,20,0c0,3.61-2.37,7.14-4.88,10.89ZM50,24A12,12,0,0,0,38,36c0,4.26,2.54,8,5.22,12,2.56,3.82,5.21,7.77,5.79,12.38a1,1,0,1,0,2,0c.58-4.61,3.23-8.56,5.79-12.37C59.46,44,62,40.22,62,36A12,12,0,0,0,50,24Zm5.12,22.89A43.05,43.05,0,0,0,50,56.06a43,43,0,0,0-5.12-9.18C42.37,43.14,40,39.61,40,36a10,10,0,0,1,20,0C60,39.61,57.63,43.14,55.12,46.89ZM30,34a1,1,0,0,0-1,1v2a1,1,0,0,0,2,0V35A1,1,0,0,0,30,34Zm5,0a1,1,0,0,0-1,1v2a1,1,0,0,0,2,0V35A1,1,0,0,0,35,34ZM20,34a1,1,0,0,0-1,1v2a1,1,0,0,0,2,0V35A1,1,0,0,0,20,34Zm5,0a1,1,0,0,0-1,1v2a1,1,0,0,0,2,0V35A1,1,0,0,0,25,34Z" fill="#8d6c9f"/>
      <path id="Pfad_118" data-name="Pfad 118" d="M50,34a2,2,0,1,0,2,2A2,2,0,0,0,50,34Z" fill="#8d6c9f"/>
      <path id="Pfad_119" data-name="Pfad 119" d="M55,35a1,1,0,0,0-1,1,4,4,0,1,1-5.2-3.82,1,1,0,1,0-.6-1.91A6,6,0,1,0,56,36,1,1,0,0,0,55,35Z" fill="#8d6c9f"/>
      <path id="Pfad_120" data-name="Pfad 120" d="M51.48,32.28a4,4,0,0,1,1.45,1,1,1,0,0,0,1.46-1.36,6,6,0,0,0-2.17-1.48,1,1,0,0,0-.74,1.86ZM14,14a2,2,0,1,0,2,2A2,2,0,0,0,14,14Z" fill="#8d6c9f"/>
      <path id="Pfad_121" data-name="Pfad 121" d="M19,15a1,1,0,0,0-1,1,4,4,0,1,1-5.2-3.82,1,1,0,0,0-.6-1.91A6,6,0,1,0,20,16a1,1,0,0,0-1-1Z" fill="#8d6c9f"/>
      <path id="Pfad_122" data-name="Pfad 122" d="M15.48,12.28a4,4,0,0,1,1.45,1,1,1,0,0,0,1.46-1.36,6,6,0,0,0-2.17-1.48,1,1,0,1,0-.74,1.86Z" fill="#8d6c9f"/>
    </g>
  </g>
</svg>
