<svg width="217" height="102" viewBox="0 0 217 102" fill="none" xmlns="http://www.w3.org/2000/svg">
<path d="M91.1127 89.7614C90.1925 88.6992 77.3913 79.761 76.4302 79.0917L78.6154 78.7157C78.6154 78.7157 90.3183 88.6575 91.1127 89.7614Z" fill="#9A0034"/>
<g opacity="0.5">
<path d="M91.1127 89.7614C90.1925 88.6992 77.3913 79.761 76.4302 79.0917L78.6154 78.7157C78.6154 78.7157 90.3183 88.6575 91.1127 89.7614Z" fill="white"/>
</g>
<path d="M91.1537 89.8421V89.8542C91.1537 89.8655 91.1481 89.8782 91.1417 89.8951C91.0407 90.122 90.1629 90.3199 89.1834 90.4506C89.1713 90.4506 89.16 90.4506 89.148 90.457C87.948 90.6061 86.6158 90.6535 86.4009 90.51C86.1267 90.3199 76.8896 85.6985 71.235 82.8737C71.1572 82.8383 71.0858 82.8023 71.0137 82.7662C70.9904 82.7549 70.972 82.7422 70.9664 82.7422H70.96V82.7359C70.6858 82.5995 70.4173 82.4673 70.16 82.3366C69.1988 81.8588 68.3988 81.4588 67.8313 81.1775C67.2525 80.8913 66.9238 80.7245 66.9238 80.7245L76.4295 79.094C76.973 79.47 81.2961 82.4857 85.1175 85.2377C85.2489 85.3275 85.3797 85.4236 85.5118 85.519C85.8694 85.7756 86.2165 86.0264 86.5628 86.271C88.8851 87.9608 90.7778 89.3764 91.112 89.7644C91.1241 89.7821 91.1361 89.7997 91.1417 89.8118C91.1481 89.8245 91.1537 89.8358 91.1537 89.8421Z" fill="#9A0034"/>
<g opacity="0.100006">
<path d="M91.1544 89.8421V89.8542C91.1544 89.8655 91.1488 89.8782 91.1424 89.8951C91.0413 90.122 90.1636 90.3199 89.184 90.4506C89.172 90.4506 89.1607 90.4506 89.1487 90.457C87.9486 90.6061 86.6164 90.6535 86.4016 90.51C86.121 90.3199 76.6457 85.5784 71.0144 82.7662C71.9402 83.2143 84.0912 89.0598 86.5634 86.271C88.8858 87.9608 90.7784 89.3764 91.1127 89.7644C91.1247 89.7821 91.1367 89.7997 91.1424 89.8118C91.1488 89.8245 91.1544 89.8358 91.1544 89.8421Z" fill="black"/>
</g>
<path d="M216.37 100.273V100.279C216.37 101.551 209.366 101.963 208.411 101.688C207.366 101.389 131.13 71.3855 131.13 71.3855L159.18 60.2797C159.396 60.4296 159.665 60.6204 159.987 60.8416C160.1 60.9186 160.22 61.0027 160.345 61.0861C165.516 64.6686 180.957 75.3743 194.445 84.7966C194.713 84.9818 194.976 85.1669 195.239 85.3521C195.597 85.5966 195.949 85.8475 196.301 86.0928C205.652 92.6245 213.761 98.3264 216.37 100.273Z" fill="#9A0034"/>
<path d="M216.37 100.273C209.54 95.1736 165.008 64.3165 159.181 60.2796L162.733 58.8711C162.733 58.8711 214.609 98.3263 216.173 99.8967C216.304 100.034 216.37 100.153 216.37 100.273Z" fill="#9A0034"/>
<g opacity="0.5">
<path d="M216.37 100.273C209.54 95.1736 165.008 64.3165 159.181 60.2796L162.733 58.8711C162.733 58.8711 214.609 98.3263 216.173 99.8967C216.304 100.034 216.37 100.153 216.37 100.273Z" fill="white"/>
</g>
<g opacity="0.5">
<g opacity="0.100006">
<path d="M216.37 100.273V100.279C216.37 101.551 209.366 101.963 208.411 101.688C207.366 101.389 131.13 71.3855 131.13 71.3855L159.18 60.2797C159.18 60.2797 152.242 68.2157 168.704 80.4197C179.924 88.7374 191.865 90.4625 196.301 86.0928C205.652 92.6245 213.761 98.3264 216.37 100.273Z" fill="black"/>
</g>
</g>
<path d="M152.793 81.228C150.626 82.2804 148.269 83.1065 148.099 80.9298C148.03 80.0365 148.721 79.0824 152.207 77.4046C153.025 77.0109 155.022 76.1367 155.609 77.9473C156.175 79.6909 153.609 80.8308 152.793 81.228Z" fill="#9A0034"/>
<g opacity="0.100006">
<path d="M152.793 81.228C150.626 82.2804 148.269 83.1065 148.099 80.9298C148.03 80.0365 148.721 79.0824 152.207 77.4046C153.025 77.0109 155.022 76.1367 155.609 77.9473C156.175 79.6909 153.609 80.8308 152.793 81.228Z" fill="black"/>
</g>
<path d="M170.481 88.468C168.315 89.5204 165.958 90.3466 165.787 88.1698C165.718 87.2765 166.41 86.3224 169.896 84.6446C170.713 84.2509 172.71 83.3767 173.298 85.1874C173.863 86.9309 171.298 88.0709 170.481 88.468Z" fill="#9A0034"/>
<g opacity="0.100006">
<path d="M170.481 88.468C168.315 89.5204 165.958 90.3466 165.787 88.1698C165.718 87.2765 166.41 86.3224 169.896 84.6446C170.713 84.2509 172.71 83.3767 173.298 85.1874C173.863 86.9309 171.298 88.0709 170.481 88.468Z" fill="black"/>
</g>
<path d="M188.171 95.7073C186.004 96.7596 183.647 97.5865 183.477 95.4091C183.407 94.5157 184.099 93.5616 187.585 91.8845C188.403 91.4902 190.399 90.6166 190.987 92.4273C191.553 94.1708 188.986 95.3108 188.171 95.7073Z" fill="#9A0034"/>
<g opacity="0.100006">
<path d="M188.171 95.7073C186.004 96.7596 183.647 97.5865 183.477 95.4091C183.407 94.5157 184.099 93.5616 187.585 91.8845C188.403 91.4902 190.399 90.6166 190.987 92.4273C191.553 94.1708 188.986 95.3108 188.171 95.7073Z" fill="black"/>
</g>
<path d="M182.389 76.6874C180.257 80.4791 175.421 81.8466 172.358 83.07C164.225 86.3189 158.326 88.1458 155.419 80.7604C155.043 79.8041 154.833 78.9144 154.768 78.0853C154.29 72.5141 160.058 69.7317 162.989 68.1917L162.996 68.1853C166.531 66.3223 169.033 65.1159 170.895 64.3343C173.934 63.0501 175.289 62.889 176.687 62.8409C178.329 62.7872 182.043 63.1993 183.261 70.0122C183.762 72.8484 183.345 75.004 182.389 76.6874Z" fill="#9A0034"/>
<path d="M182.486 71.3917C182.486 75.541 179.891 78.9051 176.689 78.9051C173.488 78.9051 170.893 75.541 170.893 71.3917C170.893 67.2417 173.488 63.8777 176.689 63.8777C179.891 63.8777 182.486 67.2417 182.486 71.3917Z" fill="#FFE6DE"/>
<path d="M181.811 71.3916C181.811 75.0575 179.518 78.0307 176.689 78.0307C173.861 78.0307 171.568 75.0575 171.568 71.3916C171.568 67.725 173.861 64.7525 176.689 64.7525C179.518 64.7525 181.811 67.725 181.811 71.3916Z" fill="#0E0C16"/>
<path d="M61.0254 69.4032L59.6819 69.893L56.6605 70.992C53.9502 69.8153 50.2242 68.2096 46.1994 66.4773C36.0668 62.1245 24.0776 57.0141 21.7666 56.2317C21.85 56.255 21.9518 56.2847 22.0592 56.3208C22.1369 56.3448 22.2267 56.3745 22.3221 56.4049C22.4295 56.4402 22.549 56.4762 22.6741 56.5186C22.7398 56.5427 22.8055 56.5596 22.8769 56.5837C23.1158 56.6621 23.385 56.7455 23.6776 56.8409C23.9342 56.9243 24.2027 57.0141 24.4953 57.1088C25.1759 57.33 25.9463 57.5865 26.7944 57.8678C27.0509 57.9576 27.3138 58.041 27.5824 58.1307C27.8213 58.2078 28.0658 58.2912 28.3167 58.3753C28.4545 58.4233 28.5859 58.4643 28.7223 58.5067C29.1287 58.6438 29.5408 58.7816 29.9712 58.9244C30.2454 59.0205 30.5196 59.1103 30.8009 59.205C34.0427 60.2919 37.8103 61.5577 41.5603 62.8235L42.5808 63.1641C43.9307 63.6235 45.2799 64.0772 46.5874 64.5197C49.0715 65.3607 51.4363 66.1551 53.5021 66.854C53.8364 66.9678 54.1587 67.0809 54.4753 67.1883C55.5919 67.5643 56.6068 67.905 57.4846 68.2032L57.4966 68.2096C57.7652 68.2993 58.0217 68.3877 58.267 68.4725C58.3921 68.5135 58.5115 68.5559 58.6253 68.5919C58.6846 68.6152 58.744 68.6329 58.8041 68.6513C60.2077 69.1283 61.0254 69.4032 61.0254 69.4032Z" fill="#9A0034"/>
<g opacity="0.5">
<path d="M61.0254 69.4032L59.6819 69.893L56.6605 70.992C53.9502 69.8153 50.2242 68.2096 46.1994 66.4773C36.0668 62.1245 24.0776 57.0141 21.7666 56.2317C21.85 56.255 21.9518 56.2847 22.0592 56.3208C22.1369 56.3448 22.2267 56.3745 22.3221 56.4049C22.4295 56.4402 22.549 56.4762 22.6741 56.5186C22.7398 56.5427 22.8055 56.5596 22.8769 56.5837C23.1158 56.6621 23.385 56.7455 23.6776 56.8409C23.9342 56.9243 24.2027 57.0141 24.4953 57.1088C25.1759 57.33 25.9463 57.5865 26.7944 57.8678C27.0509 57.9576 27.3138 58.041 27.5824 58.1307C27.8213 58.2078 28.0658 58.2912 28.3167 58.3753C28.4545 58.4233 28.5859 58.4643 28.7223 58.5067C29.1287 58.6438 29.5408 58.7816 29.9712 58.9244C30.2454 59.0205 30.5196 59.1103 30.8009 59.205C34.0427 60.2919 37.8103 61.5577 41.5603 62.8235L42.5808 63.1641C43.9307 63.6235 45.2799 64.0772 46.5874 64.5197C49.0715 65.3607 51.4363 66.1551 53.5021 66.854C53.8364 66.9678 54.1587 67.0809 54.4753 67.1883C55.5919 67.5643 56.6068 67.905 57.4846 68.2032L57.4966 68.2096C57.7652 68.2993 58.0217 68.3877 58.267 68.4725C58.3921 68.5135 58.5115 68.5559 58.6253 68.5919C58.6846 68.6152 58.744 68.6329 58.8041 68.6513C60.2077 69.1283 61.0254 69.4032 61.0254 69.4032Z" fill="white"/>
</g>
<path d="M56.6605 70.9919L48.5577 73.9412C48.5577 73.9412 30.4658 65.5465 19.6767 60.2862C19.599 60.2502 19.5573 60.2318 19.5573 60.2318C19.5099 60.2078 19.4619 60.1844 19.4138 60.1604C18.2851 59.6106 17.2406 59.0975 16.3091 58.6381C13.5203 57.2409 11.7534 56.291 11.8192 56.1603C12.1174 55.5631 18.835 55.4132 21.5213 56.1603C21.5453 56.1652 21.5637 56.1716 21.5934 56.1779C21.6414 56.1899 21.7008 56.2076 21.7665 56.2316C23.9998 56.99 35.2724 61.7845 45.1724 66.0356C45.2494 66.0716 45.3215 66.1013 45.3993 66.131C45.6678 66.2504 45.9364 66.3642 46.1993 66.4773C50.2242 68.2088 53.9501 69.8152 56.6605 70.9919Z" fill="#9A0034"/>
<g opacity="0.100006">
<path d="M56.66 70.9919L48.5573 73.9412C48.5573 73.9412 30.4654 65.5465 19.6763 60.2862C21.4615 61.0445 39.7696 69.1092 44.285 67.9897C45.3508 67.7261 45.96 67.1105 46.1989 66.4773C50.2237 68.2088 53.9497 69.8152 56.66 70.9919Z" fill="black"/>
</g>
<path d="M77.4987 59.4439L57.8428 68.8959C57.8428 68.8959 58.0456 52.0457 58.1947 39.9251C58.2004 39.5067 58.2067 39.0954 58.2124 38.689C58.2188 38.3548 58.2188 38.0261 58.2244 37.7039C58.2781 33.5539 58.3262 30.2103 58.3439 28.6936C58.4159 23.8157 58.941 22.8248 60.2309 23.6185C61.5263 24.4129 67.2643 29.4046 68.9895 31.6315C70.4051 33.4585 73.5395 44.5225 75.582 52.1291C75.5996 52.1949 75.6173 52.2549 75.6293 52.3207C75.7488 52.7624 75.8682 53.1921 75.9756 53.6041C76.8838 57.0254 77.4987 59.4439 77.4987 59.4439Z" fill="#9A0034"/>
<g opacity="0.100006">
<path d="M77.4987 59.4439L57.8428 68.8959C57.8428 68.8959 58.0456 52.0457 58.1947 39.9251C61.0902 46.3798 66.805 55.1985 75.9756 53.6041C76.8838 57.0254 77.4987 59.4439 77.4987 59.4439Z" fill="black"/>
</g>
<path d="M44.1115 79.2037C42.0881 74.1456 50.6793 69.5503 60.4316 65.1721C70.1846 60.7931 166.316 18.3999 180.248 14.6181C194.18 10.8364 210.406 16.0147 213.15 23.9726C217.267 35.9144 199.929 45.919 137.655 71.7398C129.495 75.1237 92.9975 83.8859 72.473 83.9516C50.5301 84.0216 45.1066 81.6914 44.1115 79.2037Z" fill="#9A0034"/>
<g opacity="0.5">
<path d="M44.1115 79.2037C42.0881 74.1456 50.6793 69.5503 60.4316 65.1721C70.1846 60.7931 166.316 18.3999 180.248 14.6181C194.18 10.8364 210.406 16.0147 213.15 23.9726C217.267 35.9144 199.929 45.919 137.655 71.7398C129.495 75.1237 92.9975 83.8859 72.473 83.9516C50.5301 84.0216 45.1066 81.6914 44.1115 79.2037Z" fill="white"/>
</g>
<g opacity="0.3">
<path d="M137.658 71.7402C129.496 75.1255 92.9959 83.8849 72.4735 83.9499C50.5306 84.022 45.1085 81.6933 44.112 79.2041C43.0547 76.5581 44.9 74.0385 48.2973 71.6081C48.2733 72.1042 48.3567 72.5996 48.5603 73.1014C49.4677 75.3644 54.3873 77.4782 74.2948 77.4118C92.9174 77.3524 119.704 62.272 127.107 59.2026C183.61 35.772 205.678 33.825 201.941 22.9878C200.317 18.2703 193.468 14.6278 185.383 13.6313C197.91 12.1323 210.742 16.9748 213.148 23.9723C217.268 35.9148 199.928 45.9223 137.658 71.7402Z" fill="#741130"/>
</g>
<path d="M74.585 62.52L76.7942 61.5645V64.8127L74.585 65.7682V62.52Z" fill="#0E0C16"/>
<path d="M78.6157 60.7767L80.9741 59.7555V63.0037L78.6157 64.0249V60.7767Z" fill="#0E0C16"/>
<path d="M82.7954 58.9678L85.1538 57.9465V61.194L82.7954 62.216V58.9678Z" fill="#0E0C16"/>
<path d="M86.9741 57.1582L89.3332 56.1377V59.3852L86.9741 60.4064V57.1582Z" fill="#0E0C16"/>
<path d="M91.1541 55.3492L93.5132 54.3279V57.5761L91.1541 58.5974V55.3492Z" fill="#0E0C16"/>
<path d="M95.334 53.5393L97.6924 52.5188V55.7663L95.334 56.7882V53.5393Z" fill="#0E0C16"/>
<path d="M99.5134 51.7303L101.872 50.7098V53.9573L99.5134 54.9785V51.7303Z" fill="#0E0C16"/>
<path d="M103.693 49.9218L106.052 48.9006V52.1487L103.693 53.17V49.9218Z" fill="#0E0C16"/>
<path d="M107.873 48.112L110.231 47.0914V50.3389L107.873 51.3609V48.112Z" fill="#0E0C16"/>
<path d="M112.052 46.3031L114.411 45.2826V48.53L112.052 49.5513V46.3031Z" fill="#0E0C16"/>
<path d="M116.232 44.4942L118.59 43.4729V46.7211L116.232 47.7424V44.4942Z" fill="#0E0C16"/>
<path d="M120.411 42.6845L122.77 41.664V44.9114L120.411 45.9334V42.6845Z" fill="#0E0C16"/>
<path d="M124.591 40.8754L126.949 39.8549V43.1024L124.591 44.1236V40.8754Z" fill="#0E0C16"/>
<path d="M128.771 39.0665L131.13 38.0459V41.2934L128.771 42.3146V39.0665Z" fill="#0E0C16"/>
<path d="M132.95 37.2567L135.309 36.2362V39.4837L132.95 40.5056V37.2567Z" fill="#0E0C16"/>
<path d="M137.13 35.4479L139.489 34.4274V37.6749L137.13 38.6968V35.4479Z" fill="#0E0C16"/>
<path d="M141.31 33.639L143.668 32.6185V35.866L141.31 36.8872V33.639Z" fill="#0E0C16"/>
<path d="M145.49 31.8293L147.848 30.8088V34.0563L145.49 35.0782V31.8293Z" fill="#0E0C16"/>
<path d="M149.669 30.0203L152.028 28.9998V32.2473L149.669 33.2685V30.0203Z" fill="#0E0C16"/>
<path d="M153.848 28.2113L156.207 27.1901V30.4383L153.848 31.4595V28.2113Z" fill="#0E0C16"/>
<path d="M158.028 26.402L160.387 25.3814V28.6289L158.028 29.6508V26.402Z" fill="#0E0C16"/>
<path d="M164.567 23.5723V26.8205L162.208 27.841V24.5928L164.567 23.5723Z" fill="#0E0C16"/>
<path d="M168.746 21.7623V25.0112L166.388 26.0318V22.7836L168.746 21.7623Z" fill="#0E0C16"/>
<path d="M172.925 19.9534V23.2016L170.567 24.2228V20.9747L172.925 19.9534Z" fill="#0E0C16"/>
<path d="M177.105 18.1446V21.3927L174.747 22.4133V19.1651L177.105 18.1446Z" fill="#0E0C16"/>
<path d="M188.032 16.8159C189.322 15.789 190.85 15.1741 192.414 14.7734V16.9353C191.005 16.8816 189.566 16.8456 188.032 16.8159Z" fill="#0E0C16"/>
<path d="M197.544 14.2602V17.2462C196.445 17.1444 195.347 17.0787 194.236 17.025V14.4157C195.329 14.2602 196.44 14.2065 197.544 14.2602Z" fill="#0E0C16"/>
<path d="M208.058 18.4759C207.132 18.4519 206.285 18.2908 205.431 18.189C204.571 18.1056 203.759 17.9388 202.929 17.8611C201.729 17.6759 200.541 17.5444 199.365 17.4307V14.4517C200.803 14.6609 202.218 15.0185 203.544 15.5917C204.387 15.9083 205.168 16.3621 205.939 16.8158C206.321 17.0313 206.679 17.3176 207.038 17.5981C207.39 17.8787 207.736 18.1593 208.058 18.4759Z" fill="#0E0C16"/>
<path d="M132.95 44.9422L105.249 58.2713C105.249 58.2713 61.2162 34.6662 29.6185 17.4167C29.5825 17.3984 29.5584 17.3863 29.5464 17.3807L29.5344 17.3743C12.6666 8.16196 -0.206682 1.00832 0.00251352 0.733402C0.533983 0.0174751 9.01842 0.107235 12.374 0.560963C12.774 0.608315 13.1027 0.667675 13.3352 0.733402C14.7564 1.12211 64.5775 19.5772 99.4657 32.517C118.411 39.5441 132.95 44.9422 132.95 44.9422Z" fill="#9A0034"/>
<g opacity="0.100006">
<path d="M132.951 44.9422L105.249 58.2713C105.249 58.2713 61.2163 34.6662 29.6187 17.4167C32.0901 18.6641 88.7361 47.2108 96.1336 42.9244C98.928 41.3053 99.6574 37.132 99.4659 32.517C118.411 39.5441 132.951 44.9422 132.951 44.9422Z" fill="black"/>
</g>
<path d="M136.994 43.1087L128.768 47.0672C107.72 38.2478 20.1779 3.63513 12.8461 0.73325C12.7627 0.697914 12.685 0.667526 12.6193 0.643497C12.5479 0.619469 12.4878 0.596146 12.4397 0.584129C12.4101 0.572117 12.3924 0.56646 12.374 0.560097C12.774 0.608158 13.1027 0.667526 13.3359 0.73325C15.5268 1.33045 136.994 43.1087 136.994 43.1087Z" fill="#9A0034"/>
<g opacity="0.5">
<path d="M136.994 43.1087L128.768 47.0672C107.72 38.2478 20.1779 3.63513 12.8461 0.73325C12.7627 0.697914 12.685 0.667526 12.6193 0.643497C12.5479 0.619469 12.4878 0.596146 12.4397 0.584129C12.4101 0.572117 12.3924 0.56646 12.374 0.560097C12.774 0.608158 13.1027 0.667526 13.3359 0.73325C15.5268 1.33045 136.994 43.1087 136.994 43.1087Z" fill="white"/>
</g>
<path d="M77.664 43.7508C74.955 45.0661 72.0093 46.0993 71.7973 43.3784C71.7097 42.2624 72.5747 41.0695 76.9311 38.9719C77.9537 38.48 80.4485 37.3873 81.1836 39.651C81.8903 41.8299 78.6838 43.2554 77.664 43.7508Z" fill="#9A0034"/>
<g opacity="0.100006">
<path d="M77.664 43.7508C74.955 45.0661 72.0093 46.0993 71.7973 43.3784C71.7097 42.2624 72.5747 41.0695 76.9311 38.9719C77.9537 38.48 80.4485 37.3873 81.1836 39.651C81.8903 41.8299 78.6838 43.2554 77.664 43.7508Z" fill="black"/>
</g>
<path d="M54.2222 31.9088C51.5133 33.224 48.5676 34.2566 48.3549 31.5356C48.2679 30.4197 49.1323 29.2267 53.4893 27.1298C54.512 26.6379 57.0068 25.5453 57.7411 27.8083C58.4485 29.9872 55.242 31.4127 54.2222 31.9088Z" fill="#9A0034"/>
<g opacity="0.100006">
<path d="M54.2222 31.9088C51.5133 33.224 48.5676 34.2566 48.3549 31.5356C48.2679 30.4197 49.1323 29.2267 53.4893 27.1298C54.512 26.6379 57.0068 25.5453 57.7411 27.8083C58.4485 29.9872 55.242 31.4127 54.2222 31.9088Z" fill="black"/>
</g>
<path d="M30.7025 19.9246C28.1795 21.1494 25.4352 22.1119 25.2373 19.5769C25.156 18.5373 25.9617 17.4263 30.0205 15.4728C30.9725 15.0141 33.297 13.9964 33.9811 16.1054C34.6398 18.1344 31.6531 19.4624 30.7025 19.9246Z" fill="#9A0034"/>
<g opacity="0.100006">
<path d="M30.7025 19.9246C28.1795 21.1494 25.4352 22.1119 25.2373 19.5769C25.156 18.5373 25.9617 17.4263 30.0205 15.4728C30.9725 15.0141 33.297 13.9964 33.9811 16.1054C34.6398 18.1344 31.6531 19.4624 30.7025 19.9246Z" fill="black"/>
</g>
<path d="M112.64 41.0688C110.508 44.8604 105.672 46.228 102.609 47.452C94.4766 50.7002 88.5774 52.5271 85.6699 45.141C85.2939 44.1855 85.0847 43.2964 85.019 42.4667C84.5405 36.8954 90.3089 34.113 93.2405 32.573L93.2469 32.5667C96.782 30.7037 99.2839 29.4973 101.146 28.7156C104.185 27.4315 105.541 27.2703 106.938 27.2223C108.58 27.1686 112.294 27.5806 113.511 34.3936C114.013 37.2297 113.596 39.3853 112.64 41.0688Z" fill="#9A0034"/>
<path d="M112.737 35.773C112.737 39.9223 110.142 43.2864 106.941 43.2864C103.74 43.2864 101.145 39.9223 101.145 35.773C101.145 31.6238 103.74 28.2597 106.941 28.2597C110.142 28.2597 112.737 31.6238 112.737 35.773Z" fill="#FFE6DE"/>
<path d="M112.062 35.7728C112.062 39.4387 109.769 42.412 106.94 42.412C104.112 42.412 101.819 39.4387 101.819 35.7728C101.819 32.1063 104.112 29.1337 106.94 29.1337C109.769 29.1337 112.062 32.1063 112.062 35.7728Z" fill="#0E0C16"/>
<path d="M24.4949 57.1091C24.208 57.0137 23.9338 56.9239 23.6772 56.8405C23.9338 56.9239 24.2024 57.0137 24.4949 57.1091Z" fill="#9A0034"/>
</svg>
