<svg width="136" height="118" viewBox="0 0 136 118" fill="none" xmlns="http://www.w3.org/2000/svg">
<path d="M5.5465 56.2771C11.5079 52.8357 21.1422 52.8382 27.0655 56.2796L85.6584 90.2963L105.964 102.097C111.886 105.539 111.86 111.12 105.899 114.562L105.898 114.562C99.9363 118.004 90.2971 118.004 84.3748 114.562L64.0686 102.761L5.47612 68.7446C-0.447147 65.3028 -0.415431 59.7195 5.5465 56.2771Z" fill="#EA5E47" fill-opacity="0.2"/>
<path d="M134.009 90.7706L133.988 90.8816C133.943 91.1427 133.889 91.4024 133.831 91.6532C133.807 91.7548 133.781 91.8564 133.754 91.9585C133.695 92.187 133.627 92.4243 133.55 92.6652L133.517 92.7727C133.501 92.8273 133.484 92.8828 133.465 92.9373C133.348 93.2827 133.231 93.5959 133.108 93.8933L133.09 93.9309L133.052 94.0167C132.936 94.2887 132.806 94.5692 132.666 94.8507C132.625 94.933 132.582 95.0148 132.54 95.0961L132.513 95.1471C132.394 95.3751 132.264 95.6085 132.129 95.8414L132.078 95.9291C132.039 95.9951 132.001 96.0605 131.962 96.1264C131.817 96.3628 131.68 96.5798 131.547 96.7806C126.811 97.8471 121.841 98.3878 116.767 98.3878C105.894 98.3878 95.7008 95.9445 88.0662 91.5075L12.1758 47.4051C7.62728 44.7616 4.35045 41.4778 2.69816 37.9081L2.15796 36.7425L12.0831 31.012L23.4182 24.4668L30.0095 25.5035C36.3486 26.5002 42.1401 28.4458 46.7589 31.13L122.649 75.2334C129.557 79.2466 133.568 84.4379 134.11 89.9756C134.085 90.2165 134.061 90.4578 134.025 90.6873L134.009 90.7706Z" fill="#D8E6F7"/>
<path d="M12.0829 28.3849L23.418 21.8406L23.418 24.4668L12.0829 31.012L2.15772 36.7425L1.19727 34.6695L12.0829 28.3849Z" fill="#9A0034"/>
<path d="M30.0098 22.8764C36.3489 23.8735 42.1408 25.8197 46.7592 28.5033L122.65 72.6062C130.142 76.9604 134.238 82.6979 134.182 88.7624C134.18 88.9933 134.17 89.2367 134.154 89.4859L134.148 89.6019L134.14 89.7327C134.133 89.8155 134.119 89.8938 134.11 89.9756C133.568 84.4379 129.557 79.2466 122.65 75.2328L46.7592 31.1299C42.1408 28.4458 36.3489 26.5001 30.0098 25.5035L23.4185 24.4667L23.4185 21.8406L30.0098 22.8764Z" fill="#9A0034"/>
<path d="M108.477 59.7626L104.393 60.9243L103.427 61.4352L107.551 60.2973L108.477 59.7626Z" fill="#F35E75"/>
<path d="M73.8865 79.7333L69.6512 80.8063L68.7353 81.3459L72.9612 80.2675L73.8865 79.7333Z" fill="#F35E75"/>
<path d="M11.6197 27.582L23.2392 20.8737L30.1527 21.9605C36.6171 22.977 42.4998 24.9559 47.2247 27.7019L115.288 67.2559L114.464 67.8491L46.7589 28.5033C42.1405 25.8197 36.3485 23.8735 30.0095 22.8764L23.4181 21.8406L12.083 28.3849L1.19745 34.6694L2.69808 37.9081C4.35037 41.4778 7.62721 44.7616 12.1757 47.405L84.4746 89.42L83.6505 90.0138L11.7099 48.2064C6.98444 45.4604 3.59063 42.0448 1.85657 38.2976L9.64242e-05 34.2908L11.6197 27.582Z" fill="#F35E75"/>
<path d="M107.551 60.2973L103.427 61.4352L112.8 67.8972L126.011 76.2409L132.539 83.1558L133.814 87.0958L134.548 87.4432L134.548 82.074L131.921 76.7429L126.32 70.9099L112.722 62.8367L107.551 60.2973Z" fill="#9A0034"/>
<path d="M134.625 86.4391C134.625 86.4391 134.625 80.0262 129.063 75.7775C123.501 71.5283 106.426 61.7935 106.426 61.7935L73.8863 81.7266L95.6099 93.7015L121.956 97.796L132.666 94.8507L134.625 86.4391Z" fill="#F0F7FC"/>
<path d="M1.85633 38.2977C3.59038 42.0448 6.98418 45.4604 11.7096 48.2065L68.735 81.346L72.9609 80.2676L74.5572 80.6834L86.1653 87.4432L93.7563 91.345L104.035 94.2997L121.742 95.1694L131.824 93.8368L134.181 88.7625L135.109 84.8939L134.11 92.7936C132.925 98.0666 132.164 96.9104 125.508 98.704C117.186 100.947 115.223 104.394 105.595 110.673C100.222 114.178 93.3053 114.466 87.7492 111.258L87.6531 111.202L11.7636 67.0998C11.7161 67.0725 11.6685 67.0448 11.6219 67.017C5.71695 63.5494 1.92472 57.3679 1.35578 50.5437L-0.000145664 34.2908L1.85633 38.2977Z" fill="url(#paint0_linear_753_13385)"/>
<path d="M88.0662 87.973C95.7007 92.41 105.894 94.8533 116.767 94.8533C121.841 94.8533 126.811 94.3131 131.547 93.2461C131.68 93.0454 131.817 92.8283 131.962 92.5919C132.001 92.526 132.039 92.4606 132.078 92.3947L132.129 92.3069C132.264 92.074 132.394 91.8406 132.513 91.6126L132.54 91.5616C132.582 91.4798 132.625 91.3985 132.666 91.3167C132.806 91.0348 132.936 90.7543 133.052 90.4822L133.09 90.3964L133.108 90.3583C133.231 90.0609 133.348 89.7487 133.465 89.4028C133.484 89.3483 133.501 89.2933 133.517 89.2383L133.55 89.1307C133.626 88.8899 133.695 88.6525 133.754 88.424C133.781 88.3224 133.807 88.2208 133.831 88.1187C133.889 87.8684 133.943 87.6083 133.988 87.3471L134.009 87.2361L134.024 87.1528C134.073 86.846 134.112 86.5244 134.139 86.1983L134.147 86.0675L134.154 85.9515C134.17 85.7027 134.179 85.4589 134.181 85.2279C134.238 79.1634 130.142 73.426 122.649 69.0713L107.551 60.2974L108.477 59.7626L123.115 68.2699C131.005 72.8551 135.166 78.992 135.109 85.2364C135.106 85.4951 135.096 85.7533 135.079 86.012C135.073 86.1002 135.07 86.1879 135.063 86.2766C135.035 86.6171 134.994 86.958 134.94 87.298C134.929 87.3679 134.913 87.4373 134.901 87.5057C134.853 87.7812 134.798 88.0563 134.733 88.3308C134.708 88.4394 134.68 88.5479 134.652 88.6564C134.587 88.9082 134.514 89.1595 134.435 89.4107C134.404 89.5064 134.376 89.6035 134.344 89.6991C134.229 90.0391 134.104 90.3771 133.963 90.7151L133.905 90.8464C133.779 91.1413 133.642 91.4357 133.496 91.7296C133.444 91.8341 133.389 91.9382 133.334 92.0423C133.206 92.2871 133.071 92.5309 132.929 92.7738C132.871 92.8739 132.814 92.974 132.753 93.0746C132.55 93.4066 132.338 93.7387 132.109 94.0683C127.13 95.221 121.924 95.7805 116.767 95.7805C106.014 95.7805 95.4693 93.3477 87.6003 88.7749L72.9612 80.2676L73.8864 79.7333L88.0662 87.973Z" fill="#F35E75"/>
<path d="M106.426 61.7936L101.805 63.1198L74.1741 79.9004L75.5563 80.7037L106.426 61.7936Z" fill="#C6D4EF"/>
<path d="M18.3911 23.2532L18.4565 46.4874L10.6158 41.9305L10.5494 18.6963L18.3911 23.2532Z" fill="#A0B9E5"/>
<path d="M10.5496 18.6962L30.7731 7.02064L38.6138 11.5771L18.3913 23.2531L10.5496 18.6962Z" fill="#F0F7FC"/>
<path d="M26.2509 36.7L26.292 51.0339L18.4508 46.4774L18.425 37.3908L22.7912 38.6972L26.2509 36.7Z" fill="#A0B9E5"/>
<path d="M15.1215 34.211L15.1279 36.404L7.28673 31.848L7.28028 29.6541L15.1215 34.211Z" fill="#A0B9E5"/>
<path d="M18.3849 23.2432L38.6049 11.5691L49.7091 5.15815L57.5503 9.71459L46.4461 16.1255L26.2256 27.8001L15.1215 34.211L7.28027 29.6541L18.3849 23.2432Z" fill="#F0F7FC"/>
<path d="M26.2256 27.8002L46.4461 16.1256L57.5502 9.71469L57.5562 11.9087L49.9305 23.0282L46.4713 25.0259L46.5115 39.3598L26.292 51.0339L26.2508 36.7L22.7911 38.6972L18.425 37.3908L15.1278 36.4041L15.1214 34.2111L26.2256 27.8002Z" fill="#C6D4EF"/>
<path d="M20.2295 25.0644L18.8433 25.8648L10.6968 30.5674L9.1303 29.657L18.6615 24.1535L18.8458 24.2601L20.2295 25.0644Z" fill="#A0B9E5"/>
<path d="M25.7623 26.9966L15.1231 33.1395L10.697 30.5674L18.8434 25.8647L20.2296 25.0643L18.8459 24.26L18.6616 24.1534L18.8434 24.0489L20.2296 23.2485L18.8459 22.4447L13.9668 19.6094L30.7718 9.90727L38.1367 14.1877L38.5971 14.4548L39.06 14.1921L49.7077 8.04485L54.1338 10.617L45.9824 15.3231L25.7623 26.9966Z" fill="#D8E6F7"/>
<path d="M25.7623 26.9967L45.9823 15.3232L55.7003 9.71161L49.7076 6.2296L39.0599 12.3769L38.597 12.6395L38.1366 12.3719L30.7717 8.09203L12.4002 18.6986L18.8458 22.4448L20.2295 23.2486L18.8433 24.049L9.13031 29.6571L15.123 33.1396L25.7623 26.9967ZM18.3795 23.2461L10.5497 18.6961L30.7732 7.02056L38.603 11.5711L38.6049 11.5691L49.7091 5.15815L57.5503 9.71459L46.4461 16.1255L26.2256 27.8001L15.1215 34.211L7.28027 29.6541L18.3795 23.2461Z" fill="#F0F7FC"/>
<path d="M20.2295 23.2486L20.2295 25.0644L18.6615 24.1535L20.2295 23.2486Z" fill="#A0B9E5"/>
<path d="M55.7002 9.71166L54.1336 10.6171L49.7075 8.045L49.7075 6.22965L55.7002 9.71166Z" fill="#739AD6"/>
<path d="M39.0598 12.3769L49.7075 6.22961L49.7075 8.04496L39.0598 14.1922L38.5969 14.4549L38.5969 12.6396L39.0598 12.3769Z" fill="#A0B9E5"/>
<path d="M30.772 8.09203L30.772 9.90736L13.9671 19.6095L12.4005 18.6986L30.772 8.09203Z" fill="#A0B9E5"/>
<path d="M38.1368 12.3719L38.5972 12.6396L38.5972 14.4549L38.1368 14.1878L30.7718 9.90737L30.7718 8.09204L38.1368 12.3719Z" fill="#739AD6"/>
<path d="M38.3199 17.8507L38.2976 17.9811C38.2778 18.0405 38.2401 18.098 38.2079 18.157L38.1474 18.2735C38.1038 18.3359 38.0414 18.3949 37.9824 18.4543L37.8971 18.5485C37.7965 18.6362 37.6801 18.7195 37.5463 18.7968C36.4793 19.4128 34.7571 19.4128 33.6995 18.7983C33.5677 18.7215 33.4517 18.6392 33.3536 18.5515L33.2659 18.4553C33.2094 18.3969 33.1489 18.3399 33.1058 18.2789L33.0458 18.16C33.0136 18.103 32.9774 18.046 32.9581 17.9875L32.9363 17.8587C32.8501 17.3988 33.0999 16.921 33.7119 16.5681C34.7764 15.9531 36.5016 15.9551 37.5592 16.5696C38.0865 16.8759 38.3486 17.2778 38.3486 17.6792C38.3476 17.7362 38.3313 17.7937 38.3199 17.8507Z" fill="#739AD6"/>
<path d="M33.516 15.9432C33.5308 15.9898 33.5606 16.0344 33.5848 16.08L33.6329 16.1737C33.6666 16.2223 33.7152 16.2673 33.7593 16.3139L33.8292 16.3902C33.907 16.4591 33.9987 16.5246 34.1027 16.585C34.9398 17.0717 36.3026 17.0722 37.1481 16.584C37.2542 16.5226 37.3464 16.4567 37.4261 16.3878L37.494 16.3129C37.5401 16.2664 37.5897 16.2193 37.6239 16.1697L37.672 16.0775C37.6972 16.0309 37.727 15.9854 37.7428 15.9383L37.7612 15.8352C37.7696 15.7901 37.7835 15.7445 37.7835 15.6994L37.7835 15.6964L37.7983 17.4716C37.7998 17.7928 37.5872 18.1144 37.1635 18.3592C36.3175 18.8474 34.9546 18.8474 34.1176 18.3607C33.7013 18.1184 33.4922 17.8017 33.4917 17.484L33.4768 15.7083L33.4986 15.8411L33.516 15.9432Z" fill="url(#paint1_linear_753_13385)"/>
<path d="M37.7609 15.835L37.7426 15.9381C37.7267 15.9852 37.697 16.0308 37.6717 16.0774L37.6236 16.1696C37.5894 16.2191 37.5399 16.2662 37.4938 16.3128L37.4259 16.3876C37.3461 16.4565 37.2539 16.5224 37.1479 16.5839C36.3024 17.072 34.9395 17.0715 34.1025 16.5849C33.9984 16.5244 33.9067 16.459 33.8289 16.3901L33.759 16.3138C33.7149 16.2672 33.6663 16.2221 33.6326 16.1735L33.5846 16.0799C33.5603 16.0343 33.5306 15.9897 33.5157 15.9431L33.4983 15.841C33.4305 15.4772 33.6287 15.0991 34.1119 14.8196C34.9554 14.3329 36.3202 14.3339 37.1583 14.8211C37.5761 15.0634 37.7832 15.3811 37.7832 15.6992C37.7832 15.7443 37.7693 15.7899 37.7609 15.835Z" fill="#F0F7FC"/>
<path d="M24.5538 20.2528L24.5315 20.3826C24.5116 20.4421 24.4745 20.5001 24.4423 20.5586L24.3818 20.6755C24.3382 20.738 24.2757 20.797 24.2173 20.8564L24.1315 20.9506C24.0309 21.0383 23.9145 21.1216 23.7806 21.1984C22.7132 21.8149 20.9915 21.8144 19.9339 21.1999C19.8016 21.1235 19.6861 21.0403 19.588 20.9541L19.5003 20.8574C19.4438 20.7989 19.3833 20.7415 19.3402 20.68L19.2802 20.562C19.248 20.5046 19.2118 20.4481 19.1925 20.3891L19.1707 20.2607C19.0845 19.8003 19.3342 19.3231 19.9458 18.9697C21.0108 18.3552 22.7355 18.3567 23.793 18.9717C24.3203 19.278 24.5825 19.6794 24.5825 20.0808C24.5825 20.1383 24.5657 20.1953 24.5538 20.2528Z" fill="#739AD6"/>
<path d="M19.7499 18.3447C19.7647 18.3918 19.7944 18.4364 19.8182 18.4815L19.8668 18.5756C19.9005 18.6237 19.9486 18.6693 19.9932 18.7154L20.0631 18.7917C20.1409 18.8606 20.2321 18.926 20.3361 18.987C21.1737 19.4736 22.5365 19.4736 23.382 18.9855C23.4881 18.9245 23.5798 18.8586 23.6595 18.7892L23.7274 18.7149C23.7735 18.6673 23.8236 18.6212 23.8578 18.5717L23.9058 18.479C23.9306 18.4329 23.9609 18.3873 23.9767 18.3397L23.9946 18.2371C24.0035 18.1916 24.0169 18.1465 24.0169 18.1009L24.0169 18.0979L24.0317 19.8736C24.0332 20.1947 23.8211 20.5164 23.3969 20.7612C22.5514 21.2488 21.1885 21.2488 20.3515 20.7622C19.9352 20.5208 19.7261 20.2031 19.7256 19.886L19.7102 18.1098C19.7102 18.1549 19.7241 18.1985 19.7325 18.2431L19.7499 18.3447Z" fill="url(#paint2_linear_753_13385)"/>
<path d="M23.9943 18.2371L23.9765 18.3397C23.9606 18.3873 23.9304 18.4329 23.9056 18.479L23.8575 18.5717C23.8233 18.6212 23.7733 18.6673 23.7272 18.7149L23.6593 18.7892C23.5795 18.8586 23.4878 18.9245 23.3818 18.9855C22.5363 19.4736 21.1734 19.4736 20.3359 18.987C20.2318 18.926 20.1406 18.8606 20.0628 18.7917L19.9929 18.7154C19.9483 18.6693 19.9002 18.6237 19.8665 18.5756L19.818 18.4815C19.7942 18.4364 19.7645 18.3918 19.7496 18.3447L19.7322 18.2431C19.6639 17.8793 19.8621 17.5007 20.3458 17.2212C21.1893 16.7345 22.5541 16.736 23.3917 17.2227C23.8095 17.4655 24.0166 17.7832 24.0166 18.1008C24.0166 18.1464 24.0032 18.1915 23.9943 18.2371Z" fill="#F0F7FC"/>
<path d="M20.3663 16.8645L20.4154 16.9616L20.4496 17.028L20.5393 17.1276L20.5879 17.1816C20.6434 17.2302 20.7083 17.2768 20.7826 17.3199C21.3768 17.6653 22.3432 17.6653 22.9434 17.3194C23.0182 17.2758 23.0836 17.2292 23.1401 17.1796L23.1877 17.1271L23.2809 17.0255L23.3141 16.9596L23.3656 16.861L23.3775 16.7876L23.3934 16.6915L23.3939 16.6895L23.4043 17.9493C23.4048 18.1773 23.2546 18.4052 22.9543 18.5792C22.3541 18.9246 21.3872 18.9246 20.793 18.5797C20.4977 18.4082 20.35 18.1832 20.349 17.9577L20.3381 16.6979L20.3544 16.7926L20.3663 16.8645Z" fill="url(#paint3_linear_753_13385)"/>
<path d="M23.3772 16.7876L23.3653 16.8609L23.3138 16.9596L23.2806 17.0255L23.1874 17.1271L23.1398 17.1796C23.0833 17.2292 23.0179 17.2757 22.9431 17.3194C22.3429 17.6653 21.3765 17.6653 20.7823 17.3199C20.708 17.2767 20.643 17.2301 20.5875 17.1816L20.539 17.1276L20.4493 17.028L20.4151 16.9615L20.366 16.8644L20.3541 16.7925C20.3051 16.5339 20.4453 16.2657 20.7892 16.0675C21.3869 15.7221 22.3563 15.7231 22.9505 16.0685C23.2459 16.2405 23.3936 16.4655 23.3931 16.6914L23.3772 16.7876Z" fill="#F0F7FC"/>
<path d="M29.865 22.6411L29.8546 22.7005L29.813 22.7813L29.7853 22.8353L29.7099 22.9181L29.6703 22.9612C29.6247 23.0013 29.5707 23.0395 29.5097 23.0752C29.0196 23.3582 28.2286 23.3582 27.7429 23.0757C27.683 23.041 27.6294 23.0028 27.5838 22.9627L27.5437 22.9181L27.4709 22.8373L27.4426 22.7828L27.4025 22.7035L27.3926 22.6445C27.3534 22.4329 27.4679 22.2138 27.7484 22.0518C28.238 21.7693 29.0295 21.7703 29.5157 22.0523C29.757 22.1935 29.8779 22.3774 29.8779 22.5623L29.865 22.6411Z" fill="#739AD6"/>
<path d="M27.9363 0.488191L27.9596 0.532789L27.9755 0.563509L28.0161 0.609608L28.0389 0.634388L28.1291 0.698816C28.4041 0.858396 28.8507 0.858395 29.1282 0.69832L29.2189 0.633892L29.2412 0.609112L29.2843 0.562529L29.3002 0.532293L29.323 0.486206L29.3289 0.452497L29.3363 0.4079L29.3368 0.406908L29.3408 22.4765C29.3418 22.5815 29.2724 22.6871 29.1327 22.7674C28.8561 22.9279 28.4086 22.9279 28.134 22.7679C27.9973 22.6886 27.9289 22.5845 27.9289 22.4804L27.9239 0.410877L27.9313 0.454979L27.9363 0.488191Z" fill="url(#paint4_linear_753_13385)"/>
<path d="M29.329 0.45248L29.323 0.486189L29.3002 0.532275L29.2844 0.562511L29.2413 0.609094L29.219 0.633873L29.1283 0.698302C28.8507 0.858377 28.4042 0.858377 28.1292 0.698798L28.039 0.634369L28.0162 0.609589L27.9755 0.563491L27.9597 0.532771L27.9364 0.488173L27.9314 0.45496C27.9091 0.335523 27.9745 0.21113 28.1326 0.119446C28.4087 -0.0401337 28.8567 -0.0396376 29.1312 0.119942C29.269 0.199732 29.3369 0.303313 29.3364 0.407882L29.329 0.45248Z" fill="#F0F7FC"/>
<path d="M21.1519 43.6654L21.1395 48.094L20.9452 48.2065L20.9581 43.7784L21.1519 43.6654Z" fill="#474D60"/>
<path d="M18.9073 42.5939L19.1006 42.4814L21.1519 43.6654L20.9581 43.7784L18.9073 42.5939Z" fill="#474D60"/>
<path d="M18.9073 42.5939L20.958 43.7784L20.9451 48.2065L18.8939 47.0225L18.9073 42.5939Z" fill="#323643"/>
<path d="M46.4383 18.6742L46.4473 21.9287L46.2228 21.7979L46.2129 18.5434L46.4383 18.6742Z" fill="#323643"/>
<path d="M46.2132 18.5436L49.0455 16.9086L49.2705 17.039L46.4387 18.6744L46.2132 18.5436Z" fill="#323643"/>
<path d="M49.2704 17.0388L49.2798 20.2933L46.4475 21.9287L46.4386 18.6742L49.2704 17.0388Z" fill="#474D60"/>
<path d="M48.8429 17.5672L49.0277 17.4607L49.0347 20.1537L46.6915 21.5067L46.6905 21.296L48.8503 20.0486L48.8429 17.5672Z" fill="#19181A"/>
<path d="M48.8427 17.5672L48.8501 20.0487L46.6903 21.2961L46.6829 18.8141L48.8427 17.5672Z" fill="#262831"/>
<path d="M40.659 21.9339L40.6685 25.1879L40.4435 25.0571L40.4335 21.803L40.659 21.9339Z" fill="#323643"/>
<path d="M40.4329 21.8029L43.2657 20.1674L43.4902 20.2983L40.6584 21.9337L40.4329 21.8029Z" fill="#323643"/>
<path d="M43.4906 20.2984L43.5005 23.553L40.6682 25.1879L40.6588 21.9339L43.4906 20.2984Z" fill="#474D60"/>
<path d="M43.0636 20.8262L43.2479 20.7202L43.2549 23.4132L40.9117 24.7661L40.9112 24.555L43.07 23.3086L43.0636 20.8262Z" fill="#19181A"/>
<path d="M43.0634 20.826L43.0698 23.3084L40.9111 24.5548L40.9041 22.0729L43.0634 20.826Z" fill="#262831"/>
<path d="M34.8788 25.1929L34.8882 28.4474L34.6632 28.3165L34.6543 25.062L34.8788 25.1929Z" fill="#323643"/>
<path d="M34.6541 25.062L37.4859 23.4266L37.7114 23.5579L34.8786 25.1929L34.6541 25.062Z" fill="#323643"/>
<path d="M37.7118 23.5579L37.7207 26.8119L34.8884 28.4474L34.879 25.1929L37.7118 23.5579Z" fill="#474D60"/>
<path d="M37.2838 24.0857L37.4677 23.9797L37.4751 26.6727L35.1325 28.0251L35.1315 27.814L37.2907 26.5676L37.2838 24.0857Z" fill="#19181A"/>
<path d="M37.2841 24.0857L37.291 26.5676L35.1317 27.814L35.1243 25.3326L37.2841 24.0857Z" fill="#262831"/>
<path d="M29.0985 28.4523L29.1079 31.7063L28.8829 31.576L28.874 28.3214L29.0985 28.4523Z" fill="#323643"/>
<path d="M28.8739 28.3213L31.7057 26.6859L31.9312 26.8167L29.0984 28.4522L28.8739 28.3213Z" fill="#323643"/>
<path d="M31.9315 26.8168L31.9404 30.0714L29.1081 31.7063L29.0987 28.4523L31.9315 26.8168Z" fill="#474D60"/>
<path d="M31.504 27.3451L31.6884 27.2391L31.6953 29.9316L29.3527 31.2845L29.3517 31.0734L31.5109 29.8265L31.504 27.3451Z" fill="#19181A"/>
<path d="M31.5033 27.3451L31.5103 29.8265L29.351 31.0734L29.3435 28.592L31.5033 27.3451Z" fill="#262831"/>
<path d="M40.6586 28.4651L40.668 31.7196L40.443 31.5888L40.4331 28.3342L40.6586 28.4651Z" fill="#323643"/>
<path d="M40.4334 28.3343L43.2662 26.6989L43.4907 26.8302L40.6589 28.4651L40.4334 28.3343Z" fill="#323643"/>
<path d="M43.4906 26.8301L43.5005 30.0841L40.6682 31.7196L40.6588 28.465L43.4906 26.8301Z" fill="#474D60"/>
<path d="M43.0631 27.3579L43.2474 27.2518L43.2544 29.9444L40.9113 31.2978L40.9108 31.0867L43.0695 29.8398L43.0631 27.3579Z" fill="#19181A"/>
<path d="M43.0634 27.3581L43.0698 29.84L40.9111 31.0869L40.9041 28.605L43.0634 27.3581Z" fill="#262831"/>
<path d="M34.8788 31.7247L34.8882 34.9788L34.6632 34.8479L34.6543 31.5939L34.8788 31.7247Z" fill="#323643"/>
<path d="M34.6541 31.5938L37.4859 29.9589L37.7114 30.0892L34.8786 31.7246L34.6541 31.5938Z" fill="#323643"/>
<path d="M37.7118 30.0893L37.7207 33.3438L34.8884 34.9788L34.879 31.7247L37.7118 30.0893Z" fill="#474D60"/>
<path d="M37.2838 30.6175L37.4677 30.511L37.4751 33.204L35.1325 34.557L35.1315 34.3464L37.2907 33.0989L37.2838 30.6175Z" fill="#19181A"/>
<path d="M37.2841 30.6176L37.291 33.099L35.1317 34.3464L35.1243 31.8645L37.2841 30.6176Z" fill="#262831"/>
<path d="M29.0985 34.9837L29.1079 38.2383L28.8829 38.1074L28.874 34.8534L29.0985 34.9837Z" fill="#323643"/>
<path d="M28.8739 34.8532L31.7057 33.2178L31.9312 33.3481L29.0984 34.9836L28.8739 34.8532Z" fill="#323643"/>
<path d="M31.9315 33.3483L31.9404 36.6033L29.1081 38.2383L29.0987 34.9837L31.9315 33.3483Z" fill="#474D60"/>
<path d="M31.504 33.8765L31.6884 33.7705L31.6953 36.463L29.3527 37.8165L29.3517 37.6053L31.5109 36.3584L31.504 33.8765Z" fill="#19181A"/>
<path d="M31.5038 33.8765L31.5107 36.3584L29.3515 37.6053L29.344 35.1234L31.5038 33.8765Z" fill="#262831"/>
<path d="M40.6586 34.9971L40.668 38.2511L40.443 38.1208L40.4331 34.8657L40.6586 34.9971Z" fill="#323643"/>
<path d="M40.4334 34.8657L43.2662 33.2307L43.4907 33.3616L40.6589 34.997L40.4334 34.8657Z" fill="#323643"/>
<path d="M43.4906 33.3616L43.5005 36.6162L40.6682 38.2511L40.6588 34.9971L43.4906 33.3616Z" fill="#474D60"/>
<path d="M43.0631 33.8899L43.2474 33.7834L43.2544 36.4764L40.9113 37.8293L40.9108 37.6182L43.0695 36.3713L43.0631 33.8899Z" fill="#19181A"/>
<path d="M43.0634 33.8898L43.0698 36.3712L40.9111 37.6181L40.9041 35.1362L43.0634 33.8898Z" fill="#262831"/>
<path d="M34.8788 38.2561L34.8882 41.5106L34.6632 41.3797L34.6543 38.1252L34.8788 38.2561Z" fill="#323643"/>
<path d="M34.6541 38.1252L37.4859 36.4902L37.7114 36.621L34.8786 38.256L34.6541 38.1252Z" fill="#323643"/>
<path d="M37.7118 36.6211L37.7207 39.8751L34.8884 41.5106L34.879 38.2561L37.7118 36.6211Z" fill="#474D60"/>
<path d="M37.2838 37.1492L37.4677 37.0427L37.4751 39.7357L35.1325 41.0882L35.1315 40.877L37.2907 39.6306L37.2838 37.1492Z" fill="#19181A"/>
<path d="M37.2841 37.1494L37.291 39.6308L35.1317 40.8772L35.1243 38.3958L37.2841 37.1494Z" fill="#262831"/>
<path d="M29.0985 41.5156L29.1079 44.7696L28.8829 44.6393L28.874 41.3847L29.0985 41.5156Z" fill="#323643"/>
<path d="M28.8739 41.3846L31.7057 39.7492L31.9312 39.8805L29.0984 41.5155L28.8739 41.3846Z" fill="#323643"/>
<path d="M31.9315 39.8804L31.9404 43.1345L29.1081 44.7694L29.0987 41.5154L31.9315 39.8804Z" fill="#474D60"/>
<path d="M31.504 40.4082L31.6884 40.3022L31.6953 42.9947L29.3527 44.3482L29.3517 44.1366L31.5109 42.8902L31.504 40.4082Z" fill="#19181A"/>
<path d="M31.5038 40.4084L31.5107 42.8903L29.3515 44.1367L29.344 41.6553L31.5038 40.4084Z" fill="#262831"/>
<path d="M23.3192 31.7113L23.3281 34.9658L23.1026 34.8349L23.0937 31.5804L23.3192 31.7113Z" fill="#323643"/>
<path d="M23.0941 31.5805L25.9269 29.9456L26.1514 30.0764L23.3196 31.7113L23.0941 31.5805Z" fill="#323643"/>
<path d="M26.1512 30.0763L26.1602 33.3308L23.3284 34.9658L23.3195 31.7113L26.1512 30.0763Z" fill="#474D60"/>
<path d="M25.7237 30.6046L25.9081 30.498L25.915 33.1911L23.5724 34.544L23.5714 34.3329L25.7307 33.086L25.7237 30.6046Z" fill="#19181A"/>
<path d="M25.7235 30.6046L25.7305 33.086L23.5712 34.3329L23.5638 31.851L25.7235 30.6046Z" fill="#262831"/>
<path d="M128.114 82.8555C128.094 82.9586 128.095 83.0632 128.061 83.1658C128.013 83.3085 127.923 83.4463 127.846 83.5856C127.795 83.6787 127.766 83.7744 127.702 83.8651C127.596 84.0147 127.448 84.1545 127.309 84.2972C127.236 84.3711 127.185 84.4499 127.104 84.5217C126.864 84.7309 126.586 84.9291 126.267 85.113C123.718 86.5849 119.608 86.5849 117.082 85.1169C116.768 84.9345 116.494 84.7368 116.257 84.5287C116.174 84.4558 116.121 84.3745 116.048 84.2987C115.913 84.1594 115.769 84.0232 115.668 83.877C115.603 83.7848 115.573 83.6881 115.522 83.5945C115.447 83.4572 115.36 83.3219 115.314 83.1816C115.28 83.0801 115.281 82.977 115.262 82.8739C115.056 81.7767 115.653 80.6358 117.113 79.7938C119.655 78.3254 123.771 78.3298 126.297 79.7973C127.556 80.5288 128.182 81.4872 128.18 82.4457C128.18 82.5835 128.14 82.7188 128.114 82.8555Z" fill="#C6D4EF"/>
<path d="M116.644 82.0343C116.682 82.1458 116.751 82.2524 116.81 82.3604C116.85 82.4352 116.874 82.5121 116.924 82.5849C117.005 82.7004 117.119 82.8089 117.226 82.9184C117.285 82.9784 117.326 83.0428 117.392 83.1008C117.579 83.2658 117.796 83.422 118.045 83.5667C120.045 84.7283 123.298 84.7283 125.316 83.5632C125.569 83.4175 125.789 83.2604 125.978 83.0949C126.043 83.0384 126.083 82.9759 126.14 82.917C126.251 82.805 126.369 82.6934 126.452 82.5755C126.502 82.5036 126.526 82.4278 126.566 82.3545C126.627 82.2439 126.698 82.1349 126.736 82.0219C126.763 81.9411 126.763 81.8584 126.779 81.7766C126.798 81.6686 126.831 81.5605 126.832 81.4515L126.832 81.4451L126.868 82.4273C126.871 83.1935 126.365 83.9612 125.352 84.5464C123.335 85.7106 120.081 85.7106 118.081 84.5489C117.087 83.9716 116.589 83.2143 116.587 82.4566L116.55 81.4738C116.551 81.5799 116.584 81.6849 116.603 81.791C116.619 81.8722 116.618 81.954 116.644 82.0343Z" fill="url(#paint5_linear_753_13385)"/>
<path d="M126.778 81.7766C126.762 81.8584 126.763 81.9411 126.736 82.0219C126.698 82.1349 126.627 82.2439 126.566 82.3545C126.525 82.4278 126.502 82.5036 126.451 82.5755C126.368 82.6934 126.251 82.8049 126.14 82.917C126.083 82.9759 126.043 83.0384 125.978 83.0949C125.788 83.2604 125.568 83.4175 125.315 83.5632C123.298 84.7283 120.044 84.7283 118.045 83.5667C117.796 83.4219 117.578 83.2658 117.391 83.1008C117.325 83.0428 117.284 82.9784 117.226 82.9184C117.119 82.8089 117.004 82.7004 116.924 82.5849C116.874 82.512 116.85 82.4352 116.81 82.3604C116.751 82.2524 116.681 82.1458 116.644 82.0343C116.617 81.954 116.619 81.8722 116.603 81.791C116.441 80.9217 116.913 80.0192 118.069 79.3522C120.081 78.19 123.34 78.1935 125.339 79.3552C126.336 79.9345 126.832 80.6927 126.831 81.4515C126.831 81.5605 126.798 81.6686 126.778 81.7766Z" fill="#F0F7FC"/>
<path d="M109.598 89.6367C109.587 89.6952 109.587 89.7546 109.568 89.8131C109.541 89.8949 109.489 89.9727 109.446 90.052C109.417 90.1045 109.4 90.1595 109.364 90.2106C109.304 90.2958 109.219 90.3751 109.14 90.4564C109.099 90.4985 109.07 90.5431 109.023 90.5837C108.888 90.7027 108.729 90.8157 108.547 90.9202C107.098 91.7568 104.761 91.7568 103.325 90.9227C103.146 90.8191 102.99 90.7062 102.856 90.5887C102.809 90.5466 102.779 90.5005 102.737 90.4569C102.66 90.3781 102.578 90.3003 102.52 90.2175C102.484 90.165 102.467 90.11 102.438 90.0569C102.396 89.9786 102.346 89.9018 102.319 89.822C102.3 89.7645 102.301 89.7056 102.29 89.6471C102.173 89.0231 102.513 88.3744 103.342 87.8952C104.788 87.0611 107.129 87.0631 108.565 87.8977C109.28 88.3135 109.637 88.8586 109.636 89.4037C109.636 89.4816 109.612 89.5594 109.598 89.6367Z" fill="#C6D4EF"/>
<path d="M103.076 88.7401C103.097 88.8035 103.136 88.864 103.17 88.9259L103.235 89.0533C103.281 89.1192 103.345 89.1807 103.407 89.2431L103.501 89.3472C103.607 89.4403 103.73 89.5296 103.872 89.6113C105.009 90.2719 106.859 90.2724 108.007 89.6098C108.15 89.5266 108.276 89.4379 108.384 89.3437L108.476 89.2426C108.539 89.1787 108.605 89.1152 108.653 89.0478L108.717 88.9225C108.752 88.8595 108.793 88.7981 108.814 88.7336C108.83 88.6875 108.829 88.64 108.838 88.5939C108.85 88.5319 108.868 88.4705 108.868 88.409L108.869 88.4051L108.89 89.1222C108.89 89.5583 108.603 89.9949 108.027 90.3275C106.88 90.9896 105.029 90.9896 103.893 90.3289C103.328 90.0004 103.044 89.5697 103.043 89.1385L103.022 88.4214C103.023 88.4819 103.041 88.5418 103.052 88.6018C103.062 88.6484 103.061 88.695 103.076 88.7401Z" fill="#323643"/>
<path d="M108.838 88.594C108.829 88.6401 108.83 88.6876 108.814 88.7337C108.793 88.7981 108.752 88.8596 108.717 88.9225L108.653 89.0479C108.605 89.1153 108.539 89.1788 108.476 89.2427L108.384 89.3438C108.276 89.438 108.15 89.5267 108.007 89.6099C106.859 90.2725 105.009 90.272 103.872 89.6114C103.73 89.5296 103.607 89.4404 103.501 89.3473L103.407 89.2432C103.346 89.1807 103.281 89.1193 103.235 89.0534L103.17 88.926C103.136 88.8641 103.097 88.8036 103.076 88.7402C103.061 88.6951 103.062 88.6485 103.052 88.6019C102.96 88.1078 103.229 87.5944 103.885 87.2147C105.03 86.5546 106.883 86.5561 108.02 87.2167C108.587 87.5463 108.869 87.9775 108.868 88.4091C108.868 88.4706 108.85 88.532 108.838 88.594Z" fill="#474D60"/>
<path d="M103.913 84.375C103.927 84.4201 103.956 84.4632 103.98 84.5063L104.026 84.597C104.058 84.6436 104.105 84.6872 104.148 84.7318L104.214 84.8052C104.29 84.8716 104.377 84.935 104.478 84.9935C105.285 85.4618 106.597 85.4618 107.412 84.992C107.513 84.933 107.601 84.8696 107.679 84.8027L107.744 84.7313C107.788 84.6857 107.836 84.6406 107.869 84.5931L107.915 84.5044C107.94 84.4593 107.969 84.4156 107.984 84.3701L108.001 84.2709L108.022 84.1396L108.023 84.1371L108.037 88.4071C108.038 88.7169 107.834 89.0261 107.426 89.262C106.611 89.7318 105.299 89.7318 104.492 89.2635C104.092 89.0301 103.89 88.7248 103.89 88.419L103.875 84.1485L103.896 84.2769L103.913 84.375Z" fill="#262831"/>
<path d="M108.001 84.2708L107.984 84.37C107.969 84.4156 107.94 84.4592 107.915 84.5043L107.869 84.593C107.836 84.6406 107.788 84.6857 107.743 84.7313L107.679 84.8026C107.601 84.8695 107.513 84.933 107.411 84.9919C106.597 85.4617 105.284 85.4618 104.478 84.9934C104.377 84.9349 104.29 84.8715 104.214 84.8051L104.147 84.7317C104.104 84.6876 104.058 84.6435 104.026 84.5969L103.979 84.5063C103.956 84.4631 103.927 84.42 103.913 84.3749L103.896 84.2768C103.83 83.9264 104.021 83.5617 104.487 83.2926C105.299 82.8242 106.614 82.8252 107.421 83.294C107.823 83.528 108.022 83.8337 108.022 84.1395L108.001 84.2708Z" fill="#F0F7FC"/>
<path d="M103.076 84.1113C103.097 84.1748 103.137 84.2357 103.17 84.2972L103.235 84.4241C103.281 84.49 103.346 84.5514 103.407 84.6144L103.501 84.7179C103.607 84.8116 103.731 84.8998 103.873 84.9821C105.01 85.6432 106.86 85.6432 108.007 84.9806C108.151 84.8978 108.277 84.8086 108.384 84.714L108.476 84.6129C108.539 84.5489 108.606 84.486 108.653 84.4191L108.718 84.2932C108.752 84.2303 108.793 84.1688 108.815 84.1044C108.831 84.0578 108.83 84.0107 108.839 83.9646C108.85 83.9032 108.869 83.8417 108.869 83.7803L108.869 83.7763L108.89 84.4929C108.891 84.9291 108.604 85.3652 108.027 85.6982C106.88 86.3603 105.03 86.3603 103.893 85.6997C103.328 85.3711 103.044 84.9405 103.043 84.5093L103.022 83.7927C103.023 83.8526 103.042 83.9126 103.053 83.9731C103.062 84.0192 103.061 84.0657 103.076 84.1113Z" fill="#323643"/>
<path d="M108.838 83.9646C108.829 84.0107 108.83 84.0578 108.814 84.1044C108.793 84.1688 108.752 84.2303 108.717 84.2932L108.653 84.4191C108.605 84.486 108.539 84.5489 108.476 84.6129L108.384 84.714C108.276 84.8086 108.15 84.8978 108.007 84.9806C106.859 85.6432 105.009 85.6432 103.872 84.9821C103.73 84.8998 103.607 84.8116 103.501 84.7179L103.407 84.6143C103.346 84.5514 103.281 84.49 103.235 84.424L103.17 84.2972C103.136 84.2357 103.097 84.1748 103.076 84.1113C103.061 84.0657 103.062 84.0191 103.052 83.973C102.96 83.4785 103.229 82.9655 103.885 82.5854C105.03 81.9248 106.883 81.9268 108.02 82.5874C108.587 82.917 108.869 83.3486 108.868 83.7803C108.868 83.8417 108.85 83.9032 108.838 83.9646Z" fill="#474D60"/>
<path d="M8.73419 55.0163C8.73717 53.8249 9.58165 53.3437 10.6189 53.9423C11.6522 54.5385 12.4908 55.9926 12.4883 57.184C12.4848 58.3709 11.6403 58.8521 10.6075 58.2559L10.6065 58.2554C9.56976 57.6568 8.73023 56.2037 8.73419 55.0163Z" fill="#262831"/>
<path d="M8.70848 54.8919L8.74367 54.7829C8.76349 54.7115 8.78134 54.6377 8.81058 54.5757L8.87549 54.4746C8.90671 54.4246 8.93447 54.3706 8.97115 54.3289L9.06134 54.2541C9.19861 54.1371 9.36612 54.0683 9.55643 54.0529C9.41419 54.2605 9.32698 54.5391 9.32598 54.8939C9.32301 55.9956 10.0981 57.3431 11.0605 57.8982C11.3743 58.0795 11.6657 58.144 11.9214 58.1227C11.8431 58.2367 11.7529 58.3348 11.6409 58.3992C11.5958 58.425 11.5432 58.4374 11.4932 58.4552L11.3822 58.4963C11.3257 58.5072 11.2632 58.5043 11.2023 58.5053L11.0858 58.5112C11.0179 58.5053 10.9446 58.483 10.8727 58.4651L10.7577 58.4398C10.6447 58.4012 10.5268 58.3477 10.4069 58.2778C9.44542 57.7227 8.66884 56.3752 8.67231 55.274C8.67231 55.1358 8.68569 55.0084 8.70848 54.8919Z" fill="#646E8A"/>
<path d="M9.36783 52.9751C9.80345 52.7213 10.4081 52.7565 11.0741 53.1406C12.3939 53.9028 13.4673 55.7622 13.4639 57.2827C13.4614 58.036 13.1933 58.5678 12.7626 58.818L12.1099 59.1977L12.1877 59.1426L12.2601 59.0931L12.3349 59.0217L12.3974 58.9608L12.4643 58.8735L12.5178 58.8032L12.5743 58.7016L12.6189 58.6213L12.6674 58.4999L12.7002 58.4151C12.715 58.3685 12.7269 58.318 12.7388 58.2684L12.7596 58.1872C12.7715 58.1302 12.7785 58.0697 12.7864 58.0092L12.7973 57.9354C12.8047 57.8477 12.8102 57.757 12.8102 57.6623C12.8146 56.1429 11.7407 54.2824 10.421 53.5202C10.3377 53.4726 10.2559 53.43 10.1746 53.3933L10.074 53.3527C10.0284 53.3339 9.98186 53.313 9.93626 53.2972L9.83913 53.2699L9.70531 53.2328L9.61016 53.2179L9.48428 53.1986L9.38913 53.1966L9.27316 53.1946L9.18395 53.205L9.07493 53.2194L8.98919 53.2432L8.88958 53.2724L8.8088 53.3101L8.71761 53.3527L8.71364 53.3552L9.36783 52.9751Z" fill="#646E8A"/>
<path d="M10.4069 58.2777C10.5269 58.3476 10.6448 58.4011 10.7578 58.4398L10.8728 58.465C10.9446 58.4829 11.018 58.5052 11.0859 58.5111L11.2024 58.5052C11.2633 58.5042 11.3258 58.5072 11.3823 58.4963L11.4933 58.4551C11.5433 58.4373 11.5958 58.4254 11.6409 58.3991C11.753 58.3347 11.8432 58.2366 11.9215 58.1226C12.0637 57.9149 12.1519 57.6374 12.1534 57.283C12.1564 56.1774 11.3773 54.8324 10.4188 54.2788C10.1036 54.0969 9.81123 54.032 9.5565 54.0528C9.36619 54.0682 9.19869 54.1371 9.06141 54.254L8.97122 54.3289C8.93455 54.3705 8.90678 54.4245 8.87556 54.4746L8.81065 54.5757C8.78141 54.6376 8.76356 54.7114 8.74374 54.7828L8.70855 54.8918C8.68576 55.0083 8.67238 55.1357 8.67238 55.2739C8.66891 56.3751 9.4455 57.7226 10.4069 58.2777ZM8.71747 53.3525L8.80866 53.3099L8.88944 53.2723L8.98905 53.243L9.07479 53.2192L9.18382 53.2049L9.27302 53.1944L9.389 53.1964L9.48415 53.1984L9.61003 53.2177L9.70518 53.2326L9.839 53.2698L9.93613 53.297C9.98172 53.3129 10.0283 53.3337 10.0739 53.3525L10.1745 53.3932C10.2558 53.4298 10.3376 53.4725 10.4208 53.52C11.7406 54.2823 12.8145 56.1427 12.81 57.6622C12.81 57.7568 12.8046 57.8475 12.7972 57.9352L12.7863 58.0091C12.7783 58.0696 12.7714 58.13 12.7595 58.187L12.7387 58.2683C12.7268 58.3178 12.7149 58.3684 12.7 58.415L12.6673 58.4997L12.6187 58.6211L12.5741 58.7014L12.5176 58.803L12.4641 58.8734L12.3972 58.9606L12.3348 59.0216L12.2599 59.0929L12.1876 59.1425C11.747 59.4508 11.1112 59.4408 10.405 59.033C9.08124 58.2693 8.00779 56.4093 8.01225 54.8928C8.01423 54.1346 8.28433 53.6023 8.71747 53.3525Z" fill="#A5AAB7"/>
<path d="M18.2254 60.5417C18.2289 59.3503 19.0738 58.8691 20.1106 59.4677C21.1434 60.0644 21.9834 61.518 21.9795 62.7099C21.976 63.8963 21.131 64.3775 20.0987 63.7818L20.0977 63.7813C19.0615 63.1827 18.2219 61.7286 18.2254 60.5417Z" fill="#262831"/>
<path d="M18.2002 60.4176L18.2349 60.3081C18.2557 60.2372 18.2726 60.1624 18.3023 60.1014L18.3677 60.0003C18.3974 59.9503 18.4257 59.8963 18.4624 59.8546L18.5536 59.7793C18.6903 59.6623 18.8569 59.5935 19.0481 59.5781C18.9059 59.7857 18.8182 60.0643 18.8177 60.4191C18.8137 61.5213 19.5898 62.8683 20.5523 63.4239C20.866 63.6053 21.1574 63.6692 21.4126 63.6479C21.3343 63.7619 21.2436 63.86 21.1331 63.9244C21.0875 63.9507 21.0345 63.9631 20.9849 63.9804L20.8734 64.0215C20.8179 64.0329 20.7545 64.03 20.6935 64.031L20.5775 64.0364C20.5091 64.0305 20.4363 64.0087 20.3639 63.9898L20.2495 63.965C20.136 63.9264 20.019 63.8729 19.8986 63.8035C18.9366 63.2479 18.1611 61.9009 18.164 60.7992C18.1645 60.6615 18.1769 60.5341 18.2002 60.4176Z" fill="#646E8A"/>
<path d="M18.8585 58.5008C19.2951 58.2466 19.9003 58.2818 20.5653 58.6664C21.8856 59.4281 22.959 61.288 22.9556 62.808C22.9531 63.5618 22.6855 64.0931 22.2543 64.3433L21.6006 64.723L21.6794 64.6684L21.7508 64.6184L21.8261 64.547L21.8886 64.4861L21.956 64.3988L22.009 64.3285L22.066 64.2269L22.1106 64.1466L22.1582 64.0252L22.1919 63.9409C22.2067 63.8943 22.2176 63.8433 22.2305 63.7937L22.2513 63.712C22.2627 63.656 22.2697 63.595 22.2776 63.535L22.2885 63.4607C22.2969 63.3735 22.3009 63.2823 22.3009 63.1876C22.3058 61.6677 21.2319 59.8082 19.9122 59.0455C19.8289 58.9979 19.7471 58.9558 19.6668 58.9186L19.5657 58.878C19.5196 58.8592 19.4731 58.8378 19.4275 58.8225L19.3303 58.7952L19.197 58.7586L19.1009 58.7432L18.9755 58.7244L18.8803 58.7224L18.7649 58.7199L18.6757 58.7308L18.5666 58.7447L18.4804 58.769L18.3808 58.7972L18.2995 58.8359L18.2098 58.8785L18.2048 58.8805L18.8585 58.5008Z" fill="#646E8A"/>
<path d="M19.8986 63.8036C20.0191 63.873 20.136 63.9265 20.2495 63.9652L20.364 63.9899C20.4364 64.0088 20.5092 64.0306 20.5776 64.0365L20.6936 64.0311C20.7545 64.0301 20.818 64.0331 20.8735 64.0217L20.985 63.9805C21.0345 63.9632 21.0876 63.9508 21.1332 63.9245C21.2437 63.8601 21.3344 63.762 21.4127 63.648C21.5544 63.4403 21.6431 63.1628 21.6446 62.8085C21.6476 61.7033 20.869 60.3578 19.91 59.8042C19.5949 59.6223 19.3034 59.5574 19.0482 59.5782C18.8569 59.5936 18.6904 59.6625 18.5536 59.7794L18.4624 59.8547C18.4258 59.8964 18.3975 59.9504 18.3678 60.0005L18.3024 60.1016C18.2726 60.1625 18.2558 60.2373 18.235 60.3082L18.2003 60.4177C18.177 60.5342 18.1646 60.6616 18.1641 60.7993C18.1611 61.901 18.9367 63.248 19.8986 63.8036ZM18.2097 58.8784L18.2994 58.8358L18.3807 58.7972L18.4803 58.7689L18.5665 58.7446L18.6755 58.7308L18.7647 58.7199L18.8802 58.7223L18.9754 58.7243L19.1007 58.7431L19.1969 58.7585L19.3302 58.7952L19.4273 58.8224C19.4729 58.8378 19.5195 58.8591 19.5656 58.8779L19.6667 58.9186C19.747 58.9557 19.8288 58.9979 19.912 59.0455C21.2318 59.8082 22.3057 61.6676 22.3008 63.1876C22.3008 63.2822 22.2968 63.3734 22.2884 63.4607L22.2775 63.535C22.2695 63.595 22.2626 63.6559 22.2512 63.7119L22.2304 63.7937C22.2175 63.8432 22.2066 63.8943 22.1917 63.9409L22.158 64.0251L22.1105 64.1466L22.0659 64.2268L22.0089 64.3284L21.9558 64.3988L21.8884 64.486L21.826 64.547L21.7507 64.6183L21.6793 64.6684C21.2382 64.9762 20.6029 64.9662 19.8967 64.5584C18.5739 63.7942 17.4995 61.9347 17.504 60.4177C17.5054 59.6605 17.7755 59.1272 18.2097 58.8784Z" fill="#A5AAB7"/>
<path d="M27.7161 66.0095C27.7201 64.8181 28.5646 64.3364 29.6018 64.9356C30.6341 65.5318 31.4737 66.9853 31.4702 68.1772C31.4667 69.3641 30.6218 69.8449 29.589 69.2492L29.5885 69.2487C28.5527 68.65 27.7127 67.1964 27.7161 66.0095Z" fill="#262831"/>
<path d="M27.6909 65.8851L27.7266 65.7756C27.7469 65.7047 27.7643 65.6304 27.793 65.5689L27.8584 65.4678C27.8896 65.4178 27.9164 65.3637 27.9531 65.3221L28.0443 65.2473C28.181 65.1298 28.3476 65.0614 28.5384 65.0456C28.3971 65.2537 28.3089 65.5317 28.3079 65.8871C28.3049 66.9888 29.0805 68.3363 30.043 68.8913C30.3572 69.0727 30.6481 69.1366 30.9038 69.1153C30.825 69.2293 30.7348 69.3279 30.6233 69.3919C30.5782 69.4181 30.5252 69.431 30.4756 69.4479L30.3651 69.489C30.3081 69.5009 30.2457 69.4974 30.1842 69.4984L30.0683 69.5039C30.0004 69.4979 29.9275 69.4761 29.8547 69.4578L29.7407 69.4325C29.6267 69.3939 29.5097 69.3403 29.3893 69.271C28.4279 68.7154 27.6518 67.3684 27.6547 66.2667C27.6552 66.1289 27.6671 66.0016 27.6909 65.8851Z" fill="#646E8A"/>
<path d="M28.3493 63.9681C28.7864 63.7138 29.391 63.7495 30.0571 64.1336C31.3768 64.8958 32.4502 66.7558 32.4458 68.2752C32.4438 69.029 32.1762 69.5603 31.7455 69.8106L31.0918 70.1902L31.1706 70.1357L31.2415 70.0861L31.3173 70.0142L31.3803 69.9533L31.4467 69.8661L31.5002 69.7957L31.5572 69.6941L31.6013 69.6143L31.6494 69.4929L31.6821 69.4086C31.6979 69.3616 31.7088 69.311 31.7207 69.261L31.7421 69.1797C31.7535 69.1232 31.7604 69.0622 31.7683 69.0023L31.7792 68.9284C31.7876 68.8407 31.7921 68.75 31.7931 68.6553C31.7971 67.1354 30.7226 65.2754 29.4029 64.5132C29.3201 64.4651 29.2378 64.4235 29.1576 64.3858L29.0565 64.3457C29.0104 64.3264 28.9638 64.3061 28.9187 64.2902L28.8211 64.2629L28.6877 64.2258L28.5921 64.2109L28.4667 64.1916L28.3711 64.1896L28.2561 64.1871L28.1664 64.198L28.0573 64.2124L27.9721 64.2362L27.8715 64.2649L27.7902 64.3031L27.701 64.3457L27.6966 64.3477L28.3493 63.9681Z" fill="#646E8A"/>
<path d="M29.3894 69.2709C29.5098 69.3403 29.6267 69.3938 29.7407 69.4325L29.8547 69.4578C29.9276 69.4761 30.0004 69.4979 30.0683 69.5038L30.1843 69.4984C30.2457 69.4974 30.3082 69.5009 30.3652 69.489L30.4757 69.4479C30.5252 69.431 30.5783 69.4181 30.6234 69.3918C30.7349 69.3279 30.8251 69.2293 30.9039 69.1153C31.0456 68.9077 31.1343 68.6301 31.1348 68.2758C31.1378 67.1706 30.3592 65.8251 29.4008 65.272C29.0856 65.0901 28.7941 65.0247 28.5384 65.0455C28.3476 65.0614 28.1811 65.1298 28.0443 65.2472L27.9531 65.3221C27.9165 65.3637 27.8897 65.4177 27.8585 65.4678L27.7931 65.5689C27.7643 65.6303 27.747 65.7047 27.7267 65.7755L27.691 65.8851C27.6672 66.0015 27.6553 66.1289 27.6548 66.2667C27.6518 67.3684 28.4279 68.7154 29.3894 69.2709ZM27.7009 64.3458L27.7901 64.3031L27.8714 64.265L27.972 64.2362L28.0572 64.2125L28.1662 64.1981L28.2559 64.1872L28.3709 64.1897L28.4666 64.1916L28.5919 64.211L28.6876 64.2258L28.8209 64.263L28.9185 64.2903C28.9636 64.3061 29.0102 64.3264 29.0563 64.3458L29.1574 64.3859C29.2377 64.4236 29.32 64.4652 29.4027 64.5133C30.7225 65.2755 31.7969 67.1354 31.793 68.6554C31.792 68.7501 31.7875 68.8408 31.7791 68.9285L31.7682 69.0023C31.7602 69.0623 31.7533 69.1232 31.7419 69.1797L31.7206 69.261C31.7087 69.3111 31.6978 69.3616 31.6819 69.4087L31.6492 69.4929L31.6012 69.6144L31.5571 69.6942L31.5001 69.7958L31.4465 69.8661L31.3801 69.9534L31.3172 70.0143L31.2414 70.0862L31.1705 70.1357C30.7289 70.4435 30.0931 70.4336 29.3869 70.0262C28.0641 69.262 26.9907 67.4021 26.9952 65.8856C26.9971 65.1278 27.2672 64.595 27.7009 64.3458Z" fill="#A5AAB7"/>
<path d="M37.2073 71.5382C37.2108 70.3468 38.0558 69.8656 39.0925 70.4638C40.1253 71.0605 40.9649 72.5145 40.9619 73.7054C40.9589 74.8928 40.1144 75.3746 39.0806 74.7779C38.0434 74.1787 37.2048 72.7251 37.2073 71.5382Z" fill="#262831"/>
<path d="M37.1826 71.4139L37.2178 71.3048C37.2376 71.2335 37.2555 71.1596 37.2847 71.0977L37.3496 70.9971C37.3804 70.947 37.4081 70.8925 37.4453 70.8509L37.5355 70.776C37.6728 70.6586 37.8393 70.5902 38.0311 70.5753C37.8883 70.7825 37.8006 71.061 37.7996 71.4158C37.7967 72.518 38.5723 73.865 39.5342 74.4201C39.8484 74.602 40.1398 74.6659 40.3945 74.6446C40.3167 74.7586 40.2265 74.8567 40.115 74.9211C40.0694 74.9474 40.0169 74.9598 39.9668 74.9771L39.8563 75.0178C39.7998 75.0297 39.7364 75.0262 39.6764 75.0272L39.56 75.0331C39.4921 75.0272 39.4187 75.0054 39.3469 74.9866L39.2319 74.9618C39.1189 74.9231 39.0014 74.8696 38.8805 74.7997C37.9186 74.2447 37.143 72.8976 37.1455 71.7955C37.1465 71.6582 37.1598 71.5308 37.1826 71.4139Z" fill="#646E8A"/>
<path d="M37.841 69.4969C38.2781 69.2437 38.8817 69.2779 39.5483 69.6625C40.868 70.4247 41.9415 72.2846 41.937 73.8051C41.9345 74.5579 41.6669 75.0892 41.2367 75.3394L40.583 75.7195L40.6618 75.665L40.7337 75.615L40.808 75.5431L40.8715 75.4827L40.9384 75.3954L40.9909 75.3251L41.0484 75.2235L41.093 75.1427L41.1406 75.0223L41.1743 74.9375C41.1896 74.8909 41.2001 74.8404 41.2119 74.7903L41.2338 74.7085C41.2452 74.6521 41.2526 74.5916 41.2595 74.5311L41.2704 74.4573C41.2789 74.3701 41.2833 74.2789 41.2843 74.1847C41.2883 72.6642 40.2148 70.8043 38.8946 70.0421C38.8118 69.9945 38.73 69.9519 38.6488 69.9152L38.5482 69.8746C38.5016 69.8557 38.455 69.8349 38.4099 69.8196L38.3128 69.7923C38.2677 69.7794 38.2226 69.7641 38.1785 69.7546L38.0843 69.7403L37.9584 69.7205L37.8623 69.7185L37.7473 69.7165L37.6586 69.7274L37.5486 69.7408L37.4633 69.7651L37.3637 69.7943L37.2819 69.832L37.1917 69.8746L37.1873 69.8766L37.841 69.4969Z" fill="#646E8A"/>
<path d="M38.8806 74.7997C39.0015 74.8696 39.1189 74.9231 39.2319 74.9618L39.3469 74.9866C39.4188 75.0054 39.4921 75.0272 39.56 75.0332L39.6765 75.0272C39.7364 75.0262 39.7999 75.0297 39.8564 75.0178L39.9669 74.9772C40.0169 74.9598 40.0695 74.9474 40.1151 74.9212C40.2266 74.8567 40.3168 74.7586 40.3946 74.6446C40.5373 74.4375 40.626 74.1594 40.6265 73.8051C40.6305 72.6999 39.8504 71.3544 38.892 70.8008C38.5768 70.6185 38.2854 70.5545 38.0311 70.5753C37.8393 70.5902 37.6728 70.6586 37.5355 70.776L37.4453 70.8509C37.4082 70.8925 37.3804 70.947 37.3497 70.9971L37.2848 71.0977C37.2555 71.1596 37.2377 71.2335 37.2179 71.3049L37.1827 71.4139C37.1599 71.5308 37.1465 71.6582 37.1455 71.7955C37.143 72.8977 37.9186 74.2447 38.8806 74.7997ZM37.1916 69.8746L37.2818 69.832L37.3636 69.7943L37.4632 69.7651L37.5484 69.7408L37.6584 69.7274L37.7471 69.7165L37.8621 69.7185L37.9583 69.7205L38.0842 69.7403L38.1783 69.7546C38.2224 69.7641 38.2675 69.7794 38.3126 69.7923L38.4098 69.8196C38.4549 69.8349 38.5014 69.8557 38.548 69.8746L38.6486 69.9152C38.7299 69.9519 38.8117 69.9945 38.8944 70.0421C40.2147 70.8043 41.2881 72.6642 41.2842 74.1847C41.2832 74.2789 41.2787 74.3701 41.2703 74.4573L41.2594 74.5311C41.2525 74.5916 41.245 74.6521 41.2336 74.7085L41.2118 74.7903C41.1999 74.8404 41.1895 74.8909 41.1741 74.9375L41.1404 75.0223L41.0929 75.1427L41.0483 75.2235L40.9908 75.3251L40.9382 75.3954L40.8713 75.4827L40.8079 75.5431L40.7336 75.615L40.6617 75.665C40.2201 75.9728 39.5853 75.9629 38.8786 75.555C37.5559 74.7913 36.4824 72.9314 36.4864 71.4144C36.4884 70.6571 36.7585 70.1244 37.1916 69.8746Z" fill="#A5AAB7"/>
<path d="M46.6995 77.1538C46.7025 75.9624 47.547 75.4811 48.5837 76.0798C49.6171 76.6765 50.4566 78.1296 50.4526 79.3215C50.4496 80.5084 49.6052 80.9901 48.5724 80.3934L48.5719 80.3929C47.5346 79.7947 46.6961 78.3407 46.6995 77.1538Z" fill="#262831"/>
<path d="M46.6738 77.0293L46.7085 76.9203C46.7288 76.8485 46.7467 76.7751 46.7754 76.7132L46.8408 76.6125C46.8716 76.562 46.8988 76.508 46.936 76.4664L47.0267 76.3915C47.164 76.2746 47.331 76.2057 47.5223 76.1903C47.38 76.398 47.2923 76.6765 47.2908 77.0313C47.2879 78.133 48.064 79.4805 49.0254 80.0356C49.3401 80.217 49.6315 80.2809 49.8862 80.2596C49.8084 80.3741 49.7182 80.4722 49.6062 80.5366C49.5606 80.5624 49.5086 80.5753 49.458 80.5926L49.3475 80.6333C49.291 80.6447 49.2286 80.6417 49.1676 80.6432L49.0512 80.6481C48.9833 80.6427 48.9099 80.6204 48.8381 80.6025L48.7236 80.5773C48.6096 80.5386 48.4921 80.4846 48.3727 80.4157C47.4098 79.8596 46.6342 78.5126 46.6381 77.4109C46.6381 77.2732 46.6505 77.1458 46.6738 77.0293Z" fill="#646E8A"/>
<path d="M47.3322 75.1124C47.7688 74.8587 48.3729 74.8934 49.0385 75.2779C50.3587 76.0397 51.4322 77.8996 51.4282 79.4201C51.4257 80.1734 51.1581 80.7051 50.7279 80.9549L50.0743 81.335L50.1526 81.28L50.2244 81.2305L50.2998 81.1591L50.3622 81.0981L50.4291 81.0109L50.4826 80.9405L50.5396 80.8384L50.5842 80.7587L50.6318 80.6372L50.665 80.5525C50.6804 80.5064 50.6913 80.4554 50.7037 80.4053L50.725 80.324C50.7359 80.2675 50.7433 80.2071 50.7507 80.1471L50.7621 80.0728C50.7701 79.985 50.7745 79.8948 50.7745 79.7997C50.779 78.2797 49.7055 76.4203 48.3858 75.6576C48.3025 75.61 48.2208 75.5674 48.1395 75.5307L48.0394 75.4901C47.9933 75.4712 47.9462 75.4504 47.9011 75.4345L47.8035 75.4073C47.7584 75.3944 47.7143 75.3795 47.6702 75.3701L47.5745 75.3553L47.4491 75.3359L47.353 75.3339L47.2385 75.3315L47.1493 75.3424L47.0393 75.3562L46.954 75.3805L46.8544 75.4093L46.7732 75.4474L46.683 75.4901L46.6785 75.492L47.3322 75.1124Z" fill="#646E8A"/>
<path d="M48.3728 80.4157C48.4922 80.4846 48.6097 80.5386 48.7236 80.5773L48.8381 80.6025C48.91 80.6204 48.9833 80.6427 49.0512 80.6481L49.1677 80.6432C49.2286 80.6417 49.2911 80.6447 49.3476 80.6333L49.4581 80.5926C49.5087 80.5753 49.5607 80.5624 49.6063 80.5366C49.7183 80.4722 49.8085 80.3741 49.8863 80.2596C50.0285 80.0524 50.1167 79.7749 50.1187 79.4206C50.1212 78.3154 49.3431 76.9694 48.3832 76.4158C48.0685 76.2344 47.7771 76.1695 47.5223 76.1903C47.331 76.2057 47.164 76.2746 47.0267 76.3915L46.9361 76.4664C46.8989 76.508 46.8716 76.562 46.8409 76.6125L46.7755 76.7132C46.7467 76.7751 46.7289 76.8485 46.7086 76.9203L46.6739 77.0293C46.6506 77.1458 46.6382 77.2732 46.6382 77.4109C46.6342 78.5126 47.4098 79.8596 48.3728 80.4157ZM46.6833 75.49L46.7735 75.4474L46.8548 75.4093L46.9544 75.3805L47.0396 75.3562L47.1497 75.3424L47.2389 75.3315L47.3533 75.3339L47.4495 75.3359L47.5749 75.3552L47.6705 75.3701C47.7146 75.3795 47.7587 75.3944 47.8038 75.4073L47.9015 75.4345C47.9466 75.4504 47.9936 75.4712 48.0397 75.49L48.1398 75.5307C48.2211 75.5674 48.3029 75.61 48.3861 75.6576C49.7059 76.4203 50.7793 78.2797 50.7749 79.7997C50.7749 79.8948 50.7704 79.985 50.7625 80.0728L50.7511 80.1471C50.7437 80.2071 50.7362 80.2675 50.7253 80.324L50.704 80.4053C50.6916 80.4553 50.6807 80.5064 50.6654 80.5525L50.6322 80.6372L50.5846 80.7587L50.54 80.8384L50.483 80.9405L50.4295 81.0109L50.3626 81.0981L50.3001 81.1591L50.2248 81.2305L50.1529 81.28C49.7123 81.5883 49.0765 81.5779 48.3703 81.17C47.0471 80.4068 45.9731 78.5468 45.9776 77.0298C45.9801 76.2726 46.2497 75.7393 46.6833 75.49Z" fill="#A5AAB7"/>
<path d="M56.1902 82.6667C56.1932 81.4753 57.0387 80.9941 58.0755 81.5922C59.1083 82.1889 59.9473 83.6425 59.9443 84.8344C59.9409 86.0208 59.0959 86.5025 58.0631 85.9068L58.0626 85.9063C57.0258 85.3072 56.1868 83.8536 56.1902 82.6667Z" fill="#262831"/>
<path d="M56.165 82.5427L56.1997 82.4327C56.2196 82.3613 56.2379 82.2875 56.2671 82.226L56.3316 82.1249C56.3623 82.0749 56.3905 82.0209 56.4272 81.9792L56.5184 81.9039C56.6547 81.7869 56.8217 81.7181 57.013 81.7032C56.8708 81.9103 56.783 82.1889 56.7816 82.5437C56.7791 83.6459 57.5547 84.9934 58.5161 85.5485C58.8308 85.7298 59.1222 85.7938 59.3774 85.7725C59.2991 85.887 59.2089 85.9851 59.0974 86.0495C59.0518 86.0753 58.9993 86.0882 58.9488 86.105L58.8382 86.1461C58.7817 86.1575 58.7193 86.1546 58.6583 86.1561L58.5419 86.161C58.474 86.1551 58.4006 86.1333 58.3293 86.1149L58.2143 86.0896C58.1008 86.051 57.9838 85.9975 57.8634 85.9286C56.9015 85.3725 56.1259 84.026 56.1289 82.9238C56.1294 82.7861 56.1413 82.6587 56.165 82.5427Z" fill="#646E8A"/>
<path d="M56.8234 80.6249C57.26 80.3716 57.8651 80.4068 58.5302 80.7909C59.8499 81.5526 60.9244 83.4125 60.9199 84.933C60.9179 85.6863 60.6503 86.2176 60.2186 86.4679L59.5655 86.8475L59.6438 86.793L59.7156 86.7434L59.791 86.6715L59.8534 86.6111L59.9208 86.5239L59.9738 86.453L60.0308 86.3514L60.0749 86.2716L60.1235 86.1502L60.1562 86.0659C60.1716 86.0188 60.183 85.9683 60.1954 85.9182L60.2157 85.837C60.2276 85.7805 60.2345 85.72 60.2424 85.6595L60.2533 85.5857C60.2618 85.498 60.2662 85.4073 60.2662 85.3126C60.2707 83.7927 59.1967 81.9327 57.877 81.1705C57.7937 81.1224 57.712 81.0798 57.6307 81.0431L57.5306 81.0025C57.4845 80.9842 57.4379 80.9628 57.3923 80.9475L57.2952 80.9202L57.1614 80.8826L57.0662 80.8682L56.9403 80.8489L56.8452 80.8469L56.7292 80.8449L56.6405 80.8553L56.5315 80.8692L56.4452 80.8935L56.3456 80.9222L56.2644 80.9604L56.1746 81.003L56.1697 81.005L56.8234 80.6249Z" fill="#646E8A"/>
<path d="M57.8635 85.9287C57.9829 85.9976 58.1009 86.0511 58.2144 86.0898L58.3293 86.115C58.4007 86.1334 58.474 86.1552 58.5419 86.1611L58.6584 86.1562C58.7194 86.1547 58.7818 86.1577 58.8383 86.1463L58.9488 86.1051C58.9994 86.0883 59.0519 86.0754 59.0975 86.0496C59.209 85.9852 59.2992 85.8871 59.3775 85.7726C59.5197 85.5649 59.608 85.2879 59.6094 84.9336C59.6119 83.8279 58.8334 82.4824 57.8749 81.9288C57.5597 81.7474 57.2683 81.682 57.0131 81.7033C56.8218 81.7182 56.6547 81.7871 56.5185 81.904L56.4273 81.9793C56.3906 82.021 56.3623 82.075 56.3316 82.125L56.2672 82.2261C56.2379 82.2876 56.2196 82.3614 56.1998 82.4328L56.1651 82.5428C56.1413 82.6588 56.1294 82.7862 56.1289 82.9239C56.1259 84.0261 56.9015 85.3726 57.8635 85.9287ZM56.1745 81.003L56.2642 80.9604L56.3455 80.9223L56.4451 80.8935L56.5313 80.8692L56.6404 80.8554L56.7291 80.8449L56.8451 80.8469L56.9402 80.8489L57.0661 80.8682L57.1612 80.8826L57.295 80.9203L57.3922 80.9475C57.4378 80.9629 57.4844 80.9842 57.5304 81.0025L57.6306 81.0432C57.7118 81.0799 57.7936 81.1225 57.8769 81.1705C59.1966 81.9328 60.2706 83.7927 60.2661 85.3127C60.2661 85.4073 60.2616 85.498 60.2532 85.5857L60.2423 85.6596C60.2344 85.72 60.2274 85.7805 60.2155 85.837L60.1952 85.9183C60.1828 85.9683 60.1714 86.0189 60.1561 86.066L60.1234 86.1502L60.0748 86.2716L60.0307 86.3514L59.9737 86.453L59.9207 86.5239L59.8533 86.6111L59.7908 86.6716L59.7155 86.7434L59.6436 86.793C59.2031 87.1013 58.5672 87.0908 57.861 86.6835C56.5383 85.9193 55.4643 84.0593 55.4683 82.5428C55.4703 81.7851 55.7404 81.2523 56.1745 81.003Z" fill="#A5AAB7"/>
<path d="M11.4377 22.8719L11.4907 41.7653L6.23055 38.7085L6.17703 19.8152L11.4377 22.8719Z" fill="#739AD6"/>
<path d="M16.7326 19.8152L16.7856 38.7085L11.4908 41.7653L11.4378 22.872L16.7326 19.8152Z" fill="#C6D4EF"/>
<path d="M6.17688 19.8151L11.4723 16.7583L16.7324 19.8151L11.4376 22.8719L6.17688 19.8151Z" fill="#A0B9E5"/>
<path d="M16.7417 23.2486L11.4473 26.2167L11.4642 27.2391L16.7417 24.1565L16.7417 23.2486Z" fill="#739AD6"/>
<path d="M103.145 57.807L103.208 57.862C103.318 57.9265 103.499 57.9265 103.611 57.8615L103.675 57.8065L103.682 57.7852L103.696 57.7441L103.696 57.7436L103.703 60.8673C103.703 60.9104 103.675 60.953 103.619 60.9857C103.507 61.0507 103.326 61.0507 103.215 60.9857C103.16 60.954 103.132 60.9119 103.132 60.8698L103.125 57.7456L103.138 57.7862L103.145 57.807Z" fill="#323643"/>
<path d="M103.681 57.7852L103.674 57.8065L103.611 57.8615C103.499 57.9264 103.318 57.9264 103.208 57.862L103.145 57.807L103.138 57.7862C103.114 57.7316 103.134 57.6707 103.209 57.6276C103.321 57.5636 103.502 57.5627 103.614 57.6276C103.669 57.6598 103.696 57.7019 103.696 57.744L103.681 57.7852Z" fill="#323643"/>
<path d="M91.0794 50.8573L91.1428 50.9123C91.2534 50.9762 91.4333 50.9762 91.5463 50.9113L91.6092 50.8568L91.6166 50.8355L91.63 50.7943L91.6305 50.7934L91.6379 53.9171C91.6379 53.9602 91.6092 54.0033 91.5532 54.036C91.4407 54.1004 91.2603 54.1004 91.1498 54.036C91.0938 54.0038 91.0665 53.9622 91.0665 53.92L91.0591 50.7958L91.073 50.8365L91.0794 50.8573Z" fill="#323643"/>
<path d="M91.6167 50.8355L91.6093 50.8568L91.5464 50.9114C91.4334 50.9763 91.2535 50.9763 91.143 50.9124L91.0795 50.8573L91.0731 50.8365C91.0483 50.7815 91.0691 50.7211 91.1435 50.6779C91.2555 50.6135 91.4364 50.613 91.5484 50.6779C91.6039 50.7097 91.6301 50.7518 91.6301 50.7944L91.6167 50.8355Z" fill="#323643"/>
<path d="M79.014 43.9077L79.0764 43.9622C79.187 44.0267 79.3678 44.0267 79.4803 43.9617L79.5428 43.9067L79.5507 43.8854L79.5646 43.8443L79.5646 43.8438L79.5715 46.9675C79.5715 47.0106 79.5438 47.0532 79.4878 47.0859C79.3748 47.1508 79.1949 47.1508 79.0834 47.0864C79.0284 47.0542 79.0001 47.0121 79.0001 46.97L78.9932 43.8463L79.0071 43.8869L79.014 43.9077Z" fill="#323643"/>
<path d="M79.5511 43.8854L79.5431 43.9067L79.4807 43.9617C79.3682 44.0266 79.1873 44.0266 79.0768 43.9622L79.0143 43.9077L79.0074 43.8868C78.9826 43.8318 79.0034 43.7709 79.0783 43.7283C79.1893 43.6638 79.3712 43.6628 79.4832 43.7283C79.5372 43.76 79.5649 43.8021 79.5649 43.8442L79.5511 43.8854Z" fill="#323643"/>
<path d="M66.9493 36.9576L67.0117 37.0127C67.1223 37.0766 67.3027 37.0766 67.4147 37.0117L67.4776 36.9571L67.485 36.9358L67.4989 36.8947L67.4994 36.8942L67.5068 40.0179C67.5068 40.061 67.4786 40.1036 67.4221 40.1363C67.3101 40.2013 67.1292 40.2013 67.0187 40.1363C66.9632 40.1046 66.9354 40.062 66.9354 40.0204L66.9285 36.8962L66.9419 36.9368L66.9493 36.9576Z" fill="#323643"/>
<path d="M67.4847 36.9357L67.4772 36.957L67.4143 37.0115C67.3023 37.0765 67.1219 37.0765 67.0114 37.0125L66.9489 36.9575L66.9415 36.9367C66.9172 36.8817 66.937 36.8212 67.0124 36.7781C67.1239 36.7137 67.3052 36.7132 67.4163 36.7781C67.4718 36.8098 67.499 36.852 67.4985 36.8946L67.4847 36.9357Z" fill="#323643"/>
<path d="M54.8824 30.0079L54.9448 30.0629C55.0563 30.1268 55.2362 30.1269 55.3492 30.0619L55.4122 30.0069L55.4191 29.9856L55.433 29.9445L55.433 29.944L55.4404 33.0677C55.4409 33.1108 55.4122 33.1534 55.3562 33.1861C55.2437 33.251 55.0638 33.251 54.9523 33.1866C54.8973 33.1544 54.869 33.1128 54.869 33.0701L54.8616 29.9465L54.8755 29.9871L54.8824 30.0079Z" fill="#323643"/>
<path d="M55.4192 29.9856L55.4123 30.0069L55.3493 30.0619C55.2363 30.1268 55.0565 30.1268 54.9449 30.0629L54.8825 30.0079L54.8756 29.9871C54.8513 29.9321 54.8721 29.8711 54.9464 29.828C55.0584 29.764 55.2393 29.7631 55.3513 29.828C55.4068 29.8602 55.4331 29.9023 55.4331 29.9444L55.4192 29.9856Z" fill="#323643"/>
<path d="M103.494 57.7614L103.496 58.1232L46.5602 24.9737L46.8714 24.7929L103.494 57.7614Z" fill="#323643"/>
<path d="M103.747 57.6157L103.748 57.9775L103.496 58.1232L103.494 57.7614L103.747 57.6157Z" fill="#323643"/>
<path d="M46.8711 24.7929L47.1239 24.6487L103.747 57.6158L103.494 57.7615L46.8711 24.7929Z" fill="#646E8A"/>
<path d="M85.8147 84.5802L92.4814 80.7315L99.1079 84.5827L92.4418 88.431L85.8147 84.5802Z" fill="#A0B9E5"/>
<path d="M92.4452 86.1085L92.4497 87.6205L87.0572 84.4859L87.0527 82.9749L92.4452 86.1085Z" fill="#C6D4EF"/>
<path d="M97.8701 82.9769L97.8745 84.4879L92.4498 87.6205L92.4453 86.1085L97.8701 82.9769Z" fill="#D8E6F7"/>
<path d="M87.0527 82.975L92.4774 79.8424L97.8699 82.977L92.4452 86.1086L87.0527 82.975Z" fill="#FAFDFE"/>
<path d="M106.426 72.3357L113.093 68.4864L119.72 72.3376L113.053 76.1869L106.426 72.3357Z" fill="#A0B9E5"/>
<path d="M113.057 73.864L113.062 75.3756L107.668 72.2415L107.664 70.7299L113.057 73.864Z" fill="#C6D4EF"/>
<path d="M118.482 70.7319L118.486 72.243L113.062 75.3756L113.057 73.864L118.482 70.7319Z" fill="#D8E6F7"/>
<path d="M107.664 70.7299L113.089 67.5983L118.482 70.7319L113.057 73.864L107.664 70.7299Z" fill="#FAFDFE"/>
<path d="M12.6795 20.1799L12.6701 20.2399L12.6289 20.3202L12.6007 20.3742L12.5258 20.457L12.4862 20.5001C12.4401 20.5407 12.3861 20.5789 12.3251 20.6146C11.8345 20.8971 11.044 20.8971 10.5584 20.6151C10.4984 20.5799 10.4449 20.5417 10.3998 20.5021L10.3596 20.4575L10.2863 20.3767L10.258 20.3217L10.2179 20.2424L10.208 20.1834C10.1688 19.9723 10.2833 19.7533 10.5643 19.5912C11.053 19.3087 11.8454 19.3097 12.3311 19.5917C12.5724 19.7324 12.6938 19.9168 12.6938 20.1012L12.6795 20.1799Z" fill="#739AD6"/>
<path d="M10.7527 13.9296L10.7745 13.9747L10.7909 14.0054L10.8325 14.051L10.8553 14.0763L10.945 14.1402C11.2201 14.2998 11.6671 14.2998 11.9441 14.1397L12.0348 14.0753L12.0571 14.051L12.0997 14.0044L12.1156 13.9737L12.1389 13.9281L12.1448 13.8944L12.1523 13.8498L12.1523 13.8488L12.1572 20.0159C12.1572 20.1209 12.0883 20.2265 11.9491 20.3068C11.672 20.4669 11.225 20.4669 10.95 20.3068C10.8137 20.228 10.7448 20.1239 10.7448 20.0193L10.7398 13.8527L10.7473 13.8964L10.7527 13.9296Z" fill="url(#paint6_linear_753_13385)"/>
<path d="M12.1444 13.8944L12.1385 13.9281L12.1152 13.9737L12.0993 14.0044L12.0567 14.051L12.0344 14.0753L11.9437 14.1397C11.6667 14.2998 11.2196 14.2998 10.9446 14.1402L10.8549 14.0763L10.8321 14.051L10.7905 14.0054L10.7741 13.9747L10.7523 13.9296L10.7469 13.8964C10.7246 13.7769 10.789 13.653 10.9481 13.5613C11.2246 13.4013 11.6721 13.4023 11.9467 13.5618C12.0835 13.6411 12.1519 13.7452 12.1519 13.8498L12.1444 13.8944Z" fill="#F0F7FC"/>
<path d="M57.5781 31.7545L57.5603 39.7969L44.2379 47.5405L44.2567 39.4981L57.5781 31.7545Z" fill="#F89C0F"/>
<path d="M38.6898 36.2841L52.0112 28.54L57.5781 31.7544L44.2567 39.498L38.6898 36.2841Z" fill="#9A0034"/>
<path d="M38.6899 36.2841L44.2568 39.498L44.238 47.5404L38.6715 44.3265L38.6899 36.2841Z" fill="#9A0034"/>
<path d="M57.0869 32.413L57.3099 32.2842L57.3198 39.5802L57.0968 39.7096L57.0869 32.413Z" fill="#9A0034"/>
<path d="M56.4908 40.0589L56.3649 40.1318L56.355 32.8352L56.578 32.7064L56.5879 40.0029L56.4908 40.0589Z" fill="#9A0034"/>
<path d="M55.622 33.2585L55.7514 33.1841L55.8451 33.1296L55.8555 40.4262L55.7603 40.4802L55.632 40.5545L55.622 33.2585Z" fill="#9A0034"/>
<path d="M54.8896 33.6813L55.0953 33.5628L55.1131 33.5524L55.1235 40.849L55.1057 40.8594L54.8995 40.9778L54.8896 33.6813Z" fill="#9A0034"/>
<path d="M54.1676 41.4006L54.1577 34.104L54.288 34.0287L54.3807 33.9757L54.3906 41.2717L54.3361 41.3029L54.1676 41.4006Z" fill="#9A0034"/>
<path d="M53.4248 34.5271L53.5283 34.4677L53.6488 34.3978L53.6587 41.6943L53.4352 41.8237L53.4248 34.5271Z" fill="#9A0034"/>
<path d="M52.9164 34.8205L52.9258 42.1171L52.7028 42.2459L52.6924 34.9499L52.9164 34.8205Z" fill="#9A0034"/>
<path d="M52.1839 35.2437L52.1934 42.5403L51.9698 42.6691L51.9609 35.3726L52.1839 35.2437Z" fill="#9A0034"/>
<path d="M51.228 35.7939L51.452 35.6651L51.4609 42.9611L51.2379 43.09L51.228 35.7939Z" fill="#9A0034"/>
<path d="M50.6319 43.4399L50.5055 43.5127L50.4966 36.2162L50.7196 36.0873L50.729 43.3839L50.6319 43.4399Z" fill="#9A0034"/>
<path d="M49.7632 36.6394L49.8915 36.565L49.9867 36.5105L49.9956 43.8071L49.9019 43.8616L49.7726 43.9359L49.7632 36.6394Z" fill="#9A0034"/>
<path d="M49.0312 37.0626L49.2369 36.9437L49.2552 36.9333L49.2642 44.2298L49.2463 44.2397L49.0402 44.3587L49.0312 37.0626Z" fill="#9A0034"/>
<path d="M48.3082 44.7815L48.2983 37.4849L48.4292 37.4096L48.5218 37.3561L48.5313 44.6526L48.4777 44.6838L48.3082 44.7815Z" fill="#9A0034"/>
<path d="M47.5664 37.9081L47.6695 37.8486L47.7904 37.7787L47.7993 45.0748L47.5758 45.2046L47.5664 37.9081Z" fill="#9A0034"/>
<path d="M47.0575 38.2015L47.0669 45.498L46.8439 45.6269L46.8345 38.3308L47.0575 38.2015Z" fill="#9A0034"/>
<path d="M46.3246 38.6248L46.3335 45.9213L46.1105 46.0502L46.1016 38.7536L46.3246 38.6248Z" fill="#9A0034"/>
<path d="M46.1016 38.766L46.3246 38.6366L46.3335 45.9332L46.1105 46.062L46.1016 38.766Z" fill="#9A0034"/>
<path d="M45.5054 46.4119L45.379 46.4847L45.3691 39.1887L45.5926 39.0593L45.6025 46.3559L45.5054 46.4119Z" fill="#9A0034"/>
<path d="M44.6372 39.6115L44.7656 39.5372L44.8602 39.4826L44.8696 46.7792L44.7755 46.8332L44.6466 46.9081L44.6372 39.6115Z" fill="#9A0034"/>
<path d="M43.1362 40.2974L43.1184 48.3398L29.796 56.0833L29.8143 48.0409L43.1362 40.2974Z" fill="#F04055"/>
<path d="M24.2474 44.827L37.5703 37.0835L43.1362 40.2974L29.8143 48.0409L24.2474 44.827Z" fill="#9A0034"/>
<path d="M24.247 44.827L29.814 48.0409L29.7956 56.0833L24.2292 52.87L24.247 44.827Z" fill="#9A0034"/>
<path d="M42.6455 40.956L42.8685 40.8272L42.8779 48.1237L42.6549 48.2526L42.6455 40.956Z" fill="#9A0034"/>
<path d="M42.0489 48.6025L41.9225 48.6753L41.9131 41.3788L42.1366 41.2499L42.1455 48.5465L42.0489 48.6025Z" fill="#9A0034"/>
<path d="M41.1807 41.802L41.3095 41.7276L41.4037 41.6731L41.4136 48.9692L41.3189 49.0242L41.1901 49.0985L41.1807 41.802Z" fill="#9A0034"/>
<path d="M40.4472 42.2253L40.6534 42.1063L40.6717 42.0959L40.6807 49.3919L40.6628 49.4019L40.4567 49.5213L40.4472 42.2253Z" fill="#9A0034"/>
<path d="M39.7252 49.9435L39.7163 42.6475L39.8466 42.5722L39.9393 42.5186L39.9487 49.8147L39.8947 49.8464L39.7252 49.9435Z" fill="#9A0034"/>
<path d="M38.9829 43.0701L39.086 43.0111L39.2074 42.9413L39.2163 50.2373L38.9928 50.3667L38.9829 43.0701Z" fill="#9A0034"/>
<path d="M38.4745 43.3641L38.4839 50.6607L38.2604 50.7895L38.2514 43.493L38.4745 43.3641Z" fill="#9A0034"/>
<path d="M37.7416 43.7872L37.7515 51.0838L37.5275 51.2126L37.518 43.9161L37.7416 43.7872Z" fill="#9A0034"/>
<path d="M36.7866 44.3369L37.0096 44.2081L37.019 51.5046L36.7955 51.6335L36.7866 44.3369Z" fill="#9A0034"/>
<path d="M36.19 51.9834L36.0646 52.0562L36.0542 44.7597L36.2772 44.6308L36.2876 51.9274L36.19 51.9834Z" fill="#9A0034"/>
<path d="M35.3213 45.1828L35.4501 45.1085L35.5443 45.054L35.5542 52.3505L35.4595 52.405L35.3312 52.4789L35.3213 45.1828Z" fill="#9A0034"/>
<path d="M34.5883 45.6056L34.7945 45.4872L34.8124 45.4763L34.8223 52.7728L34.8044 52.7832L34.5988 52.9022L34.5883 45.6056Z" fill="#9A0034"/>
<path d="M33.8663 53.3244L33.8564 46.0284L33.9868 45.9526L34.0799 45.8995L34.0894 53.1961L34.0353 53.2273L33.8663 53.3244Z" fill="#9A0034"/>
<path d="M33.1245 46.4511L33.2276 46.3921L33.348 46.3222L33.3584 53.6183L33.1344 53.7476L33.1245 46.4511Z" fill="#9A0034"/>
<path d="M32.6151 46.7448L32.625 54.0414L32.402 54.1702L32.3921 46.8737L32.6151 46.7448Z" fill="#9A0034"/>
<path d="M31.8822 47.1683L31.8926 54.4648L31.6696 54.5937L31.6591 47.2971L31.8822 47.1683Z" fill="#9A0034"/>
<path d="M31.6591 47.309L31.8822 47.1806L31.8926 54.4766L31.6696 54.6055L31.6591 47.309Z" fill="#9A0034"/>
<path d="M31.0635 54.9553L30.9371 55.0282L30.9277 47.7316L31.1507 47.6028L31.1602 54.8989L31.0635 54.9553Z" fill="#9A0034"/>
<path d="M30.1953 48.1544L30.3237 48.0801L30.4183 48.0256L30.4277 55.3221L30.3336 55.3766L30.2047 55.451L30.1953 48.1544Z" fill="#9A0034"/>
<path d="M64.8081 36.0962L64.7903 44.1386L51.4684 51.8822L51.4862 43.8398L64.8081 36.0962Z" fill="#90BDE8"/>
<path d="M45.9192 40.6259L59.2417 32.8823L64.8081 36.0962L51.4862 43.8398L45.9192 40.6259Z" fill="#749ED9"/>
<path d="M45.9189 40.6259L51.4863 43.8398L51.4685 51.8822L45.901 48.6683L45.9189 40.6259Z" fill="#4B73C2"/>
<path d="M64.3174 36.7549L64.5404 36.626L64.5498 43.9226L64.3263 44.0514L64.3174 36.7549Z" fill="#749ED9"/>
<path d="M63.7207 44.4014L63.5944 44.4743L63.5849 37.1777L63.8085 37.0489L63.8179 44.3454L63.7207 44.4014Z" fill="#749ED9"/>
<path d="M62.853 37.6003L62.9814 37.5265L63.076 37.472L63.0854 44.768L62.9913 44.823L62.8624 44.8974L62.853 37.6003Z" fill="#749ED9"/>
<path d="M62.1196 38.0236L62.3258 37.9051L62.3436 37.8947L62.353 45.1903L62.3352 45.2007L62.129 45.3201L62.1196 38.0236Z" fill="#749ED9"/>
<path d="M61.3971 45.7424L61.3877 38.4464L61.5185 38.3705L61.6112 38.317L61.6201 45.6135L61.5666 45.6453L61.3971 45.7424Z" fill="#749ED9"/>
<path d="M60.6553 38.8695L60.7579 38.8096L60.8793 38.7397L60.8882 46.0362L60.6642 46.1656L60.6553 38.8695Z" fill="#749ED9"/>
<path d="M60.1463 39.1629L60.1558 46.4595L59.9323 46.5883L59.9233 39.2918L60.1463 39.1629Z" fill="#749ED9"/>
<path d="M59.4134 39.5862L59.4224 46.8823L59.1993 47.0111L59.1899 39.715L59.4134 39.5862Z" fill="#749ED9"/>
<path d="M58.4585 40.1359L58.6815 40.007L58.6914 47.3036L58.4679 47.4324L58.4585 40.1359Z" fill="#749ED9"/>
<path d="M57.8619 47.7823L57.7355 47.8551L57.7261 40.5586L57.9491 40.4297L57.959 47.7263L57.8619 47.7823Z" fill="#749ED9"/>
<path d="M56.9931 40.9813L57.1225 40.9075L57.2167 40.8525L57.2266 48.1495L57.1319 48.2036L57.0035 48.2779L56.9931 40.9813Z" fill="#749ED9"/>
<path d="M56.2607 41.4045L56.4669 41.2856L56.4847 41.2757L56.4946 48.5717L56.4758 48.5821L56.2706 48.7011L56.2607 41.4045Z" fill="#749ED9"/>
<path d="M55.5387 49.1237L55.5288 41.8271L55.6591 41.7513L55.7518 41.6983L55.7617 48.9943L55.7072 49.0261L55.5387 49.1237Z" fill="#749ED9"/>
<path d="M54.7964 42.2504L54.8995 42.1909L55.0199 42.1205L55.0298 49.4171L54.8063 49.5464L54.7964 42.2504Z" fill="#749ED9"/>
<path d="M54.287 42.5438L54.2974 49.8403L54.0743 49.9692L54.0639 42.6727L54.287 42.5438Z" fill="#749ED9"/>
<path d="M53.5545 42.967L53.5645 50.2635L53.3414 50.3919L53.3315 43.0954L53.5545 42.967Z" fill="#749ED9"/>
<path d="M53.3315 43.1079L53.5545 42.979L53.5645 50.2756L53.3414 50.4044L53.3315 43.1079Z" fill="#749ED9"/>
<path d="M52.7354 50.7543L52.6095 50.8272L52.5996 43.5307L52.8226 43.4018L52.833 50.6979L52.7354 50.7543Z" fill="#749ED9"/>
<path d="M51.8672 43.9539L51.996 43.8791L52.0907 43.8246L52.1001 51.1211L52.0054 51.1756L51.8766 51.25L51.8672 43.9539Z" fill="#749ED9"/>
<path d="M50.3667 44.6399L50.3479 52.6823L37.0259 60.4258L37.0443 52.3834L50.3667 44.6399Z" fill="#646E8A"/>
<path d="M31.4778 49.1693L44.7998 41.4252L50.3667 44.6396L37.0443 52.3832L31.4778 49.1693Z" fill="#474D60"/>
<path d="M31.478 49.1694L37.0444 52.3832L37.0261 60.4257L31.4601 57.2118L31.478 49.1694Z" fill="#323643"/>
<path d="M49.875 45.2984L50.098 45.1696L50.1084 52.4661L49.8839 52.595L49.875 45.2984Z" fill="#474D60"/>
<path d="M49.2788 52.9447L49.1525 53.0171L49.1426 45.721L49.3661 45.5921L49.3755 52.8882L49.2788 52.9447Z" fill="#474D60"/>
<path d="M48.4101 46.1443L48.5395 46.0695L48.6336 46.0149L48.6436 53.3115L48.5484 53.3655L48.42 53.4398L48.4101 46.1443Z" fill="#474D60"/>
<path d="M47.6772 46.567L47.8834 46.448L47.9012 46.4376L47.9116 53.7342L47.8938 53.7446L47.6876 53.863L47.6772 46.567Z" fill="#474D60"/>
<path d="M46.9557 54.2858L46.9458 46.9893L47.0761 46.9139L47.1688 46.8609L47.1787 54.157L47.1242 54.1882L46.9557 54.2858Z" fill="#474D60"/>
<path d="M46.2129 47.4125L46.3159 47.353L46.4364 47.2832L46.4468 54.5797L46.2233 54.7086L46.2129 47.4125Z" fill="#474D60"/>
<path d="M45.7035 47.7064L45.7134 55.003L45.4904 55.1313L45.4805 47.8353L45.7035 47.7064Z" fill="#474D60"/>
<path d="M44.9706 48.1297L44.981 55.4257L44.7579 55.5546L44.7475 48.258L44.9706 48.1297Z" fill="#474D60"/>
<path d="M44.0166 48.6793L44.2396 48.5504L44.2495 55.847L44.026 55.9758L44.0166 48.6793Z" fill="#474D60"/>
<path d="M43.4205 56.3256L43.2941 56.3984L43.2837 49.1019L43.5067 48.973L43.5171 56.2691L43.4205 56.3256Z" fill="#474D60"/>
<path d="M42.5522 49.5247L42.6801 49.4504L42.7753 49.3959L42.7842 56.6924L42.6895 56.747L42.5612 56.8213L42.5522 49.5247Z" fill="#474D60"/>
<path d="M41.8193 49.9478L42.0245 49.8289L42.0428 49.8185L42.0527 57.1145L42.0349 57.1249L41.8287 57.2439L41.8193 49.9478Z" fill="#474D60"/>
<path d="M41.0968 57.6668L41.0869 50.3703L41.2177 50.295L41.3104 50.2414L41.3198 57.538L41.2663 57.5692L41.0968 57.6668Z" fill="#474D60"/>
<path d="M40.354 50.7934L40.4566 50.7339L40.578 50.664L40.5874 57.9606L40.3634 58.0899L40.354 50.7934Z" fill="#474D60"/>
<path d="M39.8461 51.0872L39.855 58.3833L39.632 58.5126L39.6226 51.2161L39.8461 51.0872Z" fill="#474D60"/>
<path d="M39.1127 51.51L39.1221 58.8065L38.8986 58.9354L38.8896 51.6393L39.1127 51.51Z" fill="#474D60"/>
<path d="M38.8896 51.6512L39.1127 51.5218L39.1221 58.8184L38.8986 58.9472L38.8896 51.6512Z" fill="#474D60"/>
<path d="M38.293 59.2971L38.1671 59.37L38.1572 52.0739L38.3807 51.9446L38.3901 59.2411L38.293 59.2971Z" fill="#474D60"/>
<path d="M37.4248 52.4967L37.5536 52.4224L37.6478 52.3679L37.6582 59.6644L37.5631 59.7189L37.4337 59.7933L37.4248 52.4967Z" fill="#474D60"/>
<path d="M72.1196 40.7111L72.1008 48.7536L58.7789 56.4976L58.7967 48.4552L72.1196 40.7111Z" fill="#F89C0F"/>
<path d="M53.2308 45.2412L66.5527 37.4972L72.1196 40.7111L58.7967 48.4551L53.2308 45.2412Z" fill="#9A0034"/>
<path d="M53.2309 45.2413L58.7969 48.4552L58.779 56.4976L53.2131 53.2837L53.2309 45.2413Z" fill="#9A0034"/>
<path d="M71.6282 41.3704L71.8517 41.2415L71.8606 48.5381L71.6376 48.6669L71.6282 41.3704Z" fill="#9A0034"/>
<path d="M71.0318 49.0167L70.9054 49.0895L70.896 41.793L71.119 41.6641L71.1284 48.9602L71.0318 49.0167Z" fill="#9A0034"/>
<path d="M70.1631 42.2158L70.2919 42.1419L70.3866 42.0869L70.396 49.3834L70.3018 49.438L70.1725 49.5123L70.1631 42.2158Z" fill="#9A0034"/>
<path d="M69.4306 42.6389L69.6363 42.52L69.6546 42.5096L69.6641 49.8056L69.6457 49.816L69.4406 49.9355L69.4306 42.6389Z" fill="#9A0034"/>
<path d="M68.7084 50.3578L68.6985 43.0617L68.8293 42.9859L68.922 42.9324L68.9319 50.2289L68.8774 50.2601L68.7084 50.3578Z" fill="#9A0034"/>
<path d="M67.9658 43.4845L68.0694 43.425L68.1898 43.3551L68.2002 50.6517L67.9762 50.781L67.9658 43.4845Z" fill="#9A0034"/>
<path d="M67.4564 43.7784L67.4668 51.0745L67.2438 51.2038L67.2334 43.9072L67.4564 43.7784Z" fill="#9A0034"/>
<path d="M66.7245 44.2011L66.7344 51.4976L66.5114 51.6265L66.5015 44.3304L66.7245 44.2011Z" fill="#9A0034"/>
<path d="M65.769 44.7513L65.992 44.6224L66.002 51.9189L65.7789 52.0473L65.769 44.7513Z" fill="#9A0034"/>
<path d="M65.1734 52.3972L65.047 52.4701L65.0371 45.174L65.2601 45.0447L65.27 52.3417L65.1734 52.3972Z" fill="#9A0034"/>
<path d="M64.3042 45.5967L64.4335 45.5224L64.5272 45.4678L64.5376 52.7644L64.4429 52.8184L64.3146 52.8932L64.3042 45.5967Z" fill="#9A0034"/>
<path d="M63.5717 46.0198L63.7774 45.9009L63.7958 45.8904L63.8057 53.1865L63.7878 53.1969L63.5817 53.3163L63.5717 46.0198Z" fill="#9A0034"/>
<path d="M62.8497 53.7386L62.8398 46.4426L62.9712 46.3667L63.0633 46.3132L63.0728 53.6098L63.0192 53.641L62.8497 53.7386Z" fill="#9A0034"/>
<path d="M62.1079 46.8653L62.2105 46.8059L62.3314 46.736L62.3408 54.0325L62.1173 54.1614L62.1079 46.8653Z" fill="#9A0034"/>
<path d="M61.5985 47.1592L61.6079 54.4557L61.3849 54.5841L61.375 47.288L61.5985 47.1592Z" fill="#9A0034"/>
<path d="M60.8661 47.5824L60.875 54.8785L60.652 55.0073L60.6426 47.7108L60.8661 47.5824Z" fill="#9A0034"/>
<path d="M60.6431 47.7233L60.8666 47.5945L60.8755 54.8905L60.6525 55.0199L60.6431 47.7233Z" fill="#9A0034"/>
<path d="M60.0459 55.3692L59.9201 55.442L59.9106 48.146L60.1337 48.0171L60.1431 55.3132L60.0459 55.3692Z" fill="#9A0034"/>
<path d="M59.1782 48.5688L59.3071 48.4944L59.4017 48.4399L59.4111 55.7364L59.317 55.791L59.1876 55.8648L59.1782 48.5688Z" fill="#9A0034"/>
<path d="M57.6777 49.2547L57.6594 57.2971L44.3375 65.0412L44.3553 56.9983L57.6777 49.2547Z" fill="#F04055"/>
<path d="M38.7889 53.7847L52.1108 46.0407L57.6777 49.2545L44.3553 56.9981L38.7889 53.7847Z" fill="#9A0034"/>
<path d="M38.789 53.7849L44.3555 56.9983L44.3376 65.0412L38.7712 61.8273L38.789 53.7849Z" fill="#9A0034"/>
<path d="M57.1855 49.9137L57.409 49.7849L57.4189 57.0814L57.1959 57.2097L57.1855 49.9137Z" fill="#9A0034"/>
<path d="M56.5904 57.5597L56.464 57.6325L56.4536 50.336L56.6771 50.2071L56.687 57.5042L56.5904 57.5597Z" fill="#9A0034"/>
<path d="M55.7212 50.7593L55.8505 50.6845L55.9442 50.63L55.9546 57.927L55.8599 57.981L55.7311 58.0554L55.7212 50.7593Z" fill="#9A0034"/>
<path d="M54.9883 51.1819L55.1944 51.0635L55.2122 51.053L55.2222 58.3491L55.2043 58.3595L54.9987 58.4785L54.9883 51.1819Z" fill="#9A0034"/>
<path d="M54.2662 58.9012L54.2573 51.6047L54.3877 51.5294L54.4803 51.4758L54.4897 58.7724L54.4357 58.8036L54.2662 58.9012Z" fill="#9A0034"/>
<path d="M53.5239 52.028L53.6265 51.968L53.7479 51.8986L53.7573 59.1951L53.5333 59.324L53.5239 52.028Z" fill="#9A0034"/>
<path d="M53.0155 52.3219L53.0244 59.6184L52.8014 59.7468L52.792 52.4507L53.0155 52.3219Z" fill="#9A0034"/>
<path d="M52.2826 52.7446L52.292 60.0407L52.069 60.17L52.0596 52.8735L52.2826 52.7446Z" fill="#9A0034"/>
<path d="M51.3276 53.2941L51.5506 53.1658L51.5601 60.4618L51.3365 60.5907L51.3276 53.2941Z" fill="#9A0034"/>
<path d="M50.731 60.9406L50.6051 61.0135L50.5957 53.7169L50.8187 53.5886L50.8281 60.8846L50.731 60.9406Z" fill="#9A0034"/>
<path d="M49.8633 54.1402L49.9911 54.0658L50.0863 54.0108L50.0952 61.3074L50.0016 61.3619L49.8722 61.4362L49.8633 54.1402Z" fill="#9A0034"/>
<path d="M49.1303 54.5628L49.336 54.4439L49.3539 54.4334L49.3633 61.73L49.3454 61.7404L49.1398 61.8593L49.1303 54.5628Z" fill="#9A0034"/>
<path d="M48.4069 62.2822L48.3974 54.9856L48.5283 54.9103L48.621 54.8568L48.6299 62.1533L48.5764 62.1846L48.4069 62.2822Z" fill="#9A0034"/>
<path d="M47.6655 55.4088L47.7681 55.3489L47.8895 55.2795L47.8994 62.576L47.6754 62.7054L47.6655 55.4088Z" fill="#9A0034"/>
<path d="M47.1571 55.7027L47.167 62.9988L46.9435 63.1281L46.9336 55.8316L47.1571 55.7027Z" fill="#9A0034"/>
<path d="M46.4237 56.1249L46.4341 63.422L46.2101 63.5503L46.2007 56.2543L46.4237 56.1249Z" fill="#9A0034"/>
<path d="M46.2007 56.2662L46.4237 56.1374L46.4341 63.4339L46.2101 63.5628L46.2007 56.2662Z" fill="#9A0034"/>
<path d="M45.604 63.9127L45.4786 63.9855L45.4682 56.689L45.6918 56.5601L45.7017 63.8567L45.604 63.9127Z" fill="#9A0034"/>
<path d="M44.7358 57.1123L44.8652 57.0379L44.9588 56.9834L44.9692 64.2795L44.8741 64.3345L44.7457 64.4088L44.7358 57.1123Z" fill="#9A0034"/>
<path d="M79.3491 45.0536L79.3313 53.096L66.0094 60.84L66.0272 52.7976L79.3491 45.0536Z" fill="#90BDE8"/>
<path d="M60.4603 49.5831L73.7822 41.8396L79.3491 45.0535L66.0272 52.7975L60.4603 49.5831Z" fill="#749ED9"/>
<path d="M60.4604 49.5832L66.0273 52.7976L66.0095 60.84L60.4426 57.6261L60.4604 49.5832Z" fill="#4B73C2"/>
<path d="M78.8574 45.7122L79.0809 45.5833L79.0908 52.8804L78.8673 53.0087L78.8574 45.7122Z" fill="#749ED9"/>
<path d="M78.2622 53.3586L78.1359 53.4314L78.126 46.1349L78.3495 46.006L78.3594 53.3026L78.2622 53.3586Z" fill="#749ED9"/>
<path d="M77.3933 46.5582L77.5226 46.4833L77.6163 46.4293L77.6262 53.7254L77.5316 53.7799L77.4032 53.8547L77.3933 46.5582Z" fill="#749ED9"/>
<path d="M76.6604 46.9813L76.8665 46.8619L76.8844 46.8515L76.8943 54.148L76.8764 54.1584L76.6703 54.2774L76.6604 46.9813Z" fill="#749ED9"/>
<path d="M75.9381 54.6996L75.9282 47.4036L76.0595 47.3283L76.1522 47.2747L76.1611 54.5713L76.1071 54.6025L75.9381 54.6996Z" fill="#749ED9"/>
<path d="M75.196 47.8269L75.2986 47.7674L75.42 47.6975L75.429 54.9941L75.2054 55.1229L75.196 47.8269Z" fill="#749ED9"/>
<path d="M74.6876 48.1208L74.697 55.4168L74.474 55.5457L74.4646 48.2491L74.6876 48.1208Z" fill="#749ED9"/>
<path d="M73.9547 48.5435L73.9641 55.8396L73.7406 55.9689L73.7317 48.6724L73.9547 48.5435Z" fill="#749ED9"/>
<path d="M72.9998 49.093L73.2228 48.9646L73.2322 56.2607L73.0087 56.3895L72.9998 49.093Z" fill="#749ED9"/>
<path d="M72.4029 56.7394L72.2765 56.8123L72.2676 49.5157L72.4906 49.3869L72.4995 56.6834L72.4029 56.7394Z" fill="#749ED9"/>
<path d="M71.5349 49.939L71.6633 49.8647L71.7579 49.8102L71.7673 57.1062L71.6732 57.1607L71.5443 57.2356L71.5349 49.939Z" fill="#749ED9"/>
<path d="M70.8017 50.3618L71.0079 50.2428L71.0257 50.2324L71.0352 57.529L71.0173 57.5394L70.8111 57.6583L70.8017 50.3618Z" fill="#749ED9"/>
<path d="M70.0795 58.081L70.07 50.7845L70.2009 50.7091L70.2936 50.6556L70.303 57.9522L70.249 57.9834L70.0795 58.081Z" fill="#749ED9"/>
<path d="M69.3376 51.2077L69.4402 51.1483L69.5616 51.0784L69.5706 58.3744L69.3475 58.5038L69.3376 51.2077Z" fill="#749ED9"/>
<path d="M68.8282 51.5011L68.8376 58.7977L68.6151 58.9265L68.6052 51.6305L68.8282 51.5011Z" fill="#749ED9"/>
<path d="M68.096 51.9243L68.106 59.2204L67.8824 59.3497L67.8725 52.0532L68.096 51.9243Z" fill="#749ED9"/>
<path d="M67.8725 52.0651L68.096 51.9363L68.106 59.2328L67.8824 59.3617L67.8725 52.0651Z" fill="#749ED9"/>
<path d="M67.2764 59.7117L67.1505 59.7845L67.1406 52.488L67.3636 52.3591L67.374 59.6557L67.2764 59.7117Z" fill="#749ED9"/>
<path d="M66.4082 52.9111L66.5375 52.8367L66.6312 52.7822L66.6411 60.0783L66.5465 60.1328L66.4181 60.2071L66.4082 52.9111Z" fill="#749ED9"/>
<path d="M64.9067 53.5969L64.8889 61.6393L51.567 69.3829L51.5848 61.3405L64.9067 53.5969Z" fill="#646E8A"/>
<path d="M46.0189 58.1266L59.3408 50.3826L64.9067 53.5969L51.5848 61.3405L46.0189 58.1266Z" fill="#474D60"/>
<path d="M46.019 58.1266L51.585 61.3405L51.5671 69.3829L46.0007 66.169L46.019 58.1266Z" fill="#323643"/>
<path d="M64.4165 54.2556L64.6395 54.1267L64.6489 61.4228L64.4259 61.5522L64.4165 54.2556Z" fill="#474D60"/>
<path d="M63.8204 61.9016L63.694 61.9749L63.6846 54.6784L63.9076 54.5495L63.917 61.8456L63.8204 61.9016Z" fill="#474D60"/>
<path d="M62.9517 55.1011L63.08 55.0273L63.1747 54.9723L63.1841 62.2688L63.0899 62.3233L62.9606 62.3977L62.9517 55.1011Z" fill="#474D60"/>
<path d="M62.2187 55.5243L62.4249 55.4054L62.4427 55.395L62.4521 62.6915L62.4343 62.7019L62.2281 62.8209L62.2187 55.5243Z" fill="#474D60"/>
<path d="M61.4962 63.2436L61.4868 55.9471L61.6171 55.8717L61.7098 55.8182L61.7192 63.1143L61.6652 63.1455L61.4962 63.2436Z" fill="#474D60"/>
<path d="M60.7544 56.3703L60.857 56.3103L60.9779 56.2409L60.9883 63.537L60.7643 63.6663L60.7544 56.3703Z" fill="#474D60"/>
<path d="M60.2455 56.6636L60.2554 63.9597L60.0314 64.0885L60.0224 56.7924L60.2455 56.6636Z" fill="#474D60"/>
<path d="M59.5121 57.0863L59.522 64.3829L59.299 64.5117L59.289 57.2152L59.5121 57.0863Z" fill="#474D60"/>
<path d="M58.5571 57.6365L58.7801 57.5076L58.79 64.8042L58.567 64.933L58.5571 57.6365Z" fill="#474D60"/>
<path d="M57.9605 65.2823L57.8351 65.3552L57.8252 58.0591L58.0482 57.9298L58.0586 65.2263L57.9605 65.2823Z" fill="#474D60"/>
<path d="M57.0928 58.482L57.2221 58.4076L57.3163 58.3531L57.3262 65.6497L57.2315 65.7042L57.1027 65.7785L57.0928 58.482Z" fill="#474D60"/>
<path d="M56.3598 58.9052L56.5655 58.7862L56.5838 58.7758L56.5938 66.0724L56.5754 66.0828L56.3697 66.2012L56.3598 58.9052Z" fill="#474D60"/>
<path d="M55.6378 66.624L55.6279 59.3279L55.7583 59.2526L55.8509 59.1991L55.8608 66.4956L55.8063 66.5268L55.6378 66.624Z" fill="#474D60"/>
<path d="M54.895 59.7506L54.9986 59.6912L55.119 59.6218L55.1289 66.9178L54.9049 67.0472L54.895 59.7506Z" fill="#474D60"/>
<path d="M54.3871 60.0446L54.3965 67.3411L54.1735 67.4695L54.1631 60.1734L54.3871 60.0446Z" fill="#474D60"/>
<path d="M53.6547 60.4678L53.6636 67.7639L53.4406 67.8927L53.4311 60.5962L53.6547 60.4678Z" fill="#474D60"/>
<path d="M53.4311 60.6085L53.6547 60.4797L53.6636 67.7762L53.4406 67.9051L53.4311 60.6085Z" fill="#474D60"/>
<path d="M52.835 68.2545L52.7086 68.3279L52.6992 61.0313L52.9222 60.9024L52.9316 68.199L52.835 68.2545Z" fill="#474D60"/>
<path d="M51.9668 61.4541L52.0947 61.3797L52.1898 61.3257L52.1987 68.6218L52.1051 68.6763L51.9757 68.7506L51.9668 61.4541Z" fill="#474D60"/>
<path d="M86.5613 49.2456L86.5434 57.288L73.2215 65.0321L73.2394 56.9897L86.5613 49.2456Z" fill="#F89C0F"/>
<path d="M67.6724 53.776L80.9943 46.0324L86.5613 49.2458L73.2394 56.9899L67.6724 53.776Z" fill="#9A0034"/>
<path d="M67.6721 53.7758L73.239 56.9897L73.2212 65.0321L67.6542 61.8182L67.6721 53.7758Z" fill="#9A0034"/>
<path d="M86.0696 49.9048L86.2926 49.7754L86.303 57.0725L86.08 57.2008L86.0696 49.9048Z" fill="#9A0034"/>
<path d="M85.4737 57.5507L85.3473 57.6236L85.3374 50.3275L85.5609 50.1982L85.5708 57.4947L85.4737 57.5507Z" fill="#9A0034"/>
<path d="M84.605 50.7502L84.7338 50.6759L84.8285 50.6214L84.8379 57.9174L84.7432 57.9719L84.6149 58.0468L84.605 50.7502Z" fill="#9A0034"/>
<path d="M83.8728 51.1736L84.0785 51.0541L84.0963 51.0437L84.1057 58.3403L84.0879 58.3507L83.8822 58.4696L83.8728 51.1736Z" fill="#9A0034"/>
<path d="M83.15 58.8923L83.1406 51.5958L83.2714 51.5204L83.3641 51.4669L83.3735 58.7634L83.3195 58.7947L83.15 58.8923Z" fill="#9A0034"/>
<path d="M82.4082 52.019L82.5108 51.9595L82.6322 51.8897L82.6416 59.1862L82.4176 59.3151L82.4082 52.019Z" fill="#9A0034"/>
<path d="M81.8993 52.3125L81.9087 59.609L81.6852 59.7379L81.6763 52.4413L81.8993 52.3125Z" fill="#9A0034"/>
<path d="M81.1669 52.7361L81.1763 60.0317L80.9528 60.161L80.9433 52.8645L81.1669 52.7361Z" fill="#9A0034"/>
<path d="M80.2112 53.2853L80.4347 53.157L80.4441 60.453L80.2206 60.5819L80.2112 53.2853Z" fill="#9A0034"/>
<path d="M79.615 60.9318L79.4886 61.0046L79.4792 53.7081L79.7022 53.5792L79.7122 60.8753L79.615 60.9318Z" fill="#9A0034"/>
<path d="M78.7466 54.1313L78.8749 54.0569L78.9696 54.0024L78.979 61.2985L78.8848 61.353L78.7555 61.4278L78.7466 54.1313Z" fill="#9A0034"/>
<path d="M78.0139 54.5545L78.2201 54.4351L78.2379 54.4247L78.2473 61.7212L78.2295 61.7316L78.0233 61.8506L78.0139 54.5545Z" fill="#9A0034"/>
<path d="M77.2916 62.2732L77.2817 54.9766L77.4125 54.9013L77.5052 54.8478L77.5151 62.1443L77.4606 62.1756L77.2916 62.2732Z" fill="#9A0034"/>
<path d="M76.5495 55.3999L76.6526 55.3404L76.773 55.2705L76.7834 62.5671L76.5594 62.696L76.5495 55.3999Z" fill="#9A0034"/>
<path d="M76.0404 55.6937L76.0503 62.9898L75.8273 63.1186L75.8174 55.8226L76.0404 55.6937Z" fill="#9A0034"/>
<path d="M75.3072 56.1166L75.3176 63.4127L75.0946 63.542L75.0842 56.2454L75.3072 56.1166Z" fill="#9A0034"/>
<path d="M75.0842 56.2578L75.3072 56.1284L75.3176 63.425L75.0946 63.5538L75.0842 56.2578Z" fill="#9A0034"/>
<path d="M74.4883 63.9038L74.3624 63.9766L74.352 56.6801L74.575 56.5512L74.5854 63.8478L74.4883 63.9038Z" fill="#9A0034"/>
<path d="M73.6199 57.1033L73.7487 57.0289L73.8429 56.9744L73.8528 64.2705L73.7581 64.3255L73.6298 64.3998L73.6199 57.1033Z" fill="#9A0034"/>
<path d="M72.1196 57.7892L72.1008 65.8316L58.7789 73.5752L58.7967 65.5328L72.1196 57.7892Z" fill="#F04055"/>
<path d="M53.2308 62.3188L66.5527 54.5752L72.1196 57.7891L58.7967 65.5327L53.2308 62.3188Z" fill="#9A0034"/>
<path d="M53.2309 62.3189L58.7969 65.5328L58.779 73.5752L53.2131 70.3613L53.2309 62.3189Z" fill="#9A0034"/>
<path d="M71.6282 58.4478L71.8517 58.3195L71.8606 65.6155L71.6376 65.7444L71.6282 58.4478Z" fill="#9A0034"/>
<path d="M71.0318 66.0941L70.9054 66.167L70.896 58.8704L71.119 58.7416L71.1284 66.0381L71.0318 66.0941Z" fill="#9A0034"/>
<path d="M70.1631 59.2932L70.2919 59.2189L70.3866 59.1644L70.396 66.4609L70.3018 66.5154L70.1725 66.5898L70.1631 59.2932Z" fill="#9A0034"/>
<path d="M69.4304 59.7165L69.6361 59.5975L69.6544 59.5871L69.6638 66.8837L69.6455 66.8941L69.4403 67.013L69.4304 59.7165Z" fill="#9A0034"/>
<path d="M68.7084 67.4358L68.6985 60.1392L68.8293 60.0639L68.922 60.0104L68.9319 67.3069L68.8774 67.3382L68.7084 67.4358Z" fill="#9A0034"/>
<path d="M67.9658 60.5619L68.0694 60.5024L68.1898 60.433L68.2002 67.729L67.9762 67.8584L67.9658 60.5619Z" fill="#9A0034"/>
<path d="M67.4564 60.8558L67.4668 68.1519L67.2438 68.2812L67.2334 60.9852L67.4564 60.8558Z" fill="#9A0034"/>
<path d="M66.7245 61.2786L66.7344 68.5752L66.5114 68.704L66.5015 61.408L66.7245 61.2786Z" fill="#9A0034"/>
<path d="M65.769 61.8287L65.992 61.6999L66.002 68.9964L65.7789 69.1253L65.769 61.8287Z" fill="#9A0034"/>
<path d="M65.1734 69.4747L65.047 69.5475L65.0371 62.2515L65.2601 62.1221L65.27 69.4192L65.1734 69.4747Z" fill="#9A0034"/>
<path d="M64.3042 62.6742L64.4335 62.5998L64.5272 62.5453L64.5376 69.8419L64.4429 69.8964L64.3146 69.9707L64.3042 62.6742Z" fill="#9A0034"/>
<path d="M63.5717 63.0973L63.7774 62.9784L63.7958 62.968L63.8057 70.2645L63.7878 70.275L63.5817 70.3939L63.5717 63.0973Z" fill="#9A0034"/>
<path d="M62.8493 70.8166L62.8393 63.52L62.9707 63.4447L63.0629 63.3912L63.0723 70.6877L63.0187 70.719L62.8493 70.8166Z" fill="#9A0034"/>
<path d="M62.1079 63.9429L62.2105 63.8834L62.3314 63.814L62.3408 71.1101L62.1173 71.2394L62.1079 63.9429Z" fill="#9A0034"/>
<path d="M61.5985 64.2368L61.6079 71.5334L61.3849 71.6617L61.375 64.3657L61.5985 64.2368Z" fill="#9A0034"/>
<path d="M60.8666 64.66L60.8755 71.956L60.6525 72.0849L60.6431 64.7888L60.8666 64.66Z" fill="#9A0034"/>
<path d="M60.6431 64.8008L60.8666 64.6719L60.8755 71.9685L60.6525 72.0973L60.6431 64.8008Z" fill="#9A0034"/>
<path d="M60.0459 72.4467L59.9201 72.52L59.9106 65.2235L60.1337 65.0946L60.1431 72.3912L60.0459 72.4467Z" fill="#9A0034"/>
<path d="M59.1777 65.6462L59.3066 65.5724L59.4012 65.5179L59.4106 72.8139L59.3165 72.8684L59.1871 72.9428L59.1777 65.6462Z" fill="#9A0034"/>
<path d="M93.7905 53.588L93.7727 61.6304L80.4508 69.374L80.4686 61.3316L93.7905 53.588Z" fill="#90BDE8"/>
<path d="M74.9031 58.1176L88.2251 50.3736L93.791 53.5879L80.4691 61.3315L74.9031 58.1176Z" fill="#749ED9"/>
<path d="M74.903 58.1177L80.469 61.3316L80.4512 69.374L74.8842 66.1601L74.903 58.1177Z" fill="#4B73C2"/>
<path d="M93.3003 54.2468L93.5233 54.1179L93.5327 61.4145L93.3097 61.5428L93.3003 54.2468Z" fill="#749ED9"/>
<path d="M92.7036 61.8926L92.5773 61.9655L92.5679 54.6694L92.7914 54.5406L92.8008 61.8366L92.7036 61.8926Z" fill="#749ED9"/>
<path d="M91.8349 55.0922L91.9638 55.0179L92.0585 54.9634L92.0679 62.2599L91.9737 62.3144L91.8444 62.3888L91.8349 55.0922Z" fill="#749ED9"/>
<path d="M91.1028 55.5153L91.3084 55.3964L91.3268 55.386L91.3357 62.6825L91.3179 62.6929L91.1117 62.8119L91.1028 55.5153Z" fill="#749ED9"/>
<path d="M90.3808 63.2346L90.3708 55.9381L90.5012 55.8627L90.5939 55.8092L90.6033 63.1053L90.5493 63.1365L90.3808 63.2346Z" fill="#749ED9"/>
<path d="M89.6374 56.3608L89.741 56.3014L89.8614 56.232L89.8713 63.528L89.6473 63.6574L89.6374 56.3608Z" fill="#749ED9"/>
<path d="M89.1288 56.6547L89.1387 63.9508L88.9157 64.0797L88.9057 56.7836L89.1288 56.6547Z" fill="#749ED9"/>
<path d="M88.3963 57.0774L88.4063 64.374L88.1832 64.5028L88.1733 57.2063L88.3963 57.0774Z" fill="#749ED9"/>
<path d="M87.4411 57.6276L87.6642 57.4988L87.6741 64.7953L87.4511 64.9242L87.4411 57.6276Z" fill="#749ED9"/>
<path d="M86.8445 65.2736L86.7191 65.3464L86.7092 58.0504L86.9322 57.921L86.9421 65.2181L86.8445 65.2736Z" fill="#749ED9"/>
<path d="M85.9765 58.4731L86.1054 58.3987L86.1996 58.3442L86.2095 65.6408L86.1148 65.6953L85.9865 65.7696L85.9765 58.4731Z" fill="#749ED9"/>
<path d="M85.2431 58.8963L85.4493 58.7773L85.4671 58.7669L85.4775 66.0635L85.4592 66.0739L85.2535 66.1928L85.2431 58.8963Z" fill="#749ED9"/>
<path d="M84.5216 66.6151L84.5117 59.319L84.6425 59.2432L84.7347 59.1897L84.7446 66.4867L84.6901 66.5179L84.5216 66.6151Z" fill="#749ED9"/>
<path d="M83.7798 59.7417L83.8824 59.6823L84.0033 59.6124L84.0127 66.9089L83.7887 67.0383L83.7798 59.7417Z" fill="#749ED9"/>
<path d="M83.2709 60.0357L83.2798 67.3317L83.0568 67.4606L83.0474 60.1645L83.2709 60.0357Z" fill="#749ED9"/>
<path d="M82.538 60.4589L82.5474 67.7549L82.3243 67.8838L82.3149 60.5877L82.538 60.4589Z" fill="#749ED9"/>
<path d="M82.3149 60.5996L82.538 60.4707L82.5474 67.7673L82.3243 67.8961L82.3149 60.5996Z" fill="#749ED9"/>
<path d="M81.7181 68.2456L81.5917 68.3184L81.5823 61.0224L81.8058 60.8935L81.8152 68.1901L81.7181 68.2456Z" fill="#749ED9"/>
<path d="M80.8501 61.4451L80.9784 61.3707L81.0736 61.3162L81.083 68.6127L80.9888 68.6668L80.8595 68.7416L80.8501 61.4451Z" fill="#749ED9"/>
<path d="M79.3491 62.1314L79.3313 70.1738L66.0094 77.9174L66.0272 69.875L79.3491 62.1314Z" fill="#646E8A"/>
<path d="M60.4603 66.6607L73.7822 58.9171L79.3491 62.1315L66.0272 69.8751L60.4603 66.6607Z" fill="#474D60"/>
<path d="M60.4604 66.6606L66.0273 69.875L66.0095 77.9174L60.4426 74.7035L60.4604 66.6606Z" fill="#323643"/>
<path d="M78.8574 62.7897L79.0809 62.6608L79.0908 69.9574L78.8673 70.0862L78.8574 62.7897Z" fill="#474D60"/>
<path d="M78.2618 70.436L78.1354 70.5089L78.1255 63.2123L78.349 63.0835L78.3589 70.38L78.2618 70.436Z" fill="#474D60"/>
<path d="M77.3933 63.6355L77.5226 63.5612L77.6163 63.5067L77.6262 70.8032L77.5316 70.8572L77.4032 70.9321L77.3933 63.6355Z" fill="#474D60"/>
<path d="M76.6604 64.0588L76.8665 63.9398L76.8844 63.9294L76.8943 71.226L76.8764 71.2359L76.6703 71.3548L76.6604 64.0588Z" fill="#474D60"/>
<path d="M75.9381 71.7776L75.9282 64.4816L76.0595 64.4057L76.1522 64.3522L76.1611 71.6488L76.1071 71.68L75.9381 71.7776Z" fill="#474D60"/>
<path d="M75.196 64.9042L75.2986 64.8448L75.42 64.7749L75.429 72.0714L75.2054 72.2003L75.196 64.9042Z" fill="#474D60"/>
<path d="M74.6876 65.1977L74.697 72.4943L74.474 72.6231L74.4646 65.3266L74.6876 65.1977Z" fill="#474D60"/>
<path d="M73.9547 65.621L73.9641 72.9176L73.7406 73.0464L73.7317 65.7499L73.9547 65.621Z" fill="#474D60"/>
<path d="M72.9998 66.1704L73.2228 66.0421L73.2322 73.3381L73.0087 73.467L72.9998 66.1704Z" fill="#474D60"/>
<path d="M72.4031 73.8169L72.2767 73.8898L72.2678 66.5932L72.4908 66.4644L72.4998 73.7609L72.4031 73.8169Z" fill="#474D60"/>
<path d="M71.5349 67.0166L71.6633 66.9422L71.7579 66.8877L71.7673 74.1843L71.6732 74.2388L71.5443 74.3131L71.5349 67.0166Z" fill="#474D60"/>
<path d="M70.8017 67.4398L71.0079 67.3208L71.0257 67.3104L71.0352 74.6064L71.0173 74.6169L70.8111 74.7363L70.8017 67.4398Z" fill="#474D60"/>
<path d="M70.0795 75.1586L70.07 67.862L70.2009 67.7867L70.2936 67.7332L70.303 75.0297L70.249 75.0609L70.0795 75.1586Z" fill="#474D60"/>
<path d="M69.3374 68.2853L69.44 68.2258L69.5614 68.1559L69.5703 75.4525L69.3473 75.5813L69.3374 68.2853Z" fill="#474D60"/>
<path d="M68.8282 68.5785L68.8376 75.8751L68.6151 76.0039L68.6052 68.7079L68.8282 68.5785Z" fill="#474D60"/>
<path d="M68.0958 69.0019L68.1057 76.2984L67.8822 76.4273L67.8723 69.1307L68.0958 69.0019Z" fill="#474D60"/>
<path d="M67.8723 69.1426L68.0958 69.0142L68.1057 76.3103L67.8822 76.4396L67.8723 69.1426Z" fill="#474D60"/>
<path d="M67.2764 76.789L67.1505 76.8618L67.1406 69.5653L67.3636 69.4364L67.374 76.733L67.2764 76.789Z" fill="#474D60"/>
<path d="M66.4082 69.9886L66.5375 69.9142L66.6312 69.8597L66.6411 77.1558L66.5465 77.2108L66.4181 77.2846L66.4082 69.9886Z" fill="#474D60"/>
<path d="M68.3848 77.746L68.4473 77.8005C68.5578 77.865 68.7387 77.865 68.8507 77.8001L68.9136 77.745L68.9221 77.7242L68.9355 77.6826L68.9355 77.6821L68.9424 80.8063C68.9424 80.8494 68.9146 80.8915 68.8586 80.9247C68.7461 80.9896 68.5652 80.9896 68.4547 80.9247C68.3992 80.8925 68.3715 80.8504 68.3715 80.8088L68.364 77.6846L68.3774 77.7252L68.3848 77.746Z" fill="#323643"/>
<path d="M68.9222 77.7242L68.9137 77.745L68.8508 77.8C68.7388 77.8649 68.5579 77.8649 68.4474 77.8005L68.3849 77.746L68.3775 77.7252C68.3537 77.6702 68.3745 77.6092 68.4489 77.5666C68.5604 77.5021 68.7418 77.5017 68.8538 77.5666C68.9083 77.5983 68.9355 77.6404 68.9355 77.6825L68.9222 77.7242Z" fill="#323643"/>
<path d="M56.3194 70.7958L56.3823 70.8508C56.4924 70.9152 56.6728 70.9152 56.7853 70.8503L56.8487 70.7953L56.8556 70.774L56.8695 70.7328L56.87 70.7323L56.8774 73.856C56.8774 73.8991 56.8492 73.9418 56.7927 73.9745C56.6807 74.0394 56.4998 74.0394 56.3893 73.9745C56.3343 73.9428 56.306 73.9006 56.306 73.8585L56.2991 70.7343L56.3125 70.775L56.3194 70.7958Z" fill="#323643"/>
<path d="M56.8557 70.7741L56.8488 70.7954L56.7854 70.8504C56.6729 70.9154 56.4925 70.9154 56.3825 70.8509L56.3195 70.7959L56.3126 70.7751C56.2883 70.7206 56.3081 70.6596 56.3839 70.6165C56.495 70.5526 56.6768 70.5516 56.7878 70.6165C56.8429 70.6487 56.8701 70.6909 56.8696 70.733L56.8557 70.7741Z" fill="#323643"/>
<path d="M44.2535 63.8462L44.3159 63.9012C44.4269 63.9652 44.6073 63.9652 44.7203 63.9002L44.7833 63.8452L44.7902 63.8244L44.8036 63.7833L44.8036 63.7823L44.811 66.9065C44.8115 66.9496 44.7833 66.9922 44.7268 67.0249C44.6143 67.0898 44.4339 67.0898 44.3229 67.0254C44.2674 66.9927 44.2406 66.9511 44.2396 66.909L44.2327 63.7848L44.2461 63.8254L44.2535 63.8462Z" fill="#323643"/>
<path d="M44.7903 63.8244L44.7834 63.8452L44.7204 63.9002C44.6074 63.9651 44.4271 63.9651 44.316 63.9012L44.2536 63.8462L44.2462 63.8254C44.2219 63.7704 44.2427 63.7099 44.3175 63.6668C44.4295 63.6024 44.6099 63.6019 44.7219 63.6668C44.7774 63.6985 44.8037 63.7406 44.8037 63.7833L44.7903 63.8244Z" fill="#323643"/>
<path d="M32.1881 56.8965L32.2505 56.9511C32.361 57.0155 32.5419 57.0155 32.6539 56.9506L32.7174 56.8956L32.7238 56.8747L32.7387 56.8331L32.7387 56.8326L32.7456 59.9563C32.7456 59.9994 32.7179 60.042 32.6614 60.0748C32.5494 60.1397 32.3685 60.1397 32.2579 60.0752C32.2029 60.0435 32.1747 60.0009 32.1747 59.9588L32.1672 56.8351L32.1811 56.8757L32.1881 56.8965Z" fill="#323643"/>
<path d="M32.7239 56.8747L32.7175 56.8955L32.654 56.9505C32.542 57.0155 32.3611 57.0155 32.2506 56.951L32.1882 56.8965L32.1812 56.8757C32.1569 56.8207 32.1778 56.7602 32.2521 56.7171C32.3636 56.6527 32.545 56.6517 32.6565 56.7171C32.7115 56.7488 32.7388 56.791 32.7388 56.8331L32.7239 56.8747Z" fill="#323643"/>
<path d="M20.1226 49.9464L20.1851 50.0014C20.2951 50.0658 20.476 50.0658 20.588 50.0004L20.6514 49.9459L20.6589 49.9246L20.6722 49.8835L20.6727 49.8825L20.6802 53.0067C20.6802 53.0498 20.6519 53.0924 20.5954 53.1251C20.4824 53.19 20.3025 53.19 20.192 53.1256C20.136 53.0934 20.1088 53.0513 20.1088 53.0091L20.1013 49.8854L20.1152 49.9256L20.1226 49.9464Z" fill="#323643"/>
<path d="M20.6595 49.9247L20.652 49.946L20.5886 50.0005C20.4766 50.0659 20.2957 50.0659 20.1857 50.0015L20.1233 49.9465L20.1158 49.9257C20.0915 49.8707 20.1113 49.8102 20.1867 49.7671C20.2982 49.7027 20.4791 49.7022 20.5911 49.7671C20.6461 49.7993 20.6729 49.841 20.6729 49.8836L20.6595 49.9247Z" fill="#323643"/>
<path d="M8.2198 42.6563L8.28274 42.7108C8.39326 42.7758 8.57316 42.7758 8.68616 42.7103L8.74959 42.6558L8.75653 42.6345L8.7704 42.5929L8.77783 45.5208C8.77783 45.5639 8.74959 45.6066 8.69309 45.6393C8.58059 45.7042 8.4002 45.7042 8.29018 45.6393C8.23368 45.6075 8.20691 45.5654 8.20592 45.5233L8.19849 42.5949L8.21287 42.6355L8.2198 42.6563Z" fill="#323643"/>
<path d="M8.75663 42.6345L8.7497 42.6558L8.68626 42.7103C8.57327 42.7758 8.39336 42.7758 8.28284 42.7108L8.2199 42.6563L8.21297 42.6355C8.18819 42.5805 8.209 42.52 8.28334 42.4769C8.39584 42.4125 8.57623 42.412 8.68823 42.4769C8.74374 42.5091 8.77051 42.5512 8.77051 42.5929L8.75663 42.6345Z" fill="#323643"/>
<path d="M68.7336 77.6999L68.7351 78.0622L8.19997 42.8199L8.19849 42.4576L68.7336 77.6999Z" fill="#323643"/>
<path d="M68.9861 77.5542L68.9875 77.9165L68.7353 78.0622L68.7338 77.6999L68.9861 77.5542Z" fill="#323643"/>
<path d="M8.19869 42.4576L8.45145 42.3119L68.9861 77.5542L68.7338 77.7L8.19869 42.4576Z" fill="#646E8A"/>
<path d="M90.6175 97.9938C90.4198 98.4022 90.3058 98.8581 90.3058 99.3428C90.3058 101.055 91.6949 102.444 93.4072 102.444C94.3498 102.444 95.1933 102.021 95.7622 101.357C95.2602 102.393 94.2016 103.11 92.9725 103.11C91.2598 103.11 89.8716 101.722 89.8716 100.009C89.8716 99.2393 90.1536 98.536 90.6175 97.9938Z" fill="#9A0034"/>
<path d="M93.407 102.444C91.6947 102.444 90.3056 101.055 90.3056 99.3428C90.3056 98.8581 90.4196 98.4021 90.6173 97.9938C91.1862 97.3297 92.0292 96.9074 92.9723 96.9074C94.6851 96.9074 96.0737 98.2961 96.0737 100.009C96.0737 100.493 95.9597 100.949 95.762 101.357C95.1931 102.021 94.3496 102.444 93.407 102.444Z" fill="#323643"/>
<defs>
<linearGradient id="paint0_linear_753_13385" x1="135.109" y1="73.8918" x2="-6.65015e-06" y2="73.8918" gradientUnits="userSpaceOnUse">
<stop stop-color="#5F021F"/>
<stop offset="1" stop-color="#CB2E5F"/>
</linearGradient>
<linearGradient id="paint1_linear_753_13385" x1="37.7983" y1="17.2109" x2="33.4769" y2="17.2109" gradientUnits="userSpaceOnUse">
<stop stop-color="#C6D4EF"/>
<stop offset="1" stop-color="#9FB8E4"/>
</linearGradient>
<linearGradient id="paint2_linear_753_13385" x1="24.0317" y1="19.6129" x2="19.7099" y2="19.6129" gradientUnits="userSpaceOnUse">
<stop stop-color="#C6D4EF"/>
<stop offset="1" stop-color="#9FB8E4"/>
</linearGradient>
<linearGradient id="paint3_linear_753_13385" x1="23.4043" y1="17.7639" x2="20.3383" y2="17.7639" gradientUnits="userSpaceOnUse">
<stop stop-color="#C6D4EF"/>
<stop offset="1" stop-color="#9FB8E4"/>
</linearGradient>
<linearGradient id="paint4_linear_753_13385" x1="29.3408" y1="11.6473" x2="27.9237" y2="11.6473" gradientUnits="userSpaceOnUse">
<stop stop-color="#C6D4EF"/>
<stop offset="1" stop-color="#9FB8E4"/>
</linearGradient>
<linearGradient id="paint5_linear_753_13385" x1="126.868" y1="83.4319" x2="116.55" y2="83.4319" gradientUnits="userSpaceOnUse">
<stop stop-color="#C6D4EF"/>
<stop offset="1" stop-color="#9FB8E4"/>
</linearGradient>
<linearGradient id="paint6_linear_753_13385" x1="12.1572" y1="17.138" x2="10.7401" y2="17.138" gradientUnits="userSpaceOnUse">
<stop stop-color="#C6D4EF"/>
<stop offset="1" stop-color="#9FB8E4"/>
</linearGradient>
</defs>
</svg>
