<svg width="29" height="32" viewBox="0 0 29 32" fill="white" xmlns="http://www.w3.org/2000/svg">
<path d="M7.15489 3.93623C2.02775 6.80744 0.128339 7.9036 0.0770033 8.01571C-0.0256678 8.22747 -0.0256678 23.661 0.0770033 23.8727C0.128339 23.9848 2.02134 25.0748 7.16131 27.9584C11.0243 30.1196 14.2456 31.8884 14.3226 31.8884C14.4189 31.8884 27.2848 24.7447 28.3821 24.0845C28.4399 24.0471 28.5169 23.9475 28.5554 23.8727C28.6581 23.661 28.6516 8.22124 28.5554 8.01571C28.4784 7.85378 28.5361 7.88492 21.7919 4.11062C19.6423 2.90235 17.1076 1.48232 16.1707 0.959152C15.2146 0.423526 14.3932 6.13928e-06 14.3098 6.13928e-06C14.2264 0.00623435 11.0051 1.77505 7.15489 3.93623ZM20.6882 4.66493C24.1341 6.60191 26.9576 8.20256 26.9576 8.22124C26.9576 8.26484 23.2807 10.3388 23.2037 10.3388C23.1202 10.3388 10.4596 3.2885 10.4917 3.25736C10.5944 3.15148 14.2969 1.12108 14.3547 1.13354C14.3868 1.146 17.2423 2.73419 20.6882 4.66493ZM15.7023 7.38043C19.1931 9.3174 22.055 10.9243 22.0679 10.9554C22.0871 11.0115 19.4626 12.5125 19.2572 12.5623C19.1802 12.581 6.69287 5.72996 6.46828 5.54311C6.43619 5.5182 9.23398 3.88641 9.34948 3.86149C9.3559 3.86149 12.2114 5.44346 15.7023 7.38043ZM12.0253 9.80943C15.3622 11.6592 18.0958 13.1851 18.0958 13.2038C18.0958 13.2349 14.5472 15.2217 14.3804 15.2903C14.3226 15.3089 12.5066 14.3311 9.82434 12.8239C7.37306 11.4537 4.53678 9.85926 3.5229 9.29249C2.50261 8.72573 1.67482 8.23992 1.67482 8.22124C1.67482 8.20256 2.50261 7.71676 3.51648 7.14999L5.36456 6.11611L5.65974 6.28427C5.82016 6.37146 8.68212 7.95966 12.0253 9.80943ZM27.5223 23.3932C27.4773 23.4305 24.6988 25 21.3427 26.8747C17.9931 28.7494 15.1504 30.3376 15.0413 30.4061L14.8295 30.5307V23.3745L14.836 16.2245L16.7418 15.1657L18.6476 14.1007L18.6797 16.8037L18.7118 19.5068L18.8979 19.6625C19.0326 19.7746 19.1353 19.8057 19.2572 19.787C19.4497 19.7434 23.3962 17.5449 23.5887 17.3705C23.7106 17.2521 23.717 17.1525 23.7363 14.2439L23.7555 11.2357L25.6613 10.1707L27.5672 9.10565L27.5864 16.212C27.5993 21.8486 27.58 23.3371 27.5223 23.3932ZM5.73033 11.7215C8.24577 13.1291 11.0885 14.7235 12.0382 15.2591L13.7708 16.2307L13.79 23.3745L13.8028 30.512L12.5387 29.802C11.8393 29.4096 8.97088 27.8027 6.16668 26.2332L1.06521 23.3745L1.04596 16.2619C1.03954 11.8149 1.05238 9.15547 1.09088 9.15547C1.12938 9.15547 3.21489 10.3077 5.73033 11.7215ZM22.6582 14.3373V16.785L21.2272 17.576C20.4444 18.0182 19.777 18.3732 19.7513 18.3732C19.7257 18.3732 19.7128 17.2708 19.7193 15.9318L19.7385 13.4841L21.1502 12.6931C21.9267 12.2571 22.5812 11.8959 22.6133 11.8959C22.639 11.8959 22.6582 12.9983 22.6582 14.3373Z" fill="white"/>
</svg>
