<svg width="34" height="35" viewBox="0 0 34 35" fill="none" xmlns="http://www.w3.org/2000/svg">
<path d="M30.3533 12.3126C30.7439 12.1906 30.9782 11.9029 31.0114 11.5047C31.0441 11.1125 31.16 10.9824 31.5458 10.9984C32.1033 11.0214 32.6657 11.0403 33.2135 11.1344C33.4749 11.1793 33.7073 11.3932 33.9764 11.5275C34 11.7916 34 12.0589 34 12.3569C33.8284 12.4962 33.6648 12.6209 33.4839 12.7106C32.6619 13.1181 31.7724 13.2138 30.821 13.2486C30.6306 12.9323 30.4919 12.6224 30.3533 12.3126Z" fill="#909CA4"/>
<path d="M0 11.5548C0.0213851 11.5246 0.051947 11.5347 0.0628456 11.5243C0.794908 10.8242 1.71276 11.0074 2.58644 11.0026C2.84138 11.0011 2.98368 11.18 2.98453 11.436C2.98599 11.875 3.20756 12.1513 3.62331 12.3415C3.49547 12.6658 3.34153 12.9636 3.18759 13.2613C2.38264 13.2354 1.5862 13.142 0.833383 12.8442C0.553823 12.7335 0.308057 12.5375 0.0234398 12.3839C0 12.1201 0 11.8528 0 11.5548Z" fill="#909CA4"/>
<path d="M3.18692 13.2853C3.34152 12.9639 3.49546 12.6662 3.64633 12.3441C3.91227 11.7425 4.15745 11.1526 4.4551 10.5905C5.14162 9.29396 5.8473 8.00744 6.55768 6.72376C6.96493 5.98786 7.57933 5.58709 8.44491 5.53897C9.37934 5.48701 10.3093 5.35883 11.2429 5.28564C12.029 5.22402 12.817 5.17836 13.605 5.15246C15.2664 5.09784 16.9283 5.03224 18.5902 5.02608C19.7981 5.02161 21.007 5.09236 22.2142 5.15396C23.0756 5.19791 23.9361 5.27125 24.7949 5.35331C25.2359 5.39544 25.6788 5.45783 26.1091 5.56054C26.6714 5.69479 26.9914 6.16043 27.2831 6.59824C28.3335 8.1748 29.1971 9.8559 29.9772 11.5807C30.0837 11.8161 30.2138 12.0409 30.3431 12.2916C30.4919 12.6225 30.6306 12.9323 30.7908 13.2519C31.3931 14.3568 31.9957 15.4409 32.5469 16.5507C32.9297 17.3216 33.1186 18.1556 33.1387 19.0235C33.1497 19.4947 33.2213 19.9677 33.196 20.4361C33.1016 22.1804 32.9727 23.9238 32.4012 25.5934C32.3176 25.8377 32.1186 26.0425 31.9345 26.2876C31.4117 26.7649 30.8354 26.9569 30.1733 26.9566C29.345 26.9563 28.5166 26.987 27.6883 27.0043C26.1616 27.0019 24.635 26.9914 23.1084 26.9988C19.6613 27.0157 16.2141 27.0382 12.767 27.0647C10.7027 27.0806 8.63853 27.1083 6.5215 27.1189C5.86337 27.1079 5.25737 27.0908 4.65285 27.1134C3.80807 27.1449 2.98033 27.1299 2.25577 26.6072C1.71668 26.1831 1.51957 25.5722 1.40151 24.9422C1.22025 23.9749 1.05832 23.0023 0.937857 22.0259C0.849551 21.3101 0.795345 20.5837 0.806342 19.8633C0.828765 18.3943 1.11944 16.9938 1.91325 15.7133C2.38995 14.9443 2.76534 14.1125 3.18692 13.2853ZM5.16699 11.8088C5.07004 12.028 4.97308 12.2472 4.85433 12.5156C12.9879 12.4664 21.0619 12.4174 29.1408 12.3685C29.1341 12.2898 29.138 12.2656 29.1296 12.2471C28.2823 10.3983 27.436 8.54918 26.5843 6.70249C26.4309 6.36979 26.155 6.21918 25.788 6.20557C19.9694 5.98983 14.1525 6.03939 8.3362 6.29373C7.8209 6.31626 7.50205 6.52556 7.29511 7.00328C6.60541 8.59542 5.89024 10.1765 5.16699 11.8088ZM23.9074 25.2804C23.9056 24.6498 23.9054 24.0192 23.9013 23.3887C23.8983 22.92 23.7755 22.7898 23.3148 22.7924C19.1001 22.816 14.8855 22.8417 10.6708 22.8689C10.2643 22.8715 10.1377 22.9997 10.1368 23.411C10.1355 24.0416 10.1429 24.6722 10.1487 25.3027C10.1532 25.7893 10.2754 25.9054 10.7639 25.902C12.4011 25.8909 14.0383 25.8808 15.6755 25.8705C18.2087 25.8547 20.7419 25.8401 23.2752 25.8228C23.7633 25.8194 23.8515 25.7474 23.9074 25.2804ZM4.11807 16.4704C3.78504 16.3917 3.45441 16.3001 3.11834 16.2379C2.75278 16.1702 2.48182 16.337 2.3932 16.6527C2.05275 17.8653 2.6362 19.4826 3.68433 20.1827C3.83079 20.2805 4.02991 20.3455 4.20526 20.3469C5.80767 20.3593 7.41023 20.3571 9.01273 20.3529C9.64168 20.3512 9.90214 19.887 9.58238 19.3441C9.30208 18.8682 9.00233 18.4036 8.7305 17.9231C8.57701 17.6517 8.36536 17.5044 8.06463 17.4331C6.76489 17.125 5.46831 16.8035 4.11807 16.4704ZM25.5558 17.5738C25.4715 17.6746 25.3736 17.7669 25.3051 17.8775C25.0086 18.3565 24.7178 18.8393 24.4303 19.3239C24.0874 19.9019 24.3488 20.3526 25.0289 20.3536C26.5986 20.356 28.1684 20.3634 29.7379 20.3441C29.9623 20.3414 30.2225 20.2516 30.4024 20.117C31.4802 19.3104 31.7461 18.1714 31.64 16.9041C31.5915 16.3245 31.3018 16.1288 30.7394 16.263C30.1271 16.409 29.5156 16.5582 28.9051 16.7116C27.8028 16.9886 26.7015 17.2696 25.5558 17.5738ZM21.8777 20.3561C22.0625 20.3561 22.2473 20.3561 22.443 20.3561C22.443 19.8703 22.443 19.4265 22.443 18.9823C18.6893 18.9823 14.9676 18.9823 11.2432 18.9823C11.2432 19.4476 11.2432 19.885 11.2432 20.3561C14.7797 20.3561 18.2958 20.3561 21.8777 20.3561ZM6.22556 23.8811C6.20464 23.7954 6.18928 23.7078 6.16193 23.6242C5.88686 22.7829 4.95318 22.3469 4.12956 22.6736C3.29008 23.0066 2.91666 23.9784 3.31689 24.7887C3.64216 25.4472 4.37933 25.7808 5.0976 25.5945C5.81721 25.4079 6.25896 24.7632 6.22556 23.8811ZM28.1172 23.2213C27.8179 23.851 27.8638 24.4508 28.3257 24.9788C28.7508 25.4649 29.3059 25.601 29.9209 25.4263C30.574 25.2408 31.0084 24.6423 31.0119 23.9686C31.0155 23.2778 30.5701 22.6744 29.9134 22.4809C29.2273 22.2786 28.5802 22.534 28.1172 23.2213Z" fill="#FFF4F8"/>
<path d="M27.6892 27.0347C28.5166 26.9867 29.3449 26.956 30.1733 26.9563C30.8354 26.9565 31.4117 26.7646 31.9146 26.3008C31.9579 27.0854 31.9898 27.8785 32.0024 28.6718C32.0057 28.8776 31.9698 29.0903 31.9144 29.2894C31.824 29.614 31.4429 29.8432 30.985 29.8486C30.189 29.8581 29.3927 29.8583 28.5967 29.849C28.0569 29.8427 27.6998 29.4717 27.6934 28.9229C27.6863 28.3038 27.6908 27.6845 27.6892 27.0347Z" fill="#909CA4"/>
<path d="M2.25644 26.6377C2.98037 27.1298 3.80811 27.1448 4.65289 27.1133C5.25741 27.0908 5.86341 27.1078 6.49079 27.1209C6.53326 27.696 6.55286 28.2573 6.57432 28.8187C6.60318 29.5735 6.16534 30.0362 5.41103 29.9941C4.67205 29.9528 3.92896 29.987 3.18769 29.9845C2.6081 29.9825 2.26604 29.6464 2.26021 29.0581C2.25232 28.2615 2.25749 27.4649 2.25644 26.6377Z" fill="#909CA4"/>
<path d="M5.17583 11.785C5.89016 10.1762 6.60533 8.59515 7.29503 7.00301C7.50197 6.52528 7.82082 6.31599 8.33612 6.29346C14.1524 6.03912 19.9693 5.98955 25.7879 6.2053C26.1549 6.21891 26.4308 6.36952 26.5842 6.70221C27.4359 8.54891 28.2822 10.3981 29.1295 12.2468C29.138 12.2653 29.134 12.2895 29.1407 12.3682C21.0618 12.4172 12.9878 12.4661 4.85425 12.5154C4.973 12.2469 5.06996 12.0277 5.17583 11.785Z" fill="#323643"/>
<path d="M23.9074 25.3102C23.8515 25.747 23.7633 25.819 23.2752 25.8224C20.742 25.8397 18.2088 25.8543 15.6755 25.8702C14.0383 25.8804 12.4012 25.8905 10.764 25.9016C10.2754 25.905 10.1533 25.789 10.1488 25.3023C10.1429 24.6718 10.1355 24.0412 10.1369 23.4106C10.1377 22.9993 10.2643 22.8711 10.6709 22.8685C14.8855 22.8413 19.1002 22.8156 23.3149 22.792C23.7755 22.7895 23.8983 22.9196 23.9014 23.3883C23.9055 24.0188 23.9056 24.6494 23.9074 25.3102Z" fill="#323643"/>
<path d="M4.14432 16.4783C5.4683 16.8031 6.76489 17.1246 8.06463 17.4328C8.36536 17.5041 8.57701 17.6514 8.7305 17.9227C9.00233 18.4033 9.30208 18.8679 9.58238 19.3438C9.90214 19.8866 9.64168 20.3509 9.01273 20.3525C7.41023 20.3567 5.80767 20.3589 4.20526 20.3465C4.02991 20.3452 3.83079 20.2802 3.68433 20.1823C2.6362 19.4823 2.05275 17.865 2.3932 16.6523C2.48182 16.3367 2.75278 16.1699 3.11834 16.2376C3.45441 16.2998 3.78504 16.3914 4.14432 16.4783ZM3.75679 17.8579C3.33785 18.8173 4.19555 19.5803 4.9174 19.4567C5.45805 19.3642 5.83056 18.971 5.88491 18.4297C5.93176 17.9632 5.60142 17.4566 5.14224 17.2907C4.62805 17.1049 4.11792 17.3005 3.75679 17.8579ZM6.41256 19.5361C6.73223 20.0173 7.20682 20.1415 7.62886 19.8544C8.0313 19.5806 8.12976 19.0555 7.85316 18.6582C7.61983 18.3231 7.15975 18.2074 6.78913 18.3906C6.38301 18.5913 6.23635 18.9955 6.41256 19.5361Z" fill="#323643"/>
<path d="M25.5778 17.5611C26.7015 17.2693 27.8028 16.9882 28.9051 16.7113C29.5156 16.5579 30.1271 16.4087 30.7394 16.2626C31.3018 16.1285 31.5914 16.3242 31.64 16.9037C31.7461 18.1711 31.4802 19.31 30.4024 20.1166C30.2225 20.2513 29.9623 20.341 29.7379 20.3438C28.1684 20.3631 26.5986 20.3556 25.0289 20.3533C24.3487 20.3523 24.0873 19.9016 24.4303 19.3235C24.7178 18.8389 25.0086 18.3562 25.3051 17.8771C25.3736 17.7666 25.4715 17.6742 25.5778 17.5611ZM29.197 19.4708C29.3057 19.4558 29.4175 19.4524 29.5225 19.4237C29.9828 19.298 30.3129 18.9048 30.3458 18.4543C30.3822 17.9544 30.1355 17.5249 29.698 17.3268C29.2588 17.1279 28.7669 17.2264 28.4246 17.585C28.1231 17.9008 28.038 18.2709 28.1714 18.6848C28.3231 19.1557 28.6666 19.3963 29.197 19.4708ZM27.4771 19.7046C27.7216 19.3799 27.7707 19.0359 27.5431 18.6875C27.351 18.3937 27.0655 18.2651 26.7145 18.3144C26.3459 18.366 26.0666 18.6402 25.9968 19.0031C25.9339 19.3293 26.1082 19.6982 26.4107 19.8794C26.7531 20.0844 27.0699 20.0422 27.4771 19.7046Z" fill="#323643"/>
<path d="M21.8449 20.3557C18.2959 20.3557 14.7797 20.3557 11.2433 20.3557C11.2433 19.8846 11.2433 19.4473 11.2433 18.9819C14.9676 18.9819 18.6893 18.9819 22.4431 18.9819C22.4431 19.4262 22.4431 19.87 22.4431 20.3557C22.2474 20.3557 22.0626 20.3557 21.8449 20.3557Z" fill="#323643"/>
<path d="M6.22924 23.9089C6.25891 24.7628 5.81716 25.4075 5.09754 25.5941C4.37928 25.7804 3.6421 25.4468 3.31683 24.7883C2.9166 23.978 3.29002 23.0062 4.12951 22.6732C4.95313 22.3465 5.88681 22.7825 6.16188 23.6238C6.18922 23.7074 6.20458 23.795 6.22924 23.9089Z" fill="#FFAEC7"/>
<path d="M28.1309 23.2001C28.5802 22.5338 29.2273 22.2784 29.9134 22.4806C30.57 22.6742 31.0155 23.2776 31.0119 23.9684C31.0084 24.6421 30.574 25.2406 29.9209 25.4261C29.3059 25.6008 28.7508 25.4647 28.3257 24.9786C27.8638 24.4506 27.8179 23.8508 28.1309 23.2001Z" fill="#FFAEC7"/>
<path d="M3.76883 17.8353C4.11799 17.3005 4.62811 17.1049 5.1423 17.2907C5.60149 17.4566 5.93182 17.9632 5.88497 18.4297C5.83063 18.971 5.45811 19.3642 4.91746 19.4567C4.19561 19.5803 3.33791 18.8173 3.76883 17.8353Z" fill="#FFF4F8"/>
<path d="M6.4016 19.5124C6.23641 18.9953 6.38307 18.5911 6.78918 18.3904C7.15981 18.2072 7.61988 18.3229 7.85321 18.658C8.12981 19.0552 8.03135 19.5803 7.62892 19.8541C7.20688 20.1412 6.73229 20.0171 6.4016 19.5124Z" fill="#FFF4F8"/>
<path d="M29.1706 19.4683C28.6666 19.3963 28.3231 19.1557 28.1714 18.6848C28.038 18.2709 28.1231 17.9008 28.4246 17.585C28.7669 17.2264 29.2588 17.1279 29.698 17.3268C30.1355 17.5249 30.3822 17.9544 30.3458 18.4543C30.3129 18.9047 29.9828 19.2979 29.5225 19.4237C29.4175 19.4524 29.3057 19.4558 29.1706 19.4683Z" fill="#FFF4F8"/>
<path d="M27.4608 19.7232C27.0699 20.0422 26.7531 20.0845 26.4107 19.8795C26.1082 19.6983 25.9339 19.3294 25.9968 19.0032C26.0666 18.6403 26.3459 18.3661 26.7145 18.3145C27.0655 18.2652 27.351 18.3938 27.5431 18.6876C27.7707 19.036 27.7216 19.38 27.4608 19.7232Z" fill="#FFF4F8"/>
</svg>
