<svg width="90" height="90" viewBox="0 0 90 90" fill="none" xmlns="http://www.w3.org/2000/svg">
<path fill-rule="evenodd" clip-rule="evenodd" d="M0 45C0 20.1472 20.1472 0 45 0C69.8526 0 90 20.1472 90 45C90 69.8526 69.8526 90 45 90C20.1472 90 0 69.8526 0 45ZM44.9995 18C35.0585 18 26.9996 26.0589 26.9996 36C26.9996 45.9409 35.0585 54 44.9995 54C54.9405 54 62.9995 45.9409 62.9995 36C62.9995 26.0589 54.9405 18 44.9995 18ZM68.0017 62.9883C71.4118 65.1843 71.2454 69.9709 68.1399 72.5796C61.8827 77.8347 53.8115 81 45.0005 81C36.248 81 28.2247 77.8765 21.985 72.6831C18.8519 70.0753 18.6859 65.2644 22.1108 63.054C23.177 62.3659 24.3381 61.763 25.5982 61.2437C30.6682 59.1534 37.1439 58.5 45 58.5C52.8957 58.5 59.4081 59.1115 64.4913 61.1793C65.7612 61.6959 66.9303 62.2985 68.0017 62.9883Z" fill="#5F021F"/>
</svg>
