<svg width="35" height="35" viewBox="0 0 35 35" fill="none" xmlns="http://www.w3.org/2000/svg">
<rect x="0.603027" width="34.3971" height="34.239" rx="6.93449" fill="#5F021F"/>
<path d="M26.0438 13.7495L21.2508 8.9566M26.0438 13.7495L20.0544 19.7388C19.2651 20.5281 18.3071 21.1512 17.2073 21.3409C16.0967 21.5325 14.7186 21.5962 14.0613 20.939C13.4041 20.2817 13.4679 18.9035 13.6594 17.793C13.8491 16.6931 14.4722 15.7351 15.2614 14.9459L21.2508 8.9566M26.0438 13.7495C26.0438 13.7495 29.6384 10.1548 27.2419 7.75836C24.8454 5.36188 21.2508 8.9566 21.2508 8.9566M27.9076 17.1196C27.9076 24.9081 25.5112 27.3046 17.7226 27.3046C9.93407 27.3046 7.5376 24.9081 7.5376 17.1196C7.5376 9.33105 9.93407 6.93457 17.7226 6.93457" stroke="white" stroke-width="1.79736" stroke-linecap="round" stroke-linejoin="round"/>
</svg>
