<svg width="16" height="22" viewBox="0 0 16 22" fill="none" xmlns="http://www.w3.org/2000/svg">
<path d="M7.87151 0C3.5319 0 1.86087e-06 3.53327 0 7.87281C-2.71973e-06 15.5085 7.42837 21.3133 7.42837 21.3133C7.68933 21.5212 8.05927 21.5212 8.32023 21.3133C8.32023 21.3133 15.75 15.5085 15.75 7.87281C15.75 3.53327 12.2111 0 7.87151 0ZM7.87151 4.29566C9.83943 4.29566 11.4543 5.90491 11.4543 7.87281C11.4543 9.84072 9.83944 11.4542 7.87151 11.4542C5.90357 11.4542 4.2943 9.84072 4.29431 7.87281C4.29432 5.90491 5.90358 4.29566 7.87151 4.29566Z" fill="#5F021F"/>
</svg>
