<svg width="39" height="44" viewBox="0 0 39 44" fill="none" xmlns="http://www.w3.org/2000/svg">
<path d="M10.4077 37.8592L10.4073 37.8589C7.11313 36.0108 4.85742 34.7364 3.41665 33.9057C2.6968 33.4907 2.17721 33.1847 1.83227 32.9725C1.66053 32.8669 1.52712 32.7814 1.43235 32.7159C1.38565 32.6836 1.34191 32.6517 1.30562 32.6216C1.28769 32.6068 1.26577 32.5876 1.24429 32.5654C1.22967 32.5502 1.18499 32.5035 1.15285 32.4333L1.52876 32.2612L1.15674 32.4416C1.13441 32.3955 1.12515 32.3545 1.12244 32.3425L1.1224 32.3423C1.11821 32.3238 1.11544 32.3068 1.1136 32.2942C1.10986 32.2686 1.10708 32.241 1.10485 32.2148C1.1003 32.1612 1.09629 32.0916 1.0926 32.0098C1.08519 31.845 1.07842 31.6147 1.07223 31.33C1.05984 30.7598 1.04954 29.9616 1.04131 29.0125C1.02484 27.1138 1.01661 24.6057 1.01661 22.0982C1.01661 19.5907 1.02484 17.0826 1.04131 15.1839C1.04954 14.2349 1.05984 13.4366 1.07223 12.8665C1.07842 12.5818 1.08519 12.3514 1.0926 12.1867C1.09629 12.1049 1.1003 12.0352 1.10485 11.9817C1.10708 11.9554 1.10986 11.9278 1.1136 11.9023C1.11544 11.8897 1.11821 11.8727 1.1224 11.8541L1.12244 11.854C1.12499 11.8427 1.13332 11.8058 1.15285 11.7631C1.18502 11.6929 1.22978 11.6461 1.24434 11.6311C1.2658 11.6088 1.28771 11.5897 1.30564 11.5748C1.34195 11.5448 1.38573 11.5128 1.43253 11.4804C1.52748 11.4146 1.66114 11.329 1.83317 11.2231C2.17866 11.0104 2.69879 10.7038 3.41871 10.2887C4.85954 9.45807 7.11315 8.18564 10.399 6.34555C12.8674 4.95996 15.1346 3.69997 16.7985 2.78515C17.6302 2.32783 18.3121 1.9563 18.7932 1.69831C19.0335 1.56948 19.2254 1.46806 19.3615 1.39819C19.4291 1.36348 19.4858 1.33506 19.529 1.31458C19.5381 1.31025 19.5474 1.30589 19.5567 1.30166C19.5688 1.29612 19.5809 1.29079 19.5925 1.286C19.5969 1.28416 19.6021 1.28202 19.6081 1.27971C19.6154 1.27686 19.6238 1.27377 19.6327 1.27076C19.6379 1.26899 19.6837 1.25257 19.7419 1.24822L19.7573 1.24707H19.7727C19.8431 1.24707 19.9026 1.26485 19.921 1.27034L19.9219 1.27061C19.951 1.27928 19.98 1.2899 20.0061 1.3001C20.059 1.32078 20.1225 1.34871 20.1921 1.38099C20.3326 1.44613 20.5183 1.53843 20.7353 1.65029C21.1703 1.87451 21.7441 2.18416 22.3597 2.529C23.5609 3.1998 26.8098 5.01999 29.5654 6.56883C33.886 8.98679 36.0323 10.1883 37.11 10.8109C37.644 11.1194 37.9315 11.2947 38.0922 11.409C38.1729 11.4664 38.2435 11.5235 38.3001 11.5892C38.3606 11.6595 38.3912 11.7251 38.4038 11.752C38.4048 11.7542 38.4057 11.7561 38.4065 11.7577L38.4075 11.7599C38.4292 11.8062 38.4379 11.8473 38.4402 11.8582C38.4441 11.8762 38.4466 11.8928 38.4483 11.905C38.4518 11.9299 38.4544 11.9569 38.4564 11.9829C38.4607 12.0358 38.4645 12.1049 38.4679 12.1863C38.475 12.3504 38.4814 12.5802 38.4873 12.8646C38.4991 13.434 38.5091 14.2318 38.5171 15.1807C38.5332 17.0789 38.5417 19.5872 38.5422 22.0952C38.5427 24.6031 38.5352 27.112 38.5194 29.0113C38.5115 29.9606 38.5015 30.7592 38.4893 31.3295C38.4832 31.6143 38.4765 31.8447 38.4692 32.0095C38.4655 32.0914 38.4615 32.161 38.457 32.2146C38.4548 32.2409 38.452 32.2685 38.4483 32.294C38.4464 32.3066 38.4437 32.3236 38.4395 32.3422C38.4368 32.354 38.4276 32.3952 38.4051 32.4416L38.4052 32.4416L38.4007 32.4505C38.3612 32.5272 38.3079 32.6062 38.2536 32.6739C38.2041 32.7354 38.1281 32.8199 38.0356 32.8798L38.0357 32.8799L38.0242 32.8869C37.3128 33.3149 32.8287 35.8209 28.5196 38.2131C26.3622 39.4108 24.2446 40.5822 22.6585 41.4542C21.8656 41.8902 21.2048 42.2517 20.7381 42.5044C20.505 42.6306 20.3191 42.7304 20.1889 42.7988C20.1242 42.8329 20.071 42.8603 20.0319 42.8798C20.0129 42.8892 19.9935 42.8987 19.9763 42.9064C19.9683 42.91 19.9554 42.9157 19.9407 42.9212C19.9336 42.9239 19.9206 42.9286 19.9044 42.9332L19.9035 42.9335C19.8946 42.936 19.8484 42.9494 19.7892 42.9494C19.7206 42.9494 19.6656 42.9313 19.6582 42.9289L19.6575 42.9287C19.6395 42.923 19.6239 42.917 19.6137 42.9129C19.5924 42.9043 19.5698 42.894 19.5487 42.8842C19.5055 42.8639 19.4488 42.8357 19.3815 42.8013C19.2459 42.7321 19.0544 42.6312 18.8146 42.503C18.3342 42.2461 17.6526 41.8752 16.8203 41.4184C15.1555 40.5046 12.8842 39.2447 10.4077 37.8592ZM15.6871 5.83239C15.713 5.84724 15.7398 5.86252 15.7674 5.87823C16.2063 6.12852 16.8363 6.48431 17.5948 6.91063C19.1115 7.76313 21.1391 8.89625 23.1715 10.0283C25.204 11.1603 27.2408 12.2909 28.776 13.1384C29.5437 13.5623 30.1855 13.915 30.6383 14.1616C30.8649 14.285 31.0432 14.3813 31.1659 14.4464C31.1699 14.4486 31.1739 14.4507 31.1778 14.4527C31.1898 14.4465 31.2024 14.4399 31.2157 14.4329C31.3508 14.3618 31.5405 14.2591 31.7677 14.1344C32.2215 13.8853 32.8184 13.5521 33.4129 13.2168C34.0075 12.8814 34.5981 12.5447 35.0396 12.2887C35.0893 12.26 35.1369 12.2323 35.1824 12.2057C35.17 12.1986 35.1574 12.1914 35.1446 12.184C34.7372 11.9501 34.1476 11.6142 33.4193 11.2012C31.9631 10.3752 29.9546 9.24193 27.7465 8.00074C25.5383 6.7635 23.5194 5.63603 22.0473 4.81591C21.3113 4.40582 20.7121 4.07266 20.2945 3.84107C20.0884 3.7268 19.9268 3.63741 19.8149 3.57575C19.8067 3.5799 19.7982 3.5842 19.7894 3.58867C19.6557 3.65684 19.4664 3.75631 19.2384 3.87789C18.783 4.12069 18.1803 4.44789 17.575 4.78022C16.9698 5.11255 16.3635 5.44919 15.901 5.71086C15.8255 5.75357 15.754 5.79419 15.6871 5.83239ZM19.6414 3.48113C19.6412 3.48106 19.643 3.48206 19.6464 3.4837C19.6431 3.48197 19.6415 3.48119 19.6414 3.48113ZM11.7053 8.04515C11.2683 8.30009 10.8378 8.55449 10.5116 8.75116C10.5726 8.7858 10.638 8.82286 10.7077 8.86222C11.1717 9.12446 11.8199 9.48647 12.591 9.91461C14.1328 10.7708 16.1631 11.8898 18.1877 13.0009C20.2124 14.1119 22.2308 15.2145 23.749 16.0377C24.5082 16.4494 25.1416 16.7908 25.5878 17.0283C25.8112 17.1473 25.9863 17.2393 26.1062 17.301C26.1116 17.3037 26.1168 17.3064 26.1219 17.309C26.1339 17.3031 26.1467 17.2967 26.1602 17.2899C26.272 17.2338 26.4207 17.1553 26.5952 17.0609C26.9435 16.8724 27.3849 16.6254 27.8186 16.3774C28.2296 16.1424 28.6311 15.908 28.9374 15.7233C28.9123 15.7089 28.8864 15.6941 28.8597 15.6788C28.4447 15.442 27.8458 15.1038 27.1068 14.6888C25.6291 13.859 23.5939 12.7237 21.357 11.4825C19.1198 10.2411 17.0861 9.11344 15.6108 8.2962C14.8731 7.88756 14.2751 7.55658 13.8611 7.32778C13.667 7.22053 13.5135 7.13583 13.4051 7.07614C13.2968 7.13441 13.1484 7.2168 12.9723 7.31614C12.6182 7.51593 12.1592 7.78031 11.7053 8.04515ZM14.2249 17.7376L14.2257 17.7381C15.9436 18.7034 17.383 19.4986 18.4013 20.049C18.9109 20.3244 19.313 20.5375 19.5911 20.6796C19.6944 20.7324 19.7784 20.7743 19.8434 20.8056C19.8703 20.7913 19.9002 20.7753 19.933 20.7576C20.0762 20.6804 20.2701 20.5742 20.4979 20.4486C20.9533 20.1975 21.5411 19.8702 22.1224 19.5442C22.7039 19.2181 23.278 18.8939 23.7064 18.649C23.7419 18.6287 23.7763 18.609 23.8096 18.5899C23.809 18.5895 23.8083 18.5891 23.8077 18.5888C23.4134 18.3656 22.8425 18.0452 22.1373 17.6511C20.7273 16.8631 18.7826 15.7816 16.6443 14.5963C14.2126 13.2508 11.9811 12.0142 10.4677 11.1756C9.31251 10.5354 8.57566 10.1271 8.48742 10.0791L8.48738 10.0792L8.48021 10.0751L8.30465 9.97507L6.13943 11.1864L6.13931 11.1864C5.49136 11.5487 4.9034 11.8847 4.47818 12.1327C4.43925 12.1554 4.40174 12.1774 4.36572 12.1985C4.40194 12.2197 4.43967 12.2417 4.47884 12.2645C4.90494 12.5124 5.49476 12.8484 6.14657 13.2105L6.14754 13.211C6.6538 13.494 7.51424 13.9767 8.56143 14.5642C8.85909 14.7312 9.17183 14.9067 9.49581 15.0884C10.9599 15.9097 12.6541 16.8596 14.2249 17.7376ZM36.3549 14.036L34.5251 15.0585L32.2924 16.3062L32.2693 19.9214V19.9215C32.257 21.7802 32.2488 22.7557 32.2236 23.2835C32.2112 23.5416 32.1939 23.7258 32.1595 23.8618C32.1408 23.9361 32.1141 24.0082 32.0728 24.0769C32.0309 24.1465 31.9847 24.1939 31.9546 24.2231L31.9495 24.2281L31.9442 24.2329C31.9 24.2729 31.8371 24.3146 31.7917 24.3441C31.7359 24.3804 31.6646 24.4246 31.5818 24.4749C31.4158 24.5757 31.1941 24.706 30.9367 24.8548C30.4214 25.1528 29.7562 25.5289 29.0919 25.8992C28.4276 26.2696 27.7624 26.6352 27.2471 26.9121C26.9898 27.0504 26.768 27.1675 26.6016 27.2524C26.5188 27.2946 26.4471 27.3302 26.3904 27.3568L26.3871 27.3583C26.3488 27.3763 26.2724 27.4122 26.2058 27.4273L26.1916 27.4305L26.1771 27.4327C26.0429 27.4533 25.9032 27.4477 25.7583 27.3989C25.6198 27.3522 25.4993 27.2736 25.3895 27.1822L25.3886 27.1815L25.15 26.9819L25.0042 26.8598L25.0019 26.6697L24.9608 23.2049L24.9279 20.4352L23.0918 21.4612L23.0909 21.4617L20.8604 22.7009L20.8524 31.6225V31.6229V40.0791C21.6122 39.6501 23.4843 38.6028 25.8237 37.294C26.6911 36.8087 27.6228 36.2874 28.5858 35.7485L28.5861 35.7483C30.7366 34.547 32.702 33.4436 34.1368 32.6346C34.8543 32.23 35.4388 31.8992 35.8473 31.6667C36.0517 31.5504 36.2114 31.459 36.3216 31.3954C36.3247 31.3936 36.3279 31.3918 36.3309 31.39C36.3347 31.335 36.3385 31.2647 36.3421 31.1769C36.3543 30.8819 36.3638 30.4164 36.3705 29.7225C36.3838 28.3361 36.3859 26.0552 36.3776 22.4425L36.3549 14.036ZM36.4828 31.3006C36.4824 31.3008 36.4806 31.3019 36.4777 31.3038C36.4818 31.3013 36.4832 31.3003 36.4828 31.3006ZM8.57345 17.0462L8.57277 17.0458C6.96121 16.1401 5.48767 15.3183 4.41118 14.7231C3.91908 14.451 3.51057 14.2266 3.21001 14.0633C3.20208 14.4681 3.19591 15.0571 3.19142 15.8157C3.18218 17.3788 3.18012 19.6548 3.18423 22.5045C3.18423 22.5046 3.18423 22.5047 3.18423 22.5048L3.20826 31.3799L9.53659 34.9262C13.1311 36.938 16.808 38.9978 17.7048 39.5009L17.705 39.501L18.7082 40.0645L18.693 31.6236V31.6233L18.669 22.708L16.6587 21.5807L16.6578 21.5802C15.4411 20.894 11.7978 18.8505 8.57345 17.0462ZM27.1253 24.2855C27.1265 24.3809 27.1278 24.4699 27.1293 24.5518C27.1309 24.5509 27.1325 24.5501 27.134 24.5493C27.4747 24.3661 27.9369 24.112 28.4363 23.8299L28.4397 23.8281L30.0605 22.9321V20.0385C30.0605 19.1819 30.0544 18.4021 30.0441 17.8375C30.0424 17.742 30.0406 17.653 30.0386 17.571C30.0374 17.5717 30.0362 17.5724 30.0349 17.5731C29.6976 17.7576 29.2406 18.0122 28.7434 18.2914L28.7431 18.2915L27.1429 19.1881L27.1202 22.0842C27.1202 22.0845 27.1202 22.0848 27.1202 22.085C27.1161 22.9415 27.1181 23.721 27.1253 24.2855Z" fill="#237056" stroke="#237056" stroke-width="0.82688"/>
</svg>
