<svg width="34" height="42" viewBox="0 0 34 42" fill="none" xmlns="http://www.w3.org/2000/svg">
<path d="M12.693 0.726257C12.3136 0.726257 11.9497 0.876987 11.6814 1.14529C11.4131 1.41359 11.2623 1.77748 11.2623 2.15692V34.8578C11.2623 35.2372 11.4131 35.6011 11.6814 35.8694C11.9497 36.1377 12.3136 36.2884 12.693 36.2884C13.0724 36.2884 13.4363 36.1377 13.7046 35.8694C13.9729 35.6011 14.1237 35.2372 14.1237 34.8578V19.938H31.7004C32.0798 19.938 32.4437 19.7873 32.712 19.519C32.9803 19.2507 33.131 18.8868 33.131 18.5073V2.15692C33.131 1.77748 32.9803 1.41359 32.712 1.14529C32.4437 0.876987 32.0798 0.726257 31.7004 0.726257H12.8974C12.8627 0.726362 12.8281 0.727726 12.7935 0.730345C12.7601 0.727804 12.7265 0.72644 12.693 0.726257V0.726257ZM14.328 3.58758H30.2697V17.0767H14.328V3.58758Z" fill="#9A0034"/>
<path d="M7.78938 32.1158C3.45897 32.7282 0.430054 34.1923 0.430054 36.3469C0.430054 39.2491 5.49092 41.6024 12.6929 41.6024C19.8948 41.6024 24.9557 39.2495 24.9557 36.3469C24.9557 34.1919 21.9268 32.7282 17.5968 32.1163L16.9967 33.1377C20.2607 33.5902 22.5031 34.5422 22.5031 35.6463C22.5031 37.1943 18.111 38.4492 12.6929 38.4492C7.27475 38.4492 2.88262 37.1943 2.88262 35.6463C2.88221 34.5459 5.11036 33.5952 8.38412 33.1406C8.18628 32.7989 7.98763 32.458 7.78938 32.1158Z" fill="#9A0034"/>
</svg>
