<svg width="23" height="20" viewBox="0 0 23 20" fill="none" xmlns="http://www.w3.org/2000/svg">
<path d="M5.36707 0C2.41972 0 0 2.42029 0 5.36611V13.8003C0 16.7462 2.41972 19.1664 5.36707 19.1664H17.6329C20.5802 19.1664 23 16.7462 23 13.8003V5.36611C23 2.42029 20.5802 0 17.6329 0H5.36707ZM5.36707 3.06568H17.6329C18.9328 3.06568 19.9324 4.06466 19.9324 5.36611V13.8003C19.9324 15.1018 18.9328 16.1008 17.6329 16.1008H5.36707C4.06709 16.1008 3.06757 15.1018 3.06757 13.8003V5.36611C3.06757 4.06466 4.06709 3.06568 5.36707 3.06568Z" fill="#5F021F"/>
<path d="M2.99428 1.53442C2.79308 1.54394 2.59572 1.59296 2.41348 1.6787C2.23124 1.76444 2.06768 1.88521 1.93214 2.03412C1.65842 2.33485 1.51545 2.73193 1.53468 3.13802C1.5539 3.5441 1.73376 3.92591 2.03468 4.19947L10.468 11.8661C10.7503 12.1228 11.1184 12.265 11.5001 12.265C11.8818 12.265 12.2498 12.1228 12.5322 11.8661L20.9655 4.19947C21.2664 3.92591 21.4462 3.5441 21.4655 3.13802C21.4847 2.73193 21.3417 2.33485 21.068 2.03412C20.7943 1.7334 20.4122 1.55367 20.0059 1.53446C19.5995 1.51526 19.2022 1.65816 18.9013 1.93172L11.5001 8.65998L4.09882 1.93172C3.79792 1.65815 3.40061 1.51524 2.99428 1.53442Z" fill="#5F021F"/>
<path d="M15.7838 10.3237L14.1166 11.9083L18.8884 16.9227L20.5556 15.3382L15.7838 10.3237Z" fill="#5F021F"/>
<path d="M7.21027 10.332L2.43848 15.4268L4.11812 16.9981L8.88992 11.9033L7.21027 10.332Z" fill="#5F021F"/>
</svg>
