<svg width="40" height="45" viewBox="0 0 40 45" fill="none" xmlns="http://www.w3.org/2000/svg">
<path d="M7.36938 20.7631L7.36754 20.7895C7.28306 22.0039 7.14816 23.4147 6.84384 24.7212C6.54515 26.0036 6.05242 27.3288 5.1551 28.2535C5.15481 28.2538 5.15452 28.2541 5.15423 28.2544L4.41268 27.5343L7.36938 20.7631ZM7.36938 20.7631L7.36986 20.7366C7.51455 12.7968 9.61468 7.88558 14.5284 6.11218L15.0223 5.93394L15.1696 5.42996C15.8699 3.03432 17.6972 1.28075 20.2205 1.28075C22.7253 1.28075 24.5692 3.03668 25.2484 5.42289L25.3936 5.93312L25.8928 6.1126C30.8257 7.88624 32.9057 12.7951 33.0712 20.7393L33.0716 20.7599L33.0728 20.7805C33.1472 22.0024 33.2821 23.4136 33.5866 24.7212C33.8855 26.0043 34.3777 27.326 35.2604 28.2488L35.2604 28.2488L35.2682 28.2568C35.4621 28.4552 35.6588 28.6533 35.8526 28.8485L35.8536 28.8496C36.697 29.699 37.4739 30.4847 38.0485 31.2767C38.6231 32.0687 38.9048 32.7477 38.9048 33.3682C38.9048 33.8308 38.7361 34.1629 38.4486 34.399C38.1407 34.6518 37.6059 34.8646 36.781 34.8646H3.639C2.82675 34.8646 2.28992 34.6529 1.9774 34.3974C1.68484 34.1583 1.51531 33.8251 1.51531 33.3682C1.51531 32.7598 1.79013 32.0927 2.35221 31.313C2.91436 30.5332 3.67442 29.7593 4.50036 28.9218L3.76444 28.196L7.36938 20.7631ZM20.2205 43.3121C17.6565 43.3121 15.7471 41.7706 15.0979 39.7756H25.335C24.6727 41.774 22.7621 43.3121 20.2205 43.3121Z" stroke="#0E0C16" stroke-width="2.06724"/>
</svg>
