<svg width="375" height="291" viewBox="0 0 375 291" fill="none" xmlns="http://www.w3.org/2000/svg">
<path d="M369.22 142.889C355.362 139.115 331.926 129.278 330.917 128.412C327.211 125.231 321.347 113.328 316.263 110.163C311.18 106.997 301.223 99.3355 297.985 95.7285C294.032 91.3292 290.001 86.1357 288.265 87.0533C286.118 88.1887 286.027 92.6498 288.083 96.6067C289.855 100.013 295.776 107.21 293.92 107.522C292.066 107.834 274.357 98.2224 270.047 96.4506C263.155 93.6189 251.757 87.4307 249.491 90.4356C247.217 93.4525 249.952 96.7679 255.816 100.371C260.622 103.323 279.664 113.103 280.038 115.17C280.412 117.236 278.825 116.305 277.82 115.919C276.815 115.532 261.523 109.518 256.173 108.139C250.824 106.76 239.644 102.93 237.32 105.302C235.653 107.002 235.499 110.011 240.66 111.799C245.819 113.59 260.835 119.883 265.903 121.423C269.676 122.571 274.776 124.253 273.99 125.984C273.613 126.816 244.313 119.135 240.104 118.91C237.711 118.782 234.748 122.37 240.546 125.558C246.347 128.745 282.267 138.138 278.352 139.415C274.439 140.692 258.917 134.666 255.784 135.819C252.65 136.973 251.722 139.446 259.506 143.286C267.291 147.127 290.989 157.115 297.803 158.175C304.617 159.235 317.243 158.457 326.621 161.578C328.28 162.13 334.277 165.398 337.246 167.41L369.789 187.823L369.22 142.889Z" fill="white"/>
<path d="M369.789 188.067C369.741 188.067 369.695 188.053 369.652 188.024C366.27 185.734 325.123 161.892 320.558 160.894C317.326 160.185 312.671 159.82 308.169 159.467C304.547 159.182 300.803 158.889 297.765 158.416C290.894 157.347 267.294 147.4 259.397 143.504C255.228 141.447 253.156 139.585 253.242 137.971C253.293 136.987 254.144 136.164 255.699 135.591C257.277 135.01 261.658 136.118 266.296 137.291C271.22 138.537 276.314 139.825 278.276 139.184C278.336 139.165 278.372 139.147 278.392 139.134C278.269 138.908 277.365 138.233 272.196 136.434C268.515 135.152 263.594 133.612 258.838 132.122C250.65 129.56 242.918 127.138 240.429 125.771C239.184 125.087 236.359 123.234 237.042 120.84C237.411 119.548 238.761 118.595 240.117 118.667C242.139 118.775 249.888 120.586 257.384 122.337C264.608 124.025 272.774 125.934 273.799 125.803C273.847 125.651 273.835 125.5 273.76 125.334C273.094 123.862 268.006 122.317 265.832 121.656C262.908 120.766 256.835 118.361 250.962 116.034C246.746 114.365 242.765 112.789 240.579 112.029C237.351 110.911 236.371 109.393 236.119 108.318C235.862 107.222 236.236 106.059 237.145 105.131C239.158 103.078 246.787 105.246 252.919 106.987C254.135 107.333 255.286 107.659 256.233 107.904C260.577 109.024 271.422 113.165 277.501 115.533L277.907 115.691C278.031 115.739 278.164 115.796 278.302 115.852C278.801 116.063 279.485 116.351 279.722 116.163C279.802 116.097 279.921 115.888 279.799 115.214C279.552 113.851 268.892 107.961 262.522 104.44C259.593 102.822 257.063 101.424 255.687 100.579C251.271 97.8655 248.925 95.4917 248.515 93.322C248.314 92.2638 248.578 91.2433 249.297 90.2897C251.211 87.7495 258.756 91.1507 265.412 94.1522C267.112 94.9188 268.717 95.6426 270.139 96.2258C271.703 96.869 274.936 98.4949 278.681 100.378C284.629 103.371 292.774 107.469 293.88 107.282C293.983 107.264 294 107.223 294.011 107.199C294.309 106.505 292.182 103.364 290.632 101.071C289.52 99.4297 288.471 97.8792 287.867 96.718C286.076 93.274 285.848 89.3172 287.335 87.5129C287.568 87.2299 287.843 87.0034 288.152 86.8388C289.14 86.3157 290.596 87.223 293.182 89.9672C294.131 90.9757 295.127 92.1146 296.184 93.3203C296.832 94.063 297.503 94.8297 298.165 95.5672C301.302 99.0575 311.253 106.757 316.391 109.956C319.05 111.611 321.683 115.245 324.23 118.759C326.6 122.032 328.84 125.123 330.85 126.275C335.697 129.055 345.048 131.681 354.948 134.46C359.865 135.84 364.951 137.267 369.415 138.711C369.542 138.753 369.612 138.89 369.571 139.018C369.53 139.146 369.393 139.216 369.264 139.175C364.81 137.733 359.73 136.307 354.818 134.928C344.887 132.141 335.507 129.508 330.607 126.697C328.507 125.493 326.238 122.361 323.835 119.046C321.317 115.569 318.712 111.974 316.134 110.369C310.858 107.084 301.022 99.4743 297.803 95.8913C297.139 95.1521 296.467 94.3837 295.817 93.6411C294.765 92.4388 293.77 91.3033 292.827 90.3017C291.374 88.758 289.333 86.7651 288.378 87.2693C288.128 87.4014 287.903 87.5883 287.711 87.8233C286.34 89.4853 286.593 93.2123 288.299 96.4933C288.891 97.6288 289.98 99.2393 291.035 100.798C293.415 104.316 294.834 106.515 294.458 107.391C294.398 107.532 294.263 107.71 293.961 107.762C293.925 107.767 293.882 107.77 293.836 107.77C292.407 107.772 286.533 104.874 278.461 100.814C274.727 98.934 271.501 97.3115 269.954 96.6769C268.525 96.0886 266.916 95.3631 265.212 94.5947C259.044 91.8144 251.365 88.3533 249.684 90.583C249.043 91.4337 248.816 92.2998 248.993 93.2329C249.376 95.2585 251.65 97.5259 255.943 100.164C257.308 101.002 259.835 102.399 262.759 104.014C272.521 109.41 280.01 113.653 280.277 115.127C280.406 115.84 280.324 116.303 280.025 116.542C279.564 116.912 278.792 116.588 278.113 116.302C277.981 116.247 277.852 116.192 277.732 116.145L277.324 115.988C266.846 111.904 259.313 109.201 256.111 108.374C255.159 108.129 254.007 107.801 252.785 107.455C247.417 105.93 239.303 103.625 237.493 105.472C236.702 106.278 236.373 107.275 236.593 108.206C236.817 109.163 237.719 110.523 240.738 111.569C242.935 112.331 246.921 113.911 251.14 115.583C256.732 117.797 263.068 120.306 265.973 121.19C269.854 122.37 273.539 123.663 274.204 125.133C274.35 125.455 274.352 125.774 274.211 126.085C274.093 126.347 273.998 126.555 268.652 125.409C265.548 124.744 261.34 123.761 257.272 122.811C249.799 121.065 242.071 119.258 240.09 119.152C238.972 119.092 237.814 119.91 237.51 120.974C237.097 122.421 238.246 124.015 240.664 125.344C243.108 126.688 251.178 129.215 258.984 131.658C273.916 136.333 278.886 138.072 278.893 139.153C278.893 139.309 278.813 139.521 278.427 139.647C276.329 140.331 271.168 139.025 266.175 137.762C261.814 136.659 257.303 135.519 255.867 136.048C254.919 136.397 253.778 137.018 253.727 137.997C253.675 138.96 254.657 140.622 259.613 143.068C267.489 146.954 291.012 156.873 297.84 157.935C300.859 158.404 304.595 158.698 308.207 158.981C312.726 159.336 317.397 159.703 320.662 160.419C323.389 161.015 337.704 168.974 345.993 173.665C357.528 180.191 368.463 186.631 369.925 187.621C370.036 187.696 370.065 187.849 369.99 187.959C369.943 188.029 369.866 188.067 369.789 188.067Z" fill="#31313B"/>
<path d="M375 134.922V197.601C358.757 189.17 351.867 181.88 343.945 180.074C335.212 178.085 330.684 171.488 334.788 166.993C345.089 155.71 347.513 140.424 348.653 132.931C349.341 128.421 354.97 128.394 364.222 132.816C366.132 133.729 371.23 133.681 375 134.922Z" fill="#9A0034"/>
<path d="M114.945 54.107C127.05 59.3399 149.499 65.7082 150.72 65.6654C155.202 65.5058 166.229 60.3261 171.69 60.9676C177.149 61.609 188.683 61.8149 193.072 61.0842C198.43 60.1923 204.296 58.7739 205.017 60.429C205.907 62.4735 203.416 65.7254 199.674 67.3857C196.451 68.8144 188.08 70.5878 189.232 71.8742C190.383 73.1605 208.596 76.409 212.704 77.6079C219.269 79.5237 230.994 81.6145 230.898 85.0688C230.802 88.5368 226.94 89.3481 220.667 88.5746C215.529 87.9399 196.263 84.0466 194.811 85.3141C193.359 86.5833 195.031 86.8234 195.973 87.1218C196.916 87.4203 211.333 91.8676 215.961 93.943C220.59 96.0183 230.804 99.675 231.113 102.707C231.336 104.884 229.722 107.129 224.995 105.457C220.266 103.784 205.888 99.6973 201.368 97.8981C198.005 96.5586 193.383 94.8451 192.954 96.538C192.748 97.3509 218.17 108.626 221.319 110.877C223.11 112.154 223.18 116.427 217.192 115.393C211.207 114.357 180.053 100.517 182.13 103.675C184.205 106.832 198.796 111.403 200.382 114.026C201.969 116.648 201.219 118.955 193.434 117.25C185.647 115.545 162.924 109.136 157.426 105.992C151.929 102.848 143.318 95.0561 134.802 91.9225C133.294 91.3685 127.118 90.276 123.835 90.0187L88.7932 86.0207L114.945 54.107Z" fill="white"/>
<path d="M197.865 118.058C196.676 118.058 195.181 117.861 193.387 117.468C185.488 115.739 162.859 109.355 157.315 106.186C154.868 104.785 152.012 102.85 149.251 100.979C145.817 98.653 142.268 96.2483 139.543 94.9036C135.696 93.0067 92.5151 86.5372 88.7761 86.2439C88.6531 86.2336 88.5612 86.1255 88.5708 86.0038C88.5805 85.8803 88.6888 85.7877 88.811 85.798C92.6441 86.0998 135.701 92.511 139.74 94.504C142.493 95.8624 146.055 98.2756 149.501 100.61C152.256 102.476 155.104 104.406 157.538 105.798C163.046 108.947 185.605 115.307 193.483 117.032C198.439 118.118 200.094 117.487 200.611 116.765C201.134 116.034 200.671 114.935 200.191 114.141C199.463 112.938 195.573 111.174 191.814 109.465C187.507 107.512 183.056 105.491 181.943 103.798C181.739 103.486 181.802 103.289 181.892 103.178C182.518 102.406 187.078 104.006 200.47 109.206C207.47 111.925 214.707 114.736 217.23 115.173C219.728 115.604 221.465 115.118 221.999 113.842C222.39 112.906 222.028 111.657 221.191 111.059C219.709 109.999 213.13 106.867 206.766 103.838C203.303 102.19 199.722 100.485 197.114 99.1829C192.622 96.943 192.673 96.7389 192.738 96.4833C192.814 96.1814 192.999 95.9533 193.289 95.8058C194.608 95.1318 197.992 96.3135 201.453 97.6908C204.043 98.7216 210.027 100.552 215.308 102.166C219.292 103.383 223.057 104.534 225.069 105.246C227.835 106.225 229.262 105.766 229.971 105.208C230.662 104.666 230.996 103.762 230.892 102.732C230.65 100.368 223.51 97.3735 218.783 95.3925C217.709 94.9431 216.695 94.516 215.87 94.1473C213.1 92.9055 206.147 90.5283 196.292 87.4565L195.906 87.3347C195.793 87.3004 195.671 87.2644 195.544 87.2301C194.892 87.0449 194.153 86.8356 194.033 86.3056C193.956 85.9643 194.163 85.5836 194.664 85.1462C195.7 84.2423 203.504 85.4875 213.6 87.2112C216.623 87.7258 219.234 88.1717 220.695 88.3518C225.288 88.9195 228.218 88.5953 229.653 87.3604C230.314 86.7927 230.648 86.0415 230.674 85.0639C230.746 82.5014 223.254 80.5856 217.236 79.0471C215.574 78.6218 214.003 78.2204 212.641 77.8225C211.167 77.392 207.922 76.7094 204.166 75.917C195.784 74.1504 189.795 72.8366 189.066 72.0219C188.879 71.8127 188.884 71.6085 188.922 71.4713C189.154 70.6292 191.431 69.8643 195.155 68.7031C196.803 68.1886 198.508 67.6586 199.583 67.1818C202.688 65.8045 205.005 63.2764 204.972 61.2988C204.969 61.0192 204.916 60.7568 204.811 60.5167C204.417 59.6094 201.81 59.8701 199.882 60.1445C198.631 60.3229 197.266 60.5682 195.822 60.8289C194.932 60.9884 194.009 61.1547 193.11 61.3057C188.747 62.0312 177.329 61.8562 171.662 61.189C168.894 60.8649 164.967 61.9523 161.168 63.0019C157.543 64.0053 154.122 64.9521 151.925 64.6125C146.798 63.8218 138.56 60.3366 129.839 56.6473C125.525 54.8224 121.064 52.9358 117.041 51.4179C116.926 51.3733 116.867 51.2446 116.911 51.1297C116.955 51.0131 117.084 50.9565 117.199 50.9994C121.229 52.5207 125.695 54.4091 130.014 56.2357C138.709 59.9147 146.922 63.3896 151.993 64.1717C154.096 64.4958 157.473 63.5611 161.047 62.5715C164.889 61.5098 168.86 60.4104 171.716 60.7465C177.235 61.3949 188.787 61.5715 193.037 60.8649C193.934 60.714 194.853 60.5493 195.743 60.3881C197.192 60.1274 198.559 59.8821 199.82 59.702C203.247 59.2132 204.813 59.3984 205.221 60.34C205.348 60.6333 205.415 60.9541 205.42 61.2919C205.454 63.4376 203.022 66.1458 199.765 67.59C198.666 68.0771 197.026 68.5882 195.289 69.1302C192.86 69.8865 189.536 70.9225 189.352 71.5914C189.346 71.6137 189.335 71.6531 189.399 71.7235C190.087 72.4918 198.278 74.219 204.259 75.4796C208.024 76.2737 211.275 76.9598 212.766 77.3937C214.121 77.7899 215.687 78.1896 217.345 78.6149C223.841 80.2752 231.202 82.1567 231.121 85.0759C231.091 86.1718 230.694 87.0551 229.945 87.7C228.408 89.0207 225.365 89.3792 220.64 88.796C219.17 88.6142 216.553 88.1683 213.524 87.6503C206.938 86.5269 195.916 84.6471 194.958 85.4824C194.484 85.8974 194.448 86.1152 194.469 86.2079C194.531 86.4789 195.186 86.6641 195.666 86.7996C195.796 86.8356 195.925 86.8733 196.04 86.9094L196.424 87.0294C206.298 90.1081 213.268 92.4904 216.052 93.7391C216.872 94.1061 217.884 94.5315 218.956 94.9808C224.352 97.2431 231.068 100.059 231.336 102.685C231.458 103.874 231.06 104.92 230.247 105.56C229.449 106.188 227.878 106.714 224.919 105.668C222.916 104.96 219.157 103.81 215.176 102.593C209.631 100.898 203.895 99.1452 201.286 98.1058C199.35 97.3357 194.814 95.528 193.491 96.2037C193.344 96.2792 193.248 96.3804 193.194 96.5193C193.855 97.1968 200.808 100.507 206.958 103.435C213.339 106.472 219.935 109.613 221.45 110.695C222.463 111.42 222.885 112.878 222.41 114.016C221.529 116.125 218.441 115.835 217.155 115.612C214.587 115.168 207.651 112.475 200.309 109.623C196.042 107.966 191.63 106.253 188.255 105.062C183.516 103.392 182.48 103.359 182.262 103.45C182.269 103.471 182.284 103.505 182.317 103.553C183.358 105.138 187.751 107.131 191.997 109.059C195.997 110.873 199.774 112.589 200.573 113.909C201.362 115.213 201.499 116.29 200.974 117.026C200.482 117.713 199.441 118.058 197.865 118.058Z" fill="#31313B"/>
<path d="M0 0.193146C0 0.193146 112.616 46.7696 129.581 51.2084C147.119 55.7964 148.096 56.9301 143.464 65.607C139.828 72.4162 133.411 86.1253 134.176 92.5091C134.943 98.8912 120.798 97.8775 111.431 98.3286C63.0276 100.658 0 74.5378 0 74.5378V0.193146Z" fill="#9A0034"/>
<path d="M30.4608 71.8435C34.8103 76.6647 39.9092 80.0676 45.2663 81.7141C49.7969 83.1085 54.3149 83.184 57.6615 81.9234C59.9387 81.0658 61.2864 79.6697 61.2667 78.1878C61.2412 76.2548 58.9439 74.3544 54.9642 72.9754C50.4445 71.4078 42.6938 70.0871 30.4608 71.8435ZM52.2454 83.1428C50.0018 83.1428 47.5867 82.7706 45.1703 82.028C39.6964 80.3437 34.493 76.8517 30.0723 71.9C28.2788 72.1659 26.3908 72.4952 24.4031 72.9017C14.947 74.8295 7.6403 77.572 7.56758 77.5995C7.4832 77.6321 7.38886 77.5892 7.35679 77.5052C7.32489 77.4194 7.36742 77.3251 7.45198 77.2942C7.52487 77.2667 14.852 74.5157 24.3328 72.5827C26.0375 72.2345 27.8811 71.9001 29.8165 71.6119C29.6972 71.4747 29.5789 71.3375 29.4609 71.2003C24.908 65.873 22.5195 59.9198 22.3612 53.5034C22.224 47.9378 23.8167 42.204 26.9671 36.9214C29.9669 31.8926 34.2211 27.5636 38.9462 24.7336C43.7738 21.8401 48.7444 20.7458 52.9417 21.648C53.0301 21.6669 53.0862 21.7544 53.0671 21.8435C53.0483 21.931 52.9608 21.9876 52.8728 21.9688C44.483 20.1627 33.4659 26.6631 27.248 37.0895C24.1292 42.319 22.5525 47.9926 22.6881 53.4948C22.8445 59.834 25.2068 65.7204 29.7094 70.9876C29.8725 71.178 30.0368 71.3684 30.2024 71.5536C38.1301 70.4045 47.513 70.046 55.0714 72.6667C57.2306 73.4145 58.8918 74.2961 60.0088 75.2858C61.0326 76.1931 61.5808 77.1947 61.5938 78.1826C61.6154 79.8086 60.1884 81.3213 57.7767 82.2287C56.1571 82.8392 54.2712 83.1428 52.2454 83.1428Z" fill="white"/>
<path d="M62.4612 46.5005C58.1366 47.4627 54.0803 49.466 50.6881 52.3612C49.2908 53.5532 48.0681 55.5599 49.2203 57.2853C50.2278 58.7947 52.2209 58.8393 53.6692 58.1035C56.7945 56.5135 59.2695 53.8568 61.0253 50.2069C61.5738 49.0664 62.0528 47.828 62.4612 46.5005ZM83.4143 80.2426C80.7363 81.0195 78.4434 82.1069 76.8343 83.1995C74.7048 84.6453 73.5838 86.1461 73.7585 87.3175C73.8769 88.1116 74.6226 88.7428 75.9146 89.1425C77.077 89.5026 79.2876 87.4221 81.4127 83.9661C82.1015 82.8444 82.7786 81.5924 83.4143 80.2426ZM111.432 98.4934C111.417 98.4934 111.403 98.49 111.389 98.4866C111.301 98.4625 111.25 98.3734 111.273 98.2859C111.28 98.2619 111.903 95.8778 111.075 92.6859C109.691 87.3518 105.382 83.8958 102.01 81.9371C96.0326 78.4657 89.2051 78.6543 83.8288 80.1259C83.1541 81.5855 82.4293 82.937 81.6912 84.1376C79.418 87.8338 77.1669 89.8714 75.8181 89.4546C74.0232 88.8989 73.5316 88.0122 73.4351 87.3656C73.2409 86.0655 74.413 84.4481 76.6506 82.9285C78.3362 81.7845 80.7621 80.6456 83.5945 79.8549C87.5913 71.1386 89.7802 58.5803 82.3713 50.9136C79.2331 47.6651 73.8781 45.7733 68.0413 45.8488C66.2796 45.8728 64.5333 46.0666 62.827 46.4216C62.4024 47.8315 61.8995 49.1436 61.3201 50.3476C59.5324 54.0643 57.0082 56.7725 53.8174 58.3951C52.2407 59.196 50.0617 59.136 48.9483 57.4671C48.1538 56.2768 48.0771 54.1604 50.4756 52.1125C54.1337 48.9892 58.3522 47.0528 62.5698 46.1386C63.1553 44.1473 63.5858 41.9571 63.8556 39.5868C64.6547 32.5667 63.7565 26.327 63.7472 26.2653C63.7342 26.1761 63.7958 26.0937 63.8851 26.08C63.9746 26.0663 64.0575 26.128 64.0709 26.2172C64.0801 26.2807 64.9845 32.5615 64.1806 39.6228C63.9162 41.9468 63.4985 44.0976 62.9325 46.0632C70.7105 44.4835 78.434 46.3685 82.6064 50.6855C90.0581 58.3968 87.9678 70.9448 84.0033 79.7435C89.4118 78.3182 96.2093 78.1895 102.174 81.6541C105.605 83.6488 109.99 87.1683 111.397 92.6225C112.24 95.8933 111.616 98.2722 111.589 98.3716C111.569 98.4454 111.504 98.4934 111.432 98.4934Z" fill="white"/>
<path d="M112.116 60.8167C111.423 61.8578 110.823 62.9435 110.338 64.0412C109.074 66.9107 108.813 69.4319 109.69 70.3152C110.105 70.7337 110.753 70.7577 111.615 70.3855C112.242 70.1162 112.691 69.5966 112.95 68.8436C113.503 67.2382 113.214 64.5146 112.116 60.8167ZM110.545 70.9224C110.038 70.9224 109.705 70.7251 109.493 70.5107C108.522 69.5314 108.754 66.9484 110.085 63.9297C110.605 62.7497 111.257 61.5851 112.013 60.4737C111.362 58.3418 110.45 55.8977 109.285 53.1689C106.797 47.3408 104.006 42.2228 103.978 42.1714C103.941 42.1045 103.966 42.0205 104.033 41.9827C104.1 41.9467 104.185 41.9707 104.221 42.0376C104.249 42.0891 107.046 47.2173 109.539 53.0574C110.676 55.721 111.57 58.0965 112.219 60.1753C113.556 58.2715 115.193 56.534 116.982 55.1499C120.676 52.2942 125.035 50.8826 129.587 51.0696C129.664 51.073 129.724 51.1382 129.72 51.2136C129.717 51.2908 129.652 51.3491 129.576 51.3474C125.09 51.1622 120.793 52.5532 117.151 55.3694C115.328 56.7793 113.665 58.5613 112.323 60.5114C113.504 64.3962 113.803 67.2177 113.212 68.9345C112.926 69.7647 112.426 70.3375 111.725 70.6411C111.254 70.8435 110.865 70.9224 110.545 70.9224Z" fill="white"/>
<path d="M200.959 199.469L81.489 188.973L78.8315 78.001L200.959 88.7309V199.469Z" fill="#80354C"/>
<path d="M281.193 78.001L200.959 88.7309V199.469L281.193 182.258V78.001Z" fill="#A3405F"/>
<path d="M78.8315 78.0008L177.307 68.6292L281.193 78.0008L200.959 88.7307L78.8315 78.0008Z" fill="#BC7289"/>
<path d="M173.458 103.939L201.017 106.39V121.51L173.458 117.881V103.939Z" fill="#D6879F"/>
<path d="M201.017 106.39L223.069 102.851V116.368L201.017 121.51V106.39Z" fill="#D6879F"/>
<path d="M173.458 166.996L201.017 169.447V184.568L173.458 180.939V166.996Z" fill="#D6879F"/>
<path d="M201.017 169.447L223.069 165.911V179.426L201.017 184.568V169.447Z" fill="#D6879F"/>
<path d="M89.6326 94.2929H127.736V112.18L90.1367 111.53L89.6326 94.2929Z" fill="white"/>
<path d="M34.1779 114.082C47.4115 119.663 71.9233 126.385 73.2512 126.327C78.1308 126.111 90.091 120.363 96.0444 121.01C101.998 121.656 114.561 121.77 119.335 120.933C125.161 119.909 131.536 118.308 132.337 120.104C133.325 122.322 130.645 125.888 126.585 127.731C123.088 129.32 113.988 131.329 115.255 132.719C116.522 134.11 136.389 137.474 140.874 138.74C148.043 140.764 160.831 142.928 160.761 146.692C160.689 150.469 156.49 151.391 149.652 150.607C144.048 149.965 123.029 145.909 121.46 147.305C119.891 148.7 121.714 148.947 122.743 149.262C123.772 149.577 139.517 154.284 144.578 156.5C149.638 158.716 160.799 162.6 161.164 165.9C161.426 168.267 159.691 170.73 154.526 168.953C149.362 167.176 133.662 162.863 128.724 160.947C125.046 159.522 119.995 157.699 119.546 159.546C119.33 160.434 147.124 172.469 150.576 174.891C152.537 176.267 152.655 180.918 146.124 179.848C139.594 178.778 105.532 164.003 107.825 167.423C110.116 170.842 126.05 175.68 127.803 178.52C129.555 181.361 128.761 183.882 120.266 182.1C111.77 180.318 86.9584 173.553 80.9421 170.183C74.9258 166.811 65.4723 158.408 56.1659 155.076C54.5202 154.487 47.7833 153.357 44.2057 153.108L6.00171 149.089L34.1779 114.082Z" fill="white"/>
<path d="M124.993 182.937C123.716 182.937 122.122 182.738 120.217 182.338C111.598 180.53 86.8891 173.793 80.8236 170.396C78.143 168.893 75.0148 166.813 71.9893 164.803C68.2285 162.302 64.3396 159.717 61.3592 158.279C57.15 156.248 10.06 149.616 5.98502 149.332C5.85089 149.322 5.74987 149.206 5.75913 149.072C5.76857 148.938 5.88399 148.838 6.01881 148.846C10.1962 149.138 57.1507 155.708 61.5706 157.84C64.5811 159.294 68.4842 161.887 72.2587 164.396C75.2765 166.403 78.3971 168.476 81.0615 169.97C87.0894 173.347 111.72 180.059 120.316 181.861C125.726 182.995 127.523 182.292 128.077 181.503C128.64 180.7 128.125 179.508 127.595 178.649C126.791 177.345 122.539 175.46 118.426 173.637C113.718 171.55 108.851 169.391 107.622 167.559C107.396 167.221 107.464 167.005 107.561 166.883C108.234 166.036 113.217 167.735 127.854 173.272C135.502 176.165 143.411 179.157 146.163 179.608C148.887 180.054 150.774 179.51 151.343 178.114C151.762 177.09 151.354 175.733 150.436 175.09C148.812 173.951 141.617 170.603 134.658 167.365C130.87 165.602 126.954 163.78 124.102 162.388C119.187 159.99 119.241 159.769 119.309 159.487C119.39 159.158 119.589 158.908 119.903 158.745C121.333 157.998 125.029 159.254 128.811 160.72C131.643 161.818 138.178 163.755 143.944 165.461C148.295 166.749 152.407 167.967 154.605 168.723C157.628 169.763 159.176 169.248 159.943 168.634C160.691 168.037 161.048 167.051 160.922 165.928C160.638 163.357 152.832 160.165 147.666 158.052C146.491 157.571 145.381 157.117 144.481 156.722C141.454 155.397 133.859 152.876 123.096 149.624L122.671 149.495C122.549 149.457 122.414 149.421 122.277 149.383C121.565 149.188 120.757 148.968 120.623 148.392C120.536 148.02 120.757 147.605 121.299 147.123C122.417 146.128 130.93 147.41 141.941 149.19C145.239 149.723 148.088 150.183 149.681 150.365C154.686 150.939 157.874 150.558 159.427 149.2C160.14 148.575 160.497 147.754 160.518 146.688C160.571 143.896 152.393 141.882 145.822 140.264C144.008 139.817 142.294 139.395 140.807 138.975C139.197 138.521 135.658 137.807 131.559 136.98C122.412 135.136 115.877 133.763 115.075 132.883C114.87 132.657 114.873 132.433 114.913 132.285C115.158 131.365 117.632 130.508 121.676 129.21C123.467 128.634 125.318 128.038 126.484 127.51C129.851 125.982 132.35 123.205 132.298 121.051C132.291 120.747 132.23 120.463 132.115 120.202C131.676 119.217 128.839 119.526 126.743 119.843C125.381 120.049 123.897 120.329 122.326 120.627C121.357 120.811 120.356 120.999 119.378 121.171C114.634 122.005 102.196 121.922 96.0185 121.252C93.0007 120.924 88.732 122.145 84.6042 123.327C80.6679 124.454 76.9495 125.517 74.5536 125.169C68.9634 124.358 59.9581 120.641 50.4239 116.706C45.7074 114.76 40.8304 112.746 36.4352 111.132C36.3091 111.086 36.2443 110.945 36.2908 110.82C36.3371 110.693 36.4772 110.628 36.6031 110.674C41.0072 112.293 45.8887 114.307 50.6095 116.255C60.115 120.178 69.0933 123.884 74.6236 124.687C76.916 125.021 80.5856 123.97 84.4702 122.859C88.643 121.665 92.9576 120.43 96.0709 120.768C102.089 121.421 114.671 121.504 119.292 120.692C120.268 120.521 121.268 120.332 122.235 120.149C123.812 119.85 125.299 119.569 126.669 119.361C130.398 118.797 132.104 118.982 132.559 120.005C132.7 120.324 132.777 120.672 132.784 121.039C132.842 123.377 130.219 126.349 126.685 127.953C125.494 128.495 123.712 129.066 121.826 129.673C119.188 130.52 115.578 131.68 115.383 132.41C115.376 132.436 115.365 132.478 115.435 132.555C116.191 133.385 125.129 135.187 131.655 136.503C135.763 137.332 139.311 138.047 140.939 138.506C142.418 138.924 144.128 139.345 145.939 139.791C153.029 141.537 161.065 143.517 161.003 146.697C160.981 147.891 160.559 148.856 159.747 149.566C158.085 151.02 154.775 151.439 149.625 150.849C148.021 150.665 145.167 150.204 141.864 149.67C134.681 148.509 122.656 146.566 121.621 147.487C121.11 147.942 121.073 148.18 121.097 148.281C121.165 148.575 121.882 148.771 122.405 148.913C122.548 148.953 122.687 148.991 122.815 149.03L123.237 149.158C134.019 152.416 141.632 154.944 144.675 156.276C145.572 156.669 146.678 157.122 147.849 157.601C153.748 160.014 161.089 163.017 161.406 165.875C161.55 167.166 161.126 168.31 160.248 169.015C159.386 169.704 157.679 170.294 154.448 169.183C152.259 168.43 148.153 167.214 143.807 165.928C137.749 164.134 131.485 162.28 128.636 161.175C126.518 160.353 121.56 158.429 120.128 159.177C119.966 159.261 119.863 159.372 119.807 159.522C120.532 160.256 128.137 163.794 134.864 166.924C141.841 170.169 149.057 173.527 150.715 174.69C151.827 175.471 152.3 177.056 151.794 178.299C150.854 180.604 147.489 180.318 146.085 180.088C143.284 179.628 135.705 176.762 127.681 173.726C123.019 171.963 118.197 170.14 114.509 168.876C109.33 167.101 108.203 167.075 107.966 167.176C107.974 167.199 107.992 167.236 108.027 167.288C109.176 169.003 113.979 171.133 118.623 173.191C122.997 175.131 127.127 176.961 128.01 178.393C128.88 179.803 129.041 180.976 128.475 181.782C127.935 182.551 126.77 182.937 124.993 182.937Z" fill="#31313B"/>
<path d="M62.8753 121.438C62.6383 121.697 62.375 121.953 62.0855 122.205C55.7571 127.742 52.2202 146.944 53.8912 153.745C54.0974 154.581 54.1612 155.437 54.0989 156.288C53.6525 162.358 50.5817 164.394 40.4431 164.362C31.2683 164.331 16.4769 161.928 0 158.731V89.2983C19.1144 98.2686 36.4465 105.726 43.398 106.837C61.3938 109.719 67.822 116.056 62.8753 121.438Z" fill="#9A0034"/>
<path d="M27.0147 138.617C26.7847 138.617 26.5542 138.65 26.3242 138.716C24.2702 139.301 22.4336 142.515 22.0521 146.191C21.8244 148.387 22.1226 150.389 22.8795 152.049C26.6546 149.356 29.8753 146.353 30.544 143.626C30.8388 142.424 30.6121 141.329 29.8703 140.371C28.9738 139.213 27.9984 138.617 27.0147 138.617ZM8.7078 160.533C8.64588 160.533 8.58671 160.499 8.5591 160.439C8.52154 160.357 8.55738 160.259 8.63936 160.221C8.7632 160.165 16.3673 156.64 22.607 152.243C21.8074 150.519 21.4903 148.438 21.7268 146.158C22.1278 142.293 24.0235 139.032 26.2345 138.401C27.1779 138.132 28.6193 138.221 30.1289 140.171C30.9349 141.212 31.1813 142.4 30.8616 143.704C30.2517 146.191 27.6222 149.094 23.0284 152.36C23.781 153.854 24.9212 155.047 26.3966 155.824C30.9757 158.234 37.5149 158.001 43.4619 155.216C48.8926 152.672 52.717 148.428 53.6919 143.861C53.7108 143.773 53.7971 143.716 53.8861 143.735C53.9742 143.754 54.0307 143.841 54.0118 143.929C53.0007 148.665 49.206 152.887 43.6005 155.512C37.5627 158.339 30.9122 158.57 26.2443 156.113C24.7202 155.311 23.5399 154.084 22.7574 152.552C21.6506 153.329 20.4341 154.126 19.1076 154.943C13.8886 158.159 8.82649 160.496 8.77606 160.52C8.75394 160.53 8.73078 160.533 8.7078 160.533Z" fill="white"/>
<path d="M15.7066 121.276C13.8215 122.788 12.5441 124.353 11.8942 125.243C9.01055 129.186 7.87975 133.737 9.2637 135.829C9.9748 136.903 11.3003 137.25 13.0969 136.83C15.5434 136.258 16.4282 130.915 15.7066 121.276ZM45.437 129.882C45.0171 130.455 44.6048 131.073 44.2021 131.741C41.4856 136.247 40.7236 140.999 42.5032 142.333C42.8943 142.627 43.3112 142.649 43.7421 142.398C44.5062 141.955 45.2337 140.698 45.6882 139.036C46.1997 137.166 46.3333 134.955 46.0642 132.81C45.9385 131.808 45.728 130.829 45.437 129.882ZM43.1563 142.899C42.8636 142.899 42.5773 142.798 42.3068 142.595C40.3646 141.138 41.074 136.296 43.922 131.572C44.3573 130.85 44.8254 130.164 45.32 129.517C44.6861 127.613 43.7215 125.85 42.4622 124.312C40.0499 121.367 36.5966 119.24 32.1985 117.993C24.9477 115.935 19.5165 118.334 16.0248 121.025C16.6489 129.267 16.2593 136.426 13.1713 137.148C10.7181 137.722 9.54396 136.845 8.99083 136.009C7.51151 133.773 8.62138 129.164 11.6303 125.049C12.5492 123.792 13.8802 122.26 15.6746 120.857C15.5382 119.125 15.3516 117.259 15.1141 115.261C13.9006 105.049 11.7613 94.9174 11.7399 94.8162C11.721 94.7287 11.7774 94.6412 11.8658 94.6224C11.9537 94.6035 12.0409 94.6601 12.0597 94.7493C12.2632 95.708 15.0794 109.117 15.9929 120.614C17.123 119.766 18.4272 118.976 19.9175 118.338C23.7984 116.672 27.9602 116.451 32.2878 117.677C36.7515 118.945 40.2598 121.108 42.7152 124.104C43.9546 125.618 44.914 127.346 45.5606 129.21C47.0782 127.301 48.8295 125.778 50.649 124.804C53.746 123.145 56.9063 123.058 60.0419 124.54C60.1236 124.577 60.1584 124.675 60.1198 124.756C60.081 124.838 59.9836 124.872 59.9022 124.835C55.9818 122.982 50.3781 123.402 45.6781 129.562C46.0121 130.594 46.2506 131.668 46.3887 132.769C46.9811 137.492 45.5834 141.708 43.9062 142.681C43.6556 142.827 43.4037 142.899 43.1563 142.899Z" fill="white"/>
<path d="M52.7397 115.31C51.7892 115.31 50.8651 115.247 49.9682 115.118C47.0714 114.707 44.4564 113.628 42.1962 111.914C38.3493 108.999 36.8452 105.194 36.8304 105.157C36.7978 105.071 36.8397 104.977 36.9237 104.944C37.0081 104.911 37.1028 104.954 37.1353 105.038C37.1498 105.074 38.6272 108.805 42.406 111.664C44.6213 113.34 47.1846 114.393 50.0248 114.797C53.5824 115.302 57.589 114.782 61.9329 113.252C62.0183 113.221 62.1115 113.266 62.1417 113.352C62.1715 113.437 62.1267 113.53 62.0417 113.561C58.7349 114.725 55.6181 115.31 52.7397 115.31Z" fill="white"/>
<path d="M309.197 211.717C295.21 208.448 271.433 199.467 270.393 198.639C266.574 195.595 260.283 183.911 255.087 180.934C249.892 177.954 239.665 170.658 236.296 167.173C232.185 162.918 227.971 157.874 226.268 158.856C224.163 160.069 224.235 164.528 226.434 168.408C228.328 171.749 234.506 178.726 232.664 179.105C230.822 179.484 212.775 170.521 208.403 168.907C201.414 166.327 189.799 160.556 187.643 163.643C185.478 166.739 188.332 169.955 194.323 173.342C199.234 176.117 218.618 185.201 219.066 187.252C219.515 189.302 217.896 188.43 216.877 188.081C215.86 187.729 200.359 182.276 194.961 181.091C189.566 179.908 178.256 176.486 176.019 178.941C174.414 180.7 174.371 183.712 179.592 185.312C184.815 186.914 200.048 192.658 205.168 194.013C208.981 195.023 214.138 196.519 213.415 198.279C213.068 199.123 183.509 192.511 179.295 192.439C176.899 192.398 174.067 196.09 179.98 199.066C185.89 202.04 222.128 210.124 218.262 211.542C214.399 212.96 198.668 207.501 195.579 208.767C192.49 210.034 191.649 212.539 199.568 216.094C207.487 219.65 231.532 228.772 238.38 229.584C243.09 230.143 256.062 230.385 261.264 231.235C265.31 231.897 268.647 233.932 272.316 236.089C273.824 236.974 275.095 235.479 278.134 237.381L311.396 256.601L309.197 211.717Z" fill="white"/>
<path d="M311.396 256.844C311.351 256.844 311.307 256.832 311.267 256.806C307.803 254.64 265.818 232.307 261.219 231.474C257.964 230.885 253.299 230.688 248.786 230.498C245.157 230.345 241.404 230.187 238.353 229.825C231.446 229.007 207.501 219.922 199.469 216.317C195.226 214.411 193.089 212.626 193.116 211.01C193.131 210.024 193.951 209.172 195.486 208.542C197.042 207.904 201.458 208.853 206.136 209.856C211.103 210.923 216.24 212.026 218.178 211.314C218.238 211.293 218.274 211.273 218.293 211.261C218.161 211.038 217.234 210.396 212.003 208.786C208.276 207.638 203.304 206.278 198.496 204.963C190.221 202.697 182.405 200.56 179.87 199.282C178.599 198.644 175.711 196.895 176.306 194.478C176.627 193.174 177.944 192.169 179.299 192.195C181.326 192.229 189.135 193.758 196.689 195.236C203.969 196.66 212.199 198.27 213.217 198.105C213.262 197.951 213.243 197.8 213.163 197.637C212.444 196.19 207.302 194.83 205.107 194.248C202.151 193.466 195.994 191.283 190.039 189.17C185.768 187.655 181.734 186.223 179.522 185.545C176.254 184.544 175.22 183.064 174.929 181.997C174.632 180.911 174.963 179.736 175.839 178.776C177.776 176.652 185.48 178.541 191.67 180.059C192.898 180.359 194.059 180.644 195.015 180.855C198.26 181.566 205.904 184 216.54 187.705L216.956 187.851C217.083 187.893 217.217 187.945 217.356 187.996C217.864 188.188 218.558 188.453 218.787 188.255C218.865 188.187 218.975 187.972 218.829 187.303C218.533 185.95 207.667 180.45 201.174 177.165C198.188 175.652 195.61 174.347 194.203 173.553C189.691 171.001 187.26 168.715 186.772 166.562C186.533 165.511 186.76 164.482 187.444 163.504C189.264 160.895 196.927 164.02 203.688 166.778C205.415 167.482 207.046 168.147 208.489 168.68C210.074 169.265 213.363 170.773 217.173 172.519C223.225 175.294 231.513 179.093 232.614 178.867C232.717 178.846 232.732 178.805 232.741 178.779C233.014 178.074 230.775 175.013 229.141 172.776C227.973 171.178 226.868 169.667 226.222 168.528C224.308 165.151 223.935 161.206 225.357 159.348C225.579 159.057 225.844 158.82 226.146 158.645C227.115 158.086 228.604 158.938 231.288 161.59C232.274 162.562 233.312 163.665 234.41 164.832C235.086 165.55 235.784 166.291 236.471 167.003C239.732 170.378 249.956 177.711 255.208 180.722C257.924 182.28 260.688 185.816 263.36 189.236C265.848 192.42 268.198 195.426 270.248 196.507C275.194 199.109 284.634 201.393 294.629 203.81C299.594 205.011 304.726 206.252 309.24 207.535C309.368 207.571 309.444 207.705 309.406 207.835C309.37 207.964 309.236 208.04 309.106 208.004C304.602 206.724 299.474 205.484 294.515 204.283C284.49 201.858 275.021 199.568 270.021 196.937C267.879 195.809 265.498 192.761 262.977 189.537C260.334 186.153 257.6 182.654 254.966 181.144C249.575 178.054 239.468 170.805 236.122 167.341C235.432 166.627 234.732 165.885 234.056 165.166C232.96 164.001 231.926 162.902 230.947 161.936C229.438 160.446 227.325 158.527 226.39 159.067C226.145 159.209 225.927 159.403 225.743 159.643C224.433 161.355 224.822 165.072 226.645 168.288C227.277 169.401 228.426 170.972 229.535 172.49C232.041 175.92 233.539 178.066 233.195 178.956C233.141 179.098 233.012 179.282 232.714 179.343C232.665 179.352 232.609 179.357 232.545 179.357C231.045 179.357 225.107 176.69 216.97 172.961C213.169 171.221 209.888 169.716 208.319 169.137C206.87 168.602 205.235 167.934 203.505 167.229C197.239 164.674 189.44 161.494 187.842 163.782C187.231 164.657 187.037 165.53 187.247 166.454C187.703 168.466 190.058 170.649 194.443 173.13C195.84 173.918 198.414 175.222 201.393 176.73C211.346 181.767 218.986 185.738 219.305 187.201C219.459 187.907 219.394 188.374 219.104 188.624C218.656 189.01 217.874 188.713 217.185 188.453C217.051 188.401 216.92 188.353 216.799 188.31L216.38 188.164C205.762 184.465 198.138 182.038 194.91 181.33C193.95 181.119 192.785 180.832 191.553 180.53C186.134 179.201 177.942 177.193 176.198 179.103C175.438 179.939 175.146 180.947 175.399 181.87C175.658 182.817 176.608 184.142 179.664 185.081C181.887 185.762 185.926 187.194 190.202 188.712C195.87 190.722 202.295 193.001 205.23 193.778C209.153 194.816 212.88 195.975 213.598 197.419C213.756 197.737 213.77 198.056 213.641 198.37C213.531 198.637 213.446 198.848 208.06 197.898C204.935 197.346 200.695 196.515 196.594 195.713C189.063 194.239 181.275 192.715 179.29 192.68C179.278 192.68 179.266 192.68 179.254 192.68C178.146 192.68 177.04 193.531 176.778 194.595C176.417 196.058 177.625 197.608 180.088 198.848C182.582 200.102 190.737 202.335 198.625 204.493C213.717 208.623 218.747 210.18 218.793 211.261C218.8 211.417 218.728 211.631 218.346 211.772C216.276 212.532 211.068 211.413 206.034 210.333C201.635 209.388 197.087 208.412 195.67 208.993C194.735 209.376 193.619 210.038 193.601 211.019C193.586 211.983 194.625 213.609 199.668 215.873C207.681 219.469 231.547 228.529 238.41 229.343C241.442 229.702 245.186 229.86 248.807 230.012C253.335 230.203 258.017 230.4 261.307 230.995C264.054 231.494 278.647 238.928 287.102 243.315C298.865 249.417 310.027 255.456 311.524 256.393C311.639 256.465 311.674 256.616 311.602 256.729C311.555 256.803 311.476 256.844 311.396 256.844Z" fill="#31313B"/>
<path d="M375 216.085V290.039C375 290.039 312.893 258.916 293.515 255.235C284.713 253.561 287.968 194.073 304.218 202.327C312.829 206.7 346.035 211.017 375 216.085Z" fill="#9A0034"/>
<path d="M272.852 248.124C272.726 248.124 272.6 248.111 272.475 248.081C270.868 247.711 270.151 244.836 270.342 239.535C270.518 234.652 271.453 228.33 272.973 221.732C274.492 215.135 276.418 209.041 278.398 204.573C280.545 199.723 282.45 197.452 284.056 197.822C285.45 198.145 285.85 199.925 286.028 201.236C286.071 201.548 285.852 201.838 285.538 201.879C285.222 201.925 284.936 201.702 284.893 201.39C284.752 200.354 284.449 199.088 283.799 198.937C283.241 198.81 281.697 199.949 279.444 205.038C277.494 209.441 275.592 215.461 274.087 221.989C272.583 228.518 271.659 234.765 271.486 239.576C271.285 245.136 272.175 246.838 272.732 246.967C273.561 247.155 275.377 245.255 277.766 239.264C277.883 238.969 278.216 238.826 278.509 238.943C278.804 239.06 278.946 239.394 278.83 239.687C276.569 245.354 274.609 248.124 272.852 248.124Z" fill="#31313B"/>
<path d="M283.106 63.1804C285.202 60.5322 288.083 58.3711 290.716 56.2941C293.347 54.217 296.129 51.9239 299.194 50.5089C300.148 50.0681 299.317 48.6565 298.369 49.0956C295.241 50.5415 292.414 52.8929 289.725 55.0077C288.138 56.2546 286.579 57.5393 285.075 58.8856C283.981 59.865 282.864 60.8683 281.95 62.0244C281.303 62.8408 282.454 64.0054 283.106 63.1804Z" fill="#D6879F"/>
<path d="M223.772 51.2686C223.196 44.9929 222.62 38.7189 222.043 32.4432C221.947 31.4038 220.311 31.3935 220.407 32.4432C220.983 38.7189 221.56 44.9929 222.138 51.2686C222.232 52.308 223.868 52.3183 223.772 51.2686Z" fill="#D6879F"/>
<path d="M115.857 219.495C109.994 234.607 103.345 249.411 95.9383 263.83C93.8534 267.888 91.7081 271.915 89.5063 275.911C88.9981 276.832 90.4099 277.659 90.9184 276.736C98.7921 262.446 105.918 247.749 112.259 232.715C114.047 228.479 115.771 224.217 117.434 219.931C117.815 218.948 116.234 218.523 115.857 219.495Z" fill="#D6879F"/>
<path d="M77.1311 204.227C71.799 207.957 66.467 211.688 61.1349 215.418C60.1462 216.109 59.1572 216.8 58.1684 217.493C57.3124 218.092 58.1286 219.51 58.9937 218.905C64.3258 215.175 69.6578 211.444 74.9899 207.714C75.9787 207.022 76.9676 206.33 77.9564 205.638C78.8124 205.04 77.996 203.621 77.1311 204.227Z" fill="#D6879F"/>
<path d="M156.25 221.413C156.806 224.214 157.631 226.973 158.409 229.717C159.39 233.177 160.411 236.626 161.509 240.051C161.927 241.355 162.344 242.663 162.843 243.938C163.224 244.907 164.805 244.485 164.421 243.502C163.38 240.844 162.586 238.075 161.761 235.345C160.721 231.903 159.72 228.446 158.799 224.972C158.447 223.648 158.094 222.322 157.826 220.979C157.62 219.948 156.044 220.384 156.25 221.413Z" fill="#D6879F"/>
<path d="M266.939 13.6622C262.536 26.0369 258.133 38.4134 253.732 50.7899C253.379 51.783 254.957 52.2101 255.308 51.2238C259.711 38.8491 264.112 26.4726 268.515 14.0961C268.868 13.103 267.289 12.676 266.939 13.6622Z" fill="#D6879F"/>
<path d="M99.8214 98.3235C100.234 97.6837 100.23 96.9411 99.7985 96.3116C99.6883 96.1504 99.4505 96.0457 99.27 96.1727C97.4883 97.4316 96.3153 99.9631 97.1614 102.109C98.1394 104.591 100.785 102.644 101.388 100.953C101.518 100.587 100.996 100.298 100.743 100.577C100.128 101.249 99.6799 102.802 100.586 103.471C101.519 104.16 102.686 102.522 102.956 101.812C103.09 101.462 102.661 101.253 102.389 101.376C101.633 101.718 101.684 102.822 102.404 103.179C103.498 103.721 104.307 102.57 104.625 101.697C104.754 101.34 104.332 101.143 104.057 101.26C103.323 101.572 103.449 102.598 104.117 102.913C104.909 103.289 106.085 102.906 106.456 102.114C106.221 102.016 105.985 101.917 105.75 101.817C105.485 102.661 106.146 103.675 107.001 102.966C107.385 102.649 106.835 102.105 106.455 102.419C106.468 102.287 106.482 102.155 106.495 102.023C106.624 101.613 105.977 101.323 105.789 101.725C105.654 102.013 105.413 102.153 105.114 102.225C105.025 102.253 104.934 102.265 104.841 102.261C104.624 102.323 104.492 102.212 104.447 101.927C104.258 101.781 104.069 101.637 103.88 101.491C103.814 101.707 103.721 101.91 103.601 102.1C103.257 102.651 102.983 102.632 102.779 102.044C102.59 101.898 102.401 101.752 102.211 101.606C102.089 101.927 101.494 102.953 101.027 102.815C100.827 102.757 100.869 101.99 100.891 101.876C100.946 101.584 101.09 101.34 101.289 101.123C101.074 100.997 100.859 100.872 100.643 100.747C100.403 101.423 99.8863 102.14 99.187 102.402C97.9982 102.848 97.6959 101.601 97.6859 100.675C97.6694 99.1587 98.4255 97.7112 99.6599 96.8399C99.4837 96.7936 99.3076 96.7472 99.1313 96.7009C99.4179 97.1177 99.4261 97.5122 99.1543 97.9324C98.8838 98.3526 99.5523 98.7402 99.8214 98.3235Z" fill="#6B6B76"/>
<path d="M110.663 102.003C110.686 101.8 110.709 101.598 110.732 101.395C110.774 101.018 110.169 100.862 110.012 101.2C109.718 101.831 109.479 102.996 110.51 102.982C111.515 102.97 112.31 102.112 112.663 101.253C112.837 100.829 112.186 100.615 111.956 100.956C111.486 101.654 111.836 102.601 112.635 102.867C113.694 103.22 114.593 102.421 115.252 101.701C115.036 101.575 114.821 101.45 114.606 101.325C114.357 102.044 114.616 102.735 115.426 102.86C116.308 102.997 116.864 102.274 117.278 101.606C117.042 101.575 116.807 101.546 116.572 101.515C116.977 102.726 118.396 103.088 119.274 102.112C119.071 102.087 118.869 102.061 118.667 102.035C118.939 102.569 119.375 102.893 119.968 102.978C120.454 103.049 120.665 102.304 120.172 102.232C119.783 102.178 119.515 102.001 119.334 101.644C119.225 101.43 118.888 101.387 118.727 101.565C118.271 102.073 117.552 102.011 117.317 101.31C117.211 100.994 116.791 100.927 116.611 101.217C116.497 101.401 116.393 101.596 116.237 101.747C116.084 101.898 114.989 102.577 115.351 101.529C115.477 101.166 114.96 100.876 114.705 101.154C114.462 101.421 114.214 101.713 113.909 101.912C113.7 102.061 113.465 102.148 113.204 102.174C112.598 102.143 112.405 101.867 112.624 101.346C112.388 101.246 112.153 101.147 111.917 101.049C111.759 101.433 111.509 101.749 111.153 101.967C110.705 102.241 110.424 102.138 110.679 101.591C110.439 101.526 110.199 101.461 109.959 101.395C109.936 101.598 109.913 101.8 109.891 102.003C109.835 102.497 110.608 102.491 110.663 102.003Z" fill="#6B6B76"/>
<path d="M99.0419 107.067C99.5633 106.837 99.8806 106.443 100.038 105.899C100.132 105.577 99.7585 105.292 99.4705 105.464C98.4457 106.074 97.4729 107.796 98.2816 108.945C99.0436 110.028 101.068 108.112 101.542 107.486C101.727 107.24 101.473 106.908 101.208 106.904C100.51 106.892 100.083 107.736 100.537 108.294C101.189 109.093 102.145 108.343 102.497 107.7C102.686 107.354 102.31 106.992 101.968 107.172C101.001 107.676 101.8 108.964 102.768 108.628C102.958 108.561 103.22 108.218 103.375 108.206C103.532 108.194 103.566 108.396 103.778 108.51C104.287 108.779 104.772 108.419 105.086 108.041C105.403 107.662 104.859 107.114 104.54 107.496C104.037 108.098 104.153 107.426 103.657 107.314C103.509 107.28 103.346 107.321 103.211 107.379C102.938 107.496 102.611 107.705 102.358 107.837C102.182 107.662 102.006 107.486 101.83 107.309C101.751 107.599 101.544 107.721 101.208 107.676C101.097 107.482 100.986 107.288 100.875 107.095C100.395 107.731 99.5297 108.465 98.6788 108.455C98.7899 108.518 98.9013 108.582 99.0124 108.645C98.4124 107.8 99.1019 106.582 99.8604 106.131C99.6714 105.985 99.4822 105.839 99.293 105.695C99.1916 106.043 98.9783 106.256 98.6519 106.4C98.1982 106.601 98.5908 107.268 99.0419 107.067Z" fill="#6B6B76"/>
<path d="M106.565 107.779C107.289 108.536 108.148 108.192 109.058 108.136C109.496 108.108 109.86 108.259 110.276 108.103C110.439 108.042 110.555 107.853 110.767 107.927C110.894 107.97 111.035 108.237 111.164 108.318C111.424 108.482 111.664 108.489 111.954 108.4C112.294 108.295 112.419 108.155 112.83 108.141C113.118 108.131 113.422 108.18 113.709 108.201C114.834 108.277 115.991 108.441 117.063 108.002C117.517 107.817 117.318 107.069 116.858 107.258C115.854 107.668 114.762 107.498 113.709 107.428C113.261 107.397 112.718 107.28 112.272 107.404C111.821 107.529 111.78 107.76 111.37 107.445C110.856 107.048 110.719 107.007 110.116 107.265C109.67 107.455 109.247 107.338 108.766 107.402C108.208 107.477 107.565 107.707 107.111 107.234C106.767 106.874 106.221 107.421 106.565 107.779Z" fill="#6B6B76"/>
<path d="M281.193 94.2929L264.037 98.802L263.997 107.963L281.193 103.954V94.2929Z" fill="#D6879F"/>
<path d="M281.193 159.076L264.037 163.585L263.997 172.744L281.193 168.735V159.076Z" fill="#D6879F"/>
</svg>
