<svg width="40" height="45" viewBox="0 0 40 45" fill="none" xmlns="http://www.w3.org/2000/svg">
<path d="M10.178 6.0584C3.11195 10.0154 0.494254 11.5261 0.423506 11.6806C0.282009 11.9724 0.282009 33.2422 0.423506 33.5341C0.494254 33.6886 3.10311 35.1907 10.1868 39.1648C15.5106 42.1433 19.9501 44.581 20.0562 44.581C20.1889 44.581 37.9202 34.7358 39.4325 33.8259C39.5121 33.7744 39.6182 33.6371 39.6713 33.5341C39.8128 33.2422 39.8039 11.9638 39.6713 11.6806C39.5651 11.4574 39.6447 11.5003 30.3501 6.29873C27.3876 4.63354 23.8943 2.67651 22.6032 1.9555C21.2855 1.21732 20.1535 0.633644 20.0385 0.633644C19.9236 0.642227 15.4841 3.07993 10.178 6.0584ZM28.8291 7.06266C33.578 9.73212 37.4692 11.9381 37.4692 11.9638C37.4692 12.0239 32.4019 14.8822 32.2957 14.8822C32.1808 14.8822 14.7324 5.16571 14.7766 5.1228C14.9181 4.97688 20.0209 2.17867 20.1004 2.19584C20.1447 2.213 24.0801 4.40179 28.8291 7.06266ZM21.9576 10.8051C26.7685 13.4745 30.7127 15.689 30.7304 15.732C30.757 15.8092 27.1399 17.8778 26.8569 17.9465C26.7508 17.9722 9.54123 8.53043 9.2317 8.27293C9.18748 8.23859 13.0433 5.98973 13.2025 5.95539C13.2113 5.95539 17.1467 8.13559 21.9576 10.8051ZM16.8902 14.1526C21.4889 16.7019 25.2563 18.8048 25.2563 18.8306C25.2563 18.8735 20.3658 21.6116 20.1358 21.7061C20.0562 21.7318 17.5535 20.3842 13.8569 18.307C10.4786 16.4186 6.56979 14.2213 5.1725 13.4402C3.76638 12.6591 2.62555 11.9896 2.62555 11.9638C2.62555 11.9381 3.76638 11.2686 5.16366 10.4875L7.71061 9.06261L8.11741 9.29436C8.3385 9.41453 12.2827 11.6033 16.8902 14.1526ZM38.2475 32.8731C38.1856 32.9246 34.3563 35.0877 29.7311 37.6713C25.1148 40.2549 21.1971 42.4437 21.0467 42.5381L20.7549 42.7098V32.8474L20.7637 22.9936L23.3903 21.5344L26.0168 20.0666L26.061 23.7918L26.1052 27.5171L26.3617 27.7316C26.5474 27.8862 26.6889 27.9291 26.8569 27.9033C27.1222 27.8432 32.561 24.8133 32.8263 24.5729C32.9944 24.4098 33.0032 24.2725 33.0297 20.264L33.0563 16.1182L35.6828 14.6504L38.3094 13.1827L38.3359 22.9764C38.3536 30.7444 38.327 32.7959 38.2475 32.8731ZM8.21469 16.7877C11.6814 18.7276 15.5991 20.925 16.9079 21.6631L19.2957 23.0022L19.3222 32.8474L19.3399 42.684L17.5977 41.7055C16.6338 41.1648 12.6807 38.9502 8.81605 36.7872L1.78542 32.8474L1.75888 23.0451C1.75004 16.9165 1.76773 13.2513 1.82079 13.2513C1.87385 13.2513 4.74801 14.8393 8.21469 16.7877ZM31.544 20.3928V23.7661L29.5719 24.8562C28.493 25.4656 27.5733 25.9549 27.5379 25.9549C27.5025 25.9549 27.4848 24.4356 27.4937 22.5902L27.5202 19.2168L29.4658 18.1268C30.5359 17.5259 31.4379 17.0281 31.4821 17.0281C31.5175 17.0281 31.544 18.5473 31.544 20.3928Z" fill="#0E0C16"/>
</svg>
