<svg width="375" height="423" viewBox="0 0 375 423" fill="none" xmlns="http://www.w3.org/2000/svg">
<g clip-path="url(#clip0_507_6531)">
<path d="M136.87 128.324C143.412 126.969 150.01 125.991 156.688 125.711C160.775 125.54 164.877 125.381 168.959 125.544C174.234 125.755 179.517 126.115 184.756 126.744C189.068 127.262 193.348 128.146 197.596 129.081C205.702 130.865 213.581 133.419 221.289 136.499C221.339 136.52 221.372 136.586 221.498 136.725C219.886 137.589 218.877 138.966 218.593 140.713C218.324 142.362 218.327 144.056 218.21 145.74C215.977 144.102 213.432 143.512 211.319 145.795C209.131 148.159 209.993 150.668 212.13 153.006C210.575 153.374 209.208 153.826 207.807 154.006C203.428 154.568 199.217 155.8 195.024 157.094C193.353 157.61 191.739 158.33 190.591 159.766C190.472 159.916 190.289 160.052 190.25 160.22C190.104 160.857 189.716 161.681 189.97 162.097C190.212 162.494 191.172 162.677 191.768 162.596C195.983 162.02 200.194 161.406 204.389 160.702C212.259 159.381 220.124 158.025 227.98 156.62C235.462 155.281 242.929 153.85 250.41 152.505C250.877 152.421 251.514 152.595 251.902 152.88C255.956 155.855 260.007 158.836 263.99 161.904C266.08 163.515 268.034 165.302 270.068 167.103C269.126 167.339 268.171 167.511 267.208 167.62C262.111 168.197 257.013 168.751 251.917 169.33C250.643 169.475 249.378 169.683 248.073 169.867C248.429 172.605 248.77 175.176 249.096 177.749C249.522 181.109 249.936 184.47 250.274 187.821C250.069 187.793 249.938 187.789 249.818 187.752C246.465 186.72 243.117 185.672 239.759 184.658C238.937 184.41 238.083 184.27 237.168 184.067C236.839 184.055 236.58 184.019 236.336 184.065C234.214 184.473 232.094 184.896 229.974 185.313C226.668 185.963 223.36 186.603 220.057 187.264C217.819 187.712 215.586 188.188 213.292 188.663C213.573 190.166 213.854 191.597 214.107 193.033C215.469 200.79 216.821 208.549 218.185 216.306C219.037 221.152 219.902 225.995 220.766 230.839C221.524 235.09 222.288 239.341 222.997 243.636C221.654 244.021 220.361 244.358 219.07 244.701C214.184 246 209.3 247.3 204.418 248.523C204.217 246.752 204.014 245.057 203.814 243.28C204.103 240.64 204.611 238.084 204.629 235.524C204.669 229.711 202.508 224.838 197.74 221.316C195.759 219.853 193.611 218.692 191.051 218.348C190.917 218.325 190.839 218.318 190.728 218.259C190.465 218.193 190.235 218.178 189.94 218.147C189.738 218.116 189.603 218.102 189.446 218.057C189.358 218.037 189.292 218.048 189.172 218.048C189.046 218.031 188.973 218.024 188.853 217.975C188.564 217.928 188.322 217.922 187.996 217.909C183.674 217.74 179.878 218.996 176.463 221.472C173.49 223.627 171.443 226.495 169.942 229.837C166.831 230.086 163.796 230.329 160.763 230.595C150.993 231.452 141.223 232.307 131.457 233.199C130.714 233.267 130.472 233.084 130.458 232.377C130.431 231.045 130.373 229.714 130.309 228.384C130.052 223.093 129.794 217.802 129.524 212.512C129.246 207.064 128.922 201.619 128.701 196.169C128.665 195.279 128.282 195.202 127.618 195.129C117.53 194.031 107.444 192.921 97.2846 191.813C94.6572 192.344 92.1036 192.881 89.5469 193.402C80.916 195.163 72.2851 196.925 63.6496 198.663C63.0271 198.788 62.7576 199.061 62.7853 199.674C62.8168 200.37 62.8482 201.066 62.8628 201.763C62.9085 203.949 62.9449 206.135 62.9876 208.32C63.0397 210.981 63.0941 213.642 63.148 216.303C63.2142 219.566 63.2785 222.829 63.3482 226.091C63.4057 228.784 63.4704 231.476 63.5308 234.169C63.5791 236.323 63.6281 238.477 63.6725 240.631C63.7287 243.355 63.7799 246.079 63.8346 248.803C63.879 251.021 63.9239 253.238 63.9715 255.456C64.0198 257.705 64.0753 259.953 64.121 262.202C64.1661 264.42 64.2029 266.638 64.1693 268.871C63.9714 268.916 63.8489 268.957 63.7233 268.973C54.1166 270.264 44.5113 271.566 34.8998 272.82C33.9584 272.943 33.7847 273.279 33.9049 274.156C34.168 276.075 34.3109 278.011 34.516 279.938C35.0806 285.246 35.6521 290.553 36.2208 295.86C32.3226 296.239 28.4244 296.618 24.468 297.002C24.4892 295.738 24.4804 294.695 24.5294 293.655C24.6432 291.242 24.8284 288.831 24.9074 286.417C25.1724 278.32 26.0635 270.279 27.0332 262.247C27.4488 258.804 27.9529 255.368 28.5662 251.955C29.3126 247.802 30.1151 243.653 31.0799 239.547C32.1095 235.164 33.1944 230.782 34.5498 226.493C36.2893 220.989 38.2277 215.541 40.2557 210.135C42.3367 204.588 45.0106 199.301 47.9026 194.132C48.1055 193.769 48.6822 193.504 49.1312 193.407C57.8084 191.529 66.4895 189.669 75.1765 187.838C78.5049 187.136 81.8594 186.558 85.1832 185.836C86.6343 185.521 88.0237 184.958 89.2822 183.901C88.5147 183.073 87.5383 182.805 86.6058 182.771C84.9342 182.709 83.2443 182.766 81.5809 182.947C79.1519 183.212 76.7408 183.639 74.3189 183.974C73.925 184.028 73.5149 183.965 72.8944 183.952C73.2188 182.854 73.5303 181.908 73.7776 180.945C74.8393 176.811 74.2491 172.952 71.1858 170.113C70.0129 169.026 68.5744 168.437 66.7585 168.193C71.5383 163.143 76.4052 158.436 81.9101 154.258C83.3081 154.984 84.6078 155.663 85.8266 156.466C86.9577 157.21 88.0959 157.581 89.4835 157.453C93.2088 157.109 96.9441 156.874 100.756 156.601C102.137 156.47 103.438 156.333 104.804 156.218C105.212 156.456 105.55 156.676 105.894 156.886C106.698 157.376 106.945 157.23 107.008 156.18C107.196 156.047 107.354 155.953 107.522 155.928C109.322 155.664 111.123 155.411 112.999 155.166C115.613 154.814 118.156 154.469 120.693 154.08C123.973 153.577 127.249 153.038 130.597 152.483C131.449 149.51 132.25 146.574 133.009 143.627C133.878 140.246 134.708 136.856 135.559 133.471C135.991 131.754 136.433 130.039 136.87 128.324ZM179.018 204.646C178.16 204.232 177.314 203.792 176.442 203.408C174.668 202.628 172.902 201.822 171.083 201.161C170.699 201.022 169.975 201.33 169.638 201.664C169.13 202.167 169.583 202.673 170.024 203.02C170.549 203.433 171.082 203.858 171.672 204.16C174.363 205.537 177.069 206.886 179.782 208.219C181.164 208.899 181.737 208.607 182.349 207.227C183.214 205.28 184.128 203.352 185.11 201.463C185.829 200.081 186.699 198.778 187.488 197.432C187.989 196.576 187.8 195.742 187.026 195.274C186.349 194.865 185.739 195.043 185.169 195.855C184.895 196.245 184.664 196.666 184.424 197.079C183.63 198.443 182.84 199.811 181.969 201.314C181.745 200.121 181.594 199.066 181.347 198.034C179.767 191.424 177.703 184.969 175.13 178.677C172.721 172.786 169.667 167.246 165.921 162.111C161.996 156.73 157.432 151.946 152.12 147.898C148.79 145.36 145.237 143.186 141.47 141.364C140.398 140.846 139.609 141.16 139.276 142.198C139.049 142.903 139.472 143.639 140.338 144.109C142.044 145.036 143.794 145.894 145.433 146.928C153.079 151.751 159.386 157.96 164.483 165.426C168.039 170.635 170.806 176.238 173.19 182.061C176.169 189.337 177.277 197.096 179.165 204.653C179.165 204.653 179.168 204.65 179.018 204.646Z" fill="#A5E8F1"/>
<path d="M321.308 299.455C322.5 300.73 323.672 302.023 324.886 303.275C327.169 305.63 329.507 307.958 331.04 310.891C331.806 312.357 332.557 313.922 331.889 315.711C331.384 317.066 330.418 317.939 329.137 318.45C325.534 319.886 321.923 321.303 318.294 322.673C314.19 324.222 310.077 325.746 305.945 327.217C300.094 329.3 294.222 331.322 288.36 333.373C283.493 335.077 278.635 336.805 273.761 338.486C265.901 341.196 258.034 343.884 250.164 346.565C244.532 348.484 238.895 350.388 233.253 352.276C227.214 354.297 221.167 356.291 215.123 358.297C210.714 359.761 206.32 361.276 201.89 362.675C196.369 364.419 190.819 366.07 185.28 367.756C182.504 368.602 179.676 369.153 176.766 369.228C174.295 369.291 172.096 368.531 170.314 366.832C167.718 364.357 165.076 361.91 162.687 359.242C159.522 355.708 156.487 352.046 153.571 348.303C150.662 344.569 147.922 340.699 145.193 336.829C142.446 332.933 139.717 329.02 137.144 325.01C134.778 321.322 132.557 317.535 130.418 313.71C129.211 311.553 128.251 309.251 127.267 306.976C126.446 305.079 126.808 303.297 128.369 301.951C129.414 301.049 130.672 300.394 131.958 299.662C134.788 303.362 137.457 307.058 140.207 310.693C146.901 319.541 153.601 328.385 160.365 337.18C162.779 340.319 165.522 343.178 168.765 345.499C170.908 347.032 173.248 347.908 175.941 347.447C178.135 347.072 180.35 346.793 182.519 346.307C193.065 343.944 203.366 340.709 213.641 337.401C244.205 327.561 274.381 316.61 304.532 305.587C310.124 303.543 315.716 301.499 321.308 299.455Z" fill="#EDD9D2"/>
<path d="M250.355 187.83C249.936 184.47 249.522 181.109 249.096 177.749C248.77 175.176 248.429 172.605 248.073 169.867C249.378 169.683 250.644 169.475 251.917 169.33C257.013 168.751 262.112 168.197 267.208 167.62C268.171 167.511 269.126 167.339 270.123 167.137C273.608 170.399 277.103 173.675 280.485 177.063C282.346 178.927 284.054 180.95 285.763 182.958C287.891 185.457 290.032 187.953 292.015 190.566C294.048 193.246 295.95 196.03 297.811 198.834C299.459 201.317 301.083 203.828 302.514 206.438C304.339 209.769 306.035 213.177 307.641 216.619C308.783 219.069 309.755 221.605 310.681 224.147C312.718 229.735 314.177 235.484 315.054 241.362C315.456 244.05 315.574 246.779 315.815 249.49C315.858 249.973 315.658 250.223 315.148 250.337C312.458 250.934 309.779 251.577 307.092 252.19C304.281 252.831 301.465 253.454 298.543 254.106C292.351 248.308 286.27 242.486 280.183 236.671C276.439 233.094 271.957 232.598 267.049 233.567C266.224 233.618 265.478 233.678 264.694 233.678C264.583 233.179 264.519 232.738 264.436 232.302C263.149 225.554 261.863 218.805 260.569 212.058C259.191 204.876 257.8 197.696 256.431 190.512C256.322 189.945 256.093 189.667 255.501 189.496C253.77 188.997 252.068 188.393 250.355 187.83Z" fill="#DFFDFF"/>
<path d="M36.2976 295.867C35.6516 290.553 35.0802 285.246 34.5155 279.938C34.3104 278.011 34.1675 276.075 33.9044 274.156C33.7842 273.279 33.9579 272.943 34.8993 272.82C44.5109 271.566 54.1161 270.264 63.7229 268.973C63.8485 268.956 63.9709 268.916 64.2414 268.881C68.5644 268.307 72.7408 267.739 76.9349 267.168C76.6251 261.26 76.3292 255.482 76.0091 249.706C75.974 249.073 76.2116 248.916 76.8052 248.837C81.6568 248.188 86.5043 247.506 91.3507 246.818C94.0817 246.431 96.8083 246.012 99.6151 245.616C103.235 245.143 106.776 244.651 110.32 244.184C112.388 243.912 114.461 243.679 116.524 243.508C116.899 246.949 117.276 250.313 117.667 253.675C118.14 257.733 118.623 261.789 119.108 265.846C119.495 269.083 119.896 272.32 120.28 275.558C120.69 279.016 121.087 282.475 121.489 285.934C115.941 286.683 110.401 287.507 104.842 288.167C87.3427 290.246 69.8384 292.284 52.3305 294.29C47.0211 294.899 41.6939 295.351 36.2976 295.867Z" fill="#528394"/>
<path d="M321.364 299.416C315.716 301.499 310.124 303.543 304.532 305.587C274.381 316.61 244.205 327.561 213.641 337.401C203.366 340.709 193.065 343.944 182.519 346.307C180.351 346.793 178.135 347.072 175.942 347.447C173.248 347.908 170.908 347.032 168.765 345.499C165.522 343.178 162.779 340.319 160.365 337.18C153.601 328.385 146.901 319.541 140.207 310.693C137.457 307.058 134.788 303.362 132.028 299.663C131.66 299.158 131.4 298.637 131.024 298.221C128.82 295.787 128.416 292.808 128.423 289.714C128.427 288.194 128.531 286.674 128.584 284.988C129.058 281.606 129.537 278.391 130.062 275.222C130.291 275.91 130.387 276.594 130.675 277.185C132.164 280.241 133.499 283.397 135.266 286.288C138.76 292.005 142.401 297.64 146.174 303.177C149.396 307.906 152.801 312.518 156.288 317.057C158.944 320.514 161.773 323.849 164.682 327.098C166.689 329.339 168.922 331.386 171.134 333.434C172.626 334.815 174.378 335.918 176.481 335.879C178.498 335.842 180.521 335.562 182.521 335.254C184.118 335.009 185.683 334.561 187.263 334.288C187.158 336.453 187.052 338.534 186.943 340.675C187.265 340.622 187.458 340.613 187.637 340.559C193.978 338.646 200.329 336.765 206.653 334.801C211.307 333.355 215.936 331.828 220.558 330.284C224.273 329.044 227.963 327.725 231.735 326.434C234.895 325.344 237.983 324.261 241.14 323.173C243.166 322.49 245.129 321.829 247.079 321.133C259.357 316.75 271.628 312.348 283.909 307.977C290.574 305.604 297.251 303.263 303.932 300.936C308.417 299.374 312.923 297.873 317.407 296.309C317.756 296.187 318.242 295.8 318.264 295.506C318.42 293.446 318.471 291.378 318.571 289.269C318.588 289.226 318.61 289.135 318.674 289.117C319.42 288.84 320.105 288.591 320.782 288.321C322.478 287.645 324.084 286.854 324.822 285.008C324.859 287.254 324.939 289.502 324.917 291.748C324.906 292.984 324.746 294.221 324.613 295.453C324.398 297.441 323.622 298.995 321.364 299.416ZM159.235 333.168C162.879 337.492 167.078 341.23 171.453 344.933C171.655 344.549 171.84 344.318 171.904 344.057C172.301 342.429 172.671 340.794 173.051 339.161C173.177 338.619 173.084 338.197 172.584 337.838C171.948 337.381 171.363 336.848 170.783 336.318C168.608 334.33 166.42 332.354 164.284 330.323C163.005 329.107 161.813 327.799 160.493 326.441C160.344 326.751 160.191 326.982 160.117 327.236C159.664 328.785 159.281 330.356 158.764 331.882C158.566 332.466 158.67 332.782 159.235 333.168ZM177.025 345.622C177.3 345.629 177.575 345.636 177.93 345.644C177.974 343.86 178.034 342.163 178.047 340.465C178.052 339.857 178.161 338.991 177.828 338.708C177.453 338.389 176.632 338.596 176.005 338.573C175.973 338.572 175.94 338.572 175.91 338.563C175.161 338.358 174.987 338.748 174.939 339.408C174.857 340.549 174.699 341.684 174.577 342.822C174.253 345.816 174.105 345.252 177.025 345.622ZM132.755 291.858C131.592 292.332 131.39 293.005 132.144 293.95C133.516 295.67 134.91 297.372 136.262 299.106C136.676 299.637 137.108 299.717 137.67 299.428C138.527 298.987 138.652 298.406 137.99 297.56C136.652 295.854 135.297 294.162 133.912 292.495C133.668 292.202 133.242 292.061 132.755 291.858ZM138.938 300.189C138.824 300.299 138.618 300.405 138.613 300.52C138.592 301.016 138.454 301.648 138.699 301.973C138.913 302.256 139.693 302.398 140.023 302.224C140.352 302.05 140.619 301.389 140.582 300.971C140.505 300.111 139.8 300.012 138.938 300.189Z" fill="#574A54"/>
<path d="M136.878 128.24C136.432 130.039 135.991 131.754 135.559 133.471C134.707 136.856 133.878 140.246 133.008 143.627C132.25 146.574 131.449 149.51 130.531 152.463C130.254 152.4 130.116 152.321 129.974 152.252C123.603 149.168 117.229 146.093 110.864 142.998C108.898 142.042 106.958 141.034 104.976 139.986C104.943 139.718 104.873 139.484 104.948 139.313C105.312 138.471 105.806 137.675 106.09 136.809C108.347 129.912 110.679 123.036 112.766 116.087C114.614 109.932 116.175 103.691 117.885 97.4938C117.935 97.3106 118.232 97.1953 118.414 97.0483C119.485 97.6668 120.537 98.3223 121.631 98.8977C127.576 102.025 133.529 105.136 139.487 108.239C139.969 108.49 140.224 108.773 140.131 109.354C139.519 113.187 138.96 117.029 138.313 120.857C137.9 123.3 137.366 125.724 136.878 128.24ZM121.313 144.381C121.143 144.073 120.974 143.765 120.669 143.208C120.946 142.815 121.224 141.967 121.748 141.767C123.22 141.205 124.173 140.039 124.084 138.409C123.281 138.056 122.479 137.676 121.655 137.357C121.434 137.271 121.056 137.264 120.899 137.397C120.157 138.023 119.667 139.996 120.205 140.764C120.911 141.771 120.304 142.455 119.99 143.177C119.511 143.166 119.126 143.157 118.741 143.148C118.718 143.297 118.694 143.446 118.671 143.595C119.514 143.889 120.358 144.182 121.313 144.381ZM128.794 142.229C128.666 141.651 128.537 141.072 128.35 140.237C127.036 141.304 125.887 142.238 124.652 143.241C125.151 143.571 125.437 143.759 125.784 143.989C125.524 144.525 125.233 145.017 125.056 145.546C124.981 145.77 125.056 146.217 125.216 146.316C125.762 146.653 126.375 146.881 127.007 147.171C127.322 146.301 127.577 145.594 127.831 144.891C128.23 144.899 128.563 144.906 129.024 144.915C128.945 144.016 128.873 143.201 128.794 142.229Z" fill="#FECB94"/>
<path d="M42.5718 131.241C42.5042 131.031 42.341 130.8 42.3829 130.615C43.4586 125.869 44.5132 121.117 45.6599 116.387C47.0391 110.699 48.5307 105.038 49.9143 99.3506C50.8467 95.5179 51.6626 91.6569 52.5815 87.8207C52.6452 87.5548 53.1138 87.241 53.4259 87.2017C56.7386 86.785 60.0577 86.4194 63.4385 86.1273C63.063 88.3039 62.6241 90.393 62.1678 92.5649C64.1528 92.4467 65.9434 92.34 67.7133 92.3195C67.3199 94.3745 66.9465 96.3433 66.5745 98.3124C65.6835 103.03 64.7829 107.745 63.906 112.465C63.325 115.592 62.7784 118.725 62.14 121.853C60.1969 121.841 58.3273 121.89 56.4649 121.796C55.5486 121.75 55.2048 122.137 55.0297 122.926C54.5503 125.087 54.0486 127.244 53.4996 129.448C50.3833 129.934 47.3218 130.364 44.2642 130.821C43.692 130.907 43.1355 131.098 42.5718 131.241Z" fill="#CC955D"/>
<path d="M130.017 275.176C129.538 278.391 129.058 281.606 128.564 284.909C126.245 285.316 123.941 285.635 121.563 285.944C121.087 282.475 120.69 279.016 120.281 275.558C119.897 272.32 119.495 269.084 119.108 265.846C118.624 261.789 118.141 257.733 117.668 253.675C117.276 250.313 116.899 246.949 116.6 243.483C118.519 243.41 120.355 243.427 122.189 243.474C123.996 243.519 125.802 243.604 127.609 243.655C129.763 243.716 131.916 243.777 134.07 243.803C134.785 243.811 135.112 244.04 135.229 244.808C135.965 249.638 136.764 254.458 137.529 259.283C137.991 262.195 138.429 265.11 138.835 268.075C136.957 268.997 135.064 269.766 133.306 270.771C131.624 271.733 130.242 273.059 130.017 275.176Z" fill="#5F98AB"/>
<path d="M324.848 284.928C324.084 286.854 322.478 287.645 320.782 288.321C320.105 288.591 319.42 288.84 318.621 289.081C316.923 287.368 315.342 285.674 313.745 283.917C313.321 283.413 312.919 282.965 312.506 282.528C310.921 280.852 309.332 279.18 307.724 277.447C304.505 273.92 301.314 270.446 298.107 266.987C293.555 262.079 288.995 257.179 284.43 252.284C283.391 251.17 282.318 250.088 281.24 248.929C279.04 246.535 276.862 244.203 274.66 241.814C272.135 239.029 269.632 236.302 267.13 233.575C271.957 232.598 276.439 233.094 280.183 236.671C286.27 242.486 292.35 248.308 298.493 254.153C302.147 257.658 305.799 261.081 309.323 264.631C313.588 268.927 317.803 273.277 321.92 277.714C323.43 279.342 324.648 281.264 324.856 283.608C324.893 284.019 324.87 284.434 324.848 284.928ZM298.014 259.906C295.59 257.164 293.167 254.422 290.744 251.68C290.126 250.981 289.539 250.881 288.927 251.372C288.27 251.898 288.25 252.349 288.943 253.156C290.643 255.136 292.358 257.103 294.083 259.061C295.555 260.732 297.045 262.388 298.534 264.044C299.071 264.641 299.675 264.696 300.295 264.172C300.931 263.635 300.797 263.077 300.306 262.521C299.568 261.686 298.835 260.847 298.014 259.906ZM317.715 280.152C317.086 280.599 316.922 281.268 317.42 281.769C317.764 282.115 318.489 282.307 318.984 282.221C319.604 282.113 319.836 281.445 319.61 280.848C319.35 280.161 318.782 279.846 318.018 280.019C317.957 280.032 317.899 280.061 317.715 280.152Z" fill="#78768B"/>
<path d="M69.2471 85.2802C71.956 83.3317 74.4875 81.0484 77.4084 79.4998C85.0017 75.4739 92.766 71.7706 100.462 67.9395C100.633 67.8548 100.808 67.7809 101.175 67.6139C99.903 66.2325 98.7643 64.8247 97.4521 63.6033C93.8837 60.2818 90.2196 57.0633 86.6404 53.7531C85.2859 52.5004 84.0602 51.1083 82.7757 49.7799C82.448 49.441 82.1307 49.1016 82.7819 48.6531C83.0976 48.7175 83.2899 48.8012 83.5132 48.949C90.1946 54.1822 96.2182 60.035 102.138 66.0429C101.711 60.927 100.865 55.8899 99.7326 50.8231C99.6011 49.7938 99.4126 48.8431 99.3531 47.8844C99.3269 47.462 99.563 47.0234 99.7421 46.6064C99.9282 46.6485 100.052 46.6765 100.177 46.7701C100.277 46.9634 100.375 47.0912 100.478 47.2968C100.894 48.9986 101.306 50.6225 101.715 52.3206C102.189 56.1944 102.66 59.9945 103.147 63.7927C103.179 64.0448 103.327 64.2819 103.421 64.6006C103.35 65.3148 103.279 65.9545 103.209 66.5941C103.317 66.6336 103.425 66.6731 103.532 66.7125C103.997 66.2312 104.462 65.7499 104.969 65.2646C105.057 65.2229 105.094 65.179 105.125 65.1351C105.125 65.1413 105.115 65.1478 105.175 65.1243C106.984 63.5844 108.783 62.1214 110.469 60.5375C112.38 58.742 114.189 56.8384 116.104 54.9582C117.297 53.7243 118.429 52.514 119.604 51.351C119.73 51.6223 119.813 51.8461 119.935 52.1756C120.13 51.7514 120.257 51.4753 120.435 51.2206C120.558 51.3647 120.629 51.4875 120.681 51.6814C119.702 52.9018 118.741 54.0509 117.752 55.2578C113.963 59.3749 110.137 63.3648 105.629 66.6248C105.554 66.6792 105.542 66.8218 105.46 66.8898C105.36 66.8976 105.302 66.9388 105.244 66.9801C105.262 66.9957 105.288 67.0283 105.296 67.0243C105.364 66.9895 105.428 66.9481 105.565 66.926C114.206 65.5659 122.775 64.1884 131.395 62.8169C131.479 62.8299 131.512 62.8371 131.545 62.8443C132.172 63.7994 132.011 64.1733 130.896 64.3575C122.207 65.792 113.518 67.227 104.644 68.6925C110.241 77.1278 114.827 85.8516 117.861 95.3761C117.434 95.7204 117.077 95.995 116.669 96.2488C116.476 96.1063 116.336 95.9845 116.19 95.7919C114.163 91.1514 112.311 86.4974 110.072 82.0369C108.033 77.9737 105.591 74.1116 103.293 70.1806C102.662 69.1019 102.303 69.0894 101.232 69.6555C98.7556 70.9656 96.2679 72.2555 93.7689 73.5225C88.3745 76.2575 82.9416 78.9185 77.5877 81.7302C76.0017 82.5632 74.6271 83.7985 73.1008 84.8663C72.2084 85.0584 71.3709 85.2336 70.4604 85.4018C70.2416 85.3805 70.0958 85.3663 69.88 85.3416C69.6224 85.3141 69.4347 85.2972 69.2471 85.2802Z" fill="#785540"/>
<path d="M42.6275 131.281C43.1358 131.099 43.6922 130.907 44.2645 130.821C47.322 130.365 50.3836 129.934 53.5509 129.455C53.6921 129.421 53.7261 129.427 53.7903 129.489C55.8793 130.75 58.1 131.75 59.9525 133.215C61.8835 134.743 63.7314 134.77 65.8275 133.982C66.1537 133.86 66.5137 133.822 66.8316 133.684C67.0406 133.593 67.2022 133.393 67.4522 133.257C67.8468 133.465 68.1796 133.652 68.5009 133.856C72.1771 136.194 75.8486 138.54 79.5282 140.873C80.6298 141.571 81.7528 142.236 82.9983 142.997C80.6351 143.65 78.4638 144.142 76.3692 144.859C74.2407 145.587 72.1879 146.537 70.1019 147.39C68.9389 146.681 67.787 145.954 66.6111 145.267C58.6379 140.614 50.6597 135.969 42.6275 131.281Z" fill="#AA7446"/>
<path d="M120.384 51.1993C120.257 51.4753 120.13 51.7514 119.935 52.1757C119.813 51.8461 119.73 51.6223 119.598 51.2836C119.097 50.447 118.742 49.6364 118.177 49.0177C113.362 43.7447 106.455 43.5677 100.473 47.219C100.375 47.0912 100.277 46.9634 100.211 46.6986C101.422 43.753 102.419 40.8486 103.828 38.1606C105.533 34.9094 107.86 32.1789 111.846 31.6041C113.087 31.8255 114.328 32.047 115.649 32.3879C118.404 33.8342 119.844 36.1456 120.655 38.8841C121.873 43.0044 121.58 47.1183 120.384 51.1993Z" fill="#E2C3C1"/>
<path d="M100.675 156.595C96.9437 156.874 93.2084 157.109 89.4832 157.453C88.0956 157.581 86.9573 157.21 85.8262 156.465C84.6075 155.663 83.3077 154.984 81.9761 154.235C79.3134 152.68 76.7184 151.139 74.1219 149.601C73.5199 149.244 72.9127 148.896 72.3218 148.434C76.2881 147.094 80.2454 145.879 84.1886 144.62C84.9163 144.388 85.509 144.403 86.1724 144.82C87.574 145.7 89.0372 146.482 90.4502 147.346C92.9495 148.872 95.4302 150.429 97.865 152.022C96.9845 152.304 96.1576 152.538 95.1022 152.837C96.0216 153.435 96.7365 153.884 97.4346 154.358C98.5207 155.095 99.5955 155.849 100.675 156.595Z" fill="#AA7446"/>
<path d="M111.759 31.596C107.86 32.1788 105.533 34.9094 103.828 38.1605C102.419 40.8486 101.422 43.7529 100.21 46.6329C100.052 46.6765 99.9282 46.6485 99.7286 46.5429C99.3613 46.0952 99.1147 45.6755 98.7705 45.3632C96.7773 43.5547 94.3313 42.9281 91.7337 42.9045C89.2834 42.8822 87.1341 43.7617 85.4274 45.5647C84.5376 46.5049 83.7032 47.4976 82.8438 48.4666C82.836 48.4135 82.8283 48.3604 82.848 48.2368C82.8755 48.1663 82.8695 48.1762 82.8695 48.1762C83.7154 44.0885 85.8854 40.7596 88.9052 37.9839C93.9817 33.3177 100.093 31.2852 106.908 31.2451C108.495 31.2358 110.084 31.4673 111.759 31.596Z" fill="#9A0034"/>
<path d="M97.9191 151.973C95.4306 150.429 92.9499 148.872 90.4507 147.346C89.0376 146.482 87.5744 145.701 86.1729 144.82C85.5094 144.403 84.9168 144.388 84.189 144.62C80.2458 145.879 76.2885 147.094 72.289 148.376C71.6543 148.505 71.0671 148.631 70.479 148.636C70.218 148.637 69.8386 148.451 69.7304 148.239C69.6447 148.072 69.8906 147.734 70.0457 147.431C72.1881 146.537 74.241 145.587 76.3695 144.859C78.464 144.142 80.6353 143.65 82.9986 142.997C81.753 142.236 80.6301 141.571 79.5284 140.873C75.8488 138.54 72.1773 136.194 68.5012 133.856C68.1799 133.652 67.8471 133.465 67.4249 133.197C65.6386 131.754 63.9471 130.385 62.2883 128.959C62.6136 128.577 62.906 128.252 63.2637 127.948C63.6314 128.082 63.9339 128.195 64.2457 128.371C64.367 128.582 64.4519 128.766 64.595 128.869C66.4911 130.244 68.3952 131.608 70.3526 133.011C70.821 133.345 71.221 133.663 71.6495 133.937C75.4072 136.336 79.2348 138.634 82.9025 141.164C84.6055 142.338 86.156 142.407 88.0448 141.877C92.4218 140.649 96.8387 139.557 101.394 139.181C101.869 139.142 102.336 139.017 102.87 138.95C103.063 138.99 103.192 139.011 103.319 139.121C103.267 139.677 103.218 140.143 103.098 140.617C97.8677 141.655 92.7088 142.686 87.4131 143.744C90.4399 145.541 93.3122 147.244 96.183 148.95C97.6032 149.794 99.0207 150.642 100.469 151.548C102.66 153.155 104.822 154.703 106.983 156.251C106.945 157.23 106.698 157.376 105.894 156.886C105.55 156.676 105.212 156.456 104.765 156.166C104.471 155.975 104.284 155.859 104.096 155.744C102.037 154.487 99.978 153.23 97.9191 151.973Z" fill="#5B3E2D"/>
<path d="M120.435 51.2206C121.58 47.1183 121.873 43.0044 120.654 38.8841C119.844 36.1456 118.404 33.8342 115.688 32.4554C118.908 33.1995 121.753 34.8148 124.162 37.0905C130.391 42.9729 133.289 50.2081 132.558 58.791C132.452 60.0417 131.981 61.2614 131.637 62.4676C131.969 60.0561 131.842 57.688 131.203 55.373C130.625 53.283 129.799 51.2947 127.483 50.5482C125.838 50.0178 124.228 50.4159 122.651 50.9624C122.003 51.1868 121.35 51.3948 120.7 51.6102C120.629 51.4875 120.557 51.3647 120.435 51.2206Z" fill="#9A0034"/>
<path d="M103.169 140.61C103.218 140.143 103.267 139.677 103.331 139.042C103.72 137.593 104.046 136.295 104.478 135.032C106.482 129.162 108.646 123.343 110.506 117.428C112.71 110.417 114.66 103.326 116.721 96.2696C117.077 95.995 117.433 95.7204 117.858 95.4442C118.087 95.9294 118.247 96.4163 118.41 96.9758C118.232 97.1954 117.935 97.3107 117.885 97.4939C116.175 103.691 114.614 109.932 112.766 116.087C110.678 123.036 108.347 129.912 106.09 136.809C105.806 137.675 105.312 138.471 104.947 139.313C104.873 139.484 104.943 139.718 104.91 140.005C104.33 140.345 104.021 141.363 103.169 140.61Z" fill="#6F4D38"/>
<path d="M120.681 51.6813C121.35 51.3947 122.003 51.1867 122.651 50.9624C124.228 50.4158 125.838 50.0178 127.484 50.5481C129.799 51.2946 130.625 53.2829 131.203 55.3729C131.843 57.688 131.969 60.056 131.595 62.5242C131.592 62.6491 131.589 62.6895 131.566 62.7871C131.512 62.8371 131.479 62.8299 131.382 62.7554C130.936 62.1803 130.592 61.6364 130.164 61.1701C126.832 57.5387 122.491 55.9829 117.78 55.2C118.741 54.0509 119.702 52.9017 120.681 51.6813Z" fill="#9A0034"/>
<path d="M82.8216 48.5011C83.7032 47.4976 84.5375 46.5048 85.4274 45.5647C87.134 43.7616 89.2834 42.8822 91.7336 42.9044C94.3312 42.928 96.7772 43.5547 98.7704 45.3631C99.1146 45.6754 99.3613 46.0952 99.6664 46.5287C99.5629 47.0233 99.3267 47.4619 99.3529 47.8842C99.4124 48.843 99.601 49.7937 99.6638 50.804C96.5884 49.1069 93.3602 48.1186 89.8754 48.0616C87.7093 48.0261 85.5504 48.1242 83.4821 48.8848C83.2898 48.8011 83.0974 48.7174 82.842 48.6244C82.7789 48.615 82.7995 48.5357 82.8216 48.5011Z" fill="#9A0034"/>
<path d="M69.173 85.2999C69.4345 85.2971 69.6222 85.314 69.8605 85.4134C69.1856 87.7417 68.4599 89.9875 67.7342 92.2334C65.9436 92.3401 64.1529 92.4467 62.168 92.565C62.6243 90.393 63.0632 88.3039 63.5116 86.1357C65.3805 85.8109 67.2398 85.5653 69.173 85.2999Z" fill="#B38050"/>
<path d="M82.8555 48.1698C82.8683 48.1749 82.8739 48.1656 82.8727 48.1603C82.8714 48.155 82.8427 48.1647 82.8555 48.1698Z" fill="#785540"/>
<path d="M138.878 268.024C138.429 265.11 137.991 262.195 137.529 259.283C136.764 254.458 135.965 249.638 135.229 244.808C135.112 244.04 134.785 243.811 134.071 243.803C131.916 243.777 129.763 243.716 127.609 243.655C125.802 243.604 123.996 243.519 122.189 243.474C120.355 243.427 118.519 243.41 116.608 243.404C114.462 243.679 112.389 243.912 110.321 244.184C106.777 244.651 103.236 245.143 99.6134 245.537C99.4303 242.846 99.3291 240.242 99.2245 237.638C98.9158 229.952 98.6085 222.266 98.2953 214.58C97.986 206.991 97.67 199.402 97.3569 191.813C107.444 192.921 117.53 194.031 127.618 195.129C128.282 195.201 128.665 195.279 128.701 196.169C128.922 201.619 129.246 207.064 129.524 212.512C129.794 217.802 130.052 223.093 130.309 228.384C130.373 229.714 130.431 231.045 130.458 232.377C130.472 233.084 130.714 233.267 131.457 233.199C141.223 232.306 150.993 231.452 160.763 230.595C163.796 230.329 166.831 230.085 169.938 229.914C169.704 231.1 169.305 232.188 169.107 233.31C168.06 239.258 168.7 245.064 170.814 250.697C171.641 252.899 172.664 255.028 173.528 257.2C165.018 259.712 156.567 262.175 148.148 264.742C145.479 265.556 142.894 266.646 140.204 267.611C139.717 267.749 139.298 267.887 138.878 268.024Z" fill="#71B4BD"/>
<path d="M97.2843 191.813C97.6698 199.402 97.9857 206.991 98.2951 214.58C98.6083 222.266 98.9155 229.952 99.2242 237.638C99.3289 240.242 99.43 242.846 99.535 245.529C96.8085 246.012 94.0819 246.431 91.3509 246.818C86.5045 247.506 81.6571 248.188 76.8054 248.837C76.2119 248.916 75.9743 249.073 76.0093 249.706C76.3294 255.482 76.6254 261.26 76.9352 267.168C72.741 267.739 68.5646 268.307 64.3156 268.866C64.2027 266.638 64.1658 264.42 64.1207 262.202C64.075 259.953 64.0196 257.704 63.9713 255.455C63.9237 253.238 63.8788 251.021 63.8343 248.803C63.7797 246.079 63.7285 243.355 63.6723 240.631C63.6279 238.477 63.5789 236.323 63.5305 234.169C63.4702 231.476 63.4055 228.784 63.348 226.091C63.2783 222.829 63.214 219.566 63.1478 216.303C63.0938 213.642 63.0394 210.981 62.9874 208.32C62.9447 206.134 62.9083 203.948 62.8625 201.763C62.8479 201.066 62.8166 200.37 62.7851 199.674C62.7573 199.061 63.0269 198.788 63.6494 198.663C72.2849 196.925 80.9157 195.163 89.5467 193.402C92.1034 192.881 94.657 192.344 97.2843 191.813Z" fill="#DFFDFF"/>
<path d="M204.414 248.6C209.299 247.3 214.184 246 219.069 244.701C220.36 244.358 221.653 244.021 223.069 243.64C229.548 241.96 235.901 240.315 242.259 238.687C243.016 238.493 243.798 238.396 244.584 238.32C249.2 246.453 253.802 254.522 258.431 262.639C257.992 262.838 257.678 262.986 257.36 263.124C243.944 268.942 230.524 274.751 217.119 280.594C216.288 280.957 215.856 280.951 215.28 280.141C209.641 272.223 203.949 264.342 198.292 256.38C199.487 253.977 200.663 251.645 201.907 249.31C202.787 249.073 203.601 248.837 204.414 248.6Z" fill="#8CB303"/>
<path d="M244.569 238.255C243.798 238.396 243.016 238.493 242.259 238.687C235.901 240.315 229.548 241.96 223.121 243.596C222.287 239.341 221.524 235.09 220.766 230.839C219.902 225.995 219.036 221.152 218.184 216.306C216.82 208.549 215.469 200.79 214.106 193.033C213.854 191.597 213.572 190.166 213.291 188.663C215.585 188.188 217.818 187.712 220.057 187.264C223.36 186.603 226.668 185.963 229.973 185.313C232.094 184.896 234.213 184.473 236.336 184.065C236.579 184.019 236.839 184.055 237.177 184.142C238.559 192.11 239.857 199.99 241.152 207.87C242.783 217.791 244.413 227.712 246 237.681C245.494 237.904 245.031 238.079 244.569 238.255Z" fill="#DFFDFF"/>
<path d="M246.043 237.633C244.413 227.712 242.784 217.791 241.153 207.87C239.857 199.99 238.559 192.11 237.253 184.155C238.083 184.27 238.937 184.41 239.759 184.658C243.117 185.672 246.465 186.72 249.818 187.752C249.938 187.789 250.068 187.793 250.274 187.821C252.068 188.393 253.769 188.997 255.501 189.496C256.093 189.667 256.322 189.945 256.43 190.512C257.8 197.696 259.191 204.876 260.569 212.058C261.863 218.805 263.148 225.554 264.435 232.302C264.519 232.738 264.582 233.179 264.649 233.723C262.373 234.241 260.099 234.628 257.836 235.073C256.387 235.359 254.955 235.731 253.439 236.064C252.989 236.121 252.61 236.157 252.242 236.239C250.174 236.698 248.109 237.167 246.043 237.633Z" fill="#71B4BD"/>
<path d="M173.598 257.191C172.664 255.029 171.641 252.9 170.814 250.697C168.7 245.065 168.061 239.258 169.107 233.311C169.305 232.188 169.704 231.1 170.015 229.92C171.443 226.495 173.491 223.627 176.463 221.472C179.878 218.996 183.674 217.74 188.074 217.939C188.457 217.99 188.679 218.004 188.901 218.017C188.973 218.024 189.046 218.031 189.231 218.069C189.385 218.096 189.427 218.091 189.468 218.087C189.603 218.102 189.738 218.116 189.972 218.2C190.301 218.283 190.531 218.297 190.761 218.311C190.839 218.318 190.917 218.325 191.068 218.415C191.304 218.582 191.46 218.688 191.631 218.75C194.413 219.751 196.78 221.372 198.757 223.558C202.369 227.552 203.361 232.382 203.071 237.563C202.885 240.881 202.037 244.08 200.943 247.211C199.131 252.4 196.393 257.086 193.052 261.417C190.587 264.613 187.939 267.63 183.615 268.506C181.56 268.309 180.061 267.204 178.861 265.78C177.616 264.303 176.588 262.643 175.457 260.998C174.832 259.686 174.215 258.438 173.598 257.191ZM191.158 249.513C192.618 248.695 194.247 248.077 195.506 247.018C198.88 244.18 200.214 240.371 199.957 236.031C199.764 232.771 198.545 229.919 196.045 227.553C195.299 226.994 194.552 226.434 193.727 225.765C192.893 225.399 192.06 225.034 191.102 224.576C189.444 224.345 187.779 223.874 186.129 223.923C176.134 224.218 170.263 234.361 174.977 243.129C176.278 245.549 178 247.619 180.704 248.872C182.958 250.039 185.337 250.504 188.018 250.157C189.019 249.946 190.02 249.735 191.158 249.513Z" fill="#9A0034"/>
<path d="M179.161 204.655C177.276 197.096 176.168 189.337 173.19 182.061C170.806 176.238 168.038 170.635 164.482 165.425C159.386 157.96 153.078 151.751 145.432 146.928C143.794 145.894 142.043 145.036 140.338 144.109C139.472 143.639 139.049 142.903 139.275 142.198C139.608 141.16 140.397 140.846 141.469 141.364C145.237 143.186 148.79 145.36 152.12 147.898C157.432 151.946 161.996 156.73 165.921 162.11C169.667 167.246 172.721 172.786 175.13 178.677C177.703 184.969 179.766 191.424 181.347 198.034C181.593 199.066 181.745 200.121 181.968 201.314C182.839 199.811 183.629 198.443 184.424 197.079C184.664 196.666 184.894 196.245 185.168 195.855C185.739 195.043 186.349 194.865 187.026 195.274C187.799 195.742 187.989 196.575 187.487 197.432C186.699 198.778 185.828 200.081 185.11 201.463C184.127 203.352 183.214 205.28 182.349 207.227C181.736 208.607 181.164 208.899 179.781 208.219C177.069 206.886 174.363 205.537 171.672 204.16C171.082 203.858 170.549 203.432 170.024 203.02C169.582 202.673 169.13 202.167 169.637 201.664C169.975 201.33 170.699 201.022 171.083 201.161C172.901 201.822 174.668 202.628 176.442 203.408C177.313 203.792 178.16 204.232 179.096 204.677C179.19 204.719 179.205 204.731 179.221 204.743C179.201 204.714 179.181 204.684 179.161 204.655Z" fill="#71B4BD"/>
<path d="M103.097 140.617C104.02 141.363 104.33 140.345 104.939 140.069C106.958 141.034 108.898 142.042 110.864 142.998C117.229 146.093 123.603 149.168 129.974 152.252C130.116 152.321 130.254 152.4 130.46 152.495C127.248 153.038 123.973 153.577 120.692 154.08C118.156 154.469 115.613 154.814 112.956 155.115C110.491 153.867 108.144 152.68 105.793 151.501C105.173 151.189 104.519 150.615 103.919 150.661C102.745 150.751 101.597 151.193 100.439 151.489C99.0202 150.642 97.6027 149.794 96.1825 148.95C93.3116 147.244 90.4393 145.541 87.4126 143.744C92.7082 142.686 97.8672 141.655 103.097 140.617Z" fill="#AA7446"/>
<path d="M183.697 268.511C187.939 267.63 190.587 264.613 193.052 261.417C196.393 257.086 199.131 252.4 200.943 247.211C202.037 244.08 202.885 240.881 203.071 237.563C203.361 232.382 202.369 227.552 198.757 223.558C196.78 221.372 194.413 219.751 191.631 218.75C191.46 218.688 191.304 218.582 191.125 218.43C193.611 218.692 195.759 219.853 197.74 221.316C202.508 224.838 204.669 229.711 204.629 235.524C204.611 238.084 204.103 240.64 203.761 243.336C203.083 245.42 202.462 247.366 201.84 249.312C200.664 251.645 199.488 253.978 198.239 256.416C196.519 258.808 194.873 261.096 193.221 263.378C192.907 263.811 192.567 264.225 192.175 264.66C190.991 265.623 189.873 266.573 188.693 267.532C188.023 267.813 187.436 268.223 186.8 268.328C185.783 268.495 184.733 268.46 183.697 268.511Z" fill="#E17A71"/>
<path d="M100.469 151.548C101.598 151.193 102.745 150.751 103.919 150.661C104.519 150.615 105.173 151.189 105.794 151.501C108.145 152.68 110.492 153.867 112.882 155.103C111.124 155.411 109.322 155.664 107.522 155.928C107.354 155.953 107.196 156.047 107.008 156.18C104.822 154.703 102.66 153.155 100.469 151.548Z" fill="#875C38"/>
<path d="M97.8654 152.022C99.9779 153.23 102.037 154.487 104.096 155.744C104.284 155.859 104.471 155.975 104.699 156.144C103.438 156.333 102.137 156.47 100.756 156.601C99.5959 155.849 98.5211 155.095 97.4351 154.358C96.7369 153.884 96.0221 153.435 95.1026 152.837C96.158 152.538 96.9849 152.304 97.8654 152.022Z" fill="#875C38"/>
<path d="M201.907 249.31C202.461 247.366 203.083 245.42 203.757 243.419C204.014 245.057 204.217 246.752 204.417 248.523C203.601 248.837 202.787 249.073 201.907 249.31Z" fill="#71B4BD"/>
<path d="M190.728 218.259C190.531 218.297 190.301 218.283 190.038 218.217C190.236 218.178 190.465 218.193 190.728 218.259Z" fill="#E17A71"/>
<path d="M188.853 217.975C188.679 218.004 188.457 217.99 188.158 217.946C188.322 217.922 188.564 217.927 188.853 217.975Z" fill="#E17A71"/>
<path d="M189.444 218.057C189.425 218.091 189.384 218.095 189.284 218.079C189.291 218.048 189.357 218.037 189.444 218.057Z" fill="#E17A71"/>
<path d="M253.516 236.064C254.955 235.731 256.387 235.358 257.836 235.073C260.099 234.628 262.373 234.241 264.688 233.783C265.478 233.678 266.224 233.618 267.049 233.567C269.632 236.302 272.135 239.029 274.618 241.871C269.676 243.402 264.749 244.806 259.835 246.249C259.252 246.42 259.055 246.201 258.808 245.756C257.604 243.586 256.356 241.44 255.154 239.269C254.574 238.22 254.06 237.133 253.516 236.064Z" fill="#E2CEC5"/>
<path d="M313.762 283.979C315.343 285.674 316.923 287.368 318.557 289.099C318.611 289.135 318.588 289.226 318.504 289.271C318.298 289.353 318.174 289.384 318.055 289.427C309.368 292.58 300.691 295.76 291.991 298.878C286.236 300.94 280.451 302.92 274.675 304.923C270.015 306.538 265.35 308.137 260.683 309.732C254.27 311.924 247.854 314.105 241.387 316.285C241.302 316.274 241.268 316.269 241.22 316.203C234.867 307.324 228.528 298.505 222.135 289.612C222.534 289.401 222.805 289.242 223.088 289.112C225.574 287.968 228.065 286.836 230.55 285.689C235.75 283.289 240.963 280.914 246.132 278.45C247.06 278.007 247.482 278.16 248.052 278.939C251.597 283.779 256.038 287.568 261.507 290.085C266.613 292.436 272.017 293.394 277.611 293.52C281.824 293.615 285.978 293.18 290.099 292.38C298.405 290.766 306.268 287.888 313.762 283.979ZM248.07 311.239C251.486 310.163 254.901 309.088 258.507 307.952C254.791 303.532 251.18 299.237 247.573 294.947C242.913 296.952 238.396 298.895 233.775 300.883C234.811 302.405 235.756 303.789 236.696 305.177C238.389 307.676 240.069 310.185 241.792 312.663C241.927 312.858 242.396 312.983 242.643 312.911C244.414 312.396 246.168 311.821 248.07 311.239ZM237.144 296.528C237.806 296.243 238.468 295.959 239.245 295.625C238.084 293.104 236.975 290.698 235.85 288.257C233.157 289.415 230.572 290.526 227.914 291.669C229.347 294.088 230.716 296.4 232.098 298.731C233.812 297.98 235.412 297.278 237.144 296.528Z" fill="#E2CEC5"/>
<path d="M138.835 268.075C139.297 267.887 139.717 267.749 140.23 267.668C143.012 271.242 145.741 274.729 148.382 278.282C153.851 285.64 159.297 293.017 164.707 300.42C167.035 303.607 169.245 306.879 171.518 310.106C172.761 311.871 174.023 313.624 175.29 315.445C176.826 317.744 178.349 319.98 179.9 322.278C180.641 323.428 181.355 324.516 182.071 325.604C183.884 328.359 185.698 331.115 187.491 333.919C187.401 334.046 187.332 334.124 187.263 334.202C185.683 334.561 184.118 335.009 182.521 335.254C180.521 335.562 178.498 335.842 176.481 335.879C174.379 335.918 172.626 334.815 171.134 333.434C168.922 331.386 166.689 329.339 164.682 327.098C161.773 323.849 158.944 320.514 156.288 317.057C152.801 312.518 149.397 307.906 146.174 303.177C142.401 297.64 138.76 292.005 135.266 286.288C133.499 283.397 132.164 280.241 130.675 277.185C130.388 276.594 130.292 275.91 130.062 275.222C130.242 273.059 131.624 271.733 133.306 270.771C135.064 269.766 136.957 268.997 138.835 268.075ZM147.503 299.037C148.308 300.258 149.076 301.506 149.925 302.696C151.939 305.519 154.001 308.308 156.027 311.123C157.018 312.501 157.947 312.86 159.551 312.319C162.023 311.485 164.223 310.166 166.224 308.497C166.735 308.071 166.797 307.607 166.526 307.061C166.329 306.663 166.11 306.272 165.868 305.899C162.838 301.249 159.454 296.868 155.762 292.728C155.46 292.389 154.816 292.183 154.341 292.201C152.084 292.285 150.071 293.198 148.195 294.36C146.006 295.718 145.909 296.303 147.156 298.529C147.234 298.668 147.333 298.794 147.503 299.037Z" fill="#77758A"/>
<path d="M241.439 316.291C247.854 314.105 254.27 311.924 260.683 309.732C265.35 308.137 270.015 306.538 274.675 304.923C280.451 302.92 286.236 300.94 291.991 298.878C300.691 295.76 309.368 292.58 318.055 289.427C318.174 289.384 318.298 289.353 318.487 289.315C318.471 291.378 318.421 293.446 318.265 295.506C318.243 295.8 317.756 296.187 317.407 296.309C312.923 297.873 308.417 299.374 303.932 300.936C297.251 303.263 290.575 305.604 283.91 307.977C271.628 312.348 259.357 316.75 247.079 321.133C245.129 321.829 243.166 322.491 241.146 323.093C241.202 320.776 241.32 318.533 241.439 316.291Z" fill="#C0AFA7"/>
<path d="M187.263 334.288C187.332 334.124 187.401 334.046 187.563 333.925C191.844 332.614 196.045 331.381 200.219 330.065C204.366 328.758 208.49 327.379 212.617 326.01C216.805 324.622 220.983 323.207 225.167 321.807C227.329 321.083 229.494 320.368 231.653 319.73C231.667 320.245 231.703 320.679 231.702 321.113C231.695 322.889 231.677 324.665 231.664 326.44C227.963 327.725 224.274 329.044 220.558 330.284C215.936 331.828 211.307 333.355 206.653 334.801C200.329 336.765 193.978 338.646 187.637 340.559C187.458 340.613 187.265 340.622 186.943 340.675C187.052 338.534 187.159 336.453 187.263 334.288Z" fill="#7A9B03"/>
<path d="M159.18 333.125C158.67 332.782 158.566 332.466 158.764 331.882C159.281 330.356 159.664 328.785 160.116 327.236C160.191 326.982 160.344 326.751 160.493 326.441C161.813 327.799 163.004 329.107 164.284 330.323C166.42 332.354 168.607 334.33 170.783 336.318C171.362 336.848 171.948 337.381 172.584 337.838C173.084 338.197 173.177 338.619 173.051 339.161C172.671 340.794 172.301 342.429 171.903 344.057C171.84 344.318 171.655 344.549 171.453 344.933C167.078 341.23 162.879 337.492 159.18 333.125Z" fill="#62525E"/>
<path d="M231.736 326.434C231.678 324.665 231.696 322.889 231.702 321.113C231.704 320.679 231.667 320.245 231.678 319.668C231.719 319.439 231.731 319.352 231.811 319.27C232.241 319.175 232.608 319.09 232.964 318.974C235.722 318.074 238.478 317.168 241.234 316.264C241.268 316.269 241.302 316.274 241.387 316.285C241.32 318.533 241.202 320.775 241.078 323.097C237.984 324.261 234.896 325.344 231.736 326.434Z" fill="#D8D8D6"/>
<path d="M176.935 345.613C174.105 345.252 174.253 345.816 174.576 342.822C174.699 341.684 174.857 340.549 174.939 339.408C174.987 338.748 175.161 338.358 175.91 338.563C175.94 338.572 175.973 338.572 176.005 338.573C176.632 338.596 177.453 338.39 177.828 338.708C178.161 338.991 178.052 339.857 178.047 340.465C178.034 342.163 177.974 343.86 177.93 345.645C177.575 345.636 177.3 345.629 176.935 345.613Z" fill="#62525E"/>
<path d="M132.828 291.854C133.242 292.061 133.669 292.202 133.912 292.495C135.297 294.162 136.653 295.854 137.99 297.56C138.653 298.405 138.527 298.987 137.67 299.428C137.108 299.717 136.676 299.637 136.263 299.106C134.91 297.372 133.516 295.67 132.144 293.95C131.391 293.005 131.592 292.332 132.828 291.854Z" fill="#413B46"/>
<path d="M139.004 300.152C139.8 300.012 140.505 300.111 140.582 300.971C140.619 301.389 140.352 302.05 140.023 302.224C139.693 302.398 138.913 302.256 138.699 301.973C138.454 301.648 138.592 301.016 138.613 300.52C138.618 300.405 138.824 300.299 139.004 300.152Z" fill="#413B46"/>
<path d="M121.257 144.428C120.358 144.182 119.514 143.889 118.671 143.595C118.695 143.446 118.718 143.297 118.741 143.148C119.126 143.157 119.511 143.166 119.99 143.177C120.305 142.455 120.911 141.771 120.205 140.764C119.667 139.996 120.157 138.023 120.899 137.397C121.056 137.264 121.434 137.271 121.655 137.357C122.479 137.677 123.281 138.056 124.084 138.409C124.174 140.039 123.22 141.205 121.748 141.767C121.224 141.967 120.946 142.815 120.669 143.208C120.974 143.765 121.143 144.073 121.257 144.428Z" fill="#875C38"/>
<path d="M128.798 142.308C128.873 143.201 128.945 144.016 129.024 144.915C128.563 144.906 128.23 144.899 127.831 144.891C127.577 145.594 127.322 146.301 127.007 147.171C126.375 146.881 125.762 146.653 125.216 146.316C125.056 146.217 124.981 145.77 125.056 145.546C125.233 145.017 125.524 144.525 125.784 143.989C125.437 143.759 125.151 143.57 124.652 143.241C125.887 142.238 127.036 141.304 128.35 140.237C128.537 141.072 128.666 141.651 128.798 142.308Z" fill="#875C38"/>
<path d="M67.7134 92.3195C68.4598 89.9875 69.1855 87.7417 69.9304 85.4239C70.0955 85.3662 70.2413 85.3804 70.5025 85.469C70.6067 85.8559 70.6218 86.1719 70.5803 86.4803C70.3287 88.349 70.0642 90.2161 69.7845 92.166C69.7129 92.562 69.6747 92.8788 69.6066 93.1891C68.8721 96.5342 68.1007 99.8715 67.4054 103.225C66.8579 105.865 66.3653 108.519 65.9156 111.178C65.3124 114.745 64.7741 118.323 64.1913 121.984C63.8492 124.023 63.5237 125.975 63.1981 127.928C62.9057 128.252 62.6132 128.577 62.2269 128.942C61.8849 128.765 61.6368 128.547 61.3409 128.274C61.4462 127.703 61.6743 127.194 61.7382 126.666C61.9318 125.067 62.0618 123.46 62.2166 121.855C62.7786 118.725 63.3251 115.592 63.9061 112.465C64.783 107.745 65.6836 103.03 66.5746 98.3124C66.9466 96.3434 67.32 94.3746 67.7134 92.3195Z" fill="#644532"/>
<path d="M62.1401 121.853C62.0618 123.46 61.9318 125.067 61.7382 126.666C61.6743 127.194 61.4462 127.703 61.2981 128.334C61.1943 128.508 61.0904 128.611 60.9763 128.624C58.5715 128.899 56.1657 129.165 53.76 129.432C53.726 129.427 53.692 129.421 53.6069 129.409C54.0487 127.244 54.5503 125.087 55.0298 122.926C55.2049 122.137 55.5487 121.75 56.465 121.796C58.3274 121.89 60.197 121.841 62.1401 121.853Z" fill="#B38050"/>
<path d="M241.219 316.203C238.477 317.168 235.722 318.074 232.964 318.974C232.608 319.09 232.241 319.175 231.771 319.217C229.181 315.719 226.684 312.292 224.234 308.831C223.812 308.234 223.459 308.104 222.756 308.333C213.37 311.386 203.973 314.4 194.581 317.434C189.675 319.019 184.775 320.621 179.873 322.216C178.349 319.98 176.826 317.744 175.36 315.447C189.712 310.597 204.007 305.807 218.377 300.992C218.126 300.527 217.993 300.202 217.794 299.923C215.336 296.478 212.872 293.037 210.402 289.601C208.266 286.629 206.106 283.674 203.981 280.695C200.451 275.749 196.946 270.785 193.412 265.843C193.091 265.394 192.634 265.043 192.239 264.647C192.567 264.224 192.907 263.811 193.22 263.378C194.873 261.095 196.519 258.808 198.22 256.486C203.949 264.342 209.641 272.223 215.28 280.141C215.857 280.951 216.288 280.957 217.119 280.594C230.524 274.751 243.944 268.942 257.361 263.124C257.679 262.986 257.992 262.838 258.431 262.639C253.802 254.522 249.2 246.453 244.584 238.32C245.032 238.079 245.494 237.904 246 237.681C248.109 237.167 250.174 236.698 252.242 236.239C252.61 236.157 252.989 236.121 253.439 236.064C254.06 237.133 254.573 238.22 255.154 239.269C256.356 241.44 257.604 243.586 258.807 245.756C259.054 246.201 259.252 246.42 259.835 246.249C264.749 244.806 269.675 243.402 274.64 241.929C276.861 244.203 279.04 246.535 281.168 248.945C275.304 250.742 269.491 252.46 263.573 254.209C266.024 258.567 268.384 262.765 270.794 267.052C266.065 269.246 261.403 271.408 256.65 273.613C256.917 273.967 257.079 274.238 257.294 274.457C260.081 277.297 263.202 279.687 266.811 281.396C271.105 283.43 275.59 284.761 280.383 284.739C282.851 284.727 285.338 284.721 287.782 284.429C293.23 283.778 298.394 282.062 303.366 279.775C304.858 279.089 306.286 278.266 307.744 277.506C309.332 279.18 310.921 280.852 312.506 282.528C312.919 282.965 313.321 283.413 313.745 283.917C306.267 287.887 298.405 290.766 290.098 292.38C285.977 293.18 281.824 293.615 277.611 293.52C272.017 293.394 266.612 292.436 261.507 290.085C256.038 287.567 251.597 283.778 248.052 278.938C247.481 278.16 247.06 278.007 246.132 278.45C240.962 280.914 235.75 283.289 230.549 285.689C228.065 286.836 225.574 287.968 223.088 289.112C222.804 289.242 222.534 289.401 222.135 289.612C228.527 298.505 234.866 307.324 241.219 316.203Z" fill="#FFFFFC"/>
<path d="M307.723 277.447C306.286 278.266 304.857 279.089 303.366 279.775C298.394 282.062 293.23 283.778 287.782 284.429C285.337 284.721 282.851 284.727 280.383 284.739C275.589 284.761 271.105 283.43 266.81 281.396C263.202 279.687 260.081 277.298 257.294 274.457C257.079 274.238 256.917 273.967 256.649 273.613C261.403 271.408 266.064 269.246 270.794 267.052C268.384 262.765 266.023 258.567 263.573 254.209C269.491 252.46 275.304 250.742 281.189 249.008C282.318 250.088 283.391 251.17 284.43 252.284C288.995 257.179 293.555 262.079 298.106 266.987C301.314 270.446 304.505 273.92 307.723 277.447ZM281.647 261.347C282.151 261.168 282.654 260.989 283.318 260.753C282.167 258.297 281.041 255.895 279.877 253.411C276.504 254.594 273.212 255.748 269.945 256.894C269.945 257.11 269.919 257.212 269.948 257.295C270.714 259.454 271.467 261.617 272.285 263.756C272.361 263.956 272.903 264.163 273.142 264.088C275.94 263.22 278.721 262.298 281.647 261.347Z" fill="#E2CEC5"/>
<path d="M298.057 259.958C298.835 260.847 299.568 261.686 300.305 262.521C300.797 263.077 300.931 263.634 300.295 264.172C299.675 264.696 299.071 264.641 298.534 264.044C297.045 262.388 295.554 260.732 294.082 259.061C292.358 257.103 290.643 255.136 288.943 253.156C288.25 252.349 288.27 251.898 288.927 251.372C289.539 250.881 290.126 250.981 290.743 251.68C293.167 254.422 295.59 257.164 298.057 259.958Z" fill="#BCC9D7"/>
<path d="M317.777 280.117C317.9 280.061 317.957 280.032 318.018 280.019C318.782 279.846 319.35 280.161 319.61 280.848C319.836 281.444 319.604 282.113 318.984 282.221C318.489 282.307 317.764 282.115 317.42 281.769C316.922 281.268 317.086 280.599 317.777 280.117Z" fill="#BCC9D7"/>
<path d="M116.668 96.2487C114.66 103.326 112.71 110.417 110.506 117.428C108.646 123.343 106.482 129.162 104.477 135.032C104.046 136.295 103.72 137.593 103.333 138.953C103.192 139.011 103.062 138.99 102.849 138.893C98.3852 136.487 94.0099 134.148 89.6238 131.829C86.8407 130.358 84.0414 128.918 81.2752 127.377C81.8686 124.654 82.4309 122.016 83.0056 119.38C83.3975 117.583 83.8048 115.788 84.2086 113.993C84.7863 111.425 85.3782 108.861 85.9432 106.29C86.3929 104.244 86.8003 102.189 87.2463 100.143C87.8405 97.4159 88.4611 94.6949 89.0571 91.9685C89.721 88.9318 90.37 85.8918 91.0993 82.8573C91.2653 82.8852 91.3664 82.8922 91.4485 82.9354C97.8054 86.277 104.158 89.6269 110.518 92.9624C112.4 93.9495 114.303 94.897 116.196 95.8626C116.336 95.9844 116.476 96.1062 116.668 96.2487Z" fill="#FECB94"/>
<path d="M116.19 95.7918C114.303 94.897 112.4 93.9495 110.518 92.9624C104.158 89.6268 97.8056 86.277 91.4488 82.9354C91.3667 82.8922 91.2656 82.8852 91.0219 82.8351C89.2554 82.9605 87.6362 83.0776 86.0261 83.2705C82.49 83.6942 78.9585 84.1562 75.3491 84.5912C74.5672 84.6697 73.8613 84.7595 73.1554 84.8494C74.6269 83.7984 76.0016 82.5631 77.5876 81.7301C82.9415 78.9184 88.3744 76.2575 93.7688 73.5224C96.2678 72.2554 98.7555 70.9655 101.232 69.6554C102.302 69.0894 102.662 69.1018 103.293 70.1805C105.591 74.1115 108.033 77.9736 110.072 82.0368C112.311 86.4973 114.163 91.1513 116.19 95.7918Z" fill="#FEFEFE"/>
<path d="M100.478 47.2967C106.455 43.5676 113.362 43.7446 118.177 49.0176C118.742 49.6363 119.097 50.4469 119.555 51.2361C118.429 52.5139 117.297 53.7242 116.018 54.9446C114.346 54.9864 112.803 54.8861 111.302 55.0917C110.109 55.255 108.967 55.7923 107.743 56.1691C107.383 56.2092 107.083 56.2438 106.753 56.2159C105.054 54.851 103.386 53.5487 101.717 52.2464C101.306 50.6225 100.894 48.9985 100.478 47.2967Z" fill="#51172A"/>
<path d="M117.752 55.2578C122.491 55.983 126.832 57.5388 130.165 61.1702C130.593 61.6365 130.936 62.1803 131.332 62.7496C122.775 64.1884 114.206 65.5659 105.567 66.9296C105.497 66.9158 105.501 66.9233 105.501 66.9233C105.542 66.8218 105.554 66.6792 105.629 66.6248C110.138 63.3647 113.963 59.3749 117.752 55.2578Z" fill="#FDFDFC"/>
<path d="M83.5127 48.9489C85.5501 48.1242 87.709 48.0262 89.8752 48.0616C93.36 48.1187 96.5881 49.1069 99.6589 50.8793C100.864 55.8898 101.711 60.927 102.138 66.0428C96.2178 60.035 90.1941 54.1822 83.5127 48.9489Z" fill="#FDFDFC"/>
<path d="M107.802 56.1636C108.967 55.7924 110.109 55.255 111.302 55.0917C112.803 54.8862 114.346 54.9864 115.957 54.9682C114.19 56.8383 112.38 58.742 110.469 60.5374C108.783 62.1213 106.984 63.5844 105.128 65.0511C105.657 63.3113 106.353 61.6407 106.909 59.9247C107.304 58.7027 107.511 57.4195 107.802 56.1636Z" fill="#FDFDFC"/>
<path d="M73.1005 84.8662C73.8612 84.7596 74.5671 84.6697 75.3397 84.6735C74.9132 86.8942 74.4331 89.0245 73.9051 91.1428C73.8572 91.3351 73.5178 91.5464 73.2861 91.5857C72.1304 91.7817 70.9656 91.9231 69.8039 92.0837C70.0641 90.2161 70.3286 88.3491 70.5802 86.4803C70.6217 86.1719 70.6067 85.8559 70.5754 85.4761C71.3705 85.2336 72.2081 85.0583 73.1005 84.8662Z" fill="#B38050"/>
<path d="M101.715 52.3206C103.386 53.5488 105.054 54.8511 106.708 56.2727C105.021 58.8694 104.496 61.8083 103.422 64.526C103.327 64.2819 103.179 64.0447 103.147 63.7927C102.66 59.9945 102.189 56.1943 101.715 52.3206Z" fill="#FDFDFC"/>
<path d="M103.421 64.6006C104.496 61.8083 105.021 58.8694 106.738 56.3352C107.083 56.2439 107.383 56.2093 107.743 56.1692C107.511 57.4196 107.304 58.7028 106.909 59.9248C106.353 61.6408 105.657 63.3114 105.068 65.0746C105.115 65.1479 105.125 65.1413 105.076 65.108C104.994 65.1393 104.96 65.204 104.926 65.2687C104.462 65.75 103.997 66.2312 103.532 66.7125C103.425 66.6731 103.317 66.6336 103.209 66.5942C103.279 65.9545 103.35 65.3148 103.421 64.6006Z" fill="#5B3E2D"/>
<path d="M105.495 66.9123C105.428 66.9481 105.364 66.9895 105.296 67.0243C105.289 67.0283 105.262 66.9957 105.244 66.98C105.302 66.9388 105.36 66.8976 105.46 66.8898C105.501 66.9233 105.497 66.9158 105.495 66.9123Z" fill="#FDFDFC"/>
<path d="M104.969 65.2646C104.96 65.2039 104.994 65.1393 105.076 65.1018C105.094 65.179 105.057 65.2228 104.969 65.2646Z" fill="#FDFDFC"/>
<path d="M53.7903 129.489C56.1658 129.165 58.5717 128.899 60.9764 128.624C61.0906 128.611 61.1945 128.508 61.346 128.388C61.6369 128.547 61.8851 128.765 62.1942 129C63.9468 130.385 65.6384 131.754 67.3575 133.183C67.2022 133.393 67.0407 133.593 66.8317 133.684C66.5137 133.822 66.1537 133.86 65.8275 133.982C63.7315 134.77 61.8835 134.743 59.9525 133.215C58.1001 131.75 55.8793 130.75 53.7903 129.489Z" fill="#875C38"/>
<path d="M81.2497 127.463C84.0417 128.918 86.841 130.358 89.6241 131.829C94.0103 134.148 98.3856 136.487 102.786 138.875C102.336 139.017 101.868 139.142 101.394 139.181C96.8385 139.557 92.4216 140.649 88.0446 141.877C86.1558 142.407 84.6053 142.338 82.9023 141.164C79.2346 138.634 75.407 136.336 71.6494 133.937C71.2209 133.663 70.8208 133.345 70.3917 132.965C70.5737 132.791 70.7717 132.699 71.0913 132.551C69.4459 131.354 67.8657 130.219 66.3076 129.055C66.0299 128.847 65.8441 128.517 65.6694 128.189C70.8984 127.912 76.0741 127.687 81.2497 127.463Z" fill="#AA7446"/>
<path d="M63.2634 127.948C63.5237 125.975 63.8492 124.023 64.2726 121.994C65.1119 121.927 65.8534 121.938 66.7358 121.95C66.1418 124.144 65.5991 126.148 64.987 128.153C64.6904 128.205 64.4632 128.257 64.2361 128.308C63.9336 128.195 63.6311 128.082 63.2634 127.948Z" fill="#B38050"/>
<path d="M64.2454 128.371C64.4633 128.257 64.6905 128.205 65.0566 128.167C65.3356 128.201 65.4757 128.222 65.6158 128.243C65.844 128.517 66.0298 128.847 66.3075 129.055C67.8656 130.219 69.4458 131.354 71.0911 132.551C70.7715 132.699 70.5736 132.791 70.3364 132.928C68.3949 131.608 66.4908 130.244 64.5947 128.869C64.4516 128.766 64.3667 128.582 64.2454 128.371Z" fill="#875C38"/>
<path d="M192.174 264.66C192.634 265.043 193.092 265.394 193.412 265.843C196.946 270.785 200.451 275.749 203.981 280.695C206.107 283.674 208.266 286.629 210.402 289.601C212.872 293.037 215.336 296.478 217.795 299.923C217.993 300.202 218.126 300.527 218.377 300.992C204.007 305.807 189.712 310.597 175.347 315.384C174.023 313.624 172.761 311.871 171.518 310.106C169.245 306.879 167.035 303.607 164.707 300.42C159.297 293.017 153.852 285.64 148.382 278.282C145.741 274.729 143.012 271.242 140.297 267.668C142.895 266.646 145.479 265.556 148.148 264.742C156.567 262.175 165.018 259.712 173.528 257.2C174.215 258.438 174.832 259.686 175.387 260.998C172.498 262.005 169.672 262.946 166.769 263.914C166.928 264.233 167.001 264.439 167.121 264.611C168.382 266.407 169.646 268.202 170.919 269.99C174.684 275.277 178.482 280.541 182.191 285.867C182.773 286.704 183.251 286.667 184.043 286.4C187.694 285.171 191.36 283.987 195.019 282.781C196.085 282.429 197.144 282.057 198.296 281.663C195.049 276.851 191.902 272.187 188.755 267.523C189.873 266.573 190.991 265.623 192.174 264.66ZM188.717 295.241C188.174 295.394 187.632 295.546 186.984 295.728C187.165 296.105 187.279 296.393 187.434 296.659C189.191 299.685 190.979 302.693 192.696 305.741C193.07 306.405 193.459 306.362 194.012 306.142C197.121 304.907 200.233 303.679 203.342 302.442C205.135 301.728 206.923 301 208.846 300.226C206.803 297.379 204.851 294.641 202.864 291.928C202.732 291.749 202.299 291.652 202.058 291.714C197.653 292.857 193.256 294.031 188.717 295.241ZM179.065 311.334C181.969 310.241 184.873 309.147 187.854 308.025C186.169 304.58 184.542 301.274 182.938 297.957C182.674 297.41 182.331 297.411 181.855 297.608C180.179 298.3 178.494 298.971 176.817 299.66C174.74 300.515 172.666 301.38 170.534 302.264C172.291 305.54 174.008 308.723 175.701 311.919C175.931 312.351 176.165 312.439 176.606 312.255C177.37 311.938 178.154 311.668 179.065 311.334Z" fill="#E2CEC5"/>
<path d="M188.693 267.532C191.902 272.187 195.049 276.851 198.296 281.663C197.144 282.057 196.084 282.429 195.019 282.78C191.36 283.987 187.694 285.171 184.043 286.4C183.251 286.667 182.772 286.704 182.19 285.867C178.482 280.541 174.683 275.277 170.919 269.99C169.646 268.202 168.382 266.407 167.121 264.611C167 264.439 166.928 264.233 166.769 263.914C169.672 262.946 172.498 262.005 175.394 261.063C176.588 262.643 177.615 264.303 178.86 265.78C180.061 267.204 181.56 268.309 183.615 268.506C184.733 268.46 185.783 268.495 186.799 268.328C187.436 268.223 188.022 267.813 188.693 267.532Z" fill="#B99D88"/>
<path d="M180.613 248.76C178 247.619 176.277 245.549 174.976 243.129C170.263 234.361 176.134 224.218 186.129 223.923C187.778 223.874 189.444 224.345 191.163 224.697C191.752 228.256 190.748 231.452 189.484 234.54C187.82 238.608 185.533 242.351 182.916 245.884C182.186 246.87 181.383 247.803 180.613 248.76Z" fill="#F3C452"/>
<path d="M180.659 248.816C181.383 247.803 182.186 246.87 182.916 245.884C185.533 242.351 187.82 238.608 189.485 234.54C190.748 231.452 191.752 228.256 191.225 224.743C192.059 225.033 192.893 225.399 193.749 225.911C193.672 227.479 193.647 228.911 193.457 230.32C193.224 232.042 192.93 233.764 192.525 235.452C191.839 238.304 191.138 241.159 190.266 243.957C189.609 246.066 188.673 248.089 187.861 250.15C185.336 250.504 182.957 250.039 180.659 248.816Z" fill="#FED671"/>
<path d="M196.097 227.668C198.545 229.919 199.764 232.771 199.957 236.031C200.213 240.37 198.88 244.18 195.506 247.018C194.247 248.077 192.618 248.695 191.038 249.463C190.939 249.138 190.901 248.841 190.991 248.59C191.684 246.656 192.424 244.739 193.106 242.801C194.61 238.53 195.286 234.081 195.874 229.616C195.96 228.968 196.023 228.317 196.097 227.668Z" fill="#FED671"/>
<path d="M196.071 227.611C196.023 228.317 195.96 228.968 195.875 229.616C195.286 234.081 194.61 238.53 193.107 242.801C192.424 244.739 191.684 246.656 190.992 248.59C190.902 248.841 190.94 249.138 190.97 249.468C190.02 249.735 189.019 249.946 187.94 250.154C188.673 248.089 189.609 246.066 190.266 243.957C191.139 241.159 191.839 238.304 192.525 235.452C192.931 233.764 193.225 232.042 193.457 230.32C193.648 228.911 193.673 227.479 193.788 225.965C194.552 226.434 195.299 226.994 196.071 227.611Z" fill="#F3C452"/>
<path d="M179.163 204.654C179.181 204.684 179.201 204.713 179.22 204.742C179.205 204.73 179.19 204.718 179.171 204.678C179.168 204.65 179.165 204.653 179.163 204.654Z" fill="#A5E8F1"/>
<path d="M247.999 311.252C246.168 311.821 244.415 312.395 242.643 312.911C242.396 312.983 241.927 312.858 241.792 312.663C240.069 310.185 238.39 307.676 236.696 305.177C235.756 303.789 234.811 302.405 233.775 300.883C238.397 298.895 242.913 296.952 247.573 294.947C251.18 299.237 254.791 303.532 258.507 307.952C254.901 309.088 251.486 310.163 247.999 311.252Z" fill="#B99D88"/>
<path d="M237.078 296.552C235.412 297.278 233.811 297.98 232.097 298.731C230.716 296.4 229.347 294.088 227.913 291.669C230.572 290.526 233.156 289.415 235.85 288.257C236.975 290.698 238.083 293.104 239.245 295.625C238.468 295.959 237.806 296.243 237.078 296.552Z" fill="#B99D88"/>
<path d="M179.9 322.278C184.775 320.621 189.675 319.019 194.581 317.434C203.973 314.401 213.371 311.386 222.756 308.333C223.46 308.104 223.812 308.234 224.234 308.831C226.684 312.292 229.181 315.72 231.702 319.211C231.73 319.352 231.719 319.439 231.683 319.588C229.494 320.368 227.329 321.083 225.167 321.807C220.983 323.207 216.805 324.622 212.618 326.01C208.49 327.379 204.366 328.758 200.219 330.065C196.045 331.381 191.844 332.614 187.583 333.876C185.698 331.115 183.884 328.359 182.071 325.604C181.355 324.516 180.641 323.428 179.9 322.278Z" fill="#8CB303"/>
<path d="M147.463 298.981C147.333 298.794 147.234 298.668 147.156 298.529C145.909 296.303 146.006 295.718 148.196 294.36C150.071 293.198 152.084 292.285 154.341 292.201C154.816 292.183 155.461 292.389 155.763 292.728C159.454 296.868 162.838 301.249 165.868 305.899C166.11 306.272 166.329 306.663 166.526 307.061C166.798 307.608 166.736 308.071 166.224 308.497C164.223 310.166 162.023 311.485 159.551 312.319C157.948 312.86 157.018 312.501 156.027 311.123C154.002 308.308 151.94 305.519 149.925 302.696C149.076 301.506 148.308 300.258 147.463 298.981ZM160.663 301.154C158.968 299.04 157.289 296.913 155.558 294.828C155.326 294.548 154.752 294.254 154.476 294.353C152.695 294.996 150.884 295.619 149.217 296.501C147.815 297.244 147.888 297.46 148.828 298.751C149.033 299.032 149.178 299.358 149.389 299.634C152.019 303.071 154.668 306.494 157.281 309.945C157.82 310.657 158.441 310.831 159.188 310.461C160.836 309.645 162.473 308.803 164.091 307.929C164.685 307.608 164.839 307.083 164.416 306.481C163.194 304.741 161.971 303 160.663 301.154Z" fill="#413B46"/>
<path d="M65.669 128.189C65.4755 128.222 65.3354 128.201 65.1257 128.166C65.5989 126.148 66.1416 124.144 66.7357 121.951C65.8532 121.938 65.1117 121.927 64.289 121.907C64.774 118.323 65.3123 114.745 65.9155 111.178C66.3652 108.519 66.8578 105.865 67.4053 103.225C68.1006 99.8716 68.872 96.5342 69.6065 93.1892C69.6746 92.8789 69.7128 92.5621 69.7844 92.166C70.9655 91.9231 72.1304 91.7817 73.286 91.5858C73.5177 91.5465 73.8571 91.3351 73.905 91.1429C74.433 89.0245 74.9132 86.8943 75.4156 84.685C78.9583 84.1563 82.4897 83.6942 86.0258 83.2705C87.6359 83.0776 89.2552 82.9605 90.9479 82.8312C90.37 85.8918 89.721 88.9318 89.0571 91.9685C88.4611 94.6949 87.8405 97.4159 87.2463 100.143C86.8003 102.189 86.3928 104.244 85.9432 106.29C85.3782 108.861 84.7863 111.426 84.2086 113.994C83.8047 115.789 83.3975 117.583 83.0055 119.38C82.4309 122.016 81.8686 124.654 81.2752 127.377C76.0737 127.688 70.8981 127.912 65.669 128.189ZM70.5152 122.806C70.6411 122.938 70.755 123.169 70.8948 123.186C72.5659 123.388 74.2381 123.595 75.9161 123.718C76.5513 123.765 77.2021 123.597 77.8458 123.527C77.8395 123.389 77.8332 123.25 77.8269 123.112C75.4663 122.584 73.0618 122.659 70.5152 122.806ZM74.8226 121.146C74.8985 121.276 74.9656 121.513 75.0516 121.52C76.7256 121.658 78.4012 121.782 80.0786 121.866C80.2601 121.875 80.4547 121.62 80.6432 121.488C80.6106 121.348 80.5781 121.207 80.5455 121.066C78.6758 121.06 76.8061 121.054 74.8226 121.146ZM75.8862 124.746C75.7594 124.89 75.6326 125.033 75.5057 125.176C75.6851 125.284 75.855 125.462 76.0453 125.488C77.0195 125.618 77.9971 125.745 78.9774 125.796C79.3606 125.815 79.7543 125.633 80.1432 125.543C80.131 125.427 80.1188 125.312 80.1065 125.196C78.7545 125.048 77.4025 124.899 75.8862 124.746ZM72.5483 121.456C72.9088 121.409 73.2693 121.362 73.8547 121.286C72.7307 120.563 70.7964 120.555 70.1353 121.191C70.9339 121.279 71.6549 121.358 72.5483 121.456ZM78.9363 122.986C78.4522 123.15 78.2484 123.537 78.7499 123.756C79.3009 123.997 79.9771 123.952 80.5085 123.278C80.0364 123.179 79.5643 123.08 78.9363 122.986ZM73.2464 125.024C73.7219 125.351 74.1821 125.478 74.6867 124.89C74.1314 124.548 73.6744 124.11 73.2464 125.024Z" fill="#CC955D"/>
<path d="M281.577 261.368C278.721 262.298 275.94 263.22 273.142 264.088C272.902 264.163 272.361 263.956 272.285 263.756C271.467 261.617 270.714 259.454 269.948 257.295C269.919 257.212 269.944 257.11 269.944 256.894C273.212 255.748 276.504 254.594 279.877 253.411C281.041 255.895 282.166 258.297 283.317 260.753C282.654 260.989 282.15 261.168 281.577 261.368Z" fill="#B99D88"/>
<path d="M188.787 295.219C193.256 294.031 197.653 292.857 202.057 291.714C202.299 291.652 202.732 291.749 202.863 291.928C204.851 294.641 206.803 297.379 208.846 300.226C206.923 301 205.135 301.728 203.341 302.442C200.233 303.679 197.121 304.907 194.012 306.142C193.459 306.362 193.07 306.405 192.696 305.741C190.979 302.693 189.191 299.685 187.433 296.659C187.279 296.393 187.164 296.105 186.984 295.728C187.632 295.546 188.174 295.394 188.787 295.219Z" fill="#B99D88"/>
<path d="M178.997 311.356C178.154 311.668 177.37 311.938 176.605 312.255C176.164 312.439 175.93 312.351 175.701 311.919C174.008 308.723 172.291 305.54 170.534 302.264C172.666 301.38 174.739 300.515 176.817 299.66C178.494 298.971 180.178 298.3 181.854 297.608C182.331 297.412 182.674 297.41 182.938 297.957C184.542 301.274 186.168 304.58 187.854 308.025C184.872 309.148 181.969 310.241 178.997 311.356Z" fill="#B99D88"/>
<path d="M160.705 301.207C161.97 303 163.193 304.74 164.416 306.481C164.839 307.083 164.684 307.607 164.09 307.928C162.472 308.803 160.836 309.645 159.187 310.461C158.44 310.831 157.82 310.656 157.281 309.945C154.668 306.494 152.018 303.071 149.388 299.634C149.177 299.358 149.032 299.032 148.827 298.75C147.888 297.46 147.814 297.244 149.217 296.501C150.884 295.619 152.694 294.996 154.476 294.353C154.752 294.253 155.325 294.547 155.558 294.828C157.288 296.913 158.968 299.04 160.705 301.207Z" fill="#5C606C"/>
<path d="M70.5842 122.794C73.0615 122.659 75.466 122.584 77.8267 123.112C77.833 123.25 77.8392 123.389 77.8455 123.527C77.2019 123.597 76.551 123.765 75.9159 123.718C74.2379 123.595 72.5657 123.388 70.8946 123.186C70.7548 123.169 70.6409 122.938 70.5842 122.794Z" fill="#875C38"/>
<path d="M74.88 121.097C76.8066 121.054 78.6763 121.06 80.546 121.067C80.5786 121.207 80.6111 121.348 80.6437 121.488C80.4552 121.62 80.2606 121.875 80.0792 121.866C78.4017 121.782 76.7261 121.658 75.0521 121.52C74.9661 121.513 74.899 121.276 74.88 121.097Z" fill="#875C38"/>
<path d="M75.9687 124.748C77.4029 124.899 78.7549 125.048 80.1069 125.196C80.1191 125.312 80.1313 125.427 80.1436 125.543C79.7547 125.633 79.361 125.815 78.9778 125.795C77.9974 125.745 77.0199 125.618 76.0457 125.488C75.8554 125.462 75.6854 125.284 75.5061 125.176C75.6329 125.033 75.7598 124.89 75.9687 124.748Z" fill="#875C38"/>
<path d="M72.4622 121.446C71.655 121.358 70.934 121.279 70.1354 121.191C70.7965 120.555 72.7308 120.563 73.8548 121.286C73.2694 121.362 72.9089 121.409 72.4622 121.446Z" fill="#875C38"/>
<path d="M79.0143 122.983C79.5643 123.08 80.0364 123.179 80.5085 123.278C79.9772 123.952 79.3009 123.997 78.7499 123.756C78.2484 123.537 78.4522 123.15 79.0143 122.983Z" fill="#875C38"/>
<path d="M73.2192 124.957C73.6748 124.11 74.1318 124.548 74.6871 124.89C74.1825 125.478 73.7223 125.351 73.2192 124.957Z" fill="#875C38"/>
</g>
<defs>
<clipPath id="clip0_507_6531">
<rect width="382.972" height="382.972" fill="white" transform="translate(14.2104 0.052124) rotate(6.27106)"/>
</clipPath>
</defs>
</svg>
