<svg width="42" height="42" viewBox="0 0 42 42" fill="none" xmlns="http://www.w3.org/2000/svg">
<g filter="url(#filter0_d_18_1465)">
<rect x="5" y="5" width="32" height="32" rx="16" fill="#3DAD87" shape-rendering="crispEdges"/>
<g clip-path="url(#clip0_18_1465)">
<path d="M14.6191 12.2171C12.0324 13.5105 10.1547 14.4773 10.0988 14.5375L10 14.6449V19.0449V23.4492L10.1203 23.5738C10.2234 23.6855 18.1727 28.1371 18.5422 28.2918C18.9719 28.4722 19.3629 27.905 19.0363 27.5785C18.9676 27.514 17.1113 26.4613 14.9113 25.2367L10.9023 23.0109V19.2984C10.9023 16.8406 10.9152 15.5859 10.9453 15.5859C10.9711 15.5859 11.7059 15.9425 12.5781 16.3808L14.168 17.1757V18.7914C14.168 19.8957 14.1852 20.4328 14.2152 20.4972C14.2969 20.6605 14.4344 20.7421 14.632 20.7421C14.7824 20.7421 14.8426 20.7164 14.9457 20.6175L15.0703 20.4929V19.0707C15.0703 18.2886 15.0789 17.6484 15.0918 17.6484C15.1047 17.6484 16.0027 18.091 17.0898 18.6367C18.1727 19.1781 19.1137 19.625 19.1738 19.625C19.234 19.625 21.0988 18.714 23.3203 17.6054C25.5418 16.4925 27.368 15.5859 27.3809 15.5859C27.3938 15.5859 27.4023 16.2906 27.4023 17.1543C27.4023 18.8386 27.4152 18.9375 27.6215 19.0836C27.7504 19.1738 27.9996 19.1738 28.1285 19.0836C28.3434 18.9332 28.3477 18.873 28.3477 16.7246C28.3477 15.0058 28.3391 14.705 28.2832 14.5933C28.223 14.4859 27.6215 14.1679 23.7457 12.2343C20.9828 10.8507 19.234 9.99996 19.1609 10.0043C19.0965 10.0043 17.077 10.9882 14.6191 12.2171ZM20.7551 11.766L22.3105 12.548L18.5078 14.4515C16.4152 15.4957 14.6793 16.355 14.6492 16.355C14.5891 16.3593 11.5469 14.8468 11.5469 14.8125C11.5469 14.7824 19.0664 11.0054 19.1438 10.9968C19.1695 10.9925 19.8957 11.3406 20.7551 11.766ZM25.0605 13.9187C26.0188 14.4 26.8008 14.7996 26.8008 14.8125C26.8008 14.8254 25.082 15.6933 22.9766 16.7461L19.1523 18.6582L18.4563 18.3101C18.0695 18.1168 17.2832 17.7171 16.7074 17.4207L15.659 16.8836L19.4789 14.9671C21.5801 13.9144 23.3031 13.055 23.3074 13.055C23.316 13.0507 24.1023 13.4418 25.0605 13.9187Z" fill="white"/>
<g clip-path="url(#clip1_18_1465)">
<path d="M25.5 20C22.4673 20 20 22.4673 20 25.5C20 28.5327 22.4673 31 25.5 31C28.5327 31 31 28.5327 31 25.5C31 22.4673 28.5327 20 25.5 20ZM25.5 30C23.0187 30 21 27.9813 21 25.5C21 23.0187 23.0187 21 25.5 21C27.9813 21 30 23.0187 30 25.5C30 27.9813 27.9813 30 25.5 30Z" fill="white"/>
<path d="M27.5625 23.5555L24.734 26.3839L23.4377 25.0876C23.2424 24.8923 22.9258 24.8923 22.7306 25.0875C22.5353 25.2828 22.5353 25.5994 22.7306 25.7946L24.3804 27.4446C24.4742 27.5383 24.6014 27.591 24.734 27.591C24.734 27.591 24.734 27.591 24.734 27.591C24.8666 27.591 24.9938 27.5383 25.0875 27.4446L28.2696 24.2626C28.4648 24.0674 28.4648 23.7508 28.2696 23.5555C28.0743 23.3603 27.7577 23.3602 27.5625 23.5555Z" fill="white"/>
</g>
</g>
</g>
<defs>
<filter id="filter0_d_18_1465" x="0" y="0" width="42" height="42" filterUnits="userSpaceOnUse" color-interpolation-filters="sRGB">
<feFlood flood-opacity="0" result="BackgroundImageFix"/>
<feColorMatrix in="SourceAlpha" type="matrix" values="0 0 0 0 0 0 0 0 0 0 0 0 0 0 0 0 0 0 127 0" result="hardAlpha"/>
<feOffset/>
<feGaussianBlur stdDeviation="2.5"/>
<feComposite in2="hardAlpha" operator="out"/>
<feColorMatrix type="matrix" values="0 0 0 0 0.239216 0 0 0 0 0.678431 0 0 0 0 0.529412 0 0 0 0.72 0"/>
<feBlend mode="normal" in2="BackgroundImageFix" result="effect1_dropShadow_18_1465"/>
<feBlend mode="normal" in="SourceGraphic" in2="effect1_dropShadow_18_1465" result="shape"/>
</filter>
<clipPath id="clip0_18_1465">
<rect width="22" height="22" fill="white" transform="translate(10 10)"/>
</clipPath>
<clipPath id="clip1_18_1465">
<rect width="11" height="11" fill="white" transform="translate(20 20)"/>
</clipPath>
</defs>
</svg>
