<svg width="21" height="19" viewBox="0 0 21 19" fill="none" xmlns="http://www.w3.org/2000/svg">
<path d="M17.991 0.765299C16.5697 0.547877 15.2321 1.38342 14.7649 2.68827H13.0447V4.1687H14.6424C14.846 5.39417 15.8023 6.40913 17.0977 6.6076C18.7101 6.85432 20.2181 5.74659 20.4657 4.13335C20.712 2.52006 19.6043 1.01202 17.991 0.765299Z" fill="white"/>
<path d="M6.85218 12.6626C6.85218 12.3938 6.63433 12.1755 6.36515 12.1755H4.25628C3.9871 12.1755 3.76929 12.3938 3.76929 12.6626C3.76929 12.9308 3.9871 13.1496 4.25628 13.1496H6.36518C6.63433 13.1496 6.85218 12.9309 6.85218 12.6626Z" fill="white"/>
<path d="M15.8515 8.74617L11.6044 12.7496L10.1214 13.1167V9.73312H0.5V18.1705H10.1214V15.848L11.5099 15.6241C12.172 15.5297 12.6582 15.3627 13.2418 15.0375L15.0505 14.0911V18.1705H20.2237V10.0299C20.2237 7.36543 17.2194 7.35808 15.8515 8.74617ZM8.93734 16.9863H1.6841V10.9172H8.93734V13.4096L7.51472 13.7615C6.89097 13.9332 6.51051 14.563 6.64855 15.195L6.66019 15.2437C6.79605 15.8652 7.38875 16.2763 8.01898 16.1866L8.93734 16.0387V16.9863Z" fill="white"/>
</svg>
