<svg width="42" height="42" viewBox="0 0 42 42" fill="none" xmlns="http://www.w3.org/2000/svg">
<g filter="url(#filter0_d_18_1190)">
<rect x="5" y="5" width="32" height="32" rx="16" fill="#EB7C35" shape-rendering="crispEdges"/>
<g clip-path="url(#clip0_18_1190)">
<path d="M14.6191 12.2171C12.0324 13.5105 10.1547 14.4773 10.0988 14.5375L10 14.6449V19.0449V23.4492L10.1203 23.5738C10.2234 23.6855 18.1727 28.1371 18.5422 28.2918C18.9719 28.4722 19.3629 27.905 19.0363 27.5785C18.9676 27.514 17.1113 26.4613 14.9113 25.2367L10.9023 23.0109V19.2984C10.9023 16.8406 10.9152 15.5859 10.9453 15.5859C10.9711 15.5859 11.7059 15.9425 12.5781 16.3808L14.168 17.1757V18.7914C14.168 19.8957 14.1852 20.4328 14.2152 20.4972C14.2969 20.6605 14.4344 20.7421 14.632 20.7421C14.7824 20.7421 14.8426 20.7164 14.9457 20.6175L15.0703 20.4929V19.0707C15.0703 18.2886 15.0789 17.6484 15.0918 17.6484C15.1047 17.6484 16.0027 18.091 17.0898 18.6367C18.1727 19.1781 19.1137 19.625 19.1738 19.625C19.234 19.625 21.0988 18.714 23.3203 17.6054C25.5418 16.4925 27.368 15.5859 27.3809 15.5859C27.3938 15.5859 27.4023 16.2906 27.4023 17.1543C27.4023 18.8386 27.4152 18.9375 27.6215 19.0836C27.7504 19.1738 27.9996 19.1738 28.1285 19.0836C28.3434 18.9332 28.3477 18.873 28.3477 16.7246C28.3477 15.0058 28.3391 14.705 28.2832 14.5933C28.223 14.4859 27.6215 14.1679 23.7457 12.2343C20.9828 10.8507 19.234 9.99996 19.1609 10.0043C19.0965 10.0043 17.077 10.9882 14.6191 12.2171ZM20.7551 11.766L22.3105 12.548L18.5078 14.4515C16.4152 15.4957 14.6793 16.355 14.6492 16.355C14.5891 16.3593 11.5469 14.8468 11.5469 14.8125C11.5469 14.7824 19.0664 11.0054 19.1438 10.9968C19.1695 10.9925 19.8957 11.3406 20.7551 11.766ZM25.0605 13.9187C26.0188 14.4 26.8008 14.7996 26.8008 14.8125C26.8008 14.8254 25.082 15.6933 22.9766 16.7461L19.1523 18.6582L18.4563 18.3101C18.0695 18.1168 17.2832 17.7171 16.7074 17.4207L15.659 16.8836L19.4789 14.9671C21.5801 13.9144 23.3031 13.055 23.3074 13.055C23.316 13.0507 24.1023 13.4418 25.0605 13.9187Z" fill="white"/>
<g clip-path="url(#clip1_18_1190)">
<path d="M27.696 25.9378C27.8275 25.898 28.1354 25.8046 28.2785 25.3636L28.5734 24.4553L28.692 24.4975C28.7463 24.5168 28.8058 24.4861 28.8243 24.4292L28.9824 23.9419C29.0009 23.885 28.9716 23.8227 28.9173 23.8033L25.0948 22.4417C25.0405 22.4224 24.981 22.4531 24.9625 22.5099L24.8043 22.9973C24.7859 23.0541 24.8152 23.1165 24.8695 23.1359L24.9881 23.1781L24.6879 24.103C24.5462 24.5397 24.6399 24.6871 24.8178 24.9103L25.5913 25.8807L25.5051 26.1463C25.2091 26.2136 24.4357 26.3901 24.3315 26.4216C24.2001 26.4615 23.8921 26.5548 23.749 26.9958L23.4952 27.778L23.3765 27.7357C23.3223 27.7164 23.2627 27.7471 23.2442 27.804L23.0861 28.2913C23.0676 28.3482 23.097 28.4105 23.1512 28.4299L26.9737 29.7915C27.028 29.8109 27.0875 29.7801 27.106 29.7232L27.2641 29.236C27.2826 29.1791 27.2533 29.1167 27.199 29.0974L27.0804 29.0551L27.3396 28.2564C27.4813 27.8198 27.3876 27.6723 27.2097 27.4493L26.4363 26.4789L26.5224 26.2132C26.8184 26.146 27.5918 25.9694 27.696 25.9378ZM26.0806 26.6461L26.9217 27.7012C26.9863 27.7822 27.0204 27.8264 27.0297 27.8668C27.0408 27.9154 27.0259 28.0015 26.9843 28.1298L26.7251 28.9285L23.8505 27.9046L24.1043 27.1224C24.1844 26.8756 24.3297 26.8315 24.4358 26.7994C24.5187 26.7742 25.2302 26.6108 25.6882 26.507C25.7526 26.4924 25.805 26.4435 25.8262 26.3781L25.9805 25.9027C26.0016 25.8377 25.9889 25.766 25.9469 25.7134L25.1083 24.6614L25.1058 24.6582C25.0412 24.5773 25.0071 24.5331 24.9978 24.4926C24.9867 24.444 25.0015 24.358 25.0432 24.2296L25.3434 23.3047L28.2181 24.3287L27.9232 25.2371C27.8431 25.484 27.6978 25.528 27.5918 25.5602C27.5089 25.5853 26.7973 25.7488 26.3394 25.8525C26.275 25.8671 26.2225 25.916 26.2013 25.9814L26.047 26.4568C26.0259 26.5218 26.0387 26.5934 26.0806 26.6461Z" fill="white"/>
<path d="M28.3516 30.3953C28.2677 30.4451 28.1812 30.4928 28.0946 30.537C28.0806 30.5442 28.0671 30.5521 28.054 30.5605C28.0401 30.5656 28.0263 30.5714 28.0126 30.5781C27.6368 30.7617 27.245 30.8909 26.8413 30.9659C26.8361 30.9667 26.831 30.967 26.8257 30.968C26.7306 30.9856 26.6337 31.0003 26.5379 31.0118C26.5369 31.0119 26.5358 31.0122 26.5348 31.0123C26.3589 31.0327 26.181 31.043 26.0012 31.043C23.9287 31.043 22.1612 29.6499 21.5063 27.7107C21.4965 27.6811 21.4865 27.6516 21.4772 27.6219C21.3202 27.1274 21.2349 26.5989 21.2349 26.0498C21.2349 25.4996 21.3206 24.9699 21.4782 24.4745C21.4817 24.4637 21.485 24.4529 21.4884 24.4421C21.4979 24.4132 21.5076 24.3845 21.5175 24.3558C21.5222 24.3424 21.5268 24.329 21.5316 24.3156C22.0758 22.7811 23.3205 21.6007 24.8566 21.2025C24.8575 21.2023 24.8585 21.2022 24.8595 21.2019C24.8822 21.196 24.9051 21.1903 24.928 21.1848C24.9306 21.1842 24.933 21.1832 24.9355 21.1825C25.2706 21.1021 25.619 21.0588 25.9766 21.0569L25.9807 21.5703C25.982 21.7296 26.078 21.7757 26.194 21.6727L27.2292 20.7534C27.3452 20.6504 27.3439 20.4834 27.2262 20.3824L26.1765 19.4815C26.0588 19.3806 25.9635 19.4283 25.9648 19.5877L25.9689 20.1C24.4639 20.1088 23.0502 20.7266 21.985 21.8424C21.8801 21.9524 21.7799 22.0659 21.6844 22.1826C21.6838 22.1833 21.6832 22.1839 21.6826 22.1846C21.6791 22.1889 21.6758 22.1934 21.6723 22.1977C20.8339 23.2283 20.3612 24.5129 20.3241 25.8757C20.3232 25.8863 20.3221 25.8968 20.3218 25.9076C20.3208 25.9531 20.3203 25.9993 20.3203 26.045C20.3203 26.1199 20.3218 26.1959 20.3245 26.2708C20.3248 26.2795 20.3258 26.2881 20.3267 26.2967C20.3747 27.5384 20.7845 28.7123 21.5035 29.6846C21.506 29.688 21.5079 29.6916 21.5104 29.6949C21.5807 29.7899 21.6549 29.884 21.7309 29.9745C21.7358 29.9803 21.7411 29.9853 21.7462 29.9909C21.823 30.0817 21.9024 30.1707 21.985 30.2572C22.8283 31.1407 23.8902 31.7119 25.0428 31.9159C25.0463 31.9166 25.0498 31.9173 25.0533 31.918C25.0559 31.9184 25.0585 31.9186 25.0611 31.919C25.3689 31.9724 25.6831 32 26.0012 32C26.8386 32 27.6451 31.8134 28.3986 31.4455C28.4148 31.4375 28.4302 31.4284 28.4451 31.4188C28.462 31.4128 28.4785 31.4055 28.4949 31.3972C28.5983 31.3443 28.7015 31.2875 28.8016 31.2281C29.0212 31.0979 29.0984 30.806 28.9741 30.576C28.8498 30.346 28.5711 30.2652 28.3516 30.3953Z" fill="white"/>
<path d="M29.959 23.2648C30.0472 23.4023 30.1915 23.4765 30.3385 23.4765C30.4261 23.4765 30.5147 23.4501 30.5928 23.3951C30.8022 23.2477 30.8578 22.9505 30.7172 22.7311C30.6529 22.631 30.5851 22.5318 30.5151 22.4362C30.3619 22.2263 30.0752 22.1864 29.8749 22.3469C29.6746 22.5074 29.6364 22.8078 29.7897 23.0176C29.8483 23.0979 29.9053 23.1811 29.959 23.2648Z" fill="white"/>
<path d="M30.5391 24.5214C30.5685 24.6175 30.5954 24.716 30.6193 24.8143C30.672 25.0307 30.8578 25.1747 31.0616 25.1747C31.0989 25.1747 31.1369 25.1699 31.1747 25.1598C31.4192 25.0945 31.5668 24.834 31.5045 24.5779C31.4761 24.4611 31.444 24.3439 31.409 24.2296C31.3321 23.9779 31.075 23.8392 30.8348 23.9198C30.5946 24.0004 30.4622 24.2698 30.5391 24.5214Z" fill="white"/>
<path d="M30.2482 29.2706C30.0573 29.0978 29.7689 29.1197 29.604 29.3196C29.5408 29.3961 29.4747 29.4715 29.4073 29.5437C29.231 29.7327 29.2343 30.0356 29.4148 30.2204C29.5036 30.3113 29.6189 30.3566 29.7339 30.3566C29.8526 30.3566 29.9712 30.3084 30.0607 30.2125C30.1409 30.1265 30.2198 30.0367 30.2949 29.9455C30.4598 29.7456 30.4389 29.4434 30.2482 29.2706Z" fill="white"/>
<path d="M31.2367 25.739C30.9841 25.731 30.774 25.9388 30.7665 26.2029C30.7637 26.3041 30.7577 26.4064 30.7489 26.507C30.7258 26.7702 30.9108 27.0031 31.162 27.0272C31.1762 27.0286 31.1902 27.0293 31.2043 27.0293C31.4376 27.0293 31.6368 26.8428 31.6585 26.5945C31.6691 26.4744 31.6762 26.3523 31.6796 26.2316C31.687 25.9675 31.4888 25.7469 31.2367 25.739Z" fill="white"/>
<path d="M31.0336 27.5945C30.7986 27.4981 30.5337 27.6195 30.4417 27.8656C30.4065 27.9597 30.3681 28.0541 30.3275 28.146C30.2214 28.3857 30.321 28.6701 30.5499 28.7812C30.6121 28.8114 30.6773 28.8256 30.7416 28.8256C30.9141 28.8256 31.079 28.7228 31.1563 28.5482C31.2046 28.4388 31.2505 28.3266 31.2923 28.2145C31.3843 27.9684 31.2684 27.6908 31.0336 27.5945Z" fill="white"/>
<path d="M29.4781 21.9384C29.6283 21.7259 29.5856 21.4263 29.3829 21.2691C29.2906 21.1974 29.1949 21.1279 29.0984 21.0621C28.887 20.9181 28.6041 20.9809 28.4666 21.2024C28.3291 21.4239 28.389 21.7203 28.6004 21.8644C28.6815 21.9195 28.7618 21.978 28.8394 22.0382C28.9211 22.1015 29.0163 22.1321 29.1108 22.1321C29.2506 22.1321 29.3886 22.0651 29.4781 21.9384Z" fill="white"/>
</g>
</g>
</g>
<defs>
<filter id="filter0_d_18_1190" x="0" y="0" width="42" height="42" filterUnits="userSpaceOnUse" color-interpolation-filters="sRGB">
<feFlood flood-opacity="0" result="BackgroundImageFix"/>
<feColorMatrix in="SourceAlpha" type="matrix" values="0 0 0 0 0 0 0 0 0 0 0 0 0 0 0 0 0 0 127 0" result="hardAlpha"/>
<feOffset/>
<feGaussianBlur stdDeviation="2.5"/>
<feComposite in2="hardAlpha" operator="out"/>
<feColorMatrix type="matrix" values="0 0 0 0 0.921569 0 0 0 0 0.486275 0 0 0 0 0.207843 0 0 0 0.72 0"/>
<feBlend mode="normal" in2="BackgroundImageFix" result="effect1_dropShadow_18_1190"/>
<feBlend mode="normal" in="SourceGraphic" in2="effect1_dropShadow_18_1190" result="shape"/>
</filter>
<clipPath id="clip0_18_1190">
<rect width="22" height="22" fill="white" transform="translate(10 10)"/>
</clipPath>
<clipPath id="clip1_18_1190">
<rect width="12" height="12.5714" fill="white" transform="translate(20 19.4286)"/>
</clipPath>
</defs>
</svg>
