<svg width="518" height="563" viewBox="0 0 518 563" fill="none" xmlns="http://www.w3.org/2000/svg">
<g clip-path="url(#clip0_786_4536)">
<path d="M207.102 432.184C196.952 428.562 187.072 424.407 177.569 419.782C116.542 390.087 66.9139 334.972 48.3378 268.839C32.6996 213.167 42.7683 138.262 103.029 114.051C117.792 108.122 134.167 106.38 149.858 108.89C166.158 111.496 180.501 120.595 196.925 123.114C254.978 132.015 294.04 72.7375 350.321 71.3611C372.275 70.8235 398.766 77.2773 415.79 91.9157C437.695 110.752 451.318 138.782 462.708 164.831C474.787 192.463 483.629 221.735 486.378 251.878C493.058 325.112 457.603 394.072 392.361 428.195C335.639 457.863 265.913 453.177 207.102 432.184Z" fill="#5F021F" fill-opacity="0.25"/>
<path d="M377.351 481.769C377.351 486.294 325.575 489.964 261.703 489.964C197.833 489.964 146.055 486.294 146.055 481.769C146.055 477.243 197.833 473.573 261.703 473.573C325.575 473.573 377.351 477.243 377.351 481.769Z" fill="#92B9C9"/>
<path d="M473.621 481.769C473.621 486.294 441.903 489.964 402.778 489.964C363.651 489.964 331.934 486.294 331.934 481.769C331.934 477.243 363.651 473.573 402.778 473.573C441.903 473.573 473.621 477.243 473.621 481.769Z" fill="#92B9C9"/>
<path d="M151.001 481.369L68.6051 484.307C61.5067 484.307 55.5932 479.598 55.0035 473.477L23.3232 144.502C22.6601 137.616 28.9398 131.71 36.9249 131.71L119.32 134.648C126.419 134.648 132.333 139.357 132.921 145.479L164.601 468.577C165.265 475.463 158.985 481.369 151.001 481.369Z" fill="#496378"/>
<path d="M162.505 481.369L80.1103 484.307C73.0118 484.307 67.0988 479.598 66.5091 473.477L34.8288 144.502C34.1656 137.616 40.445 131.71 48.43 131.71L130.825 134.648C137.925 134.648 143.838 139.357 144.427 145.479L176.107 468.577C176.771 475.463 170.491 481.369 162.505 481.369Z" fill="#80A1B4"/>
<path d="M164.769 481.369L82.3741 484.307C75.2757 484.307 69.3618 479.598 68.773 473.477L37.0923 144.502C36.4296 137.616 42.7084 131.71 50.6939 131.71L133.089 134.648C140.188 134.648 146.101 139.357 146.691 145.479L178.371 468.577C179.034 475.463 172.755 481.369 164.769 481.369Z" fill="#23313A"/>
<path d="M169.815 473.572C168.499 474.814 166.705 475.491 164.766 475.491L82.3707 478.429C78.8331 478.429 75.8308 476.039 75.5384 472.985L70.9385 425.188L43.8629 144.01C43.6972 142.336 44.3306 140.739 45.6459 139.505C46.9621 138.261 48.7552 137.586 50.6947 137.586L133.09 140.524C136.629 140.524 139.631 142.914 139.923 145.969L155.604 305.911L171.608 469.066C171.764 470.74 171.131 472.337 169.815 473.572Z" fill="#9A0034"/>
<path d="M153.986 287.167L66.4851 378.941L61.5084 327.26L152.04 269.558L153.986 287.167Z" fill="#932C4C"/>
<path d="M169.815 473.572C168.499 474.814 166.705 475.491 164.766 475.491L82.3707 478.429C78.8331 478.429 75.8308 476.039 75.5384 472.985L70.9385 425.188C90.655 396.98 132.31 338.546 155.604 305.911L171.608 469.066C171.764 470.74 171.131 472.337 169.815 473.572Z" fill="#932C4C"/>
<path d="M72.367 137.587L76.6369 144.209C77.4889 145.139 78.684 145.676 79.942 145.691L114.549 146.127C115.951 146.145 117.283 145.515 118.163 144.418L122.073 137.587H72.367Z" fill="#23313A"/>
<path d="M102.538 422.082C103.261 431.139 99.4417 438.836 94.0077 439.274C88.5736 439.713 83.5815 432.726 82.8581 423.669C82.1346 414.612 85.9539 406.915 91.3891 406.477C96.8232 406.038 101.815 413.025 102.538 422.082Z" fill="white"/>
<path d="M130.887 419.695C131.61 428.753 127.792 436.449 122.358 436.888C116.922 437.326 111.931 430.339 111.207 421.282C110.484 412.225 114.304 404.527 119.738 404.09C125.173 403.651 130.164 410.638 130.887 419.695Z" fill="white"/>
<path d="M158.47 416.995C159.193 426.052 155.374 433.751 149.94 434.19C144.506 434.627 139.514 427.639 138.791 418.583C138.068 409.526 141.887 401.828 147.321 401.39C152.755 400.952 157.747 407.939 158.47 416.995Z" fill="white"/>
<path d="M139.506 254.412C141.982 285.918 128.663 312.677 109.758 314.177C90.853 315.678 73.5206 291.351 71.0447 259.843C68.5693 228.337 81.8876 201.578 100.792 200.078C119.698 198.577 137.03 222.904 139.506 254.412Z" fill="#ECF8F4"/>
<path d="M86.1788 266.601L102.64 285.671C105.122 288.547 109.753 287.762 111.159 284.226L129.095 239.125C129.589 237.884 129.576 236.499 129.062 235.267L129.033 235.196C127.278 231.005 121.349 231.059 119.671 235.282L104.592 273.226L93.9237 260.059C91.0366 256.497 85.3015 258.305 84.9557 262.886C84.8538 264.239 85.2948 265.576 86.1788 266.601Z" fill="#5F021F"/>
<path d="M79.6584 351.104C78.3749 351.104 77.3 350.094 77.2279 348.79C77.1536 347.44 78.1826 346.285 79.5259 346.209L149.7 342.293C151.039 342.204 152.193 343.25 152.267 344.6C152.342 345.952 151.313 347.107 149.97 347.181L79.796 351.099L79.6584 351.104Z" fill="#ECF8F4"/>
<path d="M132.309 174.872L132.24 174.871L62.0658 172.912C60.7202 172.874 59.6598 171.748 59.6977 170.396C59.7353 169.046 60.864 167.993 62.2008 168.017L132.375 169.976C133.72 170.014 134.78 171.14 134.743 172.491C134.706 173.821 133.622 174.872 132.309 174.872Z" fill="#ECF8F4"/>
<path d="M79.6583 369.96C78.3898 369.96 77.3197 368.971 77.23 367.68C77.1365 366.332 78.1498 365.163 79.4922 365.069L149.666 360.171C151.017 360.083 152.172 361.096 152.266 362.446C152.359 363.794 151.346 364.964 150.003 365.057L79.8301 369.953L79.6583 369.96Z" fill="#ECF8F4"/>
<path d="M172.944 202.805C172.944 202.805 168.352 186.938 168.087 184.371C167.821 181.806 166.386 173.48 170.516 171.031C174.644 168.582 172.206 161.238 176.593 159.768C181.399 158.159 187.392 158.439 192.369 158.607C198.539 158.815 206.511 161.654 209.128 167.97C211.063 172.638 208.687 181.101 207.636 185.937L172.944 202.805Z" fill="#3E271F"/>
<path d="M172.944 202.805C172.944 202.805 168.352 186.938 168.087 184.371C168.084 184.342 168.081 184.31 168.077 184.279C167.995 183.525 167.829 182.332 167.724 180.955C167.912 180.791 168.241 180.615 168.671 180.435C169.438 180.113 170.527 179.776 171.71 179.462C171.771 181.512 172.05 183.376 172.153 184.371C172.164 184.472 172.181 184.594 172.204 184.733C171.879 185.382 171.674 186.067 171.644 186.744C171.64 186.818 171.639 186.892 171.639 186.965C171.641 187.941 171.943 188.897 172.552 189.671C172.56 189.681 172.57 189.691 172.581 189.704C172.719 189.841 173.13 190.124 173.559 190.403C173.953 191.892 174.389 193.494 174.815 195.036C174.547 197.554 173.803 200.21 172.946 202.804L172.944 202.805Z" fill="#654016"/>
<path d="M205.087 202.557C204.601 204.791 203.68 206.138 202.509 206.984C198.723 209.759 192.438 207.328 190.664 212.97C190.282 214.199 189.506 215.89 189.138 217.554C188.835 218.889 188.81 220.223 189.453 221.254C189.755 221.73 190.322 222.219 190.189 222.84C190.059 223.448 189.322 223.804 188.796 224.003C187.717 224.398 186.482 224.359 185.351 224.267C180.447 223.89 170.894 221.623 169.563 215.771C169.207 214.207 169.67 212.584 170.128 211.045C171.866 205.218 175.702 197.297 174.78 191.143C174.786 191.184 172.77 189.949 172.552 189.672C171.898 188.84 171.597 187.796 171.644 186.745C171.742 184.533 173.699 182.251 175.655 181.329C179.187 179.664 180.567 184.383 181.723 186.9C182.13 187.786 182.617 188.909 183.747 188.446C185.036 187.931 186.1 186.9 186.048 185.473C186.009 184.351 185.707 183.253 186.114 182.157C187.086 179.62 190.164 178.431 191.808 176.409C193.03 174.903 192.965 173.555 193.017 171.771C193.056 170.437 194.516 169.935 195.581 169.525C197.553 168.772 200.971 167.543 202.983 168.839C204.258 169.671 204.692 171.494 205.205 172.828C205.783 174.361 206.572 175.814 207.02 177.387C208.874 184.112 206.547 195.885 205.087 202.557Z" fill="#F9A76C"/>
<path d="M174.779 191.144C174.756 191.144 174.422 190.947 174.018 190.695C174.422 190.947 174.756 191.144 174.779 191.144ZM174.014 190.693C173.867 190.602 173.713 190.503 173.559 190.404C173.713 190.503 173.867 190.6 174.014 190.693Z" fill="#654016"/>
<path d="M173.559 190.404C173.13 190.125 172.719 189.842 172.581 189.705C172.719 189.842 173.13 190.125 173.559 190.404Z" fill="#A7651B"/>
<path d="M174.779 191.144C174.779 191.144 174.78 191.144 174.78 191.143C174.78 191.144 174.779 191.144 174.779 191.144Z" fill="#654016"/>
<path d="M173.022 183.466C174.098 181.712 175.624 179.994 176.944 179.994C177.364 179.994 177.762 180.167 178.119 180.568C178.386 180.867 178.567 181.212 178.688 181.583C178.215 181.209 177.677 180.981 177.056 180.981C176.631 180.981 176.166 181.089 175.655 181.329C174.707 181.776 173.759 182.543 173.022 183.466Z" fill="#654016"/>
<path d="M177.252 209.744C176.519 209.331 175.776 208.938 175.015 208.576C174.083 208.137 172.634 207.405 171.376 207.405C171.364 207.405 171.353 207.405 171.34 207.405C172.945 202.865 174.918 197.673 174.921 193.145C174.921 193.094 174.921 193.043 174.92 192.994C174.957 193.075 174.995 193.155 175.038 193.232C175.565 194.221 176.417 195.091 177.143 195.933C177.353 196.18 177.568 196.42 177.785 196.659C177.498 200.83 177.262 205.493 177.252 209.744ZM177.865 195.524C176.811 194.351 175.81 193.13 174.866 191.865C174.844 191.622 174.816 191.381 174.78 191.143C174.78 191.144 174.779 191.144 174.779 191.144C174.756 191.144 174.422 190.947 174.018 190.695C173.997 190.665 173.975 190.633 173.952 190.602C173.973 190.632 173.994 190.662 174.014 190.693C173.867 190.601 173.713 190.503 173.559 190.404C173.13 190.125 172.719 189.842 172.581 189.705C172.57 189.692 172.56 189.682 172.552 189.672C171.943 188.898 171.641 187.942 171.639 186.966C171.639 186.893 171.64 186.819 171.644 186.745C171.673 186.094 172.222 184.77 173.022 183.466C173.759 182.542 174.707 181.775 175.655 181.329C176.166 181.088 176.631 180.98 177.056 180.98C177.677 180.98 178.215 181.209 178.688 181.583C178.972 182.464 178.914 183.496 178.829 184.444C178.73 185.539 178.306 189.622 177.921 194.759C177.902 195.011 177.884 195.268 177.865 195.524Z" fill="#F2895D"/>
<path d="M207.02 177.387C206.572 175.814 205.783 174.361 205.205 172.828C204.692 171.494 204.258 169.671 202.984 168.839C201.095 167.622 197.966 168.631 195.958 169.382C196.216 178.114 197.419 186.834 191.212 193.069C190.238 194.539 188.044 194.294 185.974 194.049C183.903 193.805 181.953 193.56 181.467 195.029C178.052 203.852 177.324 214.146 179.89 223.333C181.9 223.855 183.845 224.151 185.351 224.267C186.482 224.359 187.718 224.398 188.796 224.003C189.322 223.804 190.059 223.448 190.189 222.84C190.322 222.219 189.755 221.73 189.453 221.254C188.81 220.223 188.835 218.889 189.138 217.554C189.506 215.89 190.282 214.199 190.664 212.97C192.438 207.328 198.723 209.759 202.509 206.984C203.68 206.138 204.601 204.791 205.087 202.557C206.547 195.885 208.874 184.112 207.02 177.387Z" fill="#F9A76C"/>
<path d="M201.147 207.252L201.4 207.258C199.53 208.548 197.256 208.485 195.117 209.058C192.975 209.63 191.357 210.767 190.664 212.97C190.193 214.484 189.609 216.109 189.08 217.534C187.803 216.443 187.702 214.245 187.387 212.704C187.094 211.263 186.94 209.799 186.908 208.329C186.819 204.061 190.486 205.769 193.227 206.231C195.814 206.669 198.516 207.184 201.147 207.252Z" fill="#F36152"/>
<path d="M204.068 190.208C200.338 189.689 192.183 190.827 189.011 191.312C189.057 191.169 189.04 191.009 188.912 190.89C187.625 189.711 186.342 188.408 184.955 187.353C183.512 186.259 181.846 185.376 180.317 184.404C181.023 186.085 182.046 186.524 183.359 187.598C184.955 188.903 186.566 190.187 188.205 191.438C187.888 191.488 187.71 191.519 187.71 191.519C186.735 193.55 186.475 195.852 186.582 198.082C186.632 199.131 186.766 200.176 186.961 201.207C187.107 201.981 187.711 202.999 187.363 203.769C186.12 203.311 184.811 201.992 183.77 201.146C180.034 198.109 176.718 194.551 173.952 190.602C174.504 191.39 174.591 192.398 175.038 193.233C175.565 194.221 176.417 195.092 177.143 195.934C178.294 197.273 179.546 198.484 180.726 199.788C181.548 200.697 182.375 201.562 183.387 202.268C184.118 202.779 184.88 203.242 185.674 203.647C186.004 203.816 187.732 204.287 187.831 204.587C188.021 205.162 188.156 205.504 188.156 205.504C188.156 205.504 193.919 212.301 201.4 207.258C208.881 202.214 207.706 192.783 207.706 192.783C207.706 192.783 208.752 190.858 204.068 190.208Z" fill="#5F021F"/>
<path d="M194.908 209.072C190.868 208.662 188.199 205.552 188.156 205.504C188.156 205.503 188.156 205.503 188.156 205.503C188.156 205.503 188.021 205.161 187.831 204.586C187.732 204.286 186.004 203.815 185.674 203.646C184.88 203.241 184.118 202.778 183.387 202.268C182.375 201.561 181.548 200.697 180.726 199.787C179.763 198.723 178.752 197.72 177.785 196.658C177.568 196.42 177.353 196.179 177.143 195.933C176.417 195.091 175.565 194.22 175.038 193.232C174.995 193.154 174.957 193.074 174.92 192.993C174.57 192.21 174.451 191.314 173.952 190.601C176.718 194.55 180.034 198.108 183.77 201.145C184.811 201.991 186.12 203.31 187.363 203.768C187.439 203.599 187.47 203.419 187.469 203.232C187.469 202.564 187.075 201.81 186.961 201.206C186.766 200.175 186.632 199.13 186.582 198.081C186.569 197.82 186.562 197.558 186.56 197.295C186.546 195.314 186.849 193.31 187.71 191.518C187.71 191.518 187.888 191.488 188.205 191.437C186.566 190.186 184.955 188.902 183.359 187.597C182.078 186.547 181.072 186.104 180.368 184.52C180.351 184.482 180.334 184.442 180.317 184.403C181.846 185.376 183.512 186.258 184.955 187.353C186.342 188.407 187.625 189.71 188.912 190.889C188.999 190.969 189.035 191.068 189.035 191.167C189.035 191.215 189.027 191.264 189.011 191.311C189.512 191.235 190.148 191.14 190.86 191.041C190.129 197.652 191.639 203.967 194.908 209.072Z" fill="#5F021F"/>
<path d="M193.456 221.693C192.392 223.354 190.082 224.799 188.09 224.184C187.207 223.911 186.437 223.331 185.69 222.818C184.342 221.909 182.996 221.01 181.603 220.168C179.034 218.61 176.34 217.085 173.475 216.129C172.23 215.709 170.941 215.538 169.661 215.231C168.755 215.015 168.065 214.686 168.087 213.639C168.111 212.478 168.54 211.239 168.824 210.136C169.038 209.305 169.299 208.349 170.012 207.814C171.404 206.779 173.714 207.963 175.015 208.576C177.982 209.987 180.687 211.875 183.483 213.57C185.86 215.015 188.27 215.96 190.897 216.836C192.379 217.335 194.169 218.018 194.056 219.907C194.032 220.544 193.795 221.157 193.456 221.693Z" fill="#955B6D"/>
<path d="M140.587 472.006C136.972 469.612 137.331 464.647 135.758 461.12C133.838 456.814 129.974 452.78 125.949 450.43C121.34 447.739 114.205 446.495 109.476 449.651C105.703 452.169 101.05 458.905 105.263 462.873C113.987 471.175 126.557 479.153 138.081 482.713C140.568 483.48 145.366 485.966 147.135 482.857C148.224 480.94 149.142 477.97 147.816 475.787C146.265 473.232 142.891 473.531 140.587 472.006Z" fill="#323C47"/>
<path d="M124.686 476.921C117.513 473.006 110.653 468.002 105.263 462.873C104.078 461.757 103.594 460.421 103.596 459.023C103.598 455.449 106.764 451.46 109.476 449.65C109.656 449.529 109.84 449.415 110.027 449.307C110.249 450.167 110.686 450.93 111.419 451.553C112.293 452.293 113.133 452.882 113.833 453.722C110.658 456.827 107.987 462.077 111.507 465.393C115.774 469.453 120.961 473.433 126.496 476.855L124.686 476.921Z" fill="#932C4C" fill-opacity="0.59"/>
<path d="M190.374 381.269C188.971 387.145 189.01 393.238 184.624 398.047C183.552 399.233 182.295 400.231 181.008 401.181C180.102 401.856 179.176 402.504 178.288 403.179C176.194 404.765 174.166 406.47 172.256 408.302C168.553 411.818 165.385 415.794 162.353 419.908C158.816 424.717 155.424 429.751 151.36 434.159C149.479 436.197 147.374 437.998 145.259 439.781C143.904 440.937 142.442 442.103 141.476 443.61C140.698 444.824 140.404 446.265 139.674 447.499C138.757 449.027 136.983 449.682 135.882 451.034C134.839 452.298 134.293 453.904 134.537 455.53C134.771 457.018 135.833 458.899 134.187 459.917C132.695 460.829 130.698 460.956 129.051 461.328C126.214 461.975 123.748 462.601 121.029 461.27C117.89 459.723 116.156 457.136 114.266 454.305C113.496 453.13 112.482 452.455 111.419 451.554C110.357 450.652 109.918 449.458 109.85 448.097C109.743 445.922 110.503 443.816 111.809 442.103C113.387 440.006 115.541 438.351 117.501 436.617C119.538 434.825 121.565 432.993 123.505 431.083C127.461 427.165 130.971 422.905 134.129 418.302C137.354 413.61 140.288 408.713 143.533 404.031C146.662 399.535 150.161 395.49 154.322 391.906C158.094 388.664 162.811 385.607 165.102 381.014C166.116 379.006 166.612 376.735 167.334 374.609C170.024 366.724 167.88 357.733 167.227 349.496C166.681 342.66 166.359 335.05 170.706 329.751C172.266 330.132 173.835 330.504 175.395 330.887C176.798 330.593 178.318 330.73 179.692 331.2C180.666 331.533 181.564 332.013 182.412 332.591C184.049 332.993 185.676 333.384 187.314 333.786L186.183 335.95C190.287 340.368 193.288 345.853 194.896 351.7C195.5 353.854 195.91 356.059 196.105 358.272C196.866 366.676 192.294 373.218 190.374 381.269Z" fill="#355485"/>
<path d="M114.421 454.539C114.37 454.461 114.317 454.384 114.266 454.305C114.128 454.097 113.984 453.904 113.833 453.722C113.984 453.904 114.128 454.097 114.266 454.305C114.317 454.384 114.37 454.461 114.421 454.539Z" fill="#4B6024"/>
<path d="M120.733 461.102C117.871 459.585 116.19 457.184 114.421 454.539C114.37 454.461 114.317 454.384 114.266 454.305C114.128 454.097 113.984 453.904 113.833 453.722C113.133 452.882 112.293 452.293 111.419 451.553C110.686 450.93 110.249 450.168 110.027 449.307C109.928 448.923 109.871 448.517 109.85 448.096C109.843 447.96 109.84 447.824 109.84 447.689C109.84 445.659 110.585 443.708 111.809 442.102C113.387 440.005 115.541 438.351 117.501 436.617C119.538 434.824 121.565 432.992 123.505 431.083C127.461 427.165 130.971 422.904 134.129 418.301C137.354 413.609 140.288 408.712 143.533 404.03C146.662 399.534 150.161 395.489 154.322 391.905C158.094 388.663 162.811 385.607 165.102 381.013C166.115 379.006 166.612 376.734 167.334 374.609C168.317 371.729 168.655 368.701 168.655 365.617C168.657 360.256 167.642 354.724 167.227 349.495C167.061 347.426 166.917 345.285 166.916 343.159C166.914 340.744 167.1 338.346 167.652 336.094C168.688 336.411 169.781 336.574 170.867 336.712C171.175 337.728 171.569 338.718 172.072 339.67C172.492 340.459 172.982 341.204 173.518 341.914C172.464 346.164 172.723 350.933 173.078 355.375C173.732 363.614 175.876 372.605 173.186 380.489C172.465 382.614 171.968 384.887 170.954 386.894C168.664 391.488 163.947 394.545 160.174 397.786C156.013 401.371 152.513 405.416 149.385 409.912C146.139 414.593 143.206 419.49 139.98 424.181C136.822 428.785 133.314 433.046 129.356 436.963C127.417 438.874 125.389 440.704 123.352 442.497C121.394 444.231 119.24 445.886 117.661 447.981C116.355 449.696 115.595 451.803 115.701 453.975C115.77 455.337 116.208 456.533 117.271 457.433C118.333 458.334 119.347 459.011 120.117 460.186C120.324 460.495 120.528 460.8 120.733 461.102Z" fill="#932C4C" fill-opacity="0.59"/>
<path d="M190.374 381.268C188.971 387.144 189.01 393.237 184.624 398.047C183.552 399.232 182.295 400.23 181.008 401.181C179.724 392.356 183.606 386.744 183.529 378.092C183.449 369.31 175.82 365.317 174.819 357.732C174.497 355.293 174.205 352.855 173.913 350.416C173.201 344.315 172.275 337.027 180.102 339.838C181.202 340.231 182.295 340.739 183.367 341.346C187.733 343.775 191.777 347.723 194.896 351.699C195.5 353.854 195.91 356.058 196.105 358.271C196.866 366.675 192.294 373.217 190.374 381.268Z" fill="#2B4977"/>
<path d="M169.944 331.74C170.204 334.493 170.771 337.211 172.072 339.67C173.136 341.671 174.653 343.389 176.237 344.981C178.423 347.154 180.845 349.065 182.984 351.284C185.045 353.411 186.619 355.901 188.067 358.472C191.35 364.309 194.395 370.315 198.232 375.821C199.953 378.278 202.16 380.326 203.903 382.759C204.899 384.158 205.069 385.865 205.908 387.322C206.915 389.051 208.477 390.257 209.008 392.27C209.371 393.669 209.349 395.148 208.895 396.524C208.488 397.764 207.866 398.925 207.435 400.165C206.961 401.495 206.62 402.872 206.36 404.26C205.885 406.784 205.612 409.345 205.353 411.892C204.56 419.514 203.757 427.137 202.998 434.769C202.669 438.011 202.387 441.264 202.239 444.53C202.126 446.976 201.969 449.58 202.511 451.98C202.93 453.868 203.927 455.177 203.224 457.155C202.635 458.805 201.425 460.079 200.666 461.639C199.681 463.697 199.5 466.12 199.217 468.349C199.036 469.75 198.526 471.956 199.353 473.298C200.236 474.72 202.591 474.277 203.937 474.061C206.858 473.606 209.79 472.935 212.575 471.922C215.054 471.022 217.397 469.783 219.616 468.361C221.641 467.053 224.212 465.505 225.423 463.334C226.419 461.548 226.248 459.283 226.328 457.315C226.43 454.54 227.347 451.992 227.743 449.262C228.649 443.107 227.63 436.805 228.467 430.628C228.91 427.386 229.769 424.235 230.313 421.017C230.834 417.968 230.731 414.931 230.8 411.836C230.844 409.572 231.139 407.422 231.954 405.307C232.803 403.099 234.15 401.006 234.4 398.607C234.671 395.876 234.195 392.963 233.889 390.256C233.539 387.219 233.109 384.124 232.158 381.213C231.173 378.198 229.419 375.514 228.264 372.567C226.94 369.211 225.921 365.731 224.799 362.296C222.74 355.97 220.147 349.849 217.736 343.661C216.582 340.693 215.586 337.656 214.363 334.698C213.695 333.072 212.971 331.592 211.692 330.375C210.594 329.328 209.903 328.305 209.326 326.894L169.944 331.74Z" fill="#406194"/>
<path d="M201.744 474.3C200.777 474.3 199.84 474.084 199.353 473.299C199.008 472.738 198.896 472.026 198.896 471.285C198.896 470.253 199.112 469.165 199.217 468.35C199.5 466.121 199.681 463.698 200.666 461.64C201.425 460.08 202.635 458.806 203.224 457.156C203.399 456.666 203.468 456.216 203.468 455.788C203.468 454.493 202.827 453.401 202.511 451.981C202.215 450.669 202.127 449.294 202.127 447.919C202.127 446.78 202.188 445.638 202.239 444.531C202.387 441.265 202.669 438.012 202.998 434.769C203.757 427.137 204.56 419.515 205.353 411.893C205.612 409.346 205.885 406.785 206.36 404.26C206.62 402.873 206.961 401.496 207.435 400.166C207.866 398.925 208.488 397.765 208.895 396.524C209.142 395.778 209.26 395 209.26 394.221C209.259 393.566 209.174 392.91 209.008 392.27C208.477 390.257 206.915 389.052 205.908 387.322C205.069 385.866 204.899 384.159 203.903 382.76C202.16 380.326 199.953 378.279 198.232 375.821C196.842 373.826 195.555 371.766 194.324 369.672C192.157 365.986 190.16 362.195 188.067 358.473C186.619 355.902 185.045 353.411 182.984 351.285C180.845 349.066 178.423 347.154 176.237 344.982C175.351 344.091 174.485 343.16 173.707 342.161C173.096 341.377 172.54 340.551 172.072 339.67C171.569 338.719 171.175 337.728 170.867 336.713C171.034 336.734 171.199 336.754 171.366 336.776C175.436 337.276 178.741 337.818 181.874 338.058C182.089 338.605 182.334 339.144 182.612 339.67C183.677 341.672 185.194 343.389 186.779 344.982C188.963 347.154 191.386 349.066 193.525 351.285C195.586 353.411 197.159 355.902 198.608 358.473C201.89 364.309 204.935 370.316 208.773 375.821C210.493 378.279 212.701 380.326 214.445 382.76C215.441 384.159 215.611 385.866 216.448 387.322C217.455 389.052 219.017 390.257 219.55 392.27C219.911 393.669 219.889 395.149 219.436 396.524C219.028 397.765 218.406 398.925 217.976 400.166C217.501 401.496 217.161 402.873 216.901 404.26C216.425 406.785 216.154 409.346 215.893 411.893C215.101 419.515 214.297 427.137 213.538 434.769C213.21 438.012 212.927 441.265 212.781 444.531C212.668 446.977 212.509 449.581 213.052 451.981C213.47 453.869 214.467 455.178 213.765 457.156C213.177 458.806 211.965 460.08 211.206 461.64C210.223 463.698 210.04 466.121 209.758 468.35C209.597 469.598 209.18 471.484 209.677 472.831C207.804 473.351 205.895 473.755 203.987 474.054C203.97 474.056 203.954 474.058 203.937 474.062C203.334 474.158 202.529 474.301 201.744 474.3Z" fill="#932C4C" fill-opacity="0.59"/>
<path d="M168.087 213.89C167.012 214.982 165.959 216.085 164.953 217.234C160.684 222.137 157.866 227.881 156.767 234.321C155.67 240.701 156.485 247.061 157.718 253.363C159.043 260.131 160.526 266.876 161.816 273.658C163.028 280.038 163.911 286.465 164.556 292.938C165.216 299.593 163.828 305.565 163.87 312.21C163.899 316.815 161.913 321.077 162.219 325.644C162.434 328.86 162.864 333.641 165.93 335.37C167.572 336.298 169.496 336.544 171.366 336.776C181.445 338.015 186.823 339.509 196.556 336.033C201.128 334.416 206.418 334.146 210.73 331.844C212.33 330.99 213.329 330.552 213.761 328.714C213.938 327.956 213.522 324.258 212.309 324.287C214.135 324.243 215.146 321.868 214.556 320.132C213.687 317.585 211.74 316.737 211.041 314.071C210.144 310.66 210.288 306.673 209.96 303.165L208.397 286.431C207.277 277.672 206.213 268.891 204.91 260.154C203.587 251.281 202.522 242.169 199.885 233.569C198.515 229.099 196.353 225.322 193.444 221.693L168.087 213.89Z" fill="#955B6D"/>
<path d="M184.951 338.176C180.843 338.176 176.782 337.441 171.366 336.776C169.496 336.544 167.572 336.298 165.93 335.37C165.694 335.237 165.472 335.086 165.266 334.918C162.799 332.914 162.418 328.613 162.219 325.644C162.197 325.314 162.187 324.985 162.187 324.659C162.19 320.494 163.867 316.549 163.87 312.318C163.87 312.282 163.87 312.246 163.87 312.21C163.868 312.105 163.868 312.002 163.868 311.898C163.87 306.659 164.732 301.828 164.733 296.731C164.735 295.486 164.683 294.225 164.556 292.938C163.911 286.465 163.028 280.038 161.816 273.658C161.685 272.968 161.552 272.28 161.418 271.592C160.226 265.507 158.909 259.443 157.719 253.363C156.485 247.061 155.67 240.701 156.767 234.321C157.866 227.882 160.684 222.137 164.953 217.234C165.959 216.085 167.012 214.982 168.087 213.89L174.786 215.951C174.392 216.375 173.999 216.798 173.618 217.234C172.448 218.577 171.387 219.984 170.442 221.45C169.814 221.338 169.198 221.279 168.599 221.279C167.995 221.279 167.409 221.339 166.846 221.465C166.723 221.493 166.602 221.523 166.481 221.557C159.909 223.41 158.472 229.05 158.472 234.784C158.472 236.539 158.608 238.303 158.771 239.971C159.054 242.863 159.405 245.673 160.174 248.482C161.024 251.577 162.032 254.626 162.858 257.731C162.923 257.972 162.983 258.215 163.041 258.458C162.894 258.904 162.775 259.504 162.692 260.289C162 266.835 165.351 275.097 166.716 281.498C167.823 286.695 169.089 292.195 172.807 295.973C173 296.169 173.197 296.358 173.399 296.541C173.419 301.808 172.501 306.785 172.534 312.21C172.563 316.815 170.578 321.077 170.885 325.644C171.1 328.86 171.528 333.642 174.596 335.37C176.237 336.298 178.162 336.544 180.032 336.776C183.449 337.196 186.322 337.64 189.011 337.916C187.621 338.098 186.284 338.176 184.951 338.176Z" fill="#5F021F"/>
<path d="M166.716 281.498C167.823 286.694 169.089 292.195 172.807 295.973C175.575 298.786 179.365 300.285 183.038 301.707C191.497 304.984 199.957 308.261 208.415 311.538C208.168 306.017 207.92 300.496 207.671 294.974C197.232 291.026 187.66 284.827 179.684 277.001C175.667 273.059 172.05 268.704 168.931 264.012C167.343 261.625 163.468 252.954 162.692 260.289C162 266.835 165.351 275.097 166.716 281.498Z" fill="#7C2842"/>
<path d="M191.682 254.722C193.069 264.453 190.28 274.571 192.661 284.105C192.264 282.518 189.2 280.04 188.194 278.588C186.799 276.579 185.556 274.464 184.468 272.271C182.255 267.806 180.693 263.019 179.819 258.11C178.946 253.204 178.761 248.17 179.312 243.217C179.638 240.293 181.085 230.799 184.94 236.375C188.442 241.439 190.82 248.671 191.682 254.722Z" fill="#7C2842"/>
<path d="M200.429 474.119C199.704 476.951 199.579 480.511 200.394 483.343C201.186 486.086 204.04 486.062 206.406 486.165C214.94 486.553 223.52 486.371 232.067 486.313C236.719 486.279 241.383 486.337 246.035 486.086C248.153 485.971 251.934 486.177 253.315 484.061C254.48 482.264 253.892 479.261 253.269 477.405C252.84 476.121 252.182 475.313 250.847 474.972C249.081 474.517 247.168 474.505 245.368 474.312C242.323 473.981 239.425 473.311 236.878 471.535C233.878 469.431 231.581 466.576 228.31 464.835C227.359 464.335 226.396 463.869 225.434 463.391" fill="#323C47"/>
<path d="M278.142 250.439C278.187 250.663 278.121 250.967 278.149 251.317C278.191 251.989 278.227 252.651 278.269 253.323L279.532 274.469C279.776 278.598 280.023 282.735 280.265 286.863C280.664 293.496 281.048 300.126 281.446 306.759C281.537 308.275 281.622 309.804 281.713 311.321C271.919 311.9 262.121 312.495 252.326 313.075C250.965 313.16 249.6 313.234 248.24 313.319L231.042 314.352C224.246 314.759 217.45 315.168 210.655 315.576L210.041 315.612C209.043 315.672 208.036 315.737 207.033 315.788C206.632 308.898 206.216 302.004 205.815 295.114C205.161 284.124 204.512 273.144 203.859 262.152C203.703 259.624 203.561 257.101 203.405 254.573C203.473 254.702 205.402 254.451 205.564 254.449C207.537 254.328 209.51 254.207 211.478 254.101C217.819 253.718 224.165 253.345 230.505 252.962C238.025 252.507 245.541 252.066 253.061 251.612C259.165 251.246 265.27 250.881 271.373 250.515C273.12 250.407 274.869 250.307 276.614 250.199C276.944 250.181 277.532 250.029 277.849 250.122C278.031 250.18 278.112 250.291 278.142 250.439Z" fill="#CA9347"/>
<path d="M279.403 250.593L204.104 254.359L207.087 314.587L282.385 310.821L279.403 250.593Z" fill="#CA9347"/>
<path d="M248.935 289.431L238.258 289.964L236.415 252.742L247.092 252.208L248.935 289.431Z" fill="#EBC286"/>
<path d="M279.25 250.792C279.294 251.016 279.23 251.321 279.256 251.671C279.299 252.342 279.336 253.004 279.377 253.677L280.64 274.822C280.884 278.95 281.131 283.087 281.374 287.217C281.772 293.85 282.156 300.479 282.554 307.111C282.645 308.628 282.731 310.159 282.821 311.674C273.028 312.255 263.228 312.849 253.433 313.429C252.073 313.513 250.708 313.588 249.348 313.673L232.15 314.705C225.354 315.114 218.558 315.521 211.762 315.928L207.033 315.787L273.319 305.168L277.722 250.553L279.25 250.792Z" fill="#CC6A36"/>
<path d="M277.652 305.703L266.197 306.275L265.628 294.766L277.082 294.192L277.652 305.703Z" fill="#425D69"/>
<path d="M262.129 299.073L250.676 299.646L250.588 297.862L262.042 297.29L262.129 299.073Z" fill="#425D69"/>
<path d="M262.338 303.253L250.883 303.826L250.795 302.043L262.249 301.47L262.338 303.253Z" fill="#425D69"/>
<path d="M243.074 298.841C241.461 298.873 239.867 299.382 238.214 299.423C234.442 299.514 231.12 297.415 227.845 295.82C216.644 290.369 204.765 285.205 194.341 278.318C191.73 276.593 183.387 257.533 184.792 257.271C178.51 258.439 172.227 259.608 165.943 260.775C168.551 269.604 169.474 286.292 179.395 290.445C187.187 293.706 194.879 297.389 202.782 300.345C211.149 303.474 220.096 304.602 228.49 307.644C235.054 310.024 240.109 316.988 247.402 317.065C248.835 317.079 250.261 316.877 251.681 316.674C253.178 316.462 254.676 316.248 256.173 316.036C256.949 315.925 257.748 315.807 258.427 315.412C259.105 315.016 259.643 314.27 259.552 313.487C258.82 313.603 256.774 311.326 255.799 310.991C253.639 310.25 251.817 309.521 251.016 307.319C252.122 310.655 256.657 309.56 258.957 308.548C255.242 305.388 249.657 300.371 244.894 299.052C244.283 298.883 243.678 298.829 243.074 298.841Z" fill="#F9A76C"/>
<path d="M257.733 309.009C257.441 308.711 257.181 308.372 256.968 307.971C257.214 308.393 257.532 308.713 257.902 308.954L257.733 309.009Z" fill="#F9D831"/>
<path d="M243.639 299.424C242.725 299.424 241.838 299.292 240.969 299.079C241.672 298.962 242.372 298.855 243.074 298.84C243.127 298.839 243.181 298.839 243.233 298.839C243.784 298.839 244.337 298.896 244.894 299.05C245.101 299.108 245.31 299.182 245.518 299.252C244.972 299.335 244.424 299.407 243.868 299.422C243.792 299.423 243.716 299.424 243.639 299.424Z" fill="#F9D831"/>
<path d="M247.555 317.065C247.504 317.065 247.452 317.065 247.402 317.064C244.405 317.033 241.786 315.839 239.286 314.278C241.786 315.839 244.405 317.033 247.402 317.064C247.45 317.065 247.498 317.065 247.546 317.065C248.201 317.065 248.854 317.022 249.506 316.955C248.857 317.022 248.206 317.065 247.555 317.065Z" fill="#CDEDD0"/>
<path d="M247.546 317.065C247.498 317.065 247.45 317.065 247.402 317.064C244.405 317.033 241.786 315.839 239.286 314.278C237.82 313.362 236.396 312.322 234.958 311.314C232.88 309.858 230.776 308.473 228.49 307.644C228.359 307.597 228.227 307.549 228.096 307.503C219.816 304.566 211.018 303.426 202.782 300.344C194.879 297.389 187.187 293.706 179.395 290.445C171.198 287.014 169.142 275.026 167.207 265.984C167.634 265.76 168.053 265.51 168.463 265.295L168.461 265.289C168.564 265.236 168.666 265.184 168.766 265.137C169.947 264.578 171.157 264.153 172.387 263.845C174.504 273.022 176.186 286.735 185.049 290.445C192.84 293.706 200.533 297.389 208.435 300.344C216.803 303.474 225.749 304.602 234.143 307.644C240.002 309.767 244.661 315.527 250.776 316.801C250.353 316.859 249.93 316.911 249.506 316.955C248.854 317.022 248.201 317.065 247.546 317.065Z" fill="#EA5E47" fill-opacity="0.41"/>
<path d="M186.788 236.129C186.958 236.925 187.117 237.71 187.274 238.506C188.373 244.194 187.218 249.961 187.252 255.684C187.263 257.241 187.422 258.788 187.569 260.336C187.637 261.076 187.75 261.86 187.637 262.6C187.343 264.51 185.033 263.896 183.698 263.669C178.661 262.816 173.475 262.907 168.767 265.137C167.804 265.591 166.797 266.342 165.733 266.547C164.794 266.74 164.511 266.035 164.318 265.227C163.741 262.747 163.526 260.211 162.858 257.73C162.032 254.625 161.024 251.577 160.174 248.482C159.405 245.673 159.054 242.863 158.771 239.97C158.073 232.856 157.897 223.977 166.481 221.557C173.716 219.518 185.291 229.113 186.788 236.129Z" fill="#955B6D"/>
<path d="M165.438 266.579C165.437 266.579 165.436 266.579 165.436 266.579C165.436 266.579 165.437 266.579 165.438 266.579ZM165.44 266.579C165.53 266.579 165.628 266.569 165.733 266.546C165.628 266.569 165.53 266.579 165.44 266.579ZM165.861 266.519C166.319 266.413 166.767 266.209 167.205 265.979C167.205 265.981 167.205 265.982 167.207 265.983C166.768 266.211 166.32 266.413 165.861 266.519Z" fill="#F05622"/>
<path d="M166.481 221.557C166.603 221.523 166.724 221.493 166.847 221.464C166.724 221.493 166.601 221.523 166.481 221.557Z" fill="#F8B61B"/>
<path d="M167.207 265.984C167.205 265.983 167.205 265.982 167.205 265.98C167.633 265.755 168.051 265.504 168.461 265.289L168.463 265.296C168.053 265.511 167.634 265.761 167.207 265.984Z" fill="#F5F125"/>
<path d="M165.438 266.579C165.437 266.579 165.436 266.579 165.436 266.579C164.741 266.577 164.496 265.962 164.326 265.261C164.323 265.25 164.321 265.239 164.318 265.226C163.797 262.988 163.571 260.704 163.041 258.458C162.983 258.215 162.923 257.972 162.858 257.73C162.032 254.625 161.024 251.576 160.174 248.482C159.405 245.672 159.054 242.862 158.771 239.97C158.608 238.302 158.472 236.539 158.472 234.783C158.472 229.049 159.909 223.41 166.481 221.556C166.601 221.523 166.723 221.492 166.846 221.464C167.405 221.339 167.988 221.28 168.586 221.28C169.297 221.28 170.031 221.363 170.779 221.518L170.608 221.556C162.024 223.976 162.2 232.856 162.898 239.97C163.181 242.862 163.532 245.672 164.302 248.482C165.151 251.576 166.158 254.625 166.985 257.73C167.653 260.211 167.868 262.747 168.445 265.226L168.461 265.288C168.051 265.503 167.633 265.754 167.205 265.979C166.767 266.209 166.319 266.413 165.861 266.519C165.819 266.53 165.775 266.539 165.733 266.546C165.628 266.569 165.53 266.579 165.44 266.579H165.438Z" fill="#5F021F"/>
<path d="M168.671 180.437C171.347 179.313 177.94 178 178.795 178.156C180.702 178.505 182.607 179.281 184.514 178.935C186.206 178.631 187.781 177.324 189.386 176.664C191.934 175.613 194.546 175.264 197.248 174.837C200.907 174.259 204.185 174.067 207.739 175.467C208.261 175.672 208.823 175.907 209.363 175.758C211.131 175.274 210.602 170.461 210.214 169.244C209.393 166.671 207.003 163.93 205.225 161.963C201.383 157.714 196.228 154.63 190.384 154.63C184.447 154.629 177.824 156.271 173.359 160.653C168.692 165.233 164.829 175.013 167.565 181.319C167.455 181.067 167.9 180.759 168.671 180.437Z" fill="#955B6D"/>
<path d="M186.357 178.155C185.921 178.075 183.998 178.379 181.862 178.842C182.746 179.01 183.63 179.095 184.514 178.936C185.194 178.813 185.855 178.526 186.508 178.187L186.357 178.155Z" fill="#D9393C"/>
<path d="M167.55 181.268C167.549 181.259 167.548 181.25 167.548 181.241C167.548 181.25 167.549 181.259 167.55 181.268ZM190.513 154.63C190.511 154.63 190.507 154.63 190.504 154.63C190.507 154.63 190.511 154.63 190.513 154.63ZM190.476 154.63C190.47 154.63 190.464 154.63 190.457 154.63C190.464 154.63 190.47 154.63 190.476 154.63ZM190.446 154.63C190.439 154.63 190.432 154.63 190.426 154.63C190.432 154.63 190.439 154.63 190.446 154.63ZM190.416 154.63C190.405 154.63 190.395 154.63 190.384 154.63C190.395 154.63 190.405 154.63 190.416 154.63Z" fill="#CDEDD0"/>
<path d="M167.565 181.319C166.934 179.865 166.654 178.228 166.654 176.512C166.653 170.781 169.767 164.177 173.359 160.653C177.823 156.271 184.444 154.63 190.382 154.63H190.384C190.395 154.63 190.405 154.63 190.416 154.63C190.419 154.63 190.422 154.63 190.426 154.63C190.432 154.63 190.439 154.63 190.446 154.63C190.449 154.63 190.454 154.63 190.457 154.63C190.464 154.63 190.47 154.63 190.476 154.63C190.486 154.63 190.495 154.63 190.504 154.63C190.507 154.63 190.511 154.63 190.513 154.63C190.521 154.63 190.529 154.63 190.536 154.63C191.566 154.64 192.573 154.746 193.556 154.936C188.929 155.587 184.306 157.331 180.92 160.653C176.835 164.662 173.365 172.659 174.401 178.819C172.315 179.268 170.006 179.877 168.671 180.437C167.979 180.727 167.549 181.004 167.548 181.241C167.548 181.25 167.549 181.259 167.55 181.268C167.552 181.286 167.557 181.302 167.565 181.319Z" fill="#5F021F"/>
<path d="M205.363 174.757C206.146 174.925 206.936 175.15 207.739 175.467C208.261 175.671 208.823 175.906 209.363 175.758C209.877 175.617 210.192 175.107 210.378 174.43C208.739 174.351 207.088 174.502 205.363 174.757Z" fill="#D9393C"/>
<path d="M196.152 159.182C199.744 158.383 203.415 160.884 205.19 164.122C206.965 167.361 207.28 171.178 207.556 174.864C207.491 174.005 190.847 176.313 189.756 176.401C187.638 170.994 189.451 160.672 196.152 159.182Z" fill="white"/>
<path d="M185.752 179.021C185.357 179.01 184.974 178.976 184.6 178.913C183.415 178.713 182.257 177.805 182.183 176.599C181.938 172.581 193.002 170.879 195.552 170.556C201.842 169.763 208.123 170.538 214.239 172.089C215.577 172.429 216.995 172.924 217.777 174.066C220.676 178.305 212.721 177.664 210.863 177.603C205.555 177.429 200.255 177.408 194.951 177.711C192.128 177.873 188.684 179.097 185.752 179.021Z" fill="#955B6D"/>
<path d="M210.863 175.336C205.555 175.162 200.255 175.141 194.951 175.445C190.223 175.716 185.63 177.401 181.127 178.725C185.888 178.75 190.271 177.924 194.951 177.711C200.255 177.408 205.555 177.428 210.863 177.603C212.673 177.662 220.266 178.27 217.975 174.383C216.582 175.713 212.184 175.379 210.863 175.336Z" fill="#D9393C"/>
<path d="M172.875 331.463C183.342 334.614 194.806 334.321 205.101 330.641C208.599 329.347 210.234 327.374 212.753 324.626C207.687 326.247 202.365 328.14 197.152 329.172C190.56 330.475 179.458 333.445 172.875 331.463Z" fill="#7C2842"/>
<path d="M256.512 314.475C254.387 313.743 252.191 313.022 249.998 312.54C249.444 312.417 249.003 313.27 249.587 313.518C251.703 314.418 253.949 315.129 256.153 315.781C256.992 316.028 257.324 314.755 256.512 314.475Z" fill="#F36152"/>
<path d="M251.575 316.494C249.593 315.649 247.356 315.185 245.263 314.707C244.78 314.598 244.609 315.272 245.061 315.444C247.027 316.186 249.115 317.039 251.186 317.421C251.701 317.516 252.139 316.735 251.575 316.494Z" fill="#F36152"/>
<path d="M376.025 254.134C374.298 257.714 372.548 261.371 372.027 265.315C371.507 269.259 372.416 273.61 375.325 276.308C380.126 280.759 388.383 278.766 392.769 273.902C397.153 269.039 398.673 262.295 400.032 255.876C402.164 245.797 404.297 235.718 406.431 225.64C407.585 220.192 412.734 209.691 404.281 209.835C397.312 209.954 393.18 218.576 390.719 223.651C385.798 233.801 380.923 243.973 376.025 254.134Z" fill="#41937B"/>
<path d="M378.33 258.664C377.084 258.091 375.849 257.515 374.64 256.893C368.874 253.925 363.623 250.107 357.959 246.976C354.339 245.071 350.777 243.042 347.177 241.096C344.49 239.645 341.241 236.647 338.269 236.042C337.647 238.33 338.679 240.598 340.008 242.402C334.665 243.131 329.322 244.166 323.883 244.749C323.068 246.999 323.933 249.636 325.632 251.314C327.332 252.992 329.726 253.808 332.099 254.024C338.279 254.589 344.806 251.758 350.848 253.897C354.889 255.329 358.173 259.837 361.288 262.743C365.796 266.954 370.287 271.067 375.071 274.951C378.502 273.992 379.918 271.945 380.675 268.449C381.434 264.953 381.568 260.152 378.33 258.664Z" fill="#9D592B"/>
<path d="M430.003 452.051C431.96 455.987 438.974 469.815 434.232 473.354C433.561 473.854 432.762 474.146 431.976 474.43C430.236 475.058 428.496 475.686 426.757 476.313C416.221 480.141 406.893 481.61 395.765 482.498C394.696 482.582 393.513 482.633 392.678 481.956C388.861 478.863 396.574 478.085 397.796 477.488C401.219 475.814 404.536 471.639 407.059 468.847C410.413 465.134 413.475 461.579 415.844 457.148C417.349 454.331 416.365 454.418 418.883 452.667C419.549 452.205 428.813 449.728 428.859 449.813C429.233 450.53 429.617 451.278 430.003 452.051Z" fill="#354A54"/>
<path d="M386.668 324.924C386.69 323.898 386.703 322.865 386.725 321.84L419.898 292.656C420.672 293.862 421.394 295.108 422.057 296.378C424.787 301.632 426.284 307.406 426.462 313.326C426.621 318.705 425.706 324.024 424.373 329.221C422.847 335.197 421.145 341.112 419.899 347.151C418.554 353.708 417.429 360.392 415.499 366.816C413.975 371.891 411.742 376.684 411.999 382.104C412.104 384.376 412.329 386.785 413.137 388.924C413.946 391.074 415.415 392.897 416.78 394.705C420.106 399.127 423.214 403.585 425.475 408.665C427.849 413.962 428.859 419.428 429.329 425.18C429.829 431.293 430.003 437.583 431.411 443.58C431.894 445.626 432.912 447.463 433.441 449.487C433.875 451.139 433.803 452.905 433.588 454.59L419.176 457.967C418.53 456.439 418.021 454.843 417.766 453.201C417.452 451.179 417.596 449.118 417.33 447.084C416.721 442.455 414.967 438.298 412.848 434.188C410.367 429.372 407.898 424.554 405.735 419.577C403.759 415.04 402.075 410.287 399.509 406.047C397.057 401.974 393.493 398.912 390.433 395.345C388.587 393.188 387.25 390.878 386.948 388.017C386.69 385.627 386.968 383.206 387.074 380.811C387.173 378.771 387.142 376.724 387.076 374.683C386.885 368.818 386.68 362.954 386.59 357.091C386.394 345.896 388.111 333.414 386.325 322.512C384.622 312.125 382.725 303.227 390.925 294.57C398.432 286.644 411.347 284.559 420.946 289.722C421.663 291.595 420.896 293.924 419.212 295.001" fill="#558397"/>
<path d="M413.476 459.292C414.53 463.562 418.359 478.599 412.961 481.007C412.198 481.348 411.354 481.456 410.525 481.561C408.69 481.79 406.854 482.021 405.02 482.25C395.144 483.489 385.566 483.81 375.632 483.918C371.024 483.969 364.717 481.555 372.425 478.71C377.696 476.766 382.846 473.867 387.43 470.628C391.511 467.745 395.274 464.949 398.551 461.148C400.635 458.73 399.655 458.599 402.493 457.445C403.244 457.14 412.823 456.762 412.849 456.856C413.057 457.637 413.27 458.453 413.476 459.292Z" fill="#425D69"/>
<path d="M406.83 293.239C413.348 288.867 426.272 286.691 432.947 292.222C439.856 297.944 435.35 306.759 433.617 315.464C428.953 338.897 417.801 356.954 409.811 378.585C405.575 390.055 412.594 398.745 414.984 409.509C418.273 424.324 413.891 439.012 414.422 453.758C414.484 455.464 414.029 457.173 413.45 458.768L398.651 458.88C398.356 457.246 398.209 455.576 398.318 453.918C398.455 451.877 399.046 449.897 399.23 447.856C399.649 443.205 398.849 438.764 397.678 434.285C395.288 425.127 393.27 414.297 390.155 404.757C386.733 394.282 383.227 388.649 384.411 377.401C386.278 359.647 392.669 342.932 395.468 325.398C397.354 313.581 395.531 300.814 406.83 293.239Z" fill="#6A98A7"/>
<path d="M390.98 307.534C395.53 312.721 401.584 316.657 408.287 318.218C414.99 319.779 422.323 318.862 428.203 315.272C430.395 313.936 432.441 312.154 433.408 309.769C434.375 307.385 433.991 304.317 431.994 302.705C430.448 301.457 428.33 301.293 426.35 301.178C412.934 300.411 399.519 299.642 386.102 298.873C386.612 305.652 392.148 311.718 398.824 312.813" fill="#558397"/>
<path d="M397.195 197.425C402.745 200.575 409.56 198.077 415.775 197.557C416.909 197.418 415.629 191.618 415.433 191.021C413.76 185.911 412.033 180.697 408.81 176.403C406.242 172.979 404.143 169.345 400.794 166.538C399.923 165.808 389.053 159.933 389.012 160.698C388.673 167.077 389.588 173.158 390.374 179.518C391.004 184.619 390.639 191.379 394.602 195.414C395.428 196.254 396.295 196.915 397.195 197.425Z" fill="#3E271F"/>
<path d="M399.635 146.492C405.904 143.696 413.752 143.353 419.106 145.863C429.44 150.709 430.442 160.726 431.974 170.713C432.698 175.432 437.734 190.191 434.091 194.006C433.175 194.966 431.82 195.331 430.538 195.655C426.893 196.575 423.246 197.496 419.6 198.417C417.001 199.072 414.313 199.735 411.666 199.304C405.412 198.286 405.029 193.361 402.868 188.754C400.334 183.35 396.16 178.602 393.56 173.118C390.827 167.357 387.693 159.297 391.412 153.254C393.226 150.304 396.192 148.028 399.635 146.492Z" fill="#3E271F"/>
<path d="M433.044 279.002C433.05 280.357 433.083 281.708 433.151 283.049C433.593 291.592 440.707 298.314 432.092 305.867C427.887 309.553 422.064 310.763 416.489 311.005C400.324 311.707 375.288 306.787 382.352 286.554C385.694 276.975 387.064 264.145 386.261 254.027C385.839 248.717 384.739 243.466 384.552 238.143C384.193 228 389.294 223.623 393.89 215.596C397.808 208.756 402.283 203.361 410.244 201.442C414.489 200.419 419.288 200.572 423.618 200.468C427.859 200.364 430.959 201.696 433.724 204.939C437.806 209.725 435.674 214.723 435.132 220.793C433.914 234.389 433.858 248.052 433.584 261.691C433.47 267.402 433.019 273.247 433.044 279.002Z" fill="#50C19A"/>
<path d="M417.113 244.455C417.793 247.208 419.353 249.645 420.889 252.026C426.198 260.25 431.506 268.473 436.813 276.695C437.233 263.694 436.496 250.654 434.613 237.785C434.152 234.632 433.577 231.376 431.772 228.757C423.206 216.337 415.33 237.23 417.113 244.455Z" fill="#41937B"/>
<path d="M425.388 280.319C424.806 281.566 424.221 282.8 423.59 284.01C420.989 289.024 417.709 293.715 414.158 298.086C407.586 306.143 400.605 314.018 396.598 323.493C396.242 324.336 400.654 322.761 400.885 322.621C402.463 321.662 403.643 319.072 404.676 317.619C403.774 323.739 401.376 329.196 399.287 334.997C398.73 336.543 409.091 332.438 410.31 330.894C413.559 326.775 415.411 320.447 416.766 315.452C417.27 313.572 417.623 311.696 418.585 309.98C421.218 305.267 425.622 301.372 429.282 297.484C433.517 292.994 437.653 288.52 441.564 283.751C440.642 280.295 438.618 278.851 435.147 278.056C431.676 277.262 426.9 277.08 425.388 280.319Z" fill="#9D592B"/>
<path d="M429.111 253.57C429.712 256.241 430.481 258.864 431.213 261.498C431.624 263 432.188 264.588 432.251 266.166C432.305 267.938 430.927 269.901 430.105 271.384C428.973 273.404 427.637 275.239 426.332 277.143C425.786 277.929 424.179 279.892 425.718 280.443C427.228 280.99 429.394 280.41 430.908 280.286C433.532 280.063 436.575 279.825 438.875 281.392C439.256 281.657 439.625 281.964 439.972 282.289C440.44 282.721 441.276 283.91 442.019 283.916C442.609 283.916 442.966 283.235 443.242 282.808C443.925 281.739 444.547 280.635 445.215 279.556C446.992 276.695 448.931 273.735 449.442 270.336C450.071 266.131 449.235 261.546 448.814 257.345C448.29 252.144 447.814 246.929 446.858 241.787C446.427 239.493 445.881 237.204 445.807 234.859C445.734 232.474 445.942 230.087 445.845 227.71C445.678 223.77 444.584 220.082 442.764 216.589C440.83 212.871 438.233 209.124 434.723 206.757C433.206 205.737 431.512 204.909 429.782 204.31C428.846 203.986 427.677 203.611 426.684 203.857C425.057 204.258 425.089 206.499 424.874 207.821C424.342 211.093 422.401 213.467 421.601 216.524C420.109 222.218 420.345 227.793 422.9 232.984C426.264 239.817 427.442 246.188 429.111 253.57Z" fill="#50C19A"/>
<path d="M392.54 186.739C392.996 188.83 393.857 190.092 394.953 190.884C398.498 193.482 404.382 191.206 406.045 196.488C406.402 197.638 407.13 199.223 407.473 200.782C407.756 202.031 407.782 203.28 407.178 204.245C406.896 204.691 406.365 205.149 406.488 205.731C406.612 206.3 407.301 206.633 407.793 206.818C408.803 207.189 409.957 207.153 411.014 207.067C417.342 206.549 422.147 203.255 427.695 200.894C426.076 198.503 422.81 197.366 421.175 194.793C418.469 190.534 418.31 184.255 418.893 179.384C419.365 175.443 422.681 172.102 421.274 168.193C420.277 165.422 417.544 166.164 416.226 168.218C415.451 169.419 415.009 170.792 414.417 172.078C414.035 172.907 413.58 173.959 412.521 173.526C408.807 172.04 410.581 164.867 408.915 161.684C407.342 158.677 404.498 156.985 401.442 155.809C399.594 155.104 396.394 153.953 394.509 155.165C393.316 155.946 392.91 157.653 392.429 158.902C391.887 160.337 391.149 161.698 390.73 163.171C388.993 169.468 391.173 180.491 392.54 186.739Z" fill="#9D592B"/>
<path d="M409.865 145.469C416.082 147.71 421.066 153.528 422.961 160.229C424.659 166.232 423.901 170.608 422.586 176.56C421.417 173.069 420.248 169.578 419.079 166.089C417.569 166.431 415.508 166.341 415.035 167.985C414.644 169.341 415.284 170.751 414.684 172.249C412.565 170.89 409.672 168.924 408.872 166.376C408.148 164.066 408.064 161.131 407.717 158.734C407.985 160.589 406.821 162.764 406.805 164.663C405.383 164.473 403.946 164.762 402.514 164.859C396.157 165.29 398.069 160.625 396.903 156.605C396.824 157.219 396.339 163.969 396.22 163.974C393.767 164.05 391.315 164.128 388.862 164.204C387.77 161.289 387.854 159.213 389.06 156.267C390.93 151.697 391.791 149.021 396.115 146.667C400.88 144.072 405.655 143.951 409.865 145.469Z" fill="#3E271F"/>
<path d="M396.229 191.133L395.992 191.139C397.742 192.347 399.871 192.288 401.876 192.825C403.88 193.361 405.396 194.425 406.045 196.487C406.485 197.906 407.033 199.427 407.527 200.762C408.723 199.739 408.818 197.682 409.113 196.239C409.387 194.889 409.532 193.518 409.56 192.142C409.645 188.145 406.211 189.746 403.645 190.179C401.222 190.587 398.692 191.07 396.229 191.133Z" fill="#8D3922"/>
<path d="M393.494 175.175C396.987 174.69 404.623 175.755 407.592 176.209C407.549 176.075 407.564 175.926 407.686 175.816C409.809 173.868 411.996 171.982 414.221 170.153C414.774 169.7 415.571 170.48 415.014 170.951C412.84 172.798 410.615 174.597 408.346 176.327C408.644 176.375 408.81 176.403 408.81 176.403C410.706 180.352 409.674 185.346 408.935 187.871C411.061 186.681 413.058 185.813 414.767 183.901C416.735 181.698 417.258 179.321 418.251 176.667C418.394 176.287 418.957 176.331 418.974 176.765C419.153 181.707 413.573 188.126 408.697 188.639C408.521 189.178 408.392 189.498 408.392 189.498C408.392 189.498 402.997 195.862 395.992 191.14C388.988 186.418 390.087 177.586 390.087 177.586C390.087 177.586 389.109 175.784 393.494 175.175Z" fill="white"/>
<path d="M339.379 250.586C338.907 249.467 337.878 248.515 337.105 247.587C336.233 246.536 335.359 245.485 334.486 244.433C334.064 243.927 333.357 244.653 333.766 245.155C333.849 245.259 333.933 245.36 334.017 245.463C330.562 245.533 326.953 246.311 323.618 247.021C323.182 247.113 323.272 247.844 323.724 247.809C327.291 247.537 331.192 247.255 334.646 246.236C335.216 246.938 335.787 247.638 336.357 248.339C337.123 249.281 337.842 250.433 338.854 251.113C339.21 251.353 339.512 250.902 339.379 250.586Z" fill="#8D3922"/>
<path d="M336.076 248.387C332.624 248.421 329.065 249.373 325.671 249.952C325.043 250.06 325.314 251.001 325.932 250.906C329.297 250.394 332.93 250.179 336.177 249.136C336.576 249.009 336.518 248.383 336.076 248.387Z" fill="#8D3922"/>
<path d="M337.879 250.444C336.674 250.483 335.487 250.998 334.346 251.368C333.047 251.789 331.749 252.211 330.449 252.632C329.846 252.829 330.098 253.779 330.713 253.595C332.021 253.203 333.328 252.812 334.635 252.421C335.783 252.078 337.063 251.83 338.077 251.177C338.39 250.975 338.284 250.431 337.879 250.444Z" fill="#8D3922"/>
<path d="M407.438 323.269C406.312 323.38 404.906 327.038 402.237 334.375C402.082 334.807 402.751 335.074 402.969 334.683C404.872 331.249 407.047 327.353 408.132 323.562C408.255 323.132 407.855 323.228 407.438 323.269Z" fill="#8D3922"/>
<path d="M410.477 324.165C409.411 327.715 408.565 330.784 405.96 333.581C405.552 334.017 406.19 334.664 406.617 334.24C409.141 331.73 411.442 327.965 411.174 324.259C411.145 323.866 410.595 323.763 410.477 324.165Z" fill="#8D3922"/>
</g>
<defs>
<clipPath id="clip0_786_4536">
<rect width="559.522" height="562.278" fill="white" transform="translate(-28.3408 0.0390625)"/>
</clipPath>
</defs>
</svg>
