<svg width="76" height="111" viewBox="0 0 76 111" fill="none" xmlns="http://www.w3.org/2000/svg">
<path fill-rule="evenodd" clip-rule="evenodd" d="M71.2343 0.76963H4.5607C2.05305 0.76963 0 2.82122 0 5.32668V105.893C0 108.399 2.05305 110.45 4.5607 110.45H71.2343C73.7436 110.45 75.7984 108.399 75.7984 105.893V5.32668C75.7984 2.82122 73.7436 0.76963 71.2343 0.76963Z" fill="#9A0034"/>
<path fill-rule="evenodd" clip-rule="evenodd" d="M68.3146 6.99548H7.47959C6.55223 6.99548 5.79346 7.7547 5.79346 8.68063V102.538C5.79346 103.466 6.55223 104.223 7.47959 104.223H68.3146C69.2436 104.223 70.004 103.466 70.004 102.538V8.68063C70.004 7.7547 69.2436 6.99548 68.3146 6.99548Z" fill="white"/>
<path fill-rule="evenodd" clip-rule="evenodd" d="M62.6234 20.5518C63.7128 20.5518 64.6004 19.6638 64.6004 18.5778C64.6004 17.4901 63.7128 16.6021 62.6234 16.6021C61.5357 16.6021 60.6431 17.4901 60.6431 18.5778C60.6431 19.6638 61.5357 20.5518 62.6234 20.5518Z" fill="#FFCFC7"/>
<path fill-rule="evenodd" clip-rule="evenodd" d="M55.7751 17.5892H12.1845C11.639 17.5892 11.1943 18.0348 11.1943 18.5778C11.1943 19.1208 11.639 19.5648 12.1845 19.5648H55.7751C56.3206 19.5648 56.7653 19.1208 56.7653 18.5778C56.7653 18.0348 56.3206 17.5892 55.7751 17.5892Z" fill="#1A2A44"/>
<path fill-rule="evenodd" clip-rule="evenodd" d="M62.6234 30.0453C63.7128 30.0453 64.6004 29.159 64.6004 28.0696C64.6004 26.982 63.7128 26.0956 62.6234 26.0956C61.5357 26.0956 60.6431 26.982 60.6431 28.0696C60.6431 29.159 61.5357 30.0453 62.6234 30.0453Z" fill="#FFCFC7"/>
<path fill-rule="evenodd" clip-rule="evenodd" d="M55.7751 27.0844H12.1845C11.639 27.0844 11.1943 27.5284 11.1943 28.0714C11.1943 28.6144 11.639 29.0584 12.1845 29.0584H55.7751C56.3206 29.0584 56.7653 28.6144 56.7653 28.0714C56.7653 27.5284 56.3206 27.0844 55.7751 27.0844Z" fill="#1A2A44"/>
<path fill-rule="evenodd" clip-rule="evenodd" d="M62.6234 39.5387C63.7128 39.5387 64.6004 38.6507 64.6004 37.5631C64.6004 36.477 63.7128 35.5891 62.6234 35.5891C61.5357 35.5891 60.6431 36.477 60.6431 37.5631C60.6431 38.6507 61.5357 39.5387 62.6234 39.5387Z" fill="#FFCFC7"/>
<path fill-rule="evenodd" clip-rule="evenodd" d="M55.7751 36.5762H12.1845C11.639 36.5762 11.1943 37.0202 11.1943 37.5632C11.1943 38.1078 11.639 38.5518 12.1845 38.5518H55.7751C56.3206 38.5518 56.7653 38.1078 56.7653 37.5632C56.7653 37.0202 56.3206 36.5762 55.7751 36.5762Z" fill="#1A2A44"/>
<path fill-rule="evenodd" clip-rule="evenodd" d="M62.6234 49.0324C63.7128 49.0324 64.6004 48.1461 64.6004 47.0584C64.6004 45.9691 63.7128 45.0828 62.6234 45.0828C61.5357 45.0828 60.6431 45.9691 60.6431 47.0584C60.6431 48.1461 61.5357 49.0324 62.6234 49.0324Z" fill="#FFCFC7"/>
<path fill-rule="evenodd" clip-rule="evenodd" d="M55.7751 46.0697H12.1845C11.639 46.0697 11.1943 46.5137 11.1943 47.0584C11.1943 47.6014 11.639 48.0453 12.1845 48.0453H55.7751C56.3206 48.0453 56.7653 47.6014 56.7653 47.0584C56.7653 46.5137 56.3206 46.0697 55.7751 46.0697Z" fill="#1A2A44"/>
<path fill-rule="evenodd" clip-rule="evenodd" d="M62.6234 58.5259C63.7128 58.5259 64.6004 57.638 64.6004 56.5503C64.6004 55.4643 63.7128 54.5763 62.6234 54.5763C61.5357 54.5763 60.6431 55.4643 60.6431 56.5503C60.6431 57.638 61.5357 58.5259 62.6234 58.5259Z" fill="#FFCFC7"/>
<path fill-rule="evenodd" clip-rule="evenodd" d="M55.7751 55.5634H12.1845C11.639 55.5634 11.1943 56.0073 11.1943 56.552C11.1943 57.095 11.639 57.539 12.1845 57.539H55.7751C56.3206 57.539 56.7653 57.095 56.7653 56.552C56.7653 56.0073 56.3206 55.5634 55.7751 55.5634Z" fill="#1A2A44"/>
<path fill-rule="evenodd" clip-rule="evenodd" d="M62.6234 68.0195C63.7128 68.0195 64.6004 67.1315 64.6004 66.0455C64.6004 64.9561 63.7128 64.0682 62.6234 64.0682C61.5357 64.0682 60.6431 64.9561 60.6431 66.0455C60.6431 67.1315 61.5357 68.0195 62.6234 68.0195Z" fill="#FFCFC7"/>
<path fill-rule="evenodd" clip-rule="evenodd" d="M55.7751 65.0569H12.1845C11.639 65.0569 11.1943 65.5025 11.1943 66.0455C11.1943 66.5869 11.639 67.0325 12.1845 67.0325H55.7751C56.3206 67.0325 56.7653 66.5869 56.7653 66.0455C56.7653 65.5025 56.3206 65.0569 55.7751 65.0569Z" fill="#1A2A44"/>
<path fill-rule="evenodd" clip-rule="evenodd" d="M62.6234 77.5129C63.7128 77.5129 64.6004 76.625 64.6004 75.5373C64.6004 74.4513 63.7128 73.5616 62.6234 73.5616C61.5357 73.5616 60.6431 74.4513 60.6431 75.5373C60.6431 76.625 61.5357 77.5129 62.6234 77.5129Z" fill="#FFCFC7"/>
<path fill-rule="evenodd" clip-rule="evenodd" d="M55.7751 74.5505H12.1845C11.639 74.5505 11.1943 74.9945 11.1943 75.5375C11.1943 76.0822 11.639 76.5262 12.1845 76.5262H55.7751C56.3206 76.5262 56.7653 76.0822 56.7653 75.5375C56.7653 74.9945 56.3206 74.5505 55.7751 74.5505Z" fill="#1A2A44"/>
<path fill-rule="evenodd" clip-rule="evenodd" d="M62.6234 87.0066C63.7128 87.0066 64.6004 86.1186 64.6004 85.0309C64.6004 83.9433 63.7128 83.057 62.6234 83.057C61.5357 83.057 60.6431 83.9433 60.6431 85.0309C60.6431 86.1186 61.5357 87.0066 62.6234 87.0066Z" fill="#FFCFC7"/>
<path fill-rule="evenodd" clip-rule="evenodd" d="M55.7751 84.0449H12.1845C11.639 84.0449 11.1943 84.4906 11.1943 85.0319C11.1943 85.5749 11.639 86.0189 12.1845 86.0189H55.7751C56.3206 86.0189 56.7653 85.5749 56.7653 85.0319C56.7653 84.4906 56.3206 84.0449 55.7751 84.0449Z" fill="#1A2A44"/>
<path fill-rule="evenodd" clip-rule="evenodd" d="M62.6234 96.5013C63.7128 96.5013 64.6004 95.6133 64.6004 94.5256C64.6004 93.438 63.7128 92.55 62.6234 92.55C61.5357 92.55 60.6431 93.438 60.6431 94.5256C60.6431 95.6133 61.5357 96.5013 62.6234 96.5013Z" fill="#FFCFC7"/>
<path fill-rule="evenodd" clip-rule="evenodd" d="M55.7751 93.5404H12.1845C11.639 93.5404 11.1943 93.9827 11.1943 94.5273C11.1943 95.0704 11.639 95.5143 12.1845 95.5143H55.7751C56.3206 95.5143 56.7653 95.0704 56.7653 94.5273C56.7653 93.9827 56.3206 93.5404 55.7751 93.5404Z" fill="#1A2A44"/>
</svg>
