<svg width="318" height="516" viewBox="0 0 318 516" fill="none" xmlns="http://www.w3.org/2000/svg">
<path d="M312.18 225.965L309.868 227.343L186.21 155.968L188.52 154.589L312.18 225.965Z" fill="#FAFAFA"/>
<path d="M188.519 154.59L309.868 224.625L309.866 69.3371L188.518 -0.682236L188.519 154.59Z" fill="white"/>
<path d="M186.209 -2.03899L309.867 69.336V227.344L186.21 155.969L186.209 -2.03899ZM181.847 158.485L314.229 234.896V66.8179L181.846 -9.59311L181.847 158.485Z" fill="#F0F0F0"/>
<path d="M186.209 155.968L188.519 154.589L188.518 -0.682968L186.208 -2.03976L186.209 155.968Z" fill="#E1E1E1"/>
<path d="M309.868 173.713V176.426L186.21 105.051L188.52 103.672L309.868 173.713Z" fill="#FAFAFA"/>
<path d="M309.868 112.52V115.232L186.21 43.8575L188.52 42.4788L309.868 112.52Z" fill="#FAFAFA"/>
<path d="M181.846 -9.59364L184.193 -10.9371L316.577 65.4739L314.23 66.8174L181.846 -9.59364Z" fill="#FAFAFA"/>
<path d="M316.576 65.4745L314.229 66.818V234.896L316.576 233.553V65.4745Z" fill="#E1E1E1"/>
<path d="M231.199 23.9372L228.852 22.5828V180.598L231.199 179.254V23.9372Z" fill="#E1E1E1"/>
<path d="M224.49 20.0728L228.852 22.5799V180.595L224.491 178.068L224.49 20.0728Z" fill="#F0F0F0"/>
<path d="M273.894 48.5807L271.547 47.2251V205.241L273.894 203.897V48.5807Z" fill="#E1E1E1"/>
<path d="M267.184 44.7183L271.546 47.2254V205.24L267.186 202.714L267.184 44.7183Z" fill="#F0F0F0"/>
<path d="M181.846 41.3412V46.3712L314.23 122.782V117.752L181.846 41.3412Z" fill="#F0F0F0"/>
<path d="M181.846 102.521V107.551L314.23 183.962V178.932L181.846 102.521Z" fill="#F0F0F0"/>
<path d="M228.852 68.4785L231.199 67.1205L267.185 87.8989V90.6113L228.852 68.4785Z" fill="#FAFAFA"/>
<path d="M228.852 129.643L231.199 128.285L267.185 149.063V151.775L228.852 129.643Z" fill="#FAFAFA"/>
<path d="M271.541 93.1215L273.888 91.7635L309.867 112.52V115.232L271.541 93.1215Z" fill="#FAFAFA"/>
<path d="M271.541 154.288L273.888 152.929L309.867 173.686V176.398L271.541 154.288Z" fill="#FAFAFA"/>
<path d="M112.31 490.477L1.54605 426.509C-0.0075365 425.613 -0.0075365 424.158 1.54605 423.26L136.28 345.382C137.834 344.484 140.353 344.484 141.907 345.382L252.67 409.348C254.225 410.246 254.225 411.7 252.67 412.597L117.936 490.477C116.382 491.374 113.863 491.374 112.31 490.477Z" fill="#E1E1E1"/>
<path d="M305.035 461.628C297.798 457.903 293.138 455.217 291.124 453.605C291.472 453.55 291.88 453.506 292.345 453.487C294.241 453.418 295.779 453.042 296.878 452.392C298.36 451.549 299.209 450.156 299.209 448.578C299.214 446.487 297.714 444.413 295.09 442.89C292.943 441.649 290.241 440.906 287.868 440.906C286.289 440.906 284.945 441.22 283.883 441.833C282.4 442.683 281.481 444.071 281.293 445.718C281.262 445.97 280.796 446.14 280.044 446.14H280.039C276.796 446.043 270.736 442.117 263.72 437.57L262.312 436.659L260.832 437.589C259.331 438.453 257.965 439.264 256.726 440.009C255.654 440.655 254.685 441.236 253.765 441.762C250.957 443.39 248.858 444.401 247.07 444.401C246.983 444.401 246.895 444.399 246.814 444.395C245.331 444.314 244.645 443.501 244.477 443.034C243.962 441.615 242.91 440.397 241.535 439.618C240.183 438.834 238.463 438.42 236.563 438.42C234.373 438.42 232.22 438.967 230.504 439.956C228.409 441.164 227.182 442.952 227.138 444.861C227.094 446.677 228.104 448.318 229.932 449.375C231.153 450.065 232.682 450.518 234.462 450.721C235.475 450.844 236.265 451.054 236.818 451.258C235.33 452.423 232.177 454.173 229.508 455.656C228.114 456.425 226.68 457.223 225.206 458.071L221.478 460.22L225.089 462.557C234.791 468.84 240.807 472.267 244.805 472.379L245.041 472.383C248.593 472.383 250.494 469.941 250.763 467.628C250.77 467.619 250.816 467.564 250.938 467.495C251.071 467.419 251.593 467.17 252.746 467.17C254.43 467.17 256.413 467.712 257.926 468.584C258.699 469.03 259.163 469.45 259.419 469.749C259.057 469.875 258.388 470.038 257.294 470.082C251.093 470.328 250.622 473.549 250.624 474.52L250.629 474.715L250.639 474.829C250.917 478.027 254.963 480.623 266.977 486.798L268.25 487.453L269.491 486.741C270.959 485.896 272.388 485.103 273.813 484.323C280.569 480.574 284.29 478.511 284.283 475.346C284.283 475.143 284.266 474.942 284.236 474.763C283.705 471.554 279.667 470.61 277.319 470.335C275.546 470.118 274.662 469.681 274.332 469.485C274.184 469.4 274.08 469.322 274.012 469.26C274.13 469.109 274.381 468.862 274.846 468.594C275.87 468.002 277.284 467.663 278.727 467.663C279.897 467.663 280.971 467.894 281.668 468.295C281.979 468.474 282.378 468.775 282.535 469.216C283.231 471.131 285.28 473.437 288.767 473.625C288.931 473.634 289.094 473.639 289.261 473.639C292.762 473.639 296.094 471.639 301.139 468.611C302.349 467.882 303.676 467.09 305.144 466.245L309.326 463.836L305.035 461.628Z" fill="#E1E1E1"/>
<path d="M80.9894 482.116C78.1276 480.71 74.7605 479.053 72.8376 477.839C73.1036 477.806 73.3976 477.782 73.7195 477.769C75.5864 477.701 77.1157 477.332 78.2624 476.668C79.7358 475.819 80.5812 474.426 80.5825 472.846C80.5825 470.749 79.0762 468.677 76.4549 467.162C74.3232 465.924 71.6326 465.185 69.2579 465.185C67.6716 465.185 66.3232 465.499 65.2519 466.119C63.787 466.962 62.8638 468.336 62.65 470.025C62.6245 470.251 62.169 470.41 61.4184 470.41H61.4038C59.3364 470.352 55.9486 467.969 52.0179 465.203L51.3948 464.767C49.7719 463.631 47.9317 462.345 45.9445 461.045L44.5865 460.155L43.1847 460.97C41.8328 461.754 40.5136 462.482 39.2406 463.186L38.9005 463.375C31.8165 467.304 27.9173 469.469 28.4736 472.928C29.0045 476.136 33.0506 477.081 35.401 477.357C37.0943 477.565 37.9919 477.974 38.3916 478.209C38.5349 478.29 38.6369 478.368 38.7037 478.426C38.5859 478.579 38.332 478.828 37.8632 479.098C36.855 479.681 35.4059 480.028 33.9859 480.028C32.8186 480.028 31.7521 479.799 31.0354 479.386C30.7305 479.213 30.3345 478.915 30.1742 478.477C29.4782 476.56 27.4314 474.253 23.9562 474.066C23.7983 474.058 23.6416 474.053 23.4825 474.053C20.017 474.053 16.7301 476.027 11.6745 479.059L10.5923 479.705C9.63508 480.276 8.60624 480.891 7.50331 481.531L3.83374 483.665L9.04474 487.099C16.509 491.965 21.4394 495.18 25.4952 495.293L25.7309 495.298C29.2948 495.298 31.1982 492.848 31.4642 490.542C31.4703 490.529 31.5261 490.459 31.627 490.397C31.7606 490.321 32.2829 490.072 33.4356 490.072C35.1192 490.072 37.104 490.614 38.6126 491.484C39.3949 491.936 39.8601 492.358 40.1176 492.661C39.735 492.791 39.0621 492.955 38.0016 492.995C36.1322 493.057 33.6154 493.458 32.2513 495.008C31.5723 495.778 31.2492 496.751 31.3403 497.726C31.5966 500.725 35.3378 503.435 48.7443 510.332L50.0124 510.984L51.2502 510.279C52.7406 509.427 54.1667 508.632 55.5696 507.848C62.1277 504.222 66.0864 502.035 65.5301 498.575C65.0005 495.367 60.9531 494.421 58.6027 494.144C56.9107 493.936 56.0118 493.528 55.6134 493.295C55.4664 493.21 55.3644 493.131 55.2976 493.071C55.4129 492.92 55.6644 492.672 56.1284 492.403C57.1366 491.82 58.5906 491.472 60.0154 491.472C61.1851 491.472 62.2541 491.701 62.9489 492.103C63.2598 492.282 63.6594 492.583 63.8174 493.026C64.5146 494.943 66.5662 497.247 70.0414 497.433C70.1957 497.443 70.3512 497.447 70.5078 497.447C73.9102 497.447 77.2275 495.43 82.2867 492.356L83.2948 491.749C84.399 491.084 85.5991 490.361 86.8818 489.614L91.0397 487.197L86.7616 485.002C84.7488 483.969 82.843 483.028 80.9894 482.116Z" fill="#E1E1E1"/>
<path d="M316.517 360.076L248.369 320.563C247.256 319.921 245.454 319.921 244.341 320.563L175.948 360.05C174.836 360.693 174.836 361.734 175.948 362.377L244.095 401.889C245.207 402.53 247.01 402.53 248.122 401.889L253.695 398.671L290.878 377.204L316.517 362.402C317.628 361.76 317.628 360.719 316.517 360.076Z" fill="#E1E1E1"/>
<path d="M305.722 365.356L294.872 359.091L305.722 355.957V365.356Z" fill="#E1E1E1"/>
<mask id="mask0_786_772" style="mask-type:luminance" maskUnits="userSpaceOnUse" x="294" y="355" width="12" height="11">
<path d="M294.871 355.958H305.722V365.356H294.871V355.958Z" fill="white"/>
</mask>
<g mask="url(#mask0_786_772)">
<g opacity="0.0500031">
<path d="M305.722 365.356L294.871 359.091L305.722 355.957V365.356Z" fill="black"/>
</g>
</g>
<path d="M251.362 387.345V397.336L188.791 361.13L188.792 351.139L251.362 387.345Z" fill="#E1E1E1"/>
<mask id="mask1_786_772" style="mask-type:luminance" maskUnits="userSpaceOnUse" x="188" y="351" width="64" height="47">
<path d="M188.791 351.139H251.362V397.336H188.791V351.139Z" fill="white"/>
</mask>
<g mask="url(#mask1_786_772)">
<g opacity="0.0500031">
<path d="M251.362 387.345V397.336L188.791 361.13L188.792 351.139L251.362 387.345Z" fill="black"/>
</g>
</g>
<path d="M183.364 272.812L245.936 309.019V390.478L183.364 354.271V272.812Z" fill="#E1E1E1"/>
<path d="M245.936 309.019L316.577 268.233V349.691L245.936 390.478V309.019Z" fill="#ECECEC"/>
<path d="M316.576 268.235L254.004 232.027L183.364 272.815L245.936 309.021L316.576 268.235Z" fill="#F5F5F5"/>
<path d="M251.361 312.153L311.151 277.631V296.43L251.361 330.951V312.153Z" fill="#F5F5F5"/>
<path d="M251.361 337.218L311.151 302.696V346.558L251.361 381.081V337.218Z" fill="#E1E1E1"/>
<path d="M251.361 397.338L256.79 394.205V384.214L251.361 387.347V397.338Z" fill="#ECECEC"/>
<path d="M305.722 365.356L311.151 362.224V352.825L305.722 355.957V365.356Z" fill="#ECECEC"/>
<path d="M269.893 305.414C269.893 306.279 272.483 305.485 275.677 303.64L285.814 297.789C289.008 295.944 291.598 293.748 291.599 292.882V291.316L269.893 303.847C269.893 303.847 269.893 304.548 269.893 305.414Z" fill="#E1E1E1"/>
<mask id="mask2_786_772" style="mask-type:luminance" maskUnits="userSpaceOnUse" x="251" y="324" width="61" height="58">
<path d="M251.363 324.48H311.152V381.081H251.363V324.48Z" fill="white"/>
</mask>
<g mask="url(#mask2_786_772)">
<g opacity="0.100006">
<path d="M311.152 346.558L273.424 324.48L251.363 337.218V381.081L311.152 346.558Z" fill="black"/>
</g>
</g>
<path d="M231.563 265.638C236.659 268.58 236.659 273.349 231.563 276.291C226.467 279.233 218.206 279.233 213.112 276.291C208.016 273.349 208.016 268.58 213.112 265.638C218.206 262.696 226.467 262.696 231.563 265.638Z" fill="#E1E1E1"/>
<path d="M214.222 271.623C209.785 267.096 207.178 255.789 211.506 252.197H233.529C237.855 255.788 235.252 267.088 230.816 271.619C230.779 271.66 230.735 271.702 230.695 271.743C230.645 271.793 230.594 271.844 230.543 271.892C230.418 272.014 230.284 272.133 230.141 272.25C230.107 272.279 230.07 272.304 230.035 272.332C229.927 272.417 229.819 272.503 229.7 272.586C229.512 272.72 229.321 272.845 229.127 272.952C225.476 275.059 219.559 275.059 215.908 272.952C215.713 272.844 215.521 272.718 215.33 272.582C215.221 272.506 215.12 272.426 215.019 272.347C214.976 272.313 214.932 272.28 214.888 272.245C214.75 272.132 214.622 272.018 214.501 271.9C214.442 271.844 214.384 271.786 214.324 271.727C214.292 271.693 214.254 271.658 214.222 271.623Z" fill="#ECECEC"/>
<path d="M231.616 250.751C236.64 253.652 236.64 258.356 231.616 261.257C226.591 264.158 218.444 264.158 213.42 261.257C208.395 258.356 208.395 253.652 213.42 250.751C218.444 247.851 226.591 247.851 231.616 250.751Z" fill="#FAFAFA"/>
<path d="M228.053 252.808C231.11 254.573 231.11 257.435 228.053 259.2C224.995 260.965 220.04 260.965 216.982 259.2C213.925 257.435 213.925 254.573 216.982 252.808C220.04 251.043 224.997 251.043 228.053 252.808Z" fill="#F5F5F5"/>
<path d="M216.983 255.841C220.04 254.076 224.996 254.076 228.053 255.841C228.902 256.332 229.507 256.908 229.884 257.52C229.507 258.132 228.902 258.709 228.053 259.2C224.996 260.965 220.04 260.965 216.983 259.2C216.134 258.709 215.529 258.132 215.151 257.52C215.529 256.908 216.134 256.332 216.983 255.841Z" fill="#ECECEC"/>
<path d="M227.378 257.52C227.378 257.52 229.534 255.468 231.383 252.198C233.232 248.928 233.573 244.548 232.617 244.007C231.661 243.467 227.77 247.836 227.77 247.836C227.77 247.836 228.343 245.166 228.18 242.254C228.016 239.343 227.306 236.696 226.473 236.161C225.639 235.627 223.773 239.301 222.972 241.964C222.172 244.627 221.695 246.815 221.695 246.815C221.695 246.815 221.148 243.216 220.26 240.689C219.289 237.925 218.409 237.3 217.726 237.573C217.043 237.846 216.593 239.135 216.394 242.817C216.254 245.394 216.558 248.086 216.558 248.086C216.558 248.086 215.186 246.577 213.663 245.114C211.99 243.508 211.274 243.286 210.796 243.592C210.318 243.899 210.187 246.399 212.776 251.084C215.062 255.219 217.667 257.52 217.667 257.52C217.667 257.52 221.252 259.832 227.378 257.52Z" fill="#E1E1E1"/>
<path d="M254.813 278.388L256.6 279.264L289.922 260.334L288.137 259.458L254.813 278.388Z" fill="#FAFAFA"/>
<path d="M288.138 259.457L256.438 277.46L252.176 230.204L283.877 212.211L288.138 259.457Z" fill="white"/>
<path d="M289.923 260.335L256.599 279.265L252.175 230.205L285.499 211.275L289.923 260.335ZM288.262 206.195L248.809 228.608L253.837 284.345L293.29 261.933L288.262 206.195Z" fill="#F0F0F0"/>
<path d="M289.923 260.335L288.137 259.459L283.876 212.213L285.499 211.275L289.923 260.335Z" fill="#E1E1E1"/>
<path d="M288.262 206.195L286.451 205.343L246.998 227.754L248.809 228.606L288.262 206.195Z" fill="#FAFAFA"/>
<path d="M247 227.753L248.811 228.606L253.837 284.343L252.027 283.49L247 227.753Z" fill="#E1E1E1"/>
<path d="M286.756 258.55L257.532 275.151L256.813 267.19L262.39 243.857L267.495 251.868L266.379 258.579L275.159 233.844L286.038 250.589L286.756 258.55Z" fill="#F0F0F0"/>
<path d="M262.011 234.015C260.817 234.692 259.944 236.297 260.062 237.598C260.179 238.899 261.242 239.403 262.436 238.725C263.629 238.047 264.503 236.443 264.385 235.142C264.268 233.841 263.204 233.337 262.011 234.015Z" fill="#F0F0F0"/>
<path d="M85.5627 479.452C85.5627 479.452 81.6709 477.492 79.8306 476.586C76.7757 475.084 74.1435 473.788 72.2243 472.647C72.6895 472.578 73.1632 472.529 73.626 472.51C75.4274 472.444 76.4259 472.063 76.9518 471.761C77.6345 471.367 77.9552 470.82 77.9479 470.205C77.9345 469.211 77.9673 465.545 77.954 464.918C77.9309 463.854 76.9397 462.588 75.1371 461.546C72.285 459.889 68.4332 459.43 66.5663 460.507C66.0403 460.81 65.3965 461.388 65.2641 462.427C65.1196 463.729 64.0021 465.228 61.3334 465.149C58.4813 465.07 55.1288 462.716 50.5142 459.469C48.7262 458.22 46.7147 456.8 44.5064 455.355C43.0342 456.209 41.6008 456.997 40.2209 457.76C35.1266 460.588 31.0683 462.835 31.0586 464.454C31.0586 464.506 31.0707 469.868 31.0707 469.868C31.2809 471.143 33.7127 471.879 35.7242 472.116C37.6422 472.351 38.8411 472.828 39.5589 473.223C39.4302 473.309 39.3245 473.401 39.1824 473.483C36.4348 475.074 32.2016 475.205 29.7431 473.785C29.0458 473.392 28.1385 472.668 27.7048 471.484C27.2845 470.328 26.0225 468.921 23.8142 468.802C20.9742 468.646 17.8185 470.552 13.0205 473.43C11.7584 474.18 10.3652 475.022 8.82617 475.916V481.174L10.483 482.265C17.3193 486.721 22.2752 489.943 25.5755 490.034C27.7704 490.101 28.7179 488.785 28.8491 487.642C28.9802 486.498 29.7297 485.841 30.3213 485.486C32.4506 484.263 36.7627 484.75 39.9318 486.577C40.3096 486.796 40.6509 487.025 40.9619 487.26C40.3035 487.486 39.3755 487.684 38.0904 487.733C36.1736 487.798 33.9702 488.321 33.958 489.51C33.958 489.544 33.9726 493.725 33.958 494.766C33.958 494.8 33.9592 494.837 33.9629 494.872C34.1463 497.028 42.258 501.406 49.9494 505.363C51.4483 504.508 52.8804 503.706 54.2481 502.945C59.0741 500.277 62.9319 498.149 62.9501 496.539C62.9501 496.481 62.9562 492.152 62.9501 491.261C62.9501 491.211 62.9453 491.161 62.938 491.113C62.7279 489.837 60.2948 489.101 58.2833 488.864C56.3605 488.629 55.1592 488.15 54.4425 487.754C54.5688 487.669 54.6733 487.578 54.813 487.498C57.5606 485.906 61.8071 485.775 64.2657 487.195C64.9495 487.589 65.869 488.313 66.2905 489.496C66.7108 490.652 67.9862 492.059 70.1945 492.178C72.9422 492.335 76.1101 490.402 80.9348 487.471C82.3159 486.643 85.5627 484.71 85.5627 484.71V479.452Z" fill="#9A0034"/>
<mask id="mask3_786_772" style="mask-type:luminance" maskUnits="userSpaceOnUse" x="8" y="455" width="78" height="51">
<path d="M8.82544 455.353H85.562V505.362H8.82544V455.353Z" fill="white"/>
</mask>
<g mask="url(#mask3_786_772)">
<g opacity="0.199997">
<path d="M85.5631 479.451C85.5631 479.451 81.6713 477.491 79.831 476.585C76.7761 475.083 74.1439 473.787 72.2246 472.646C72.6899 472.577 73.1636 472.528 73.6264 472.509C75.4278 472.443 76.4262 472.062 76.9522 471.76C77.6349 471.366 77.9555 470.819 77.9482 470.204C77.9349 469.21 77.9677 465.544 77.9543 464.917C77.9312 463.853 76.9401 462.587 75.1375 461.545C72.2854 459.888 68.4336 459.429 66.5666 460.506C66.0407 460.809 65.3969 461.387 65.2645 462.426C65.1199 463.728 64.0024 465.227 61.3338 465.148C58.4817 465.069 55.1292 462.715 50.5146 459.468C48.7265 458.219 46.715 456.799 44.5067 455.354C43.0345 456.208 41.6012 456.996 40.2213 457.759C35.1269 460.587 31.0687 462.834 31.0589 464.453C31.0589 464.505 31.0711 469.867 31.0711 469.867C31.2812 471.142 33.713 471.878 35.7245 472.115C37.6425 472.35 38.8414 472.827 39.5593 473.222C39.4306 473.308 39.3249 473.4 39.1828 473.482C36.4351 475.073 32.202 475.204 29.7434 473.784C29.0462 473.391 28.1388 472.667 27.7052 471.483C27.2849 470.327 26.0229 468.921 23.8146 468.801C20.9746 468.645 17.8189 470.551 13.0208 473.429C11.7588 474.179 10.3655 475.021 8.82654 475.915V481.173L10.4834 482.264C17.3196 486.721 22.2755 489.942 25.5758 490.033C27.7708 490.1 28.7182 488.784 28.8494 487.641C28.9806 486.497 29.7301 485.84 30.3216 485.485C32.451 484.262 36.7631 484.749 39.9322 486.576C40.31 486.795 40.6513 487.024 40.9623 487.259C40.3039 487.485 39.3759 487.683 38.0908 487.732C36.174 487.797 33.9705 488.32 33.9584 489.509C33.9584 489.543 33.973 493.724 33.9584 494.765C33.9584 494.799 33.9596 494.836 33.9633 494.871C34.1467 497.027 42.2583 501.405 49.9497 505.362C51.4487 504.507 52.8808 503.705 54.2485 502.944C59.0745 500.276 62.9323 498.148 62.9505 496.538C62.9505 496.481 62.9566 492.151 62.9505 491.26C62.9505 491.21 62.9457 491.16 62.9384 491.112C62.7282 489.836 60.2952 489.1 58.2837 488.863C56.3608 488.628 55.1595 488.149 54.4429 487.753C54.5692 487.668 54.6736 487.577 54.8133 487.497C57.561 485.905 61.8075 485.774 64.266 487.194C64.9499 487.588 65.8694 488.312 66.2909 489.495C66.7112 490.651 67.9866 492.058 70.1949 492.177C72.9425 492.334 76.1104 490.401 80.9352 487.47C82.3163 486.642 85.5631 484.709 85.5631 484.709V479.451Z" fill="black"/>
</g>
</g>
<path d="M85.5627 479.452C83.867 480.438 82.3159 481.385 80.9348 482.213C76.1101 485.144 72.9422 487.077 70.1945 486.919C67.9862 486.801 66.7108 485.394 66.2905 484.238C65.869 483.054 64.9495 482.331 64.2657 481.936C61.8071 480.517 57.5606 480.649 54.813 482.239C52.0787 483.817 51.8419 486.262 54.3004 487.682C54.9976 488.09 56.2463 488.616 58.2833 488.865C60.2948 489.102 62.7279 489.838 62.938 491.113C63.2004 492.743 59.2429 494.926 54.2481 497.686C52.8804 498.449 51.4483 499.25 49.9494 500.105C42.258 496.148 34.1463 491.77 33.9629 489.614C33.8451 488.352 36.119 487.801 38.0904 487.734C40.0885 487.656 41.2328 487.221 41.8243 486.88C43.9537 485.645 43.1131 483.159 39.9318 481.319C36.7627 479.491 32.4506 479.005 30.3213 480.228C29.7297 480.583 28.9802 481.24 28.8491 482.384C28.7179 483.527 27.7704 484.842 25.5755 484.776C22.2752 484.685 17.3193 481.464 10.483 477.007L8.82617 475.916C10.3652 475.022 11.7584 474.18 13.0205 473.431C17.8185 470.552 20.9742 468.646 23.8142 468.803C26.0225 468.922 27.2845 470.329 27.7048 471.485C28.1385 472.668 29.0458 473.392 29.7431 473.786C32.2016 475.206 36.4348 475.074 39.1824 473.483C41.93 471.907 42.1657 469.461 39.7071 468.041C39.0111 467.633 37.7624 467.107 35.7242 466.858C33.7127 466.621 31.2809 465.885 31.0707 464.61C30.8083 462.98 34.9614 460.679 40.2209 457.76C41.6008 456.997 43.0342 456.209 44.5064 455.355C46.7147 456.801 48.7262 458.221 50.5142 459.469C55.1288 462.716 58.4813 465.07 61.3334 465.149C64.0021 465.228 65.1196 463.729 65.2641 462.427C65.3965 461.389 66.0403 460.81 66.5663 460.508C68.4332 459.43 72.285 459.89 75.1371 461.546C78.0038 463.203 78.8188 465.425 76.9518 466.502C76.4259 466.805 75.4274 467.186 73.626 467.252C71.3776 467.344 68.7879 467.988 68.9058 469.527C69.0637 471.288 73.5726 473.51 79.8306 476.587C81.6709 477.493 83.5646 478.427 85.5627 479.452Z" fill="#9A0034"/>
<mask id="mask4_786_772" style="mask-type:luminance" maskUnits="userSpaceOnUse" x="8" y="455" width="78" height="46">
<path d="M8.82617 455.355H85.5628V500.105H8.82617V455.355Z" fill="white"/>
</mask>
<g mask="url(#mask4_786_772)">
<g opacity="0.5">
<path d="M85.563 479.452C83.8673 480.438 82.3161 481.385 80.935 482.213C76.1103 485.144 72.9424 487.077 70.1948 486.919C67.9865 486.801 66.7111 485.394 66.2908 484.238C65.8693 483.054 64.9498 482.331 64.2659 481.936C61.8074 480.517 57.5608 480.649 54.8132 482.239C52.079 483.817 51.8421 486.262 54.3006 487.682C54.9978 488.09 56.2465 488.616 58.2836 488.865C60.2951 489.102 62.7281 489.838 62.9383 491.113C63.2006 492.743 59.2432 494.926 54.2484 497.686C52.8806 498.449 51.4485 499.25 49.9496 500.105C42.2582 496.148 34.1465 491.77 33.9631 489.614C33.8453 488.352 36.1192 487.801 38.0906 487.734C40.0888 487.656 41.233 487.221 41.8246 486.88C43.9539 485.645 43.1134 483.159 39.9321 481.319C36.763 479.491 32.4508 479.005 30.3215 480.228C29.7299 480.583 28.9805 481.24 28.8493 482.384C28.7181 483.527 27.7707 484.842 25.5757 484.776C22.2754 484.685 17.3195 481.464 10.4832 477.007L8.82642 475.916C10.3654 475.022 11.7587 474.18 13.0207 473.431C17.8187 470.552 20.9745 468.646 23.8144 468.803C26.0227 468.922 27.2848 470.329 27.7051 471.485C28.1387 472.668 29.0461 473.392 29.7433 473.786C32.2018 475.206 36.435 475.074 39.1826 473.483C41.9303 471.907 42.1659 469.461 39.7074 468.041C39.0114 467.633 37.7627 467.107 35.7244 466.858C33.7129 466.621 31.2811 465.885 31.071 464.61C30.8086 462.98 34.9616 460.679 40.2212 457.76C41.6011 456.997 43.0344 456.209 44.5066 455.355C46.7149 456.801 48.7264 458.221 50.5144 459.469C55.129 462.716 58.4816 465.07 61.3336 465.149C64.0023 465.228 65.1198 463.729 65.2644 462.427C65.3968 461.389 66.0406 460.81 66.5665 460.508C68.4335 459.43 72.2853 459.89 75.1373 461.546C78.004 463.203 78.8191 465.425 76.9521 466.502C76.4261 466.805 75.4277 467.186 73.6263 467.252C71.3779 467.344 68.7882 467.988 68.906 469.527C69.0639 471.288 73.5728 473.51 79.8309 476.587C81.6711 477.493 83.5648 478.427 85.563 479.452Z" fill="white"/>
</g>
</g>
<path d="M303.832 456.078C303.832 456.078 293.17 450.434 290.41 448.438C291.009 448.325 291.641 448.254 292.25 448.23C294.052 448.165 295.064 447.783 295.576 447.481C296.255 447.093 296.58 446.554 296.58 445.943C296.582 444.943 296.58 441.294 296.58 440.685C296.582 439.617 295.592 438.333 293.776 437.279C290.909 435.623 287.058 435.149 285.191 436.227C284.665 436.529 284.021 437.107 283.902 438.147C283.744 439.448 282.628 440.947 279.959 440.881C276.028 440.762 270.244 437.042 262.29 431.889L262.144 431.98C260.659 432.835 259.306 433.637 258.083 434.373C256.992 435.031 256.005 435.623 255.086 436.148C251.641 438.147 249.183 439.263 246.672 439.132C244.003 438.988 242.491 437.384 242.005 436.043C241.624 434.991 240.822 434.348 240.217 434.005C238.061 432.756 234.301 432.914 231.816 434.348C230.481 435.116 229.789 436.098 229.766 437.036C229.746 437.845 229.789 441.356 229.766 442.294C229.746 443.103 230.226 443.878 231.225 444.456C231.83 444.799 232.934 445.272 234.774 445.483C235.679 445.591 236.653 445.797 237.523 446.096C235.857 447.249 233.506 448.556 230.778 450.07C229.398 450.833 226.518 452.463 226.518 452.463V457.722C226.518 457.722 241.136 467.017 244.884 467.121C247.079 467.187 248.013 465.886 248.144 464.741C248.275 463.585 249.025 462.928 249.63 462.585C251.759 461.363 256.071 461.849 259.24 463.677C259.615 463.894 259.952 464.121 260.262 464.353C259.607 464.577 258.684 464.771 257.399 464.82C255.47 464.898 253.251 465.416 253.254 466.633C253.254 466.659 253.255 466.686 253.258 466.714C253.337 467.618 253.255 471.944 253.258 471.972C253.442 474.076 259.818 477.533 268.179 481.832C269.665 480.978 271.111 480.175 272.505 479.414C277.6 476.586 281.658 474.337 281.655 472.718C281.655 472.666 281.656 468.328 281.655 467.46C281.655 467.408 281.65 467.357 281.641 467.306C281.431 466.03 279.012 465.294 277 465.057C275.077 464.822 273.865 464.343 273.158 463.947C273.286 463.862 273.39 463.771 273.53 463.689C276.277 462.099 280.51 461.968 282.982 463.388C283.666 463.782 284.586 464.505 285.007 465.689C285.428 466.845 286.703 468.252 288.911 468.37C291.765 468.528 294.788 466.727 299.784 463.73C301.006 462.993 303.832 461.337 303.832 461.337V456.078Z" fill="#9A0034"/>
<mask id="mask5_786_772" style="mask-type:luminance" maskUnits="userSpaceOnUse" x="226" y="431" width="78" height="51">
<path d="M226.52 431.889H303.833V481.832H226.52V431.889Z" fill="white"/>
</mask>
<g mask="url(#mask5_786_772)">
<g opacity="0.199997">
<path d="M303.832 456.078C303.832 456.078 293.17 450.434 290.41 448.438C291.009 448.325 291.641 448.254 292.25 448.23C294.052 448.165 295.064 447.783 295.576 447.481C296.255 447.093 296.58 446.554 296.58 445.943C296.582 444.943 296.58 441.294 296.58 440.685C296.582 439.617 295.592 438.333 293.776 437.279C290.909 435.623 287.058 435.149 285.191 436.227C284.665 436.529 284.021 437.107 283.902 438.147C283.744 439.448 282.628 440.947 279.959 440.881C276.028 440.762 270.244 437.042 262.29 431.889L262.144 431.98C260.659 432.835 259.306 433.637 258.082 434.373C256.992 435.031 256.005 435.623 255.086 436.148C251.641 438.147 249.182 439.263 246.672 439.132C244.003 438.988 242.491 437.384 242.005 436.043C241.623 434.991 240.822 434.348 240.217 434.005C238.061 432.756 234.301 432.914 231.816 434.348C230.481 435.116 229.789 436.098 229.766 437.036C229.746 437.845 229.789 441.356 229.766 442.294C229.746 443.103 230.226 443.878 231.225 444.456C231.829 444.799 232.934 445.272 234.774 445.483C235.679 445.591 236.653 445.797 237.523 446.096C235.857 447.249 233.506 448.556 230.778 450.07C229.398 450.833 226.518 452.463 226.518 452.463V457.722C226.518 457.722 241.136 467.017 244.884 467.121C247.079 467.187 248.013 465.886 248.144 464.741C248.275 463.585 249.025 462.928 249.629 462.585C251.759 461.363 256.071 461.849 259.24 463.677C259.615 463.894 259.952 464.121 260.262 464.353C259.607 464.577 258.684 464.771 257.399 464.82C255.47 464.898 253.25 465.416 253.254 466.633C253.254 466.659 253.255 466.686 253.258 466.714C253.337 467.618 253.255 471.944 253.258 471.972C253.442 474.076 259.818 477.533 268.179 481.832C269.665 480.978 271.111 480.175 272.504 479.414C277.6 476.586 281.658 474.337 281.655 472.718C281.655 472.666 281.656 468.328 281.655 467.46C281.655 467.408 281.65 467.357 281.641 467.306C281.431 466.03 279.012 465.294 277 465.057C275.077 464.822 273.865 464.343 273.158 463.947C273.285 463.862 273.39 463.771 273.53 463.689C276.277 462.099 280.51 461.968 282.982 463.388C283.666 463.782 284.586 464.505 285.007 465.689C285.427 466.845 286.703 468.252 288.911 468.37C291.765 468.528 294.788 466.727 299.784 463.73C301.006 462.993 303.832 461.337 303.832 461.337V456.078Z" fill="black"/>
</g>
</g>
<path d="M303.832 456.078C302.347 456.933 301.006 457.735 299.784 458.471C294.788 461.467 291.765 463.269 288.911 463.111C286.703 462.993 285.428 461.586 285.007 460.429C284.586 459.246 283.666 458.523 282.982 458.128C280.51 456.709 276.277 456.841 273.53 458.431C270.782 460.009 270.559 462.454 273.017 463.874C273.701 464.281 274.963 464.807 277 465.057C279.012 465.294 281.431 466.03 281.641 467.305C281.65 467.356 281.655 467.407 281.655 467.459C281.658 469.079 277.6 471.326 272.505 474.155C271.111 474.916 269.665 475.718 268.179 476.573C259.818 472.274 253.442 468.816 253.258 466.714C253.255 466.686 253.254 466.659 253.254 466.632C253.251 465.415 255.47 464.898 257.399 464.82C259.398 464.741 260.528 464.321 261.119 463.966C263.263 462.743 262.408 460.245 259.24 458.417C256.071 456.59 251.759 456.105 249.63 457.327C249.025 457.668 248.275 458.326 248.144 459.483C248.013 460.627 247.079 461.928 244.884 461.862C241.136 461.758 233.643 457.076 226.518 452.463C227.978 451.621 229.398 450.833 230.778 450.07C236.365 446.968 240.4 444.733 240.111 442.918C239.849 441.38 237.075 440.5 234.774 440.223C232.934 440.012 231.83 439.54 231.225 439.197C230.226 438.619 229.746 437.844 229.766 437.035C229.789 436.097 230.482 435.116 231.816 434.347C234.301 432.914 238.061 432.756 240.217 434.005C240.822 434.347 241.624 434.991 242.005 436.043C242.491 437.384 244.003 438.987 246.672 439.132C249.183 439.263 251.641 438.147 255.086 436.147C256.005 435.623 256.992 435.031 258.083 434.373C259.306 433.637 260.659 432.835 262.144 431.98L262.29 431.889C270.244 437.041 276.028 440.762 279.959 440.881C282.628 440.947 283.744 439.448 283.902 438.147C284.021 437.107 284.665 436.529 285.191 436.226C287.058 435.149 290.909 435.623 293.776 437.278C295.591 438.333 296.582 439.616 296.581 440.684C296.58 441.294 296.255 441.834 295.576 442.222C295.064 442.524 294.052 442.905 292.25 442.971C290.002 443.062 287.412 443.707 287.544 445.245C287.715 447.361 293.894 450.964 303.832 456.078Z" fill="#9A0034"/>
<mask id="mask6_786_772" style="mask-type:luminance" maskUnits="userSpaceOnUse" x="226" y="431" width="78" height="46">
<path d="M226.52 431.887H303.833V476.572H226.52V431.887Z" fill="white"/>
</mask>
<g mask="url(#mask6_786_772)">
<g opacity="0.399994">
<path d="M303.832 456.077C302.347 456.932 301.006 457.734 299.784 458.47C294.788 461.466 291.765 463.268 288.911 463.11C286.703 462.992 285.427 461.585 285.007 460.428C284.586 459.245 283.666 458.522 282.982 458.127C280.51 456.709 276.277 456.84 273.53 458.43C270.782 460.008 270.559 462.453 273.017 463.873C273.701 464.28 274.963 464.806 277 465.056C279.012 465.293 281.431 466.029 281.641 467.304C281.65 467.355 281.655 467.406 281.655 467.458C281.658 469.078 277.6 471.325 272.504 474.154C271.111 474.915 269.665 475.717 268.179 476.572C259.818 472.273 253.442 468.815 253.258 466.713C253.255 466.685 253.254 466.658 253.254 466.631C253.25 465.414 255.47 464.897 257.399 464.819C259.398 464.74 260.528 464.32 261.119 463.965C263.263 462.742 262.408 460.244 259.24 458.416C256.071 456.589 251.759 456.104 249.629 457.326C249.025 457.667 248.275 458.325 248.144 459.482C248.013 460.626 247.079 461.927 244.884 461.861C241.136 461.757 233.643 457.075 226.518 452.462C227.978 451.62 229.398 450.832 230.778 450.069C236.365 446.967 240.4 444.732 240.111 442.917C239.849 441.379 237.074 440.499 234.774 440.222C232.934 440.011 231.829 439.539 231.225 439.196C230.226 438.618 229.746 437.843 229.766 437.034C229.789 436.097 230.482 435.115 231.816 434.346C234.301 432.913 238.061 432.755 240.217 434.004C240.822 434.346 241.623 434.99 242.005 436.042C242.491 437.383 244.003 438.986 246.672 439.131C249.182 439.262 251.641 438.146 255.086 436.146C256.005 435.622 256.992 435.03 258.082 434.372C259.306 433.636 260.659 432.834 262.144 431.979L262.29 431.888C270.244 437.04 276.028 440.761 279.959 440.88C282.628 440.946 283.744 439.447 283.902 438.146C284.021 437.106 284.665 436.528 285.191 436.225C287.058 435.148 290.909 435.622 293.776 437.277C295.591 438.332 296.582 439.615 296.581 440.683C296.58 441.293 296.255 441.833 295.576 442.221C295.064 442.523 294.052 442.904 292.25 442.97C290.002 443.062 287.412 443.707 287.543 445.244C287.715 447.36 293.894 450.963 303.832 456.077Z" fill="white"/>
</g>
</g>
<path d="M116.044 483.919L117.914 457.116L130.896 449.621L123.469 479.631L116.044 483.919Z" fill="#C76668"/>
<path d="M116.044 483.919L108.619 479.631L108.762 451.833L117.913 457.116L116.044 483.919Z" fill="#B0494C"/>
<path d="M25.0707 431.406L26.9413 404.603L39.9226 397.108L32.4961 427.12L25.0707 431.406Z" fill="#C76668"/>
<path d="M25.0709 431.406L17.6455 427.12L17.7888 399.32L26.9415 404.603L25.0709 431.406Z" fill="#B0494C"/>
<path d="M241.476 411.505L239.605 386.862L226.624 394.356L234.051 415.793L241.476 411.505Z" fill="#C76668"/>
<path d="M234.05 415.793L226.625 411.506L217.472 389.076L226.625 394.359L234.05 415.793Z" fill="#B0494C"/>
<path d="M116.044 456.033L242.686 382.927V391.502L116.044 464.607V456.033Z" fill="#C76668"/>
<path d="M12.0824 404.586L116.044 464.607V456.033L12.0812 396.012L12.0824 404.586Z" fill="#B0494C"/>
<path d="M116.043 456.033L242.685 382.927L138.724 322.906L12.0819 396.011L116.043 456.033Z" fill="#B0494C"/>
<path d="M242.82 330.139V375.434C242.82 380.044 239.551 385.711 235.561 388.008L233.465 389.227C233.431 389.244 233.398 389.26 233.364 389.277C231.033 390.585 227.293 391.202 224.293 390.837L132.734 439.504C132.533 443.997 129.398 449.312 125.559 451.574C125.542 451.574 125.508 451.592 125.491 451.609L123.403 452.82C123.219 452.936 123.034 453.037 122.849 453.105C122.749 453.172 122.648 453.205 122.548 453.256C122.514 453.271 122.48 453.271 122.464 453.288C119.211 454.781 114.735 454.949 111.198 453.808C110.762 453.675 110.343 453.524 109.941 453.339C109.874 453.305 109.806 453.288 109.739 453.256C109.438 453.121 109.153 452.97 108.884 452.82L14.4483 398.301C10.4423 395.987 7.18936 390.337 7.18936 385.726L7.17236 287.606C7.17236 282.996 10.4423 277.346 14.4313 275.032L126.589 210.221C130.597 207.907 137.118 207.907 141.108 210.221L147.026 213.625C151.015 215.938 154.788 221.554 155.392 226.13L161.091 274.563L235.561 317.565C239.551 319.862 242.82 325.528 242.82 330.139Z" fill="#2B454E"/>
<path d="M147.026 213.632L141.115 210.218C137.106 207.904 130.605 207.904 126.597 210.218L14.4399 275.036C14.0135 275.282 13.5507 275.604 13.6941 275.502C10.3913 277.814 7.7093 282.342 7.25623 286.382C7.79312 282.677 10.8104 281.336 14.4314 283.414C13.9467 283.133 20.3518 286.831 20.3518 286.831C24.3602 289.146 30.8612 289.146 34.8697 286.831L147.026 222.014C151.036 219.699 151.036 215.947 147.026 213.632Z" fill="#375A64"/>
<path d="M242.821 330.138V375.434C242.821 380.044 239.552 385.71 235.562 388.007L233.465 389.227C233.431 389.244 233.398 389.259 233.364 389.276C231.033 390.585 227.883 391.12 224.864 390.886C222.702 390.735 220.607 390.166 218.946 389.227L151.753 350.416C147.763 348.119 144.494 342.453 144.494 337.843V292.547C144.494 287.936 147.746 282.27 151.753 279.974L161.092 274.563L235.562 317.565C239.552 319.862 242.821 325.527 242.821 330.138Z" fill="#1A2E35"/>
<path d="M161.095 274.567L151.746 279.97C147.753 282.276 147.753 286.047 151.746 288.353L218.947 327.151C222.939 329.456 226.206 335.114 226.206 339.724V385.028C226.206 389.639 229.472 391.526 233.465 389.22L235.555 388.008C239.548 385.702 242.814 380.044 242.814 375.433V330.131C242.814 325.52 239.548 319.862 235.555 317.557L161.095 274.567Z" fill="#375A64"/>
<path d="M226.206 339.724V385.028C226.206 389.639 229.473 391.524 233.465 389.22L235.556 388.007C239.548 385.702 242.816 380.044 242.816 375.433V330.13C242.816 327.825 241.998 325.257 240.683 322.978L224.075 332.573C225.39 334.852 226.206 337.418 226.206 339.724Z" fill="#2B454E"/>
<path d="M223.187 390.887C222.502 392.317 221.593 393.693 220.535 394.88C218.995 396.61 215.711 398.5 213.706 399.657C188.171 414.407 167.056 426.644 141.52 441.387C139.516 442.544 136.267 442.544 134.261 441.387L110.655 427.753L63.4279 400.493C59.4207 398.179 56.1689 392.781 56.1689 388.439C56.1689 384.097 59.4207 378.699 63.4279 376.385L90.2178 360.911L110.655 349.125L135.557 334.691C137.569 333.535 140.185 332.965 142.816 332.965C145.448 332.965 148.064 333.535 150.076 334.691L217.269 373.502C221.276 375.816 224.528 377.605 224.528 382.929C224.528 384.621 224.025 389.11 223.187 390.887Z" fill="#1A2E35"/>
<path d="M141.526 425.663L220.898 379.778C222.903 378.62 224.528 379.559 224.528 381.874V389.218C224.528 391.532 222.903 394.348 220.897 395.506L141.52 441.387C139.516 442.543 137.89 441.605 137.892 439.29L137.895 431.95C137.895 429.635 139.522 426.82 141.526 425.663Z" fill="#2B454E"/>
<path d="M134.727 309.054L63.4294 350.267C59.4197 352.581 56.1692 358.211 56.1704 362.84V367.723C56.1716 372.352 59.4209 377.982 63.4306 380.296L130.632 419.095C134.64 421.41 141.141 421.41 145.15 419.095L216.446 377.884C220.454 375.57 223.705 369.941 223.705 365.311V360.425C223.705 355.796 220.454 350.167 216.446 347.852L149.246 309.054C145.236 306.74 138.736 306.74 134.727 309.054Z" fill="#2B454E"/>
<path d="M137.897 399.172V420.835C135.264 420.835 132.632 420.248 130.638 419.092L63.4279 380.297C59.4207 377.984 56.1677 372.351 56.1677 367.724V362.842C56.1677 358.501 59.0356 353.286 62.6894 350.739C59.4377 353.069 59.6891 356.489 63.4279 358.652L130.638 397.445C132.649 398.603 135.264 399.172 137.897 399.172Z" fill="#1A2E35"/>
<path d="M145.149 397.444L216.445 356.232C220.454 353.917 220.454 350.165 216.445 347.85L149.245 309.052C145.236 306.738 138.736 306.738 134.726 309.052L63.429 350.265C59.4193 352.579 59.4193 356.332 63.429 358.647L130.632 397.444C134.64 399.759 141.141 399.759 145.149 397.444Z" fill="#375A64"/>
<path d="M96.9906 271.066C92.342 270.602 88.4939 275.961 80.7454 279.752C66.3064 286.817 59.8066 293.237 53.0821 301.074C46.3576 308.91 43.8153 307.587 41.7625 312.469C39.7084 317.351 45.3883 319.447 48.0958 326.376C52.6594 338.052 58.332 345.896 64.239 350.763C74.6671 359.353 73.0722 365.336 77.8168 365.281C82.8711 365.221 82.5067 360.884 90.4483 357.798C109.237 350.501 116.952 343.998 125.634 331.151C129.025 326.132 133.346 326.553 134.166 321.708C134.577 319.283 131.05 317.981 127.87 310.376C122.585 297.737 114.148 285.882 105.921 279.723C102.332 277.035 101.721 271.539 96.9906 271.066Z" fill="#9A0034"/>
<mask id="mask7_786_772" style="mask-type:luminance" maskUnits="userSpaceOnUse" x="41" y="271" width="94" height="95">
<path d="M41.3234 271.039H134.198V365.281H41.3234V271.039Z" fill="white"/>
</mask>
<g mask="url(#mask7_786_772)">
<g opacity="0.300003">
<path d="M96.9906 271.066C92.342 270.602 88.4939 275.961 80.7454 279.752C66.3064 286.817 59.8066 293.237 53.0821 301.074C46.3576 308.91 43.8153 307.587 41.7625 312.469C39.7084 317.351 45.3883 319.447 48.0958 326.376C52.6594 338.052 58.332 345.896 64.239 350.763C74.6671 359.353 73.0722 365.336 77.8168 365.281C82.8711 365.221 82.5067 360.884 90.4483 357.798C109.237 350.501 116.952 343.998 125.634 331.151C129.025 326.132 133.346 326.553 134.166 321.708C134.577 319.283 131.05 317.981 127.87 310.376C122.585 297.737 114.148 285.882 105.921 279.723C102.332 277.035 101.721 271.539 96.9906 271.066Z" fill="black"/>
</g>
</g>
<mask id="mask8_786_772" style="mask-type:luminance" maskUnits="userSpaceOnUse" x="44" y="313" width="36" height="51">
<path d="M44.8879 313.602H79.6802V363.028H44.8879V313.602Z" fill="white"/>
</mask>
<g mask="url(#mask8_786_772)">
<g opacity="0.199997">
<path d="M46.8727 320.607C50.8435 326.235 50.3175 331.847 58.4814 342.191C66.3222 352.125 71.9985 354.913 74.3501 359.374C76.3021 363.077 78.9671 364.809 79.6048 360.476C80.2413 356.144 76.8341 343.752 68.935 333.149C59.837 320.937 54.0308 316.265 50.1038 314.472C43.9453 311.663 43.751 316.184 46.8727 320.607Z" fill="black"/>
</g>
</g>
<mask id="mask9_786_772" style="mask-type:luminance" maskUnits="userSpaceOnUse" x="82" y="322" width="52" height="41">
<path d="M82.7502 322.846H133.868V362.961H82.7502V322.846Z" fill="white"/>
</mask>
<g mask="url(#mask9_786_772)">
<g opacity="0.199997">
<path d="M123.225 329.203C120.012 332.165 120.329 337.429 116.462 342.51C119.736 339.286 122.627 335.6 125.633 331.15C128.731 326.568 132.593 326.51 133.866 322.847C131.024 326.448 127.092 325.639 123.225 329.203ZM90.7621 353.024C85.5766 354.815 85.3531 359.41 82.7488 362.963C84.3412 361.445 86.2143 359.444 90.4487 357.799C99.0073 354.475 105.265 351.313 110.366 347.643C103.729 351.139 94.5264 351.725 90.7621 353.024Z" fill="black"/>
</g>
</g>
<mask id="mask10_786_772" style="mask-type:luminance" maskUnits="userSpaceOnUse" x="58" y="282" width="66" height="39">
<path d="M58.7212 282.099H123.779V320.056H58.7212V282.099Z" fill="white"/>
</mask>
<g mask="url(#mask10_786_772)">
<g opacity="0.300003">
<path d="M90.5237 282.256C79.4616 284.324 68.3946 290.027 60.787 298.54C59.3634 300.261 58.518 302.598 58.7633 304.958C59.0719 307.934 60.4311 310.378 63.231 311.962C65.8292 313.432 69.636 313.435 72.3533 313.087C78.0805 312.352 81.4549 310.855 88.8608 310.739C91.0448 310.705 94.2188 311.357 96.664 312.715C100.321 314.745 103.048 317.042 106.248 318.756C110.656 321.116 118.48 320.038 121.196 317.319C124.096 314.413 124.749 310.053 122.151 304.583C116.378 292.432 105.617 280.595 90.5237 282.256Z" fill="#9A0034"/>
</g>
</g>
<path d="M169.533 414.466C163.142 414.389 158.371 420.082 158.054 421.754C157.625 424.014 158.4 428.389 161.627 433.507C164.426 437.943 166.348 445.242 166.496 450.267C166.643 455.292 165.795 467.982 171.572 473.602C177.347 479.221 189.155 483.287 192.069 474.27C193.021 471.322 189.232 461.962 187.206 455.045C183.169 441.264 179.672 427.511 179.672 427.511L169.533 414.466Z" fill="#1A2E35"/>
<mask id="mask11_786_772" style="mask-type:luminance" maskUnits="userSpaceOnUse" x="159" y="414" width="34" height="59">
<path d="M159.842 414.466H192.188V472.508H159.842V414.466Z" fill="white"/>
</mask>
<g mask="url(#mask11_786_772)">
<g opacity="0.149994">
<path d="M159.842 419.015C160.118 423.696 164.276 434.423 171.828 443.987C179.231 453.364 189.583 465.487 192.188 472.508C191.95 469.165 189.809 463.252 188.11 457.963C188.073 457.848 188.035 457.731 187.999 457.616C187.9 457.307 187.804 457.004 187.711 456.701C187.667 456.561 187.622 456.421 187.58 456.283C187.459 455.89 187.342 455.502 187.23 455.122C187.222 455.097 187.214 455.071 187.207 455.045C185.946 450.738 184.736 446.435 183.671 442.552C182.818 439.446 182.056 436.61 181.433 434.259C181.121 433.083 180.844 432.028 180.607 431.121C180.488 430.668 180.38 430.251 180.282 429.875C179.891 428.37 179.672 427.511 179.672 427.511L169.533 414.466C169.103 414.462 168.705 414.496 168.303 414.526C164.65 414.903 161.639 417.074 159.842 419.015Z" fill="black"/>
</g>
</g>
<path d="M169.355 425.927C170.671 430.75 172.675 438.806 173.476 446.366C174.276 453.927 176.478 458.692 179.496 461.741C182.824 465.103 190.265 466.301 188.462 458.631C187.208 453.294 180.09 427.505 180.09 427.505L169.355 425.927Z" fill="#FF9A79"/>
<path d="M204.358 397.343L190.381 427.531L171.886 412.599L177.793 377.802L204.358 397.343Z" fill="#FF9A79"/>
<path d="M188.068 323.478C169.945 314.029 154.417 307.046 154.417 307.046L122.953 337.029L146.465 353.916L179.733 366.278C179.733 366.278 178.212 369.985 176.72 379.939C176.306 382.699 175.888 384.629 175.608 387.22C184.942 396.226 189.663 409.922 197.836 411.853C197.836 411.853 205.196 398.029 217.621 372.536C225.788 355.783 224.58 349.528 219.165 343.239C215.867 339.409 211.143 335.51 188.068 323.478Z" fill="#9A0034"/>
<mask id="mask12_786_772" style="mask-type:luminance" maskUnits="userSpaceOnUse" x="122" y="307" width="102" height="105">
<path d="M122.953 307.046H223.486V411.853H122.953V307.046Z" fill="white"/>
</mask>
<g mask="url(#mask12_786_772)">
<g opacity="0.5">
<path d="M188.068 323.478C169.945 314.029 154.417 307.046 154.417 307.046L122.953 337.029L146.465 353.916L179.733 366.278C179.733 366.278 178.212 369.985 176.72 379.939C176.306 382.699 175.888 384.629 175.608 387.22C184.942 396.226 189.663 409.922 197.836 411.853C197.836 411.853 205.196 398.029 217.621 372.536C225.788 355.783 224.58 349.528 219.165 343.239C215.867 339.409 211.143 335.51 188.068 323.478Z" fill="white"/>
</g>
</g>
<mask id="mask13_786_772" style="mask-type:luminance" maskUnits="userSpaceOnUse" x="143" y="327" width="35" height="39">
<path d="M143.299 327.413H177.229V365.346H143.299V327.413Z" fill="white"/>
</mask>
<g mask="url(#mask13_786_772)">
<g opacity="0.5">
<path d="M150.28 340.612C152.104 338.339 156.013 332.975 156.028 327.415C156.028 327.415 151.72 336.532 143.298 340.162L146.464 353.916L177.228 365.348C175.138 363.501 152.954 343.289 150.28 340.612Z" fill="#9A0034"/>
</g>
</g>
<mask id="mask14_786_772" style="mask-type:luminance" maskUnits="userSpaceOnUse" x="176" y="367" width="20" height="44">
<path d="M176.973 367.906H195.24V410.781H176.973V367.906Z" fill="white"/>
</mask>
<g mask="url(#mask14_786_772)">
<g opacity="0.5">
<path d="M192.018 397.576C191.954 397.317 191.888 397.058 191.824 396.802C191.238 394.468 190.671 392.246 190.138 390.203C190.121 390.134 190.104 390.07 190.087 390.003C189.823 388.998 189.57 388.04 189.329 387.14C189.321 387.114 189.313 387.083 189.307 387.058C188.685 384.744 188.133 382.793 187.706 381.432C186.303 376.964 182.274 371.563 179.192 367.906C179.192 367.908 179.191 367.911 179.191 367.913C179.063 368.342 178.917 368.864 178.758 369.481C178.741 369.544 178.724 369.616 178.707 369.682C178.645 369.927 178.581 370.183 178.514 370.458C178.49 370.556 178.466 370.661 178.443 370.761C178.379 371.029 178.314 371.308 178.248 371.602C178.223 371.714 178.197 371.829 178.17 371.945C178.102 372.257 178.032 372.586 177.96 372.927C177.937 373.041 177.913 373.153 177.889 373.271C177.808 373.661 177.727 374.071 177.644 374.5C177.629 374.583 177.613 374.661 177.597 374.746C177.393 375.819 177.183 377.005 176.973 378.316C177.004 378.397 177.026 378.486 177.064 378.563L183.499 393.743L186.852 401.65C187.174 402.109 187.493 402.561 187.813 403.005C187.903 403.129 187.991 403.251 188.08 403.373C188.98 404.616 189.875 405.789 190.776 406.862C190.883 406.989 190.99 407.121 191.098 407.246C191.221 407.387 191.344 407.519 191.466 407.655C192.674 408.945 193.918 410.015 195.239 410.779C194.293 406.816 193.29 402.687 192.309 398.75C192.311 398.75 192.311 398.751 192.312 398.751C192.212 398.354 192.116 397.969 192.018 397.576Z" fill="#9A0034"/>
</g>
</g>
<path d="M184.726 469.441C183.183 469.379 183.149 472.013 182.3 475.374C181.75 477.552 180.69 481.194 182.057 485.387C183.426 489.58 190.112 490.275 193.53 495.803C196.948 501.331 201.897 511.27 213.778 514.34C225.66 517.411 234.967 513.851 237.363 510.379C239.76 506.906 237.9 503.436 230.422 498.718C222.485 493.709 220.236 492.239 220.236 492.239L184.726 469.441Z" fill="#1A2E35"/>
<path d="M226.306 496.747C225.257 495.554 222.338 492.816 221.056 491.342C215.168 484.572 210.227 477.216 206.714 469.849C204.795 465.822 201.977 454.951 199.308 443.466C199.308 443.466 197.62 434.852 195.277 423.237L168.986 431.016C169.955 432.892 171.001 434.852 172.129 436.895C176.942 446.747 182.643 458.61 184.24 464.108C185.038 466.854 184.852 468.05 184.726 471.245C184.663 472.894 185.431 474.719 186.634 476.186C187.883 477.708 189.196 479.143 190.589 480.544C194.297 484.277 199.971 494.167 206.187 498.8C212.401 503.434 223.467 502.812 226.071 500.309C227.394 499.038 227.24 497.809 226.306 496.747Z" fill="#FFBEA7"/>
<path d="M181.779 376.988C173.939 364.998 161.885 355.711 143.293 339.794C143.293 339.794 138.462 319.831 140.328 307.589L76.6901 309.874C69.6899 324.488 71.0418 340.63 75.1779 349.425C80.6658 361.097 94.5727 370.308 112.028 379.042C128.36 387.214 146.516 396.641 150.651 398.57C154.278 400.261 155.311 401.261 156.563 408.871C157.752 416.104 162.431 425.386 175.369 445.32C183.508 446.612 195.196 441.434 198.596 436.206C193.073 409.326 185.673 382.942 181.779 376.988Z" fill="#9A0034"/>
<mask id="mask15_786_772" style="mask-type:luminance" maskUnits="userSpaceOnUse" x="71" y="307" width="128" height="139">
<path d="M71.7576 307.588H198.595V445.52H71.7576V307.588Z" fill="white"/>
</mask>
<g mask="url(#mask15_786_772)">
<g opacity="0.5">
<path d="M181.778 376.987C173.938 364.997 161.884 355.71 143.292 339.793C143.292 339.793 138.461 319.83 140.327 307.588L76.6892 309.873C69.6889 324.487 71.0409 340.629 75.1769 349.424C80.6648 361.096 94.5718 370.307 112.027 379.041C128.359 387.213 146.515 396.64 150.65 398.569C154.277 400.26 155.31 401.26 156.562 408.87C157.751 416.103 162.43 425.385 175.368 445.319C183.507 446.611 195.195 441.433 198.595 436.205C193.072 409.325 185.672 382.941 181.778 376.987Z" fill="white"/>
</g>
</g>
<mask id="mask16_786_772" style="mask-type:luminance" maskUnits="userSpaceOnUse" x="79" y="318" width="103" height="128">
<path d="M79.8325 318.576H181.734V445.402H79.8325V318.576Z" fill="white"/>
</mask>
<g mask="url(#mask16_786_772)">
<g opacity="0.5">
<path d="M181.734 445.206C176.162 436.771 165.79 420.262 163.53 411.028C162.776 407.937 162.267 405.511 161.858 403.562C160.534 397.25 160.219 395.751 155.998 393.289C154.675 392.516 151.539 390.161 146.486 387.55C132.058 380.097 104.77 366.286 96.0181 359.446C81.488 348.094 79.7753 336.642 81.8548 318.729L80.5466 318.577C78.461 336.535 80.2648 348.808 95.2055 360.485C104.054 367.4 130.399 380.724 145.881 388.721C150.917 391.322 154.041 393.671 155.335 394.426C159.051 396.594 159.281 397.698 160.569 403.832C160.979 405.791 161.491 408.229 162.252 411.339C164.539 420.69 174.58 436.776 180.272 445.402C180.756 445.354 181.244 445.283 181.734 445.206Z" fill="#9A0034"/>
</g>
</g>
<path d="M200.335 226.41C197.38 232.424 186.286 251.512 186.286 251.512C186.286 251.512 167.14 238.937 162.867 236.135C155.696 231.432 150.847 227.976 145.708 226.021C141.608 224.462 138.569 224.338 131.525 224.338L137.764 256.425C149.204 262.93 173.402 273.24 184.945 278.265C190.999 280.9 197.272 278.865 200.573 274.376C208.675 263.357 216.121 230.725 216.121 230.725L200.335 226.41Z" fill="#FFBEA7"/>
<path d="M186.285 251.512C183.947 255.716 184.256 262.098 184.256 262.098C184.256 262.098 181.62 256.379 184.157 250.114L186.285 251.512Z" fill="#FF9A79"/>
<path d="M197.961 231.216C201.576 224.569 203.338 219.598 201.129 214.261C198.919 208.925 197.044 206.497 196.972 205.118C196.9 203.739 198.872 196.924 198.983 193.954C199.096 190.983 200.348 190.722 202.126 188.925C204.262 186.764 213.63 179.987 214.041 180.762C214.041 180.762 216.078 183.373 213.889 186.374C212.483 188.302 207.532 192.219 207.532 192.219C207.532 192.219 210.244 193.648 211.498 194.209C212.754 194.769 212.9 195.589 212.917 199.115C212.917 199.115 214.579 199.141 215.24 200.155C215.902 201.168 215.971 202.514 216.028 203.614C216.028 203.614 217.101 203.662 217.914 204.437C218.728 205.212 218.952 208.084 218.807 210.651C219.722 213.601 220.559 216.288 220.752 219.297C220.949 222.371 219.662 224.157 218.212 226.164C217.239 227.506 215.281 232.943 214.479 235.031C214.479 235.031 194.657 237.291 197.961 231.216Z" fill="#FFBEA7"/>
<path d="M200.403 204.913C201.695 202.639 202.349 200.482 202.064 198.147C201.78 195.812 201.306 193.244 201.99 192.935C203.14 192.414 206.278 193.747 207.081 197.507C207.845 201.092 207.869 205.644 208.158 206.659C208.446 207.676 210.212 209.617 211.636 211.076C213.061 212.536 215.488 216.948 212.74 222.425C212.74 222.425 214.998 220.345 215.078 215.988C215.16 211.63 211.397 208.82 210.211 207.225C209.024 205.632 208.786 205.309 208.624 201.806C208.461 198.302 208.303 194.521 204.705 192.516C201.106 190.511 200.615 192.393 200.614 193.558C200.612 194.723 202.523 201.376 200.403 204.913Z" fill="#FF9A79"/>
<path d="M207.533 192.219L205.815 194.181L206.738 194.455C206.738 194.455 207.62 193.078 209.826 193.4L207.533 192.219Z" fill="#FF9A79"/>
<path d="M212.918 199.114C212.962 200.273 212.876 203.874 212.868 204.602C212.86 205.331 211.592 205.624 210.412 204.73C209.233 203.835 208.738 203.086 208.401 201.829C208.401 201.829 208.533 203.978 210.005 205.179C211.479 206.381 212.672 206.121 213.269 205.635C213.866 205.149 212.992 201.591 212.918 199.114Z" fill="#FF9A79"/>
<path d="M216.028 203.613C216.073 204.483 215.932 205.682 216.007 208.087C216.051 209.477 216.129 210.364 215.342 210.579C214.555 210.793 212.617 209.751 212.19 208.209C211.762 206.667 211.75 205.476 211.75 205.476L211.055 205.462C211.055 205.462 211.04 208.045 212.08 209.68C213.12 211.314 215.39 211.992 215.971 211.217C216.552 210.442 216.499 209.661 216.358 207.671C216.216 205.68 216.028 203.613 216.028 203.613Z" fill="#FF9A79"/>
<path d="M215.979 210.517C216.067 211.078 216.813 212.12 217.677 211.803C218.54 211.485 218.808 210.649 218.808 210.649C218.808 210.649 218.89 211.897 217.762 212.302C216.72 212.675 215.799 211.825 215.269 211.003L215.979 210.517Z" fill="#FF9A79"/>
<path d="M160.422 285.849C161.156 283.913 161.557 279.652 160.817 276.997C166.601 270.185 167.745 260.245 163.958 252.301C159.635 243.231 152.471 239.017 144.145 233.781C137.128 229.369 130.405 225.936 130.405 225.936H127.613C130.97 228.945 131.033 234.398 122.121 236.142C108.932 238.724 103.302 231.913 97.6447 226.439L85.7068 230.831C85.7068 230.831 96.7337 243.492 94.5849 257.326C92.4374 271.16 80.9476 271.442 80.9476 271.442C80.8019 276.692 82.0882 283.098 83.1632 287.45C84.0257 290.946 82.8195 293.949 81.5295 297.311C79.9589 301.401 79.2106 302.412 76.2019 309.162C71.9116 318.784 71.2423 327.149 71.2423 327.149C71.2423 327.149 78.3859 329.476 89.2427 326.37C104.312 340.394 133.669 340.787 152.051 332.71C170.432 324.633 166.889 312.181 166.889 312.181L160.422 285.849Z" fill="#9A0034"/>
<mask id="mask17_786_772" style="mask-type:luminance" maskUnits="userSpaceOnUse" x="71" y="225" width="97" height="114">
<path d="M71.2423 225.936H167.164V338.022H71.2423V225.936Z" fill="white"/>
</mask>
<g mask="url(#mask17_786_772)">
<g opacity="0.350006">
<path d="M160.422 285.849C161.156 283.913 161.557 279.652 160.817 276.997C166.601 270.185 167.745 260.245 163.958 252.301C159.635 243.231 152.471 239.017 144.145 233.781C137.128 229.369 130.405 225.936 130.405 225.936H127.613C130.97 228.945 131.033 234.398 122.121 236.142C108.932 238.724 103.302 231.913 97.6447 226.439L85.7068 230.831C85.7068 230.831 96.7337 243.492 94.5849 257.326C92.4374 271.16 80.9476 271.442 80.9476 271.442C80.8019 276.692 82.0882 283.098 83.1632 287.45C84.0257 290.946 82.8195 293.949 81.5295 297.311C79.9589 301.401 79.2106 302.412 76.2019 309.162C71.9116 318.784 71.2423 327.149 71.2423 327.149C71.2423 327.149 78.3859 329.476 89.2427 326.37C104.312 340.394 133.669 340.787 152.051 332.71C170.432 324.633 166.889 312.181 166.889 312.181L160.422 285.849Z" fill="black"/>
</g>
</g>
<mask id="mask18_786_772" style="mask-type:luminance" maskUnits="userSpaceOnUse" x="97" y="271" width="40" height="15">
<path d="M97.7909 271.898H136.663V285.873H97.7909V271.898Z" fill="white"/>
</mask>
<g mask="url(#mask18_786_772)">
<g opacity="0.199997">
<path d="M136.664 274.049C132.051 281.565 123.28 283.851 114.4 282.68C107.407 281.758 100.105 277.386 97.7924 271.898C98.6997 277.74 101.71 283.419 113.413 285.445C126.568 287.723 134.88 280.463 136.664 274.049Z" fill="black"/>
</g>
</g>
<path d="M88.359 160.669C84.9761 163.444 80.534 169.576 82.2212 177.238C79.34 178.448 75.855 183.772 76.9215 193.474C77.988 203.176 79.5307 223.488 91.1054 224.041C88.6347 219.789 90.0729 214.667 90.0729 214.667C90.0729 214.667 90.2721 221.56 100.111 223.734C104.845 224.778 111.928 224.308 118.471 223.023C124.953 221.75 130.015 216.471 130.708 209.901C131.066 206.502 132.147 203.086 132.827 201.776L125.507 197.926C128.221 195.114 130.937 192.302 133.652 189.49C135.426 187.652 139.143 186.318 140.916 182.373C141.953 180.067 141.932 177.396 141.042 175.702C141.042 175.702 145.318 172.479 139.435 162.472C133.51 152.395 107.631 144.863 88.359 160.669Z" fill="#E1E1E1"/>
<path d="M88.359 160.669C84.9761 163.444 80.534 169.576 82.2212 177.238C79.34 178.448 75.855 183.772 76.9215 193.474C77.988 203.176 79.5307 223.488 91.1054 224.041C88.6347 219.789 90.0729 214.667 90.0729 214.667C90.0729 214.667 90.2721 221.56 100.111 223.734C104.845 224.778 111.928 224.308 118.471 223.023C124.953 221.75 130.015 216.471 130.708 209.901C131.066 206.502 132.147 203.086 132.827 201.776L125.507 197.926C128.221 195.114 130.937 192.302 133.652 189.49C135.426 187.652 139.143 186.318 140.916 182.373C141.953 180.067 141.932 177.396 141.042 175.702C141.042 175.702 145.318 172.479 139.435 162.472C133.51 152.395 107.631 144.863 88.359 160.669Z" fill="#E1E1E1"/>
<path d="M88.359 160.669C84.9761 163.444 80.534 169.576 82.2212 177.238C79.34 178.448 75.855 183.772 76.9215 193.474C77.988 203.176 79.5307 223.488 91.1054 224.041C88.6347 219.789 90.0729 214.667 90.0729 214.667C90.0729 214.667 90.2721 221.56 100.111 223.734C104.845 224.778 111.928 224.308 118.471 223.023C124.953 221.75 130.015 216.471 130.708 209.901C131.066 206.502 132.147 203.086 132.827 201.776L125.507 197.926C128.221 195.114 130.937 192.302 133.652 189.49C135.426 187.652 139.143 186.318 140.916 182.373C141.953 180.067 141.932 177.396 141.042 175.702C141.042 175.702 145.318 172.479 139.435 162.472C133.51 152.395 107.631 144.863 88.359 160.669Z" fill="#E1E1E1"/>
<mask id="mask19_786_772" style="mask-type:luminance" maskUnits="userSpaceOnUse" x="79" y="199" width="54" height="26">
<path d="M79.5938 199.74H132.827V224.307H79.5938V199.74Z" fill="white"/>
</mask>
<g mask="url(#mask19_786_772)">
<g opacity="0.100006">
<path d="M91.1059 224.041C88.6353 219.789 90.0735 214.667 90.0735 214.667C90.0735 214.667 90.2727 221.56 100.112 223.734C104.845 224.778 111.928 224.308 118.472 223.023C124.953 221.749 130.016 216.471 130.708 209.901C131.067 206.502 132.148 203.086 132.828 201.776L128.956 199.74L94.9346 205.171L96.4117 212.704C96.4117 212.704 92.8794 213.807 89.3228 208.962C87.1351 211.725 85.9848 218.527 85.9848 218.527C85.9848 218.527 81.4553 215.895 79.5944 210.509C81.4929 217.605 84.8163 223.741 91.1059 224.041Z" fill="black"/>
</g>
</g>
<path d="M130.529 167.686C133.452 168.166 135.986 169.7 138.036 175.097C139.797 179.734 137.702 181.405 138.743 184.325C140.727 186.499 141.624 191.473 141.019 201.821C140.566 209.569 137.424 212.681 135.76 213.947C132.246 216.618 128.806 217.636 123.626 217.713C123.626 217.713 124.341 223.425 124.601 224.774C124.86 226.123 127.613 225.937 127.613 225.937C127.613 225.937 130.856 227.584 130.115 231.606C129.348 235.774 122.075 238.232 112.367 236.895C103.278 235.641 97.6454 226.44 97.6454 226.44C97.6454 226.44 100.14 225.677 99.8841 223.163C99.7092 221.452 97.9612 207.616 97.9612 207.616C97.9612 207.616 94.0487 210.842 89.5993 208.088C84.7673 205.096 83.2417 198.872 85.8217 194.862C87.7591 191.85 91.3206 190.049 94.5261 192.444C95.4274 193.117 96.1113 194.041 96.6834 195.009C96.998 195.541 97.2871 196.097 97.7122 196.546C98.1386 196.994 98.735 197.328 99.3496 197.272C100.031 197.21 100.592 196.686 100.929 196.093C101.75 194.642 102.117 192.847 102.86 191.316C103.603 189.786 104.376 188.241 104.672 186.549C105.356 182.635 104.374 178.63 106.613 174.972C109.841 169.7 117.55 168.022 121.795 172.045C124.279 168.27 127.161 167.134 130.529 167.686Z" fill="#FFBEA7"/>
<path d="M112.628 190.28C112.278 190.356 111.92 190.454 111.596 190.608C111.44 190.682 111.287 190.765 111.139 190.855C111.069 190.898 110.997 190.94 110.936 190.998C110.862 191.07 110.809 191.145 110.753 191.231C110.705 191.304 110.747 191.52 110.865 191.501C111.212 191.442 111.514 191.252 111.842 191.127C112.148 191.01 112.452 190.899 112.77 190.825C112.905 190.795 112.938 190.663 112.906 190.539C112.88 190.437 112.762 190.251 112.628 190.28ZM110.767 189.891C110.993 189.868 111.218 189.82 111.443 189.792C111.661 189.765 111.88 189.746 112.099 189.718C112.323 189.688 112.662 189.71 112.747 189.459C112.772 189.385 112.74 189.295 112.685 189.246C112.582 189.153 112.461 189.145 112.329 189.131C112.18 189.114 112.036 189.116 111.886 189.122C111.649 189.131 111.418 189.165 111.186 189.207C110.948 189.251 110.709 189.3 110.481 189.385C110.311 189.448 110.087 189.506 110.035 189.704C110.023 189.755 110.017 189.838 110.067 189.873C110.258 190.008 110.551 189.914 110.767 189.891ZM112.609 188.236C112.43 188.111 112.173 188.047 111.961 187.999C111.728 187.947 111.491 187.908 111.253 187.879C111.043 187.852 110.832 187.834 110.619 187.837C110.517 187.838 110.414 187.843 110.312 187.851C110.196 187.859 110.062 187.852 109.963 187.915C109.849 187.985 109.901 188.255 110.023 188.295C110.135 188.333 110.244 188.324 110.36 188.328C110.473 188.33 110.586 188.336 110.698 188.345C110.914 188.36 111.132 188.375 111.347 188.403C111.562 188.432 111.776 188.474 111.986 188.524C112.087 188.548 112.189 188.568 112.289 188.593C112.4 188.618 112.504 188.657 112.619 188.645C112.693 188.638 112.715 188.521 112.713 188.468C112.712 188.387 112.678 188.284 112.609 188.236Z" fill="#FF9A79"/>
<path d="M135.727 186.084C135.728 186.211 135.795 186.33 135.933 186.325C136.26 186.312 136.582 186.34 136.907 186.372C137.256 186.407 137.598 186.513 137.949 186.477C138.068 186.465 138.051 186.245 137.986 186.187C137.909 186.118 137.839 186.061 137.748 186.01C137.675 185.97 137.595 185.948 137.515 185.925C137.348 185.877 137.179 185.837 137.009 185.807C136.656 185.742 136.285 185.742 135.927 185.761C135.79 185.768 135.725 185.978 135.727 186.084ZM138.292 184.697C138.331 184.65 138.304 184.57 138.279 184.525C138.177 184.348 137.946 184.35 137.765 184.333C137.522 184.313 137.28 184.329 137.037 184.348C136.802 184.367 136.571 184.395 136.34 184.449C136.194 184.483 136.053 184.518 135.914 184.574C135.791 184.622 135.677 184.661 135.601 184.778C135.561 184.84 135.554 184.936 135.597 185C135.746 185.221 136.065 185.111 136.291 185.079C136.509 185.049 136.725 185.01 136.942 184.98C137.168 184.947 137.397 184.935 137.621 184.898C137.836 184.863 138.144 184.878 138.292 184.697ZM135.369 184.035C135.382 184.086 135.435 184.192 135.508 184.182C135.621 184.163 135.712 184.098 135.812 184.043C135.903 183.994 135.996 183.947 136.087 183.899C136.277 183.794 136.472 183.698 136.672 183.614C136.872 183.53 137.077 183.459 137.283 183.387C137.388 183.351 137.496 183.315 137.604 183.283C137.715 183.249 137.823 183.228 137.921 183.162C138.028 183.092 138.008 182.819 137.879 182.78C137.767 182.746 137.64 182.787 137.527 182.81C137.425 182.83 137.325 182.851 137.225 182.877C137.02 182.928 136.821 183.003 136.624 183.082C136.402 183.173 136.184 183.273 135.972 183.386C135.781 183.487 135.549 183.615 135.411 183.783C135.356 183.849 135.35 183.956 135.369 184.035Z" fill="#FF9A79"/>
<path d="M123.088 197.968C122.858 198.319 122.761 198.771 122.574 199.147C122.367 199.561 122.149 199.965 121.877 200.34C121.323 201.104 120.63 201.775 119.854 202.31C118.977 202.916 117.99 203.339 116.97 203.639C115.874 203.963 114.667 204.171 113.524 204.191C113.501 204.233 113.524 204.288 113.562 204.318C113.598 204.347 113.647 204.358 113.694 204.368C114.901 204.616 116.136 204.639 117.319 204.299C117.494 204.249 117.659 204.166 117.832 204.107C117.852 204.472 117.914 204.845 117.976 205.178C118.083 205.759 118.239 206.327 118.464 206.873C118.901 207.922 119.529 209.068 120.453 209.761C120.474 209.778 120.487 209.728 120.477 209.715C119.842 208.809 119.224 207.945 118.856 206.888C118.673 206.366 118.534 205.819 118.452 205.273C118.384 204.816 118.394 204.361 118.367 203.905C119.04 203.631 119.695 203.311 120.283 202.891C121.052 202.343 121.73 201.666 122.245 200.873C122.766 200.072 123.29 198.998 123.179 198.014C123.174 197.969 123.125 197.911 123.088 197.968Z" fill="#FF9A79"/>
<path d="M128.395 173.957L133.742 177.491C132.858 179.073 130.806 179.41 129.329 178.433C127.853 177.458 127.511 175.54 128.395 173.957Z" fill="#E1E1E1"/>
<mask id="mask20_786_772" style="mask-type:luminance" maskUnits="userSpaceOnUse" x="127" y="173" width="7" height="6">
<path d="M127.914 173.958H133.743V178.981H127.914V173.958Z" fill="white"/>
</mask>
<g mask="url(#mask20_786_772)">
<g opacity="0.199997">
<path d="M128.395 173.957L133.742 177.491C132.858 179.073 130.806 179.41 129.329 178.433C127.853 177.458 127.511 175.54 128.395 173.957Z" fill="black"/>
</g>
</g>
<path d="M116.304 178.21L111.224 182.117C112.219 183.633 114.29 183.821 115.693 182.742C117.095 181.662 117.3 179.726 116.304 178.21Z" fill="#E1E1E1"/>
<mask id="mask21_786_772" style="mask-type:luminance" maskUnits="userSpaceOnUse" x="111" y="178" width="6" height="6">
<path d="M111.224 178.21H116.924V183.427H111.224V178.21Z" fill="white"/>
</mask>
<g mask="url(#mask21_786_772)">
<g opacity="0.199997">
<path d="M116.305 178.212L111.225 182.119C112.22 183.635 114.291 183.823 115.694 182.744C117.096 181.664 117.301 179.728 116.305 178.212Z" fill="black"/>
</g>
</g>
<path d="M123.626 217.713C118.205 217.987 106.22 215.554 103.682 211.397C103.682 211.397 104.036 214.044 108.072 216.64C111.798 219.035 123.868 219.607 123.868 219.607L123.626 217.713Z" fill="#FF9A79"/>
<path d="M123.84 184.666L125.933 198.4L133.314 194.829C130.016 189.616 126.822 185.752 123.84 184.666Z" fill="#FF9A79"/>
<path d="M125.772 203.274C125.879 203.991 125.296 204.751 124.472 204.975C123.646 205.197 122.892 204.796 122.786 204.08C122.679 203.364 123.261 202.603 124.086 202.38C124.911 202.158 125.665 202.559 125.772 203.274Z" fill="#C76668"/>
<path d="M118.881 188.515C118.922 189.684 118.008 190.666 116.84 190.708C115.671 190.75 114.689 189.835 114.647 188.667C114.605 187.498 115.52 186.517 116.688 186.474C117.857 186.432 118.838 187.347 118.881 188.515Z" fill="#1A2E35"/>
<path d="M134.52 185.833C134.563 187.002 133.648 187.985 132.48 188.026C131.311 188.068 130.328 187.155 130.287 185.985C130.245 184.817 131.159 183.835 132.328 183.793C133.496 183.751 134.478 184.665 134.52 185.833Z" fill="#1A2E35"/>
<path d="M126.249 205.611C126.157 205.651 126.076 205.671 125.989 205.72C125.914 205.764 125.84 205.805 125.764 205.85C125.634 205.928 125.497 205.995 125.355 206.049C125.016 206.179 124.643 206.206 124.284 206.223C124.022 206.234 123.759 206.244 123.499 206.206C123.326 206.182 123.149 206.164 122.985 206.102C122.867 206.057 122.764 205.985 122.647 205.938C122.541 205.894 122.531 206.099 122.565 206.153C122.752 206.454 123.16 206.675 123.492 206.761C123.849 206.855 124.22 206.878 124.587 206.857C124.971 206.835 125.333 206.755 125.67 206.563C125.824 206.476 125.954 206.371 126.078 206.245C126.226 206.092 126.262 205.93 126.322 205.736C126.334 205.697 126.313 205.583 126.249 205.611Z" fill="#FF9A79"/>
<path d="M135.339 222.025C134.262 220.48 131.994 220.988 131.994 220.988C131.994 220.988 131.898 218.486 129.987 217.317C128.998 216.718 127.142 217.322 127.142 217.322C127.306 215.923 125.718 213.371 124.104 213.497C122.491 213.622 119.848 215.043 119.848 215.043C119.848 215.043 118.783 216.01 117.222 219.933L118.123 214.733C118.123 214.733 122.209 212.151 123.564 210.84C125.51 208.958 124.618 206.438 123.678 206.586C123.236 206.657 120.731 207.627 117.822 209.086C115.418 210.291 112.209 211.275 111.834 213.121C111.458 214.968 111.089 217.161 110.439 221.339C109.789 225.516 109.642 226.758 110.51 228.752C111.378 230.745 112.629 234.831 114.876 239.824C117.124 244.816 116.474 246.315 115.101 249.935C114.171 252.39 107.564 264.836 100.359 277.196L95.4986 256.744C95.4986 256.744 95.9237 236.098 85.707 230.834C75.8316 233.179 70.8659 239.926 70.2987 246.333C69.3002 257.602 76.0101 283.547 81.4653 298.284C86.9217 313.021 94.5888 316.858 99.3868 316.4C104.186 315.942 114.968 306.914 119.749 293.734C123.838 284.448 129.973 256.1 130.915 252.115C131.858 248.13 132.754 245.872 133.999 243.34C135.02 241.262 134.367 234.705 133.238 231.045C133.929 232.106 135.414 232.648 136.17 231.621C135.856 229.736 135.891 223.223 135.339 222.025Z" fill="#FFBEA7"/>
<path d="M115.101 249.934C115.558 248.688 116.079 247.446 116.263 246.125C116.456 244.802 116.207 243.461 115.787 242.206C114.884 239.707 113.654 237.328 112.743 234.823C111.816 232.319 110.832 229.866 109.954 227.329C109.558 224.633 110.306 222.001 110.659 219.376L111.314 215.433C111.632 214.206 111.417 212.61 112.61 211.677C113.658 210.783 114.917 210.271 116.119 209.71L119.721 207.988C120.939 207.434 122.147 206.887 123.438 206.459C124.384 206.18 124.814 207.256 124.878 207.852C124.973 208.556 124.838 209.282 124.51 209.901C123.823 211.168 122.607 211.875 121.564 212.681C120.476 213.458 119.367 214.199 118.244 214.922L118.345 214.771L117.436 219.969L117.022 219.852C117.372 218.986 117.745 218.129 118.171 217.294C118.613 216.46 119.033 215.641 119.715 214.897L119.728 214.883L119.755 214.87C120.498 214.483 121.253 214.142 122.035 213.846C122.826 213.582 123.605 213.249 124.532 213.348C125.438 213.539 126.076 214.217 126.545 214.911C126.998 215.623 127.369 216.432 127.303 217.34L127.093 217.168C127.693 216.992 128.301 216.885 128.933 216.898C129.573 216.874 130.218 217.202 130.653 217.639C131.579 218.51 132.029 219.749 132.131 220.982L131.965 220.856C133.182 220.63 134.663 220.837 135.44 221.954L135.45 221.968L135.451 221.973C135.908 223.593 135.846 225.194 135.961 226.804C136.045 228.407 136.06 230.025 136.258 231.607L136.261 231.643L136.241 231.675C135.884 232.207 135.149 232.372 134.579 232.17C133.996 231.991 133.504 231.588 133.174 231.087L133.311 231.022C133.826 232.773 134.143 234.572 134.346 236.378C134.541 238.184 134.648 240.014 134.431 241.826C134.355 242.749 133.927 243.581 133.529 244.389C133.146 245.211 132.787 246.046 132.47 246.897C131.829 248.597 131.342 250.349 130.915 252.114C131.328 250.347 131.805 248.589 132.435 246.884C132.746 246.03 133.098 245.192 133.477 244.365C133.872 243.546 134.286 242.732 134.355 241.816C134.558 240.016 134.438 238.19 134.232 236.391C134.017 234.592 133.687 232.801 133.164 231.067L133.016 230.573L133.302 231.003C133.617 231.473 134.088 231.85 134.625 232.012C135.158 232.189 135.781 232.04 136.096 231.569L136.081 231.636C135.868 230.025 135.845 228.419 135.75 226.814C135.631 225.23 135.654 223.557 135.228 222.076L135.237 222.095C134.549 221.098 133.165 220.903 132.024 221.122L131.871 221.151L131.858 220.993C131.757 219.838 131.309 218.646 130.45 217.858C130.019 217.448 129.521 217.192 128.925 217.21C128.346 217.199 127.749 217.307 127.192 217.475L126.964 217.544L126.981 217.301C127.037 216.545 126.694 215.755 126.261 215.1C125.823 214.449 125.205 213.843 124.469 213.7C123.741 213.618 122.916 213.931 122.167 214.197C121.408 214.491 120.661 214.837 119.941 215.216L119.98 215.189C119.409 215.823 118.953 216.672 118.54 217.48C118.127 218.302 117.765 219.154 117.424 220.013L116.656 221.946L117.008 219.895L117.904 214.695L117.92 214.597L118.005 214.543C119.124 213.833 120.236 213.102 121.319 212.338C122.368 211.551 123.562 210.834 124.162 209.721C124.461 209.168 124.582 208.52 124.504 207.906C124.44 207.33 124.069 206.583 123.539 206.809C122.298 207.21 121.069 207.753 119.862 208.293C117.536 209.533 114.874 210.334 112.796 211.887C111.703 212.69 111.89 214.217 111.561 215.481L110.879 219.414C110.506 222.025 109.748 224.682 110.119 227.295C110.961 229.78 111.944 232.292 112.847 234.783C113.74 237.294 114.95 239.672 115.84 242.188C116.252 243.451 116.495 244.802 116.289 246.128C116.097 247.454 115.567 248.691 115.101 249.934Z" fill="#FF9A79"/>
<path d="M127.263 217.486C127.305 217.131 127.112 216.539 126.956 216.098C125.795 216.83 124.211 217.513 123.277 218.214C122.023 219.153 121.86 220.596 121.86 220.596C122.232 219.846 123.531 218.621 127.263 217.486Z" fill="#FF9A79"/>
<path d="M127.877 223.494C128.58 222.678 130.142 221.563 132.031 221.149C132.031 221.149 131.965 220.481 131.776 219.828C128.315 221.483 127.877 223.494 127.877 223.494Z" fill="#FF9A79"/>
<path d="M133.374 232.032C132.795 229.775 132.214 228.078 131.723 227.159C131.237 226.248 131.016 225.73 132.149 225.523C133.283 225.315 134.398 223.527 134.398 224.545C134.398 225.077 132.696 226.502 132.799 227.24C132.952 228.32 133.371 229.825 133.374 232.032Z" fill="#FF9A79"/>
<path d="M100.359 277.194C98.2914 280.374 91.1114 290.512 92.0831 298.271C92.0831 298.271 89.05 293.176 92.5532 285.373C96.0551 277.57 99.2388 272.479 99.2388 272.479L100.359 277.194Z" fill="#FF9A79"/>
<path d="M182.151 140.638C182.151 140.638 182.423 145.39 182.57 147.626C182.818 151.337 183.029 154.535 182.999 156.975C182.68 156.572 182.375 156.15 182.104 155.723C181.058 154.056 180.152 153.318 179.578 152.986C178.833 152.556 178.141 152.551 177.563 152.893C176.629 153.448 173.143 155.42 172.556 155.776C171.563 156.378 170.907 158.007 170.906 160.282C170.897 163.885 172.565 167.78 174.604 168.959C175.178 169.29 176.078 169.584 177.132 169.141C178.443 168.568 180.47 168.806 181.854 171.373C183.337 174.116 182.942 178.573 182.39 184.712C182.185 187.085 181.941 189.764 181.778 192.644C183.391 193.569 184.921 194.495 186.395 195.384C191.853 198.659 196.197 201.271 197.733 200.395C197.783 200.367 202.849 197.427 202.849 197.427C203.94 196.532 203.309 193.828 202.434 191.796C201.609 189.854 201.404 188.458 201.387 187.564C201.538 187.638 201.683 187.689 201.839 187.779C204.844 189.509 207.281 193.442 207.281 196.543C207.288 197.419 207.1 198.671 206.216 199.728C205.352 200.758 204.71 202.72 205.805 204.874C207.208 207.648 210.734 209.591 216.079 212.557C217.477 213.342 219.034 214.201 220.72 215.169L225.695 212.296L225.823 210.133C226.305 201.23 226.645 194.783 224.93 191.61C223.793 189.498 222.032 189.32 220.878 189.821C219.724 190.321 218.693 189.971 218.034 189.606C215.714 188.258 213.819 183.913 213.817 179.918C213.818 179.439 213.848 178.991 213.901 178.569C214.473 179.068 215.167 179.839 215.917 181.027C217.025 182.806 218.723 184.604 219.855 183.966C219.887 183.948 223.835 181.65 224.827 181.095C224.861 181.076 224.893 181.056 224.925 181.033C226.865 179.681 226.576 169.616 226.119 160.178C224.491 159.227 222.95 158.309 221.483 157.432C216.321 154.323 212.202 151.835 210.668 152.699C210.615 152.729 206.514 155.088 205.675 155.581C205.627 155.609 205.584 155.64 205.542 155.674C204.45 156.57 205.082 159.273 205.957 161.305C206.784 163.253 206.988 164.651 207.005 165.545C206.855 165.472 206.711 165.423 206.559 165.335C203.554 163.604 201.11 159.659 201.11 156.558C201.11 155.695 201.291 154.43 202.181 153.385C203.045 152.356 203.68 150.381 202.586 148.226C201.234 145.541 197.675 143.6 192.266 140.636C190.728 139.782 187.126 137.766 187.126 137.766L182.151 140.638Z" fill="#9A0034"/>
<mask id="mask22_786_772" style="mask-type:luminance" maskUnits="userSpaceOnUse" x="170" y="137" width="57" height="79">
<path d="M170.905 137.766H226.454V215.168H170.905V137.766Z" fill="white"/>
</mask>
<g mask="url(#mask22_786_772)">
<g opacity="0.199997">
<path d="M182.15 140.638C182.15 140.638 182.422 145.39 182.569 147.626C182.817 151.337 183.028 154.535 182.998 156.975C182.679 156.572 182.374 156.15 182.103 155.723C181.057 154.056 180.151 153.318 179.577 152.986C178.832 152.556 178.14 152.551 177.562 152.893C176.628 153.448 173.142 155.42 172.555 155.776C171.562 156.378 170.906 158.007 170.905 160.282C170.896 163.885 172.564 167.78 174.603 168.959C175.177 169.29 176.077 169.584 177.131 169.141C178.442 168.568 180.469 168.806 181.853 171.373C183.336 174.116 182.941 178.573 182.389 184.712C182.184 187.085 181.94 189.764 181.777 192.644C183.39 193.569 184.92 194.495 186.394 195.384C191.852 198.659 196.196 201.271 197.732 200.395C197.782 200.367 202.848 197.427 202.848 197.427C203.939 196.532 203.308 193.828 202.433 191.796C201.608 189.854 201.403 188.458 201.386 187.564C201.537 187.638 201.682 187.689 201.838 187.779C204.843 189.509 207.28 193.442 207.28 196.543C207.287 197.419 207.099 198.671 206.215 199.728C205.351 200.758 204.709 202.72 205.804 204.874C207.207 207.648 210.733 209.591 216.078 212.557C217.476 213.342 219.033 214.201 220.719 215.169L225.694 212.296L225.822 210.133C226.304 201.23 226.644 194.783 224.929 191.61C223.792 189.498 222.031 189.32 220.877 189.821C219.723 190.321 218.692 189.971 218.033 189.606C215.713 188.258 213.818 183.913 213.816 179.918C213.817 179.439 213.847 178.991 213.9 178.569C214.472 179.068 215.167 179.839 215.916 181.027C217.024 182.806 218.722 184.604 219.854 183.966C219.886 183.948 223.835 181.65 224.826 181.095C224.86 181.076 224.893 181.056 224.924 181.033C226.864 179.681 226.575 169.616 226.118 160.178C224.49 159.227 222.949 158.309 221.482 157.432C216.32 154.323 212.201 151.835 210.667 152.699C210.614 152.729 206.513 155.088 205.674 155.581C205.626 155.609 205.583 155.64 205.541 155.674C204.449 156.57 205.081 159.273 205.956 161.305C206.783 163.253 206.987 164.651 207.004 165.545C206.854 165.472 206.71 165.423 206.558 165.335C203.553 163.604 201.109 159.659 201.109 156.558C201.109 155.695 201.29 154.43 202.18 153.385C203.044 152.356 203.679 150.381 202.585 148.226C201.233 145.541 197.674 143.6 192.265 140.636C190.727 139.782 187.125 137.766 187.125 137.766L182.15 140.638Z" fill="black"/>
</g>
</g>
<path d="M182.151 140.638C184.011 141.705 185.753 142.655 187.29 143.509C192.699 146.471 196.258 148.413 197.61 151.099C198.705 153.253 198.071 155.228 197.206 156.258C196.316 157.303 196.135 158.568 196.135 159.429C196.135 162.532 198.579 166.477 201.584 168.208C204.571 169.933 207.013 168.821 207.013 165.72C207.018 164.838 206.834 163.369 205.957 161.305C205.082 159.273 204.45 156.57 205.542 155.674C206.94 154.534 211.166 157.086 216.507 160.305C217.975 161.182 219.516 162.099 221.144 163.05C221.6 172.489 221.89 182.553 219.951 183.905C218.821 184.707 217.056 182.856 215.917 181.027C214.751 179.179 213.716 178.334 213.07 177.961C210.736 176.621 208.846 178.775 208.843 182.789C208.844 186.785 210.739 191.13 213.059 192.477C213.718 192.843 214.75 193.193 215.902 192.692C217.056 192.193 218.818 192.371 219.955 194.483C221.67 197.656 221.33 204.103 220.847 213.006L220.72 215.169C219.034 214.201 217.477 213.342 216.079 212.557C210.734 209.591 207.208 207.648 205.805 204.874C204.71 202.72 205.352 200.758 206.216 199.728C207.1 198.671 207.288 197.419 207.281 196.543C207.281 193.442 204.844 189.509 201.839 187.779C198.846 186.041 196.403 187.152 196.402 190.253C196.397 191.135 196.582 192.604 197.459 194.669C198.333 196.701 198.965 199.404 197.874 200.3C196.475 201.438 192.029 198.765 186.395 195.384C184.921 194.495 183.391 193.569 181.778 192.644C181.941 189.764 182.185 187.085 182.39 184.712C182.942 178.573 183.337 174.116 181.854 171.373C180.47 168.806 178.443 168.568 177.132 169.141C176.078 169.584 175.178 169.29 174.604 168.959C172.565 167.78 170.897 163.885 170.906 160.282C170.907 156.666 172.564 154.681 174.603 155.858C175.176 156.19 176.084 156.927 177.13 158.595C178.444 160.672 180.469 162.77 181.858 161.819C183.44 160.707 183.078 155.227 182.57 147.626C182.423 145.39 182.273 143.088 182.151 140.638Z" fill="#9A0034"/>
<mask id="mask23_786_772" style="mask-type:luminance" maskUnits="userSpaceOnUse" x="170" y="140" width="52" height="76">
<path d="M170.905 140.637H221.48V215.168H170.905V140.637Z" fill="white"/>
</mask>
<g mask="url(#mask23_786_772)">
<g opacity="0.5">
<path d="M182.15 140.638C184.01 141.705 185.752 142.655 187.289 143.509C192.698 146.471 196.258 148.413 197.609 151.099C198.704 153.253 198.07 155.228 197.205 156.258C196.315 157.303 196.134 158.568 196.134 159.429C196.134 162.532 198.578 166.477 201.583 168.208C204.57 169.933 207.012 168.821 207.012 165.72C207.017 164.838 206.833 163.369 205.956 161.305C205.081 159.273 204.449 156.57 205.541 155.674C206.939 154.534 211.165 157.086 216.506 160.305C217.974 161.182 219.515 162.099 221.143 163.05C221.599 172.489 221.889 182.553 219.95 183.905C218.82 184.707 217.055 182.856 215.916 181.027C214.75 179.179 213.715 178.334 213.069 177.961C210.735 176.621 208.845 178.775 208.842 182.789C208.843 186.785 210.738 191.13 213.058 192.477C213.717 192.843 214.749 193.193 215.901 192.692C217.055 192.193 218.817 192.371 219.954 194.483C221.669 197.656 221.329 204.103 220.846 213.006L220.719 215.169C219.033 214.201 217.476 213.342 216.078 212.557C210.733 209.591 207.207 207.648 205.804 204.874C204.709 202.72 205.351 200.758 206.215 199.728C207.099 198.671 207.287 197.419 207.28 196.543C207.28 193.442 204.843 189.509 201.838 187.779C198.845 186.041 196.402 187.152 196.401 190.253C196.396 191.135 196.581 192.604 197.458 194.669C198.332 196.701 198.964 199.404 197.873 200.3C196.474 201.438 192.028 198.765 186.394 195.384C184.92 194.495 183.39 193.569 181.777 192.644C181.94 189.764 182.184 187.085 182.389 184.712C182.941 178.573 183.336 174.116 181.853 171.373C180.469 168.806 178.442 168.568 177.131 169.141C176.077 169.584 175.177 169.29 174.603 168.959C172.564 167.78 170.896 163.885 170.905 160.282C170.906 156.666 172.563 154.681 174.602 155.858C175.175 156.19 176.083 156.927 177.129 158.595C178.443 160.672 180.468 162.77 181.857 161.819C183.439 160.707 183.077 155.227 182.569 147.626C182.422 145.39 182.272 143.088 182.15 140.638Z" fill="white"/>
</g>
</g>
<path d="M211.636 211.076C210.211 209.617 208.446 207.676 208.157 206.659C207.869 205.643 207.845 201.091 207.08 197.507C206.278 193.747 203.139 192.412 201.99 192.933C201.306 193.244 201.78 195.811 202.063 198.146C202.347 200.482 201.695 202.638 200.403 204.913L212.74 222.425C215.488 216.948 213.061 212.535 211.636 211.076Z" fill="#FFBEA7"/>
<path d="M200.403 204.913C201.253 203.155 201.91 201.267 201.833 199.359C201.823 198.421 201.61 197.469 201.468 196.492C201.335 195.507 201.128 194.571 201.226 193.445C201.247 193.299 201.281 193.141 201.355 192.965C201.397 192.875 201.465 192.773 201.537 192.686C201.627 192.602 201.793 192.482 201.854 192.474C202.191 192.332 202.503 192.327 202.799 192.338C203.391 192.378 203.912 192.579 204.393 192.83C205.351 193.342 206.143 194.117 206.703 195.023C207.276 195.914 207.592 196.987 207.768 197.961C207.958 198.944 208.093 199.929 208.205 200.912C208.308 201.895 208.379 202.879 208.45 203.856L208.559 205.314C208.602 205.776 208.642 206.314 208.744 206.608C209.041 207.335 209.694 208.134 210.294 208.856C210.923 209.604 211.558 210.271 212.242 211.058C213.519 212.709 214.183 214.714 214.262 216.732C214.295 218.754 213.73 220.733 212.74 222.425C213.486 220.614 213.898 218.671 213.674 216.772C213.492 214.888 212.744 213.04 211.538 211.657C210.894 211.006 210.144 210.286 209.498 209.547C208.843 208.78 208.173 208.085 207.679 207.013C207.456 206.38 207.467 205.922 207.403 205.417L207.279 203.946C207.2 202.972 207.116 202.002 207.009 201.04C206.91 200.077 206.787 199.119 206.614 198.178C206.453 197.229 206.193 196.394 205.734 195.614C205.292 194.844 204.648 194.186 203.891 193.753C203.517 193.537 203.103 193.382 202.715 193.338C202.528 193.317 202.336 193.321 202.215 193.366C202.254 193.295 202.17 193.382 202.134 193.595C202.008 194.421 202.134 195.443 202.219 196.397C202.299 197.362 202.474 198.344 202.42 199.369C202.294 201.402 201.485 203.287 200.403 204.913Z" fill="#FF9A79"/>
<path d="M116.141 448.633V403.33C116.141 398.719 112.874 393.061 108.882 390.756L34.4213 347.766L28.7184 299.331C28.1086 294.761 24.3443 289.135 20.3516 286.831L14.4398 283.418C10.4471 281.112 7.18079 282.999 7.18079 287.608V385.726C7.18079 390.336 10.4483 395.994 14.441 398.299L108.882 452.825C112.874 455.129 116.141 453.244 116.141 448.633Z" fill="#1A2E35"/>
<path d="M132.751 393.722V439.035C132.751 439.185 132.751 439.353 132.734 439.503C132.534 443.997 129.399 449.311 125.559 451.574C125.542 451.574 125.509 451.591 125.492 451.608L123.403 452.819C123.218 452.937 123.035 453.036 122.85 453.104C122.749 453.171 122.648 453.204 122.548 453.255C122.515 453.271 122.481 453.271 122.464 453.288C122.263 453.372 122.062 453.457 121.877 453.506C118.692 454.764 114.534 454.864 111.198 453.808C110.762 453.674 110.343 453.523 109.94 453.339C113.428 454.781 116.127 452.819 116.144 448.644V448.628V403.333C116.144 398.722 112.874 393.055 108.885 390.759L95.708 383.148L34.4149 347.774L43.7801 342.355C47.7704 340.057 54.309 340.057 58.2993 342.355L112.332 373.553L125.492 381.149C129.499 383.461 132.751 389.112 132.751 393.722Z" fill="#375A64"/>
<path d="M116.143 403.333V448.628V448.645C116.126 452.819 113.427 454.781 109.94 453.339C110.343 453.523 110.762 453.674 111.198 453.808C114.534 454.864 118.692 454.764 121.877 453.506C122.061 453.457 122.263 453.373 122.463 453.289C122.48 453.272 122.514 453.272 122.548 453.255C122.648 453.205 122.749 453.171 122.85 453.104C123.034 453.037 123.219 452.937 123.402 452.819L125.492 451.608C125.509 451.591 125.543 451.574 125.56 451.574C129.398 449.311 132.533 443.997 132.735 439.503C132.75 439.353 132.75 439.185 132.75 439.035V393.722C132.75 391.418 131.938 388.853 130.625 386.576L114.01 396.178C115.326 398.458 116.143 401.027 116.143 403.333Z" fill="#2B454E"/>
<path d="M157.196 95.0355C155.73 103.755 150.992 111.112 144.467 116.108L141.289 118.249C134.694 122.184 126.731 123.905 118.585 122.537C100.356 119.471 88.0177 102.154 91.0835 83.9248C92.4525 75.7803 96.6845 68.8092 102.553 63.8703L105.625 61.5721C112.472 57.0268 120.977 54.9582 129.695 56.4243C147.924 59.4901 160.262 76.8067 157.196 95.0355ZM130.165 53.622C110.391 50.2974 91.5937 63.6844 88.2813 83.4559C85.2992 101.196 95.7722 118.133 112.231 123.826L114.51 134.891C114.9 136.781 117.409 137.202 118.395 135.544L124.167 125.831C141.585 125.827 157.015 113.242 159.993 95.5117C163.318 75.7378 149.938 56.9466 130.165 53.622Z" fill="#E1E1E1"/>
<path d="M157.197 95.0341C155.73 103.753 150.992 111.11 144.467 116.106L141.289 118.248C134.695 122.182 126.731 123.904 118.585 122.536C100.357 119.47 88.0178 102.152 91.0837 83.9234C92.4526 75.7789 96.6846 68.8078 102.553 63.8689L105.625 61.5707C112.472 57.0254 120.977 54.9568 129.695 56.4229C147.924 59.4888 160.262 76.8053 157.197 95.0341Z" fill="white"/>
<path d="M117.163 108.401C117.163 107.667 117.299 106.969 117.571 106.306C117.843 105.644 118.216 105.075 118.69 104.601C119.162 104.128 119.731 103.749 120.394 103.464C121.057 103.18 121.768 103.038 122.526 103.038C123.284 103.038 123.986 103.18 124.638 103.464C125.289 103.749 125.858 104.128 126.344 104.601C126.828 105.075 127.212 105.644 127.496 106.306C127.781 106.969 127.923 107.667 127.923 108.401C127.923 109.159 127.781 109.863 127.496 110.514C127.212 111.166 126.828 111.728 126.344 112.202C125.858 112.675 125.289 113.048 124.638 113.319C123.986 113.591 123.284 113.729 122.526 113.729C121.768 113.729 121.057 113.591 120.394 113.319C119.731 113.048 119.162 112.675 118.69 112.202C118.216 111.728 117.843 111.166 117.571 110.514C117.299 109.863 117.163 109.159 117.163 108.401ZM110.451 70.4517C111.255 69.7411 112.138 69.0669 113.096 68.428C114.056 67.7879 115.092 67.2328 116.203 66.759C117.316 66.2853 118.525 65.9124 119.826 65.6403C121.128 65.3682 122.537 65.2322 124.051 65.2322C126.113 65.2322 127.988 65.5152 129.682 66.0837C131.372 66.6521 132.824 67.4636 134.031 68.5167C135.24 69.571 136.174 70.8428 136.837 72.3344C137.499 73.8261 137.831 75.4951 137.831 77.3414C137.831 79.1415 137.571 80.6976 137.05 82.0118C136.529 83.3261 135.878 84.4679 135.098 85.4385C134.316 86.409 133.457 87.2496 132.521 87.9602C131.586 88.6708 130.706 89.34 129.877 89.9668C129.047 90.5936 128.331 91.2095 127.727 91.8132C127.125 92.4168 126.764 93.0983 126.645 93.855L125.829 99.0405H119.826L119.223 93.2513C119.081 92.1387 119.241 91.1621 119.702 90.3215C120.163 89.4822 120.779 88.7121 121.549 88.0136C122.318 87.3152 123.177 86.641 124.123 85.9887C125.069 85.3389 125.959 84.6283 126.787 83.8582C127.614 83.0893 128.308 82.2244 128.864 81.266C129.42 80.3064 129.699 79.1646 129.699 77.8382C129.699 76.9867 129.539 76.2227 129.219 75.5485C128.899 74.8731 128.456 74.2937 127.887 73.8079C127.32 73.3232 126.639 72.9503 125.846 72.6891C125.052 72.4292 124.194 72.2992 123.272 72.2992C121.922 72.2992 120.779 72.4474 119.844 72.7426C118.907 73.039 118.115 73.3706 117.464 73.7374C116.813 74.1042 116.263 74.4359 115.812 74.731C115.363 75.0274 114.962 75.1756 114.606 75.1756C113.753 75.1756 113.138 74.8209 112.759 74.1103L110.451 70.4517Z" fill="#9A0034"/>
</svg>
