<svg width="26" height="27" viewBox="0 0 26 27" fill="none" xmlns="http://www.w3.org/2000/svg">
<path d="M14.4888 15.0249V26.2337C14.4888 26.5093 14.6725 26.6931 14.9482 26.6931C15.04 26.6931 15.1319 26.6931 15.1779 26.6471C17.3829 25.4068 24.0898 21.594 24.0898 21.594C24.9626 21.0887 25.5139 20.1699 25.5139 19.1593V9.09891C25.5139 8.82328 25.3301 8.63953 25.0545 8.63953C24.9626 8.63953 24.8707 8.63953 24.8248 8.68547L14.9482 14.2439C14.6725 14.3818 14.4888 14.7033 14.4888 15.0249ZM13.57 11.9011L23.4926 6.34264C23.7223 6.20483 23.7682 5.9292 23.6304 5.69951C23.5845 5.65357 23.5385 5.60764 23.4926 5.5617C21.2876 4.32138 14.5347 0.462605 14.5347 0.462605C13.6619 -0.0427107 12.5594 -0.0427107 11.6866 0.462605C11.6866 0.462605 4.93373 4.27544 2.72872 5.5617C2.49903 5.69951 2.45309 5.97514 2.59091 6.20483C2.63685 6.25076 2.68278 6.2967 2.72872 6.34264L12.6513 11.9011C12.9269 12.0389 13.2944 12.0389 13.57 11.9011ZM11.2731 14.2439L1.39653 8.68547C1.16684 8.54765 0.89121 8.63953 0.753396 8.86922C0.707459 8.91516 0.707458 9.00703 0.707458 9.09891V19.1133C0.707458 20.124 1.25871 21.0427 2.13153 21.548C2.13153 21.548 8.83845 25.3609 11.0435 26.6012C11.2731 26.739 11.5488 26.6471 11.6866 26.4174C11.7325 26.3256 11.7325 26.2337 11.7325 26.1878V15.0249C11.7325 14.7033 11.5488 14.3818 11.2731 14.2439Z" fill="white"/>
</svg>
