<svg width="86" height="98" viewBox="0 0 86 98" fill="none" xmlns="http://www.w3.org/2000/svg">
<path d="M13.5423 34.0258L14.1609 36.9851L14.713 39.6647L15.1544 41.8069L15.2576 42.3075L15.3755 42.8522L16.2071 46.9378L16.6931 49.772L16.7668 50.1916V50.2063L16.7963 50.3536L16.8475 50.4861L16.855 50.4787H16.8625L17.871 50.1033L22.6191 48.3144L22.3615 47.6372V47.6298L22.1553 47.0851L22.0302 46.2606L21.0657 39.9297L21.169 38.4427L21.2426 37.3164L21.11 34.7987L20.9185 30.8228L17.8267 33.0688L13.5423 34.0258Z" fill="#F66232"/>
<path d="M0.623448 61.6506C-0.119327 61.9487 -0.211339 62.5914 0.418068 63.0861L3.98839 65.8908C4.61854 66.3855 5.73085 66.5445 6.47436 66.2471C7.21714 65.949 7.30916 65.3063 6.67975 64.8116L3.10943 62.0069C2.47928 61.5122 1.36696 61.3532 0.623448 61.6506Z" fill="#1D1715"/>
<path d="M7.73828 61.0903L3.91252 61.4098C1.78284 60.5073 0.192017 60.9932 0.0109239 62.2586L7.09931 65.5477L7.73828 61.0903Z" fill="#1D1715"/>
<path d="M6.05635 45.7674L6.09315 45.7895L6.10787 45.7969L11.4597 48.7488L11.6069 48.5354L14.4925 43.6105L15.2581 42.3075L16.8408 39.9298L17.3486 39.1642L19.4247 36.0503L19.9766 35.2258L17.8271 33.0689L17.4887 32.7302L14.5734 29.8004L10.8119 33.1498L10.6131 33.3265L10.9444 36.3742L10.8855 36.4919L6.05635 45.7674Z" fill="#F66232"/>
<path d="M3.29808 60.0443C1.94209 60.2541 1.53941 61.2913 2.39923 62.3602C3.25905 63.4298 5.05526 64.1269 6.41125 63.9171C7.76797 63.7073 8.16991 62.6701 7.31083 61.6005C6.451 60.5316 4.65406 59.8345 3.29808 60.0443Z" fill="#F66232"/>
<path d="M7.69186 63.0818C9.19066 58.8151 11.7046 49.0339 11.6052 48.4633C11.4919 47.8155 11.9174 45.1359 11.5162 44.6155C10.9501 43.8823 10.2441 43.1528 9.32758 43.0217C8.22042 42.8634 6.44483 45.1183 5.9067 46.0981C5.36784 47.0786 2.03456 60.2182 2.01763 60.88C1.99996 61.541 1.99701 61.5086 2.53587 61.8929L7.69186 63.0818Z" fill="#F66232"/>
<path d="M29.6892 58.4439C29.6569 58.5264 29.617 58.6051 29.5702 58.6809C29.4827 58.8252 29.3737 58.957 29.2616 59.0851C28.5697 59.8728 27.7203 60.5221 26.7791 60.9844C26.5809 61.0815 26.3302 61.189 26.0677 61.2722C25.519 61.4474 24.9209 61.5195 24.6549 61.1758C24.5994 61.1043 24.6092 61.0042 24.6256 60.9159C24.6946 60.5596 24.8691 60.2394 25.0874 59.9479C25.1828 59.8176 25.2872 59.6939 25.3939 59.5746C26.0729 58.8223 26.8993 58.2047 27.8117 57.7644C27.9256 57.7085 28.0415 57.657 28.1576 57.6069C28.4282 57.4928 28.7161 57.392 29.0094 57.4074C29.3027 57.4236 29.6058 57.5819 29.7139 57.8565C29.7872 58.0427 29.7616 58.2562 29.6892 58.4439Z" fill="#A34121"/>
<path d="M30.1992 58.8473L26.421 65.9188C25.7772 65.6214 25.5678 64.6195 25.6616 63.8237C25.7858 62.7717 25.8784 61.2906 25.8882 61.0499C25.9158 60.3704 24.8138 59.5017 24.9203 59.3825C25.5992 58.6301 26.032 57.7711 26.9444 57.3308C27.2259 57.4045 28.2588 57.5833 29.2558 58.1597C29.5931 58.3548 29.8953 58.6088 30.1992 58.8473Z" fill="#1D1715"/>
<path d="M30.2702 58.9422C30.022 58.3953 28.4318 58.9555 28.0459 60.7333C27.7658 62.023 27.0811 64.3684 26.4563 65.4513C25.8073 66.5754 28.5035 66.0829 29.578 63.3444C29.7313 62.9535 30.6012 59.6703 30.2702 58.9422Z" fill="#1D1715"/>
<path d="M16.6932 49.7721L16.7668 50.1917V50.2064C16.789 50.294 16.811 50.3684 16.8404 50.442L16.8551 50.4788H16.8626C16.973 50.7365 17.3704 51.3475 17.93 52.1646C20.0205 55.2196 24.4006 61.0793 24.651 61.175C24.5625 60.9027 24.8351 60.4242 25.2915 59.9089C26.0201 59.0623 27.2423 58.1053 28.2211 57.6857C28.7882 57.4428 29.2667 57.3765 29.5464 57.6195L29.5904 57.671L29.6641 57.7593C27.4116 53.9534 23.0315 48.1673 22.3615 47.6373V47.6299L22.3172 47.6005C21.7505 47.2692 21.0365 46.0398 20.3886 45.9073L20.2121 45.8779C19.358 45.7233 18.4156 45.6717 17.6944 46.1429C16.914 46.6508 16.5606 48.5427 16.6932 49.7721Z" fill="#F66232"/>
<path d="M16.8476 50.4861L16.8551 50.4787L16.8404 50.4419C16.811 50.3683 16.789 50.2939 16.7668 50.2063L16.7964 50.3536L16.8476 50.4861ZM16.6932 49.772C16.5606 48.5427 16.914 46.6507 17.6944 46.1428C18.1206 45.8638 18.6238 45.7681 19.1406 45.7681C19.4983 45.7681 19.8626 45.8145 20.2121 45.8778C20.2943 45.8704 20.3768 45.8667 20.4596 45.8667C20.8881 45.8667 21.32 45.9602 21.7212 46.1207C21.8241 46.1649 21.9345 46.2091 22.0303 46.2606L21.1676 40.5974L18.3616 38.9749C18.0237 39.0382 17.6861 39.1015 17.3482 39.1641L16.8404 39.9297L15.2577 42.3075L15.3756 42.8522L16.2072 46.9378L16.6932 49.772Z" fill="#E05B30"/>
<path d="M14.4916 43.6105L15.2571 42.3076L16.8399 39.9298L17.3477 39.1642C16.4718 39.3335 15.5884 39.5028 14.7125 39.6648C14.3516 39.731 13.9835 39.8046 13.623 39.8709C13.9174 41.115 14.2044 42.3664 14.4916 43.6105Z" fill="#E05B30"/>
<path d="M17.9299 52.1646C17.9077 51.48 17.893 50.7954 17.8709 50.1108V50.1034C17.8266 48.7047 17.9002 47.0778 19.0412 46.2754C19.3874 46.0325 19.7923 45.9073 20.2119 45.8779C19.8625 45.8146 19.4981 45.7682 19.1404 45.7682C18.6237 45.7682 18.1204 45.8639 17.6943 46.1429C16.9139 46.6508 16.5605 48.5428 16.693 49.7721L16.7667 50.1917V50.2064C16.7888 50.294 16.8109 50.3684 16.8403 50.442L16.8549 50.4788H16.8624C16.9729 50.7365 17.3702 51.3475 17.9299 52.1646Z" fill="#E05B30"/>
<path d="M23.144 32.1022C23.2665 33.8418 20.0887 33.6437 19.925 32.5557C19.8137 31.8151 17.5855 19.1217 17.0586 14.9036C16.6477 11.6145 21.0445 12.3064 21.2518 15.0604C21.2613 15.1848 23.144 32.1022 23.144 32.1022Z" fill="#F66232"/>
<path d="M9.10514 17.0128C9.25973 16.3053 10.0717 15.6038 10.64 15.1577L10.6849 15.1202C11.1641 14.7491 11.6728 14.4112 12.1925 14.0947C12.7064 13.7862 13.2371 13.4962 13.7676 13.2098C14.2395 12.9544 14.6762 12.7711 15.0838 12.6518C16.2849 12.2764 17.2321 12.3942 18.1425 12.5598C18.3087 12.59 18.4746 12.6195 18.64 12.6541C20.3654 12.9765 20.7872 14.808 20.8838 16.3083C20.9482 17.2778 20.9847 18.6573 21.0008 20.2091H21.0006C21.0511 25.2179 20.8985 32.0641 20.8623 32.9924C20.8145 34.2173 11.502 34.2181 10.64 33.4782C10.2977 30.7464 9.73455 23.3996 9.24354 19.4804L9.245 19.4833C9.14783 18.6618 9.08526 18.0618 9.07127 17.8211C9.05802 17.5516 9.04551 17.2763 9.10514 17.0128Z" fill="#F66232"/>
<path d="M18.8625 34.1082L19.1777 33.721C18.9842 33.7527 18.7777 33.7806 18.562 33.8064L18.8625 34.1082Z" fill="#E05B30"/>
<path d="M15.5765 36.2005C16.2428 36.2005 16.897 35.92 17.515 35.6454C17.5656 35.6226 17.6159 35.6005 17.6665 35.5777L18.8633 34.1084L18.5628 33.8065C17.5495 33.9273 16.3213 33.9832 15.1348 33.9832C14.3081 33.9832 13.5018 33.956 12.8026 33.9037C12.9277 34.179 13.0735 34.4463 13.242 34.7032C13.7126 35.4209 14.4073 36.0547 15.2561 36.1777C15.3634 36.1931 15.4701 36.2005 15.5765 36.2005Z" fill="#E05B30"/>
<path d="M22.5205 26.4928C22.5173 24.0466 22.3281 21.6003 21.9546 19.1821L21.6909 19.0268C21.9373 21.247 22.249 24.0517 22.5205 26.4928Z" fill="#E8E8E8"/>
<path d="M20.8994 31.6069L22.3773 29.793C22.4454 29.2306 22.4776 28.6615 22.4957 28.1043C22.5129 27.5676 22.5213 27.0302 22.5204 26.4928C22.249 24.0518 21.9373 21.247 21.6908 19.0268L21.3478 18.8251L21.4691 17.8276C21.3213 17.93 21.1514 18.044 20.9639 18.1662C20.9812 18.7927 20.9932 19.4817 21.0007 20.2091H21.0004C21.0398 24.118 20.9555 29.1467 20.8994 31.6069Z" fill="#E05B30"/>
<path d="M15.1344 33.9831C16.3208 33.9831 17.549 33.9271 18.5623 33.8064C18.778 33.7806 18.9845 33.7527 19.1781 33.721L20.8996 31.6068C20.9557 29.1466 21.04 24.1179 21.0006 20.209H21.0008C20.9934 19.4817 20.9813 18.7926 20.964 18.1662C19.0782 19.3985 15.4113 21.5135 14.5521 21.5628C14.4911 21.5657 14.4307 21.5679 14.3709 21.5679C13.0723 21.5679 12.0777 20.753 12.0373 19.4677C12.0336 22.4609 12.0292 25.4533 12.0255 28.4465C12.0225 30.2957 12.049 32.2472 12.8021 33.9036C13.5013 33.9558 14.3077 33.9831 15.1344 33.9831ZM12.0373 19.4677C12.0373 19.4103 12.0373 19.3529 12.038 19.2954C12.0358 19.3536 12.0358 19.411 12.0373 19.4677Z" fill="#E05B30"/>
<path d="M15.9095 8.96218C15.8937 9.53196 15.8774 10.1047 15.7635 10.6627C15.6493 11.2207 15.4325 11.7691 15.0572 12.1976C14.6348 12.6797 14.0174 12.9786 13.3802 13.0301C13.1801 13.0478 12.9784 13.0412 12.7804 13.0066C12.5831 12.9727 12.3858 12.9138 12.2209 12.799C11.9632 12.6216 11.8116 12.3352 11.7012 12.0371V12.0349C11.6769 11.9686 11.6541 11.9016 11.6327 11.8354C11.1432 10.3027 11.0305 8.66995 11.0902 7.06146C11.0997 6.82368 11.1123 6.58148 11.1815 6.35254C11.3839 5.67602 12.0604 5.21593 12.7598 5.10993C13.4587 5.00466 14.1713 5.19899 14.8183 5.48388C14.9957 5.56338 15.1734 5.64951 15.3166 5.78055C15.4535 5.90569 15.5532 6.06543 15.6795 6.20089C15.8353 6.36726 15.9334 8.10604 15.9095 8.96218Z" fill="#FFCEA1"/>
<path d="M12.2402 13.1619L12.2395 13.1373L12.2402 13.1619Z" fill="#FFCEA1"/>
<path d="M13.1699 13.0397C13.2398 13.0397 13.3105 13.0367 13.3803 13.0301L13.4479 12.9344C13.4766 12.8667 13.4766 12.7901 13.4766 12.7165C13.4766 12.6642 13.4766 12.612 13.4766 12.5597C13.1691 12.1953 13.0109 11.7006 12.9542 11.2199C12.9454 11.15 12.9402 11.0793 12.9358 11.0049C12.9218 10.8084 12.9167 10.6119 12.9167 10.4109C12.9167 10.4087 12.9167 10.4065 12.9167 10.4043C12.9086 10.3674 12.9012 10.3277 12.8946 10.285C12.8158 11.6263 12.5714 12.2792 12.1768 12.2785C12.0369 12.2785 11.8787 12.1968 11.7013 12.0348V12.037C11.8117 12.3352 11.9633 12.6215 12.221 12.799C12.3859 12.9138 12.5832 12.9727 12.7805 13.0065C12.9093 13.0286 13.0396 13.0397 13.1699 13.0397Z" fill="#E8BC93"/>
<path d="M16.8348 8.64419L12.8557 8.74724L12.9897 13.8973L16.9688 13.7935L16.8348 8.64419Z" fill="#FFCEA1"/>
<path d="M16.3701 12.852C17.1606 13.2812 17.1795 14.0107 16.4123 14.4803C15.6452 14.9507 14.3822 14.9839 13.5914 14.554C12.801 14.1248 12.7819 13.3953 13.5491 12.9256C14.3164 12.4552 15.5793 12.4221 16.3701 12.852Z" fill="#FFCEA1"/>
<path d="M17.7518 9.72847C17.7049 10.0038 17.6393 10.2938 17.5646 10.5978C17.4196 11.1728 17.2186 11.7993 16.957 12.4868L16.9333 12.5383C16.8491 12.7253 16.6996 12.8519 16.5127 12.9403C16.1621 13.1044 15.6897 13.1368 15.2972 13.1508C14.8201 13.1692 14.3246 13.1552 13.9083 12.9263L13.7493 12.8188C13.6466 12.7489 13.5531 12.6598 13.4781 12.5619C13.1692 12.1968 13.0109 11.7013 12.9542 11.2199C12.9454 11.15 12.9402 11.0793 12.9358 11.0049C12.9218 10.8084 12.9167 10.6118 12.9167 10.4109C12.9167 10.0038 12.9262 9.59743 12.8799 9.19107L12.8659 9.09242C12.8519 8.99893 12.8379 8.90986 12.8143 8.82152C12.6833 8.29297 12.4073 7.82551 11.9258 7.56344C11.7204 7.45154 11.2382 7.35291 11.0888 7.1144C10.1068 5.57143 12.5059 4.26255 14.502 4.38401C14.9883 4.41199 18.6446 4.70645 17.7518 9.72847Z" fill="#1D1715"/>
<path d="M13.0223 8.74346C12.803 8.75524 12.6491 8.95842 12.588 9.1535C12.5122 9.39643 12.524 9.65261 12.5357 9.9029C12.5519 10.2209 12.5711 10.5515 12.7352 10.8282C12.7794 10.9026 12.8383 10.9747 12.9252 11.0049C13.0547 11.0491 13.2086 10.9791 13.2925 10.8739C13.3766 10.7686 13.4062 10.6376 13.4284 10.5102C13.4931 10.1421 13.5167 9.76893 13.4994 9.39865C13.4925 9.25068 13.4776 9.09903 13.404 8.96873C13.33 8.83843 13.1843 8.73463 13.0223 8.74346Z" fill="#FFCEA1"/>
<path d="M9.16807 6.21337C9.01495 6.52328 9.26891 6.90754 9.54055 7.12176C9.81219 7.33525 11.322 7.8351 11.6511 7.94037C11.5326 7.53033 11.5694 6.80743 11.883 6.51739C12.1973 6.22808 14.0053 5.74296 14.415 5.86296C14.0243 5.48605 12.3953 4.74106 11.8528 4.77419C11.2521 4.81026 9.80042 4.93173 9.16807 6.21337Z" fill="#A34121"/>
<path d="M18.0361 7.86015C17.8363 8.09277 17.5585 8.30331 17.1899 8.4741C16.8431 8.63384 16.4502 8.74059 16.039 8.80684L15.9263 9.29858C16.2098 9.27061 16.4865 9.22717 16.7421 9.14841C17.2934 8.97909 17.685 8.70893 17.9159 8.38282L18.0361 7.86015Z" fill="#EDEDED"/>
<path d="M18.1394 7.86904L18.1352 7.8683C18.0889 8.18926 17.9151 8.49035 17.6225 8.73622L17.7294 8.27024C17.8097 7.92057 17.5994 7.72696 17.2578 7.83002C16.9159 7.93382 16.572 8.30409 16.4926 8.64935L16.3471 9.28392C14.79 9.59457 12.7678 9.08074 11.6444 8.03688C11.0606 7.4936 10.831 6.9091 10.9171 6.39748L10.9134 6.39232C11.0636 5.54059 11.3448 4.90972 11.7195 4.44594C11.8527 4.28105 12.0044 4.13455 12.1612 4.00646C12.2878 3.90856 12.4225 3.81727 12.5631 3.73997C13.3697 3.29386 14.61 3.33288 15.5029 3.56109C15.9269 3.67225 16.2804 3.83494 16.5973 4.05725L16.6246 4.07713C16.974 4.31638 17.2742 4.63071 17.5686 5.01204C17.7153 5.20491 17.8344 5.41839 17.9246 5.65691L17.9281 5.66206C18.2016 6.35257 18.2648 7.18442 18.1394 7.86904Z" fill="#F66232"/>
<path d="M15.0422 7.98462C15.244 7.10418 15.0045 6.1494 14.4697 5.43166C13.9313 4.70876 13.1085 4.21481 12.2303 4.02268L12.1618 4.00648C12.005 4.13457 11.8533 4.28106 11.7201 4.44596C12.5313 4.4732 13.3301 4.79342 13.9265 5.34332C14.6557 6.00586 15.0736 6.99671 15.0422 7.98462Z" fill="#CB542D"/>
<path d="M17.9122 6.86261C18.0022 6.47024 18.006 6.05728 17.9286 5.66196L17.9251 5.65681C17.8349 5.41829 17.7158 5.20481 17.5691 5.01194C17.2747 4.63061 16.9745 4.31628 16.6251 4.07703L16.7965 4.22131C17.5249 4.88827 17.9424 5.87911 17.9122 6.86261Z" fill="#CB542D"/>
<path d="M14.5521 35.8147L10.9787 36.4537V40.278L15.0205 42.6491L14.5521 35.8147Z" fill="#9C5C54"/>
<path d="M29.6123 0.346966L27.3665 18.8611V29.6921C27.3665 30.5615 26.7566 31.6208 26.0043 32.0551L11.9344 40.1763C11.1821 40.6114 10.5681 40.2603 10.5681 39.3916V26.6216C10.5681 25.7522 11.1821 24.6966 11.9344 24.2623L21.3484 18.8251L22.7325 7.42431C22.966 5.50665 24.2916 3.41819 25.8545 2.51567L29.6123 0.346966Z" fill="#9C5C54"/>
<path d="M33.5957 2.69011L29.8382 4.85954C28.2747 5.76206 26.9465 7.84904 26.7136 9.76818L25.3304 21.1689L15.9152 26.6047C15.1624 27.0397 14.5522 28.0968 14.5522 28.9662V41.734C14.5522 42.6034 15.1627 42.956 15.9155 42.521L29.9863 34.3975C30.7391 33.9625 31.3496 32.9054 31.3496 32.0367L31.3493 21.2065L33.5957 2.69011Z" fill="#57332F"/>
<path d="M61.1162 67.6341L16.7557 41.9822V35.2877L61.1162 60.9396V67.6341Z" fill="#57332F"/>
<path d="M25.54 25.909L17.9445 30.2876C16.8745 30.9052 16.0075 32.407 16.0075 33.643V37.6138L25.54 32.1169V25.909Z" fill="#854F48"/>
<path d="M60.3678 63.265L16.0073 37.6138L25.5399 25.909L69.9004 51.5609L60.3678 63.265Z" fill="#854F48"/>
<path d="M78.6846 28.7241L70.4173 47.2014L66.4366 44.8575L62.3651 47.2088L27.3661 26.9647L25.54 25.909L25.3284 21.169L21.3477 18.8251L22.7321 7.42361C22.9659 5.50668 24.2912 3.41821 25.8541 2.51643L29.6119 0.347L33.596 2.69164L78.6846 28.7241Z" fill="#71433D"/>
<path d="M78.6846 28.7227L74.9267 30.8921C73.3636 31.7946 72.0351 33.8816 71.8022 35.8007L70.419 47.2015L61.0038 52.6372C60.2509 53.0723 59.6408 54.1294 59.6408 54.9988V67.7665C59.6408 68.6359 60.2512 68.9885 61.0041 68.5535L75.0749 60.4301C75.828 59.995 76.4382 58.9379 76.4382 58.0693V47.239L78.6846 28.7227Z" fill="#57332F"/>
<path d="M59.6391 67.7717L59.6388 55.0039C59.6388 54.1345 60.249 53.0774 61.0018 52.6423L70.4174 47.2066L70.418 47.2014L70.4156 47.2066L66.435 44.862V44.8627V44.8634L57.0198 50.2992C56.2666 50.7342 55.6564 51.7913 55.6564 52.6607L55.6567 65.4285C55.6567 65.8695 55.8143 66.1757 56.067 66.3148V66.317L60.021 68.6396C59.7855 68.4931 59.6391 68.195 59.6391 67.7717Z" fill="#9C5C54"/>
<path d="M65.8907 63.7882C66.0158 63.9281 66.3617 64.0827 66.8623 64.2373C66.9728 64.2741 67.0832 64.3035 67.2083 64.3404C67.7164 64.4876 68.3346 64.6275 69.0046 64.7526C69.5786 64.863 70.1972 64.9734 70.8229 65.0537C71.8092 65.1943 72.8105 65.2974 73.6642 65.3268C74.9968 65.3783 75.9906 65.2532 76.0716 64.8704C76.0864 64.7968 76.1085 64.679 76.1303 64.5244C76.2039 64.1335 76.3144 63.5159 76.4544 62.7429C76.815 60.6596 77.3746 57.4279 77.8384 54.4391C77.9488 53.6883 78.0665 52.9668 78.1622 52.2675C78.3905 50.729 78.5671 49.3524 78.6482 48.388C78.7805 46.8936 78.6482 45.0164 76.9844 44.4275C76.8297 44.376 76.6678 44.3245 76.5133 44.2656C76.1525 44.1404 75.7772 44.0226 75.387 43.9417L75.3355 43.9343C74.8642 43.8386 74.3636 43.7944 73.7896 43.846C73.6864 43.8533 73.5835 43.868 73.473 43.8828C73.1636 43.9269 72.8326 44.0006 72.4792 44.1036C72.3541 44.1404 72.2216 44.1846 72.089 44.2361C71.8167 44.3392 71.5369 44.4349 71.2646 44.5379H71.2424C70.9551 44.6484 70.6757 44.7514 70.3959 44.8692C69.8365 45.1048 69.2841 45.3624 68.747 45.6495L68.6952 45.679C68.2021 45.9587 67.5323 46.371 67.1422 46.8568C67.0389 46.9967 66.9506 47.1366 66.8992 47.2764L66.8845 47.3353C66.7962 47.5709 66.7741 47.8285 66.7373 48.0715C66.7151 48.3144 66.693 48.9107 66.6561 49.7425C66.6269 50.6995 66.5753 51.8479 66.5089 53.0846C66.5014 53.254 66.4943 53.4306 66.4796 53.5999C66.4575 54.0564 66.4281 54.5201 66.3985 54.9839C66.3617 55.5875 66.3249 56.2059 66.2809 56.8169C66.1115 59.5333 65.9496 62.154 65.8978 63.6263L65.8907 63.7882Z" fill="#F66232"/>
<path d="M74.8557 40.367C74.7528 40.928 74.6484 41.4911 74.4506 42.0248C74.2524 42.5593 73.9539 43.0679 73.5177 43.4338C73.0263 43.8453 72.3704 44.0463 71.7326 43.9999C71.5324 43.9867 71.3343 43.9484 71.1437 43.8843C70.9536 43.8203 70.7681 43.732 70.6226 43.5936C70.3949 43.3786 70.2893 43.0724 70.2261 42.761L70.2264 42.7588C70.2119 42.6896 70.1996 42.6204 70.1892 42.5512C69.9402 40.9618 70.0791 39.3313 70.3845 37.7507C70.4299 37.5166 70.48 37.2796 70.5829 37.0639C70.8871 36.4264 71.6261 36.0753 72.333 36.0782C73.0398 36.0812 73.7144 36.3822 74.3099 36.7628C74.4733 36.8681 74.6357 36.9807 74.7571 37.1324C74.873 37.2767 74.9475 37.4497 75.0513 37.6035C75.1798 37.792 75.0101 39.5249 74.8557 40.367Z" fill="#FFCEA1"/>
<path d="M70.586 43.955L70.5889 43.9311L70.586 43.955Z" fill="#FFCEA1"/>
<path d="M71.7331 44L71.8144 43.9161C71.8535 43.8528 71.8651 43.7769 71.8765 43.7041C71.8846 43.6525 71.8924 43.601 71.9004 43.5495C71.6522 43.1424 71.5714 42.6293 71.5898 42.1456C71.5913 42.075 71.5973 42.005 71.6042 41.9299C71.6206 41.7341 71.6459 41.5391 71.6767 41.3403C71.677 41.3381 71.6776 41.3359 71.6779 41.3337C71.6753 41.2961 71.6741 41.2556 71.6738 41.2122C71.4029 42.4659 71.08 43.0769 70.7117 43.0769C70.5578 43.0769 70.3959 42.9701 70.2268 42.7589L70.2265 42.7611C70.2898 43.0724 70.3953 43.3787 70.6231 43.5936C70.7686 43.732 70.9541 43.8204 71.1441 43.8844C71.3348 43.9485 71.5329 43.9867 71.7331 44Z" fill="#E8BC93"/>
<path d="M75.8184 40.194L71.8705 39.6868L71.214 44.7964L75.1619 45.3036L75.8184 40.194Z" fill="#FFCEA1"/>
<path d="M74.7141 44.2811C75.4295 44.8266 75.3366 45.5502 74.5064 45.8977C73.676 46.2444 72.4231 46.0832 71.7073 45.5377C70.9919 44.9922 71.0848 44.2686 71.9149 43.9219C72.7454 43.5751 73.9983 43.7356 74.7141 44.2811Z" fill="#FFCEA1"/>
<path d="M76.5586 41.4065C76.4701 41.6722 76.3611 41.9483 76.2406 42.2376C76.0094 42.7831 75.7147 43.372 75.3506 44.011L75.3195 44.0581C75.2077 44.2303 75.0406 44.3319 74.8422 44.3908C74.4704 44.499 73.9988 44.4593 73.6086 44.4129C73.1344 44.3577 72.647 44.2679 72.2706 43.9778L72.13 43.8475C72.0391 43.7621 71.9604 43.6606 71.9017 43.5516C71.6523 43.1438 71.5712 42.63 71.5896 42.1456C71.5911 42.0749 71.5971 42.005 71.6041 41.9299C71.6204 41.7341 71.6457 41.539 71.6765 41.3402C71.7389 40.9383 71.8105 40.5378 71.8266 40.1285L71.8278 40.0291C71.8284 39.9349 71.8281 39.8451 71.8186 39.7538C71.7702 39.2113 71.5692 38.707 71.1333 38.375C70.9473 38.2322 70.4863 38.0614 70.375 37.803C69.6412 36.1275 72.2119 35.2015 74.1661 35.6277C74.6427 35.73 78.2107 36.581 76.5586 41.4065Z" fill="#1D1715"/>
<path d="M72.0359 39.7089C71.8173 39.6868 71.6339 39.8642 71.5436 40.0475C71.4312 40.2757 71.4035 40.5304 71.3774 40.7792C71.3443 41.0965 71.3127 41.4263 71.4328 41.7244C71.4651 41.8047 71.512 41.8857 71.593 41.9284C71.7144 41.9917 71.8772 41.946 71.9763 41.8555C72.0756 41.7642 72.125 41.6391 72.1664 41.5169C72.2866 41.1628 72.3672 40.7976 72.4068 40.4296C72.4227 40.2823 72.4313 40.1292 72.3784 39.9893C72.3252 39.8502 72.1972 39.7243 72.0359 39.7089Z" fill="#FFCEA1"/>
<path d="M68.6145 36.6179C68.4161 36.9013 68.6079 37.3194 68.8437 37.5726C69.0795 37.8251 70.4951 38.5502 70.8042 38.7056C70.7496 38.2815 70.8963 37.5726 71.2512 37.3349C71.6057 37.0963 73.4667 36.8946 73.8535 37.0757C73.5251 36.6436 72.0293 35.6579 71.4883 35.6071C70.8894 35.5512 69.4363 35.4481 68.6145 36.6179Z" fill="#A34121"/>
<path d="M77.126 39.6037C76.8928 39.8032 76.5862 39.9688 76.1958 40.0807C75.8285 40.186 75.4242 40.2309 75.0076 40.2338L74.8207 40.702C75.1053 40.7174 75.3854 40.7175 75.6497 40.6792C76.2205 40.596 76.6492 40.3891 76.927 40.102L77.126 39.6037Z" fill="#EDEDED"/>
<path d="M77.2271 39.6287L77.2231 39.6272C77.1279 39.9371 76.9103 40.208 76.5833 40.4061L76.7605 39.9622C76.8933 39.6287 76.7153 39.4056 76.3619 39.455C76.0085 39.505 75.6113 39.8186 75.4802 40.1477L75.2393 40.752C73.6531 40.8205 71.7336 40.0026 70.7835 38.799C70.2895 38.1726 70.1523 37.5601 70.3154 37.0676L70.3131 37.0617C70.5917 36.2431 70.9661 35.663 71.4072 35.2626C71.5643 35.1198 71.7367 34.9983 71.9111 34.896C72.0517 34.8187 72.1986 34.7487 72.349 34.6943C73.2146 34.3763 74.4344 34.6052 75.2818 34.9674C75.6841 35.1418 76.0082 35.3568 76.2874 35.6255L76.311 35.6498C76.6198 35.9398 76.8685 36.2961 77.1009 36.7179C77.2162 36.9307 77.301 37.1596 77.3539 37.4099L77.3565 37.4158C77.521 38.1394 77.456 38.9713 77.2271 39.6287Z" fill="#F66232"/>
<path d="M74.1476 39.2679C74.4823 38.4295 74.3918 37.4489 73.9731 36.6576C73.5521 35.8603 72.8148 35.2471 71.9766 34.9225L71.9107 34.896C71.7364 34.9983 71.5639 35.1197 71.4069 35.2626C72.2046 35.4135 72.945 35.8522 73.45 36.4875C74.0691 37.2538 74.3302 38.297 74.1476 39.2679Z" fill="#CB542D"/>
<path d="M77.1557 38.5996C77.305 38.2249 77.372 37.8178 77.3561 37.4159L77.3536 37.41C77.3006 37.1597 77.2158 36.9308 77.1005 36.718C76.8681 36.2962 76.6194 35.9399 76.3106 35.6499L76.4581 35.8184C77.0758 36.5884 77.3366 37.6323 77.1557 38.5996Z" fill="#CB542D"/>
<path d="M84.7966 89.9615C84.7644 90.044 84.7244 90.122 84.6775 90.1978C84.5901 90.3428 84.4811 90.4746 84.369 90.6027C83.6771 91.3904 82.8277 92.0397 81.8865 92.5012C81.6884 92.5984 81.4376 92.7066 81.1751 92.7898C80.6264 92.965 80.0283 93.0371 79.7623 92.6926C79.7068 92.622 79.7166 92.5218 79.733 92.4335C79.802 92.0772 79.9765 91.7562 80.1948 91.4647C80.2903 91.3352 80.3949 91.2108 80.5013 91.0922C81.1803 90.3399 82.0067 89.7223 82.9191 89.282C83.033 89.2261 83.1489 89.1738 83.2653 89.1245C83.5357 89.0104 83.8235 88.9096 84.1168 88.9243C84.4101 88.9412 84.7132 89.0995 84.8213 89.3733C84.8947 89.5603 84.8691 89.7738 84.7966 89.9615Z" fill="#A34121"/>
<path d="M85.3076 90.3641L81.5294 97.4363C80.8858 97.1389 80.6762 96.137 80.7699 95.3412C80.8942 94.2892 80.9868 92.8081 80.9965 92.5674C81.0241 91.8879 79.9222 91.0185 80.0286 90.9C80.7078 90.1477 81.1403 89.2886 82.0527 88.8484C82.3343 88.922 83.3672 89.1001 84.3641 89.6773C84.7014 89.8723 85.0037 90.1263 85.3076 90.3641Z" fill="#1D1715"/>
<path d="M85.3776 90.4591C85.1295 89.9129 83.5393 90.4731 83.1534 92.2509C82.8733 93.5399 82.1886 95.886 81.5637 96.9682C80.9147 98.093 83.6109 97.6005 84.6855 94.862C84.839 94.4704 85.7086 91.1879 85.3776 90.4591Z" fill="#1D1715"/>
<path d="M71.8012 81.2939L71.8745 81.7135V81.7282C71.8967 81.8092 71.9188 81.8902 71.9484 81.9565L71.9703 81.9999C72.2354 82.5895 73.9286 85.0041 75.6732 87.3819C77.6018 90.0246 79.5894 92.6306 79.7588 92.6895C79.6705 92.4171 79.9429 91.946 80.3995 91.4233C81.1354 90.5841 82.3575 89.6198 83.3366 89.2002C83.8813 88.9646 84.3598 88.8983 84.6321 89.1185L84.6395 89.1265L84.706 89.1928L84.7793 89.2811C82.5194 85.4826 78.1393 79.6891 77.4695 79.1517V79.1444L77.4253 79.1149C76.8585 78.791 76.1445 77.5543 75.4967 77.4291C74.5911 77.2451 73.5752 77.1568 72.8022 77.6647C72.5373 77.834 72.3237 78.1653 72.1693 78.5702C71.838 79.3726 71.7126 80.4761 71.8012 81.2939Z" fill="#F66232"/>
<path d="M68.6508 65.5405L69.269 68.4998L70.2628 73.329L70.366 73.8222L70.4837 74.3669L71.3156 78.4526L71.8015 81.2941L71.8749 81.7137V81.7284L71.9045 81.8757L71.956 82.0001H71.9706L72.7217 81.7137L77.7275 79.8292L77.4699 79.1519V79.1445L77.2638 78.5998L76.1742 71.4518L76.3507 68.8311L76.2184 66.3208L76.1299 64.5246V64.5172L76.027 62.3456L72.9351 64.5835H72.9276L70.8225 65.0539L68.6508 65.5405Z" fill="#F66232"/>
<path d="M75.6738 87.3818C74.9009 85.7475 73.4361 83.333 72.722 81.7134L71.9709 81.9998C72.2361 82.5894 73.9292 85.004 75.6738 87.3818Z" fill="#E05B30"/>
<path d="M71.9559 82.0001H71.9706L72.7217 81.7137C72.4272 81.0799 72.2579 80.5653 72.2872 80.2708C72.3168 79.9396 72.2579 79.3278 72.1696 78.5703C71.9338 76.5533 71.4921 73.4541 71.9927 71.3774L71.9487 71.4444L71.9413 71.4518L70.366 73.8222L70.4836 74.3669L71.3156 78.4526L71.8015 81.2941L71.8748 81.7137V81.7284L71.9045 81.8757L71.9559 82.0001Z" fill="#E05B30"/>
<path d="M55.7308 93.1681C54.9877 93.4662 54.8957 94.1089 55.5252 94.6036L59.0958 97.4083C59.7255 97.903 60.8383 98.062 61.5814 97.7638C62.3245 97.4664 62.4168 96.8238 61.787 96.3291L58.2164 93.5244C57.5867 93.0297 56.4738 92.8699 55.7308 93.1681Z" fill="#1D1715"/>
<path d="M62.8457 92.6079L59.02 92.9274C56.8904 92.0248 55.3002 92.5107 55.119 93.7761L62.2073 97.0652L62.8457 92.6079Z" fill="#1D1715"/>
<path d="M61.1639 77.2893L61.2007 77.3041L61.2155 77.3114L66.5672 80.2708L66.7072 80.0646L66.7144 80.0499L69.9535 74.5288V74.5141L70.3658 73.8221L71.9411 71.4517L71.9485 71.4443L71.9925 71.3773L74.525 67.5722L75.0771 66.7477L73.6635 65.3269L72.9349 64.5908V64.5834H72.9274L72.5961 64.2448L69.6812 61.3223L67.318 62.8608L65.89 63.7884L65.5955 68.7574L62.7685 74.1975C62.7317 74.2932 62.6802 74.3816 62.6288 74.4699L62.4004 74.919H62.3933L62.2164 75.2502L61.1639 77.2893Z" fill="#F66232"/>
<path d="M57.1251 92.3973C57.1423 91.7355 60.4758 78.5952 61.014 77.6154C61.5527 76.6356 63.328 74.3808 64.4348 74.5383C65.3519 74.6693 66.0575 75.3996 66.6234 76.1328C67.0249 76.6533 66.5993 79.3329 66.7126 79.9807C66.8121 80.5512 64.2982 90.3317 62.7995 94.5984C62.6367 95.018 62.1971 95.3301 61.519 95.4347C60.1629 95.6445 58.3665 94.9473 57.5067 93.8777C57.0768 93.3432 56.9623 92.8162 57.1251 92.3973Z" fill="#F66232"/>
<path d="M64.513 59.8353C65.3446 58.4734 66.0293 57.2587 66.2798 56.8171C66.3238 56.206 66.3606 55.5877 66.3974 54.984C66.427 54.5203 66.4564 54.0565 66.4785 53.6001C65.8231 54.4172 65.3446 55.4257 64.9766 56.552C64.6306 57.6121 64.5424 58.7237 64.513 59.8353Z" fill="#51312D"/>
<path d="M65.8904 63.7883L67.3184 62.8608C67.5982 58.9003 67.7308 55.3373 69.4092 51.7597C69.3356 51.7744 69.2545 51.7965 69.1809 51.8259C68.0324 52.1351 67.1639 52.7608 66.4793 53.6C66.4571 54.0564 66.4278 54.5202 66.3982 54.984C66.3614 55.5876 66.3246 56.206 66.2805 56.817C66.1112 59.5334 65.9493 62.1541 65.8975 63.6264L65.8904 63.7883Z" fill="#E05B30"/>
<path d="M62.2168 75.2503C64.4474 72.2689 65.6252 70.7524 66.5601 69.1844C67.0975 68.279 66.9503 66.9613 67.0607 65.9159C67.1197 65.3785 67.1639 64.8559 67.2079 64.3406C67.2523 63.84 67.2891 63.3468 67.3184 62.8609L65.8904 63.7885L65.5959 68.7575L62.7689 74.1976C62.7321 74.2933 62.6806 74.3817 62.6292 74.47L62.4008 74.919H62.3937L62.2168 75.2503Z" fill="#E05B30"/>
<path d="M57.617 64.621C57.5676 64.78 57.5181 64.9397 57.4902 65.1032C57.4549 65.3108 57.4373 66.4901 57.435 66.6999C57.4309 67.0496 57.59 67.5649 57.883 68.5726C57.9201 68.6993 58.0147 68.8156 58.1375 68.8634C58.2603 68.912 58.4345 68.8332 58.4294 68.7015C58.4282 68.9738 58.62 69.2359 58.8803 69.3176C59.0249 69.3625 59.2348 69.3088 59.2371 69.1564C59.2144 69.339 59.3979 69.509 59.5813 69.495C59.7648 69.4803 59.9146 69.3095 59.9299 69.1262C59.9347 69.2919 60.1363 69.4023 60.2951 69.3537C60.4538 69.3051 60.5564 69.1432 60.5826 68.979C60.6087 68.8156 60.5725 68.6485 60.5343 68.4873C60.3523 67.718 60.1079 67.2733 60.1657 66.9045C60.1915 66.7382 60.3551 65.6384 60.4034 65.4779C60.5443 65.0082 60.5222 65.1871 60.5984 64.7027C60.8688 62.9838 58.6471 61.7868 57.8338 63.9025C57.8338 63.9025 57.7735 64.1175 57.617 64.621Z" fill="#FFCEA1"/>
<path d="M56.8257 66.54C56.9721 66.6835 57.2225 66.6622 57.3948 66.551C57.5673 66.4406 57.6826 66.2625 57.8005 66.0946C57.9101 65.9378 58.0262 65.7869 58.1485 65.6404C58.317 65.438 58.5002 65.2421 58.61 65.0029C58.7201 64.7636 58.7446 64.4655 58.597 64.2476C58.4855 64.0834 58.2934 63.9892 58.099 63.948C58.0053 63.9281 57.8912 63.9259 57.8322 64.001L57.7868 64.118C57.6729 64.6076 57.5187 65.1052 57.192 65.4873C57.0575 65.6448 56.895 65.7817 56.7952 65.9628C56.6957 66.1439 56.6782 66.395 56.8257 66.54Z" fill="#FFCEA1"/>
<path d="M57.9104 63.1258C57.8958 63.251 57.9326 63.3982 58.0137 63.5455C58.1094 63.7369 58.2785 63.943 58.4922 64.127L58.5143 64.1491C59.0664 64.6497 59.913 65.0398 60.5606 64.9294C60.7299 64.9073 60.8847 64.8484 61.0172 64.7454C61.871 64.0313 63.3361 61.7861 64.5139 59.8353C65.3455 58.4734 66.0302 57.2587 66.2807 56.8171C66.3393 56.714 66.369 56.6551 66.3761 56.6404L69.181 51.826L70.4767 49.5881C71.0582 48.5722 70.7194 47.2766 69.711 46.6876C69.5933 46.6214 69.4755 46.5698 69.3651 46.5257C68.5185 46.2239 67.5761 46.4742 67.0019 47.1735L66.8843 47.3354L66.8032 47.4606L65.8022 49.1905C65.8022 49.1905 57.513 61.2413 57.9104 63.1258Z" fill="#F66232"/>
<path d="M10.217 38.5118C10.2332 38.6775 10.2502 38.8438 10.2877 39.0058C10.3363 39.2104 10.778 40.3036 10.8582 40.498C10.99 40.8219 11.3367 41.2348 11.9992 42.049C12.0824 42.1513 12.2149 42.2213 12.3467 42.2183C12.4785 42.2147 12.6088 42.0748 12.5521 41.9555C12.6574 42.2066 12.9356 42.3737 13.2073 42.3472C13.3582 42.3324 13.5304 42.2014 13.4738 42.0608C13.5237 42.2375 13.7587 42.3229 13.9223 42.2382C14.0856 42.1536 14.1573 41.9379 14.0997 41.7627C14.1688 41.9136 14.3976 41.9371 14.5251 41.8311C14.6521 41.7244 14.6838 41.5352 14.6441 41.374C14.6044 41.2128 14.5064 41.0729 14.4083 40.9389C13.9413 40.3014 13.5433 39.9871 13.453 39.6249C13.4124 39.4615 13.1351 38.3845 13.1175 38.2174C13.0645 37.73 13.1138 37.9038 12.996 37.4282C12.5764 35.7387 10.0639 35.5002 10.1375 37.7654C10.1375 37.7654 10.1655 37.9869 10.217 38.5118Z" fill="#FFCEA1"/>
<path d="M10.2336 40.5879C10.4243 40.663 10.6466 40.5459 10.7629 40.3773C10.8785 40.208 10.9153 39.999 10.9587 39.7987C10.9985 39.6118 11.0471 39.427 11.1023 39.2444C11.1796 38.9927 11.2716 38.7409 11.2797 38.4781C11.2885 38.2145 11.195 37.9311 10.9742 37.7876C10.8078 37.6794 10.5936 37.6669 10.3985 37.7044C10.305 37.7228 10.199 37.7655 10.174 37.8575L10.1777 37.9827C10.2623 38.4781 10.3146 38.9971 10.1622 39.4756C10.0997 39.6729 10.0025 39.862 9.98114 40.0682C9.96052 40.2736 10.0415 40.5113 10.2336 40.5879Z" fill="#FFCEA1"/>
<path d="M13.0996 35.948C13.0378 37.6912 9.89883 37.1589 9.85098 36.0599C9.81785 35.3119 8.9411 22.4536 8.8616 18.2038C8.79976 14.8897 13.0996 16.0417 13.015 18.8023C13.0113 18.9267 13.0996 35.948 13.0996 35.948Z" fill="#F66232"/>
</svg>
