<svg width="20" height="20" viewBox="0 0 20 20" fill="none" xmlns="http://www.w3.org/2000/svg">
<path d="M0.70874 7.60262L2.41262 6.54337C2.7836 7.28171 3.34531 8.10604 4.10427 9.02746C5.1516 10.2989 6.18444 11.271 6.22792 11.3117L6.77868 11.8283L7.32944 11.3117C7.37291 11.271 8.40575 10.2989 9.45309 9.02746C10.2496 8.06039 10.8274 7.20096 11.1968 6.435L13.8234 7.60262L19.2912 4.20339V16.1008L13.8234 19.5L6.17663 16.1008L0.70874 19.5V7.60262ZM2.67274 4.60593C2.67274 2.33825 4.51107 0.5 6.77868 0.5C9.04628 0.5 10.8846 2.33825 10.8846 4.60593C10.8846 6.87361 6.77868 10.7246 6.77868 10.7246C6.77868 10.7246 2.67274 6.87353 2.67274 4.60593ZM6.77868 6.33686C7.77908 6.33686 8.59012 5.52582 8.59012 4.52542C8.59012 3.52503 7.77908 2.71398 6.77868 2.71398C5.77828 2.71398 4.96724 3.52503 4.96724 4.52542C4.96724 5.52582 5.77828 6.33686 6.77868 6.33686Z" fill="white"/>
</svg>
