<svg width="147" height="151" viewBox="0 0 147 151" fill="none" xmlns="http://www.w3.org/2000/svg">
<path d="M143.695 94.4007L143.091 94.0517L142.785 94.4413L143.398 95.0606L143.695 94.4007Z" fill="#741130"/>
<path d="M143.091 94.0517C142.965 93.9795 142.792 93.99 142.6 94.1002L139.89 95.6654C139.508 95.8858 139.197 96.4236 139.197 96.8658V103.505C139.197 103.726 139.276 103.881 139.401 103.954C139.527 104.026 139.7 104.016 139.89 103.906L142.6 102.34C142.983 102.12 143.293 101.582 143.293 101.14V94.5004C143.293 94.28 143.216 94.1238 143.091 94.0517Z" fill="#741130"/>
<path d="M140.004 104.302L139.401 103.954L140.1 103.189L140.589 103.591L140.004 104.302Z" fill="#741130"/>
<path d="M143.695 94.4007C143.569 94.3285 143.396 94.339 143.204 94.4492L140.495 96.0143C140.112 96.2347 139.801 96.7726 139.801 97.2134L139.802 103.853C139.802 104.075 139.88 104.23 140.004 104.302C140.13 104.374 140.303 104.363 140.495 104.253L143.205 102.689C143.587 102.468 143.898 101.931 143.898 101.489L143.897 94.8493C143.897 94.6289 143.819 94.4728 143.695 94.4007Z" fill="#9A0034"/>
<path d="M5.42432 88.5771L8.50733 86.7968V81.6987L5.42432 83.4777V88.5771Z" fill="#2F2E29"/>
<path d="M11.9502 83.6981C11.9502 88.0576 14.6173 93.2344 18.17 96.1521C18.6961 96.5824 19.2392 96.9668 19.7981 97.2883C22.1478 98.6461 24.2521 98.6605 25.6899 97.6005C26.9035 96.7057 27.6447 95.0488 27.6447 92.7582C27.6447 90.2564 26.767 87.4843 25.3475 85.0244L25.3462 85.0231C23.9267 82.5646 21.9654 80.4169 19.7981 79.1667C17.8145 78.0214 16.008 77.8351 14.6265 78.4386C12.9892 79.1536 11.9502 80.9837 11.9502 83.6981Z" fill="#2F2E29"/>
<path d="M14.255 78.6262L25.3407 97.8288L19.7926 101.033L8.70557 81.8299L14.255 78.6262Z" fill="#2F2E29"/>
<path d="M9.29596 88.5718C9.29596 85.4127 11.5131 84.1323 14.2498 85.7119C16.9851 87.2914 19.2023 91.1327 19.2023 94.2905C19.2023 97.4496 16.9851 98.7301 14.2485 97.1505C11.5131 95.571 9.29596 91.731 9.29596 88.5718ZM20.1416 100.804C21.3551 99.9095 22.0964 98.2525 22.0964 95.9619C22.0964 93.4601 21.2187 90.688 19.7979 88.2281V88.2268C18.3771 85.767 16.4158 83.6207 14.2498 82.3704C12.2662 81.2251 10.4596 81.0388 9.07816 81.6423C7.44088 82.3573 6.40186 84.1861 6.40186 86.9005C6.40186 91.26 9.06898 96.4382 12.6217 99.3546C13.1464 99.7862 13.6909 100.171 14.2485 100.492C16.5994 101.85 18.7024 101.864 20.1416 100.804Z" fill="#444443"/>
<path d="M10.8466 89.4666C10.8466 87.298 12.3697 86.419 14.2497 87.5027C16.1284 88.5876 17.6502 91.2259 17.6502 93.3958C17.6502 95.5644 16.1284 96.4434 14.2484 95.3598C12.3697 94.2748 10.8466 91.6365 10.8466 89.4666ZM19.2022 94.2906C19.2022 91.1328 16.9851 87.2915 14.2497 85.7119C11.513 84.1324 9.2959 85.4128 9.2959 88.5719C9.2959 91.731 11.513 95.571 14.2484 97.1506C16.9851 98.7301 19.2022 97.4497 19.2022 94.2906Z" fill="#9D9D9C"/>
<path d="M17.6503 93.3957C17.6503 91.2258 16.1285 88.5875 14.2498 87.5026C12.3698 86.4189 10.8467 87.2979 10.8467 89.4665C10.8467 91.6364 12.3698 94.2747 14.2485 95.3596C16.1285 96.4433 17.6503 95.5643 17.6503 93.3957Z" fill="#EDEDED"/>
<path d="M29.2964 93.7252C29.2964 98.0847 31.9635 103.263 35.5162 106.179C36.041 106.611 36.5841 106.994 37.143 107.317C39.494 108.673 41.597 108.689 43.0348 107.629C44.2483 106.734 44.9909 105.076 44.9909 102.787C44.9909 100.283 44.1119 97.5114 42.6924 95.0515C41.2716 92.5917 39.3103 90.4454 37.143 89.1951C35.1607 88.0498 33.3541 87.8635 31.9727 88.467C30.3354 89.182 29.2964 91.0108 29.2964 93.7252Z" fill="#3C3C3B"/>
<path d="M31.6002 88.6545L42.6873 107.857L37.1378 111.059L26.0508 91.8569L31.6002 88.6545Z" fill="#2F2E29"/>
<path d="M26.6412 98.5989C26.6412 95.4397 28.8596 94.1593 31.595 95.7389C34.3303 97.3184 36.5475 101.16 36.5488 104.319C36.5475 107.478 34.3303 108.758 31.595 107.179C28.8596 105.599 26.6412 101.758 26.6412 98.5989ZM37.4868 110.831C38.7003 109.936 39.4416 108.279 39.4416 105.989C39.4416 103.487 38.5639 100.715 37.1444 98.2551H37.1431C35.7236 95.7953 33.7623 93.649 31.595 92.3974C29.6114 91.2521 27.8049 91.0658 26.4234 91.6693C24.7861 92.3856 23.7471 94.2144 23.7471 96.9288C23.7471 101.288 26.4142 106.466 29.9669 109.383C30.493 109.814 31.0361 110.198 31.595 110.52C33.9446 111.877 36.049 111.891 37.4868 110.831Z" fill="#444443"/>
<path d="M28.1931 99.4949C28.1931 97.3249 29.7163 96.446 31.5949 97.5309C33.4736 98.6159 34.9967 101.253 34.9967 103.423C34.9967 105.593 33.4736 106.472 31.5949 105.387C29.7163 104.302 28.1931 101.665 28.1931 99.4949ZM36.5487 104.319C36.5474 101.16 34.3303 97.3184 31.5949 95.7388C28.8596 94.1593 26.6411 95.4397 26.6411 98.5988C26.6411 101.758 28.8596 105.599 31.5949 107.179C34.3303 108.758 36.5474 107.478 36.5487 104.319Z" fill="#9D9D9C"/>
<path d="M34.997 103.423C34.997 101.253 33.4738 98.6159 31.5952 97.531C29.7165 96.446 28.1934 97.325 28.1934 99.4949C28.1934 101.665 29.7165 104.302 31.5952 105.387C33.4738 106.472 34.997 105.593 34.997 103.423Z" fill="#EDEDED"/>
<path d="M3.17188 73.9439L74.8277 115.313V128.646L41.2897 109.283C41.2897 103.828 37.4484 97.1754 32.736 94.4544L13.9782 83.6245C9.26573 80.9036 5.42443 83.1221 5.42443 88.577L3.17188 87.2769V73.9439Z" fill="#741130"/>
<path d="M90.499 106.266L74.8281 115.313V128.646L90.499 119.597V106.266Z" fill="#741130"/>
<path d="M71.2437 67.841V117.495L117.51 90.7799V41.1263L71.2437 67.841Z" fill="#741130"/>
<path d="M0 26.7004V76.354L71.2439 117.495V67.841L0 26.7004Z" fill="#942245"/>
<path d="M46.4065 0.143257L117.648 41.2746L71.2465 67.8358L0.00390625 26.7057L46.4065 0.143257Z" fill="#9A0034"/>
<path d="M89.4165 136.855L96.9522 132.083V123.371L89.4165 128.143V136.855Z" fill="#2F2E29"/>
<path d="M95.3464 131.739C95.3464 136.1 98.0136 141.277 101.566 144.195C102.092 144.625 102.635 145.009 103.194 145.331C105.544 146.689 107.648 146.703 109.086 145.643C110.3 144.748 111.041 143.091 111.041 140.801C111.041 138.299 110.163 135.527 108.742 133.067V133.066C107.323 130.607 105.36 128.459 103.194 127.209C101.211 126.064 99.4042 125.878 98.0228 126.481C96.3855 127.196 95.3464 129.025 95.3464 131.739Z" fill="#2F2E29"/>
<path d="M97.6515 126.669L108.737 145.871L103.189 149.075L92.1021 129.872L97.6515 126.669Z" fill="#2F2E29"/>
<path d="M92.6922 136.614C92.6922 133.455 94.9093 132.175 97.6447 133.754C100.381 135.334 102.599 139.174 102.599 142.333C102.599 145.492 100.381 146.773 97.6447 145.193C94.9093 143.614 92.6922 139.774 92.6922 136.614ZM103.538 148.847C104.751 147.952 105.493 146.294 105.493 144.004C105.493 141.503 104.614 138.729 103.194 136.271V136.269C101.773 133.81 99.812 131.663 97.646 130.413C95.6624 129.268 93.8559 129.081 92.4744 129.685C90.8372 130.4 89.7981 132.229 89.7981 134.943C89.7981 139.303 92.4653 144.481 96.0179 147.397C96.5427 147.829 97.0871 148.213 97.6447 148.535C99.9957 149.892 102.099 149.907 103.538 148.847Z" fill="#444443"/>
<path d="M94.2431 137.509C94.2431 135.341 95.7662 134.462 97.6449 135.545C99.5236 136.63 101.047 139.268 101.047 141.438C101.047 143.607 99.5236 144.486 97.6449 143.402C95.7662 142.317 94.2431 139.679 94.2431 137.509ZM102.599 142.333C102.599 139.174 100.382 135.334 97.6449 133.754C94.9095 132.175 92.6924 133.455 92.6924 136.614C92.6924 139.774 94.9095 143.614 97.6449 145.193C100.382 146.773 102.599 145.492 102.599 142.333Z" fill="#9D9D9C"/>
<path d="M101.047 141.438C101.047 139.269 99.5236 136.63 97.645 135.545C95.7663 134.462 94.2432 135.341 94.2432 137.509C94.2432 139.679 95.7663 142.317 97.645 143.402C99.5236 144.486 101.047 143.607 101.047 141.438Z" fill="#EDEDED"/>
<path d="M113.544 70.4961C113.897 70.2915 114.389 70.3217 114.931 70.6352L133.244 81.204C134.682 82.0345 135.985 83.7793 136.555 85.6331L137.126 87.4868L144.108 110.229L144.109 129.088L112.972 111.111V101.467L112.971 71.7674C112.97 71.1403 113.191 70.6995 113.544 70.4961Z" fill="#741130"/>
<path d="M137.112 87.5289L102.985 107.233L109.979 129.934V148.79C124.64 143.575 137.484 137.611 144.106 129.088V110.232L137.112 87.5289Z" fill="#9A0034"/>
<path d="M142.51 108.389C136.263 115.838 124.95 121.996 110.162 127.062L109.316 124.313L104.184 107.698C118.402 102.476 129.883 96.2966 136.519 89.0364L141.642 105.582L142.51 108.389Z" fill="#8FD1CF"/>
<path d="M137.232 107.376C137.092 107.338 136.949 107.307 136.802 107.285C132.287 103.516 126.806 101.08 121.123 101.08C120.998 101.08 120.872 101.081 120.749 101.082C127.366 97.6123 132.567 93.9468 136.27 90.1133L141.122 105.788C139.982 106.238 138.192 106.928 137.232 107.376Z" fill="#C7E8E7"/>
<path d="M79.6494 90.0647L113.544 70.4961C113.897 70.2914 114.389 70.3216 114.931 70.6351L133.244 81.204C134.682 82.0344 135.985 83.7793 136.555 85.633L137.126 87.4867L137.115 87.5274C126.513 95.4003 115.163 102.015 102.986 107.232L79.6494 90.0647Z" fill="#9A0034"/>
<path d="M109.98 143.019C124.533 136.798 136.953 130.351 144.145 123.348L146.121 124.449C137.522 132.468 125.745 138.82 111.957 144.119V150.362L109.98 149.263V149.261V143.019Z" fill="#EDEDED"/>
<path d="M111.957 144.119C126.183 138.556 138.052 132.168 146.12 124.449L146.122 130.691C138.007 138.394 125.9 144.699 111.957 150.362V144.119Z" fill="#C6C6C6"/>
<path d="M106.852 146.912V144.311C106.852 143.292 106.718 142.232 106.473 141.164C105.632 137.493 103.458 133.728 100.7 131.165C99.8975 130.42 99.046 129.773 98.1644 129.264C97.0414 128.616 95.9735 128.252 94.9883 128.132C91.7622 127.734 89.4756 130.034 89.4756 134.279V136.953L78.8438 130.814V91.4673C78.8438 90.2184 79.7214 89.712 80.8038 90.3364L99.1156 100.908C100.556 101.74 101.859 103.481 102.428 105.337L109.981 129.934L109.98 148.79L106.852 146.985V146.912Z" fill="#741130"/>
<path d="M96.7871 104.984V122.543L101.269 125.164L103.055 126.194L106.701 128.297L107.809 128.933L104.694 118.791L101.252 107.593L96.7871 104.984Z" fill="#8FD1CF"/>
<path d="M106.862 127.746L101.548 124.682L101.487 124.646C101.952 118.676 100.489 112.598 97.3442 107.66V105.955L100.783 107.965L106.862 127.746Z" fill="#C7E8E7"/>
<path d="M80.6321 97.0627V127.871C80.6321 129.055 81.2631 130.151 82.2903 130.742L86.0543 132.914C86.8007 133.344 87.7309 132.898 87.8988 132.052C88.4275 129.399 89.9192 127.473 92.0313 126.689H92.0379C92.7214 126.433 93.4784 126.302 94.2826 126.302C94.3653 126.302 94.5004 126.311 94.6591 126.325C95.2823 126.38 95.8189 125.888 95.8189 125.262V105.679C95.8189 104.925 95.4174 104.228 94.7628 103.851L81.822 96.3753C81.2933 96.0696 80.6321 96.4514 80.6321 97.0627Z" fill="#9A0034"/>
<path d="M80.6321 113.225V97.0626C80.6321 96.4512 81.2933 96.0694 81.822 96.3751L94.7641 103.85C95.4174 104.228 95.8189 104.925 95.8189 105.679V122L80.6321 113.225Z" fill="#8FD1CF"/>
<path d="M95.2624 121.034L89.2446 117.559C89.9189 110.87 88.7946 104.358 85.0347 98.8729L94.4844 104.332C94.9646 104.61 95.2624 105.126 95.2624 105.679V121.034Z" fill="#C7E8E7"/>
<path d="M103.194 129.38L103.494 129.265C103.677 129.1 103.69 128.818 103.525 128.634L101.379 126.258C101.213 126.074 100.931 126.061 100.748 126.227C100.564 126.392 100.551 126.674 100.716 126.858L102.863 129.234C102.95 129.331 103.072 129.38 103.194 129.38Z" fill="#741130"/>
<path d="M102.567 118.116L101.962 117.769L101.658 118.157L102.269 118.778L102.567 118.116Z" fill="#741130"/>
<path d="M101.963 117.769C101.838 117.695 101.665 117.706 101.473 117.816L98.7628 119.381C98.3797 119.603 98.0701 120.139 98.0701 120.581V127.221C98.0701 127.441 98.1475 127.598 98.2734 127.67C98.3981 127.742 98.5712 127.731 98.7628 127.621L101.473 126.056C101.856 125.836 102.166 125.298 102.166 124.857V118.216C102.166 117.996 102.088 117.841 101.963 117.769Z" fill="#741130"/>
<path d="M98.8772 128.019L98.2737 127.67L98.9716 126.905L99.4623 127.306L98.8772 128.019Z" fill="#741130"/>
<path d="M102.567 118.116C102.441 118.044 102.268 118.055 102.076 118.165L99.366 119.73C98.9843 119.95 98.6733 120.488 98.6733 120.93V127.57C98.6733 127.79 98.7507 127.945 98.8767 128.019C99.0013 128.091 99.1758 128.08 99.366 127.97L102.076 126.405C102.46 126.185 102.769 125.647 102.769 125.205V118.565C102.769 118.345 102.692 118.188 102.567 118.116Z" fill="#9A0034"/>
<path d="M123.394 85.746L109.737 93.6319C108.954 94.0832 107.712 94.1318 106.83 93.7448L91.575 85.7223L111.986 75.2598L123.591 84.068C124.263 84.5771 124.179 85.2934 123.394 85.746Z" fill="#741130"/>
<path d="M123.394 84.4235L109.737 92.3094C108.954 92.762 107.712 92.8106 106.83 92.4222L91.575 85.7223L111.986 73.9373L123.591 82.7455C124.263 83.2545 124.179 83.9709 123.394 84.4235Z" fill="#9A0034"/>
<path d="M121.81 136.309L111.383 141.204V138.212C111.383 136.835 112.18 135.581 113.427 134.994L120.186 131.822C120.942 131.467 121.81 132.019 121.81 132.855V136.309Z" fill="white"/>
<path d="M111.941 138.212C111.939 137.056 112.615 135.991 113.663 135.498L120.422 132.326L120.67 132.269C120.95 132.269 121.254 132.492 121.254 132.853V135.954L111.941 140.327V138.212Z" fill="#EC8C32"/>
<path d="M143.663 122.704L136.732 128.161V124.255C136.732 123.406 137.121 122.606 137.787 122.081L142.399 118.451C142.91 118.048 143.663 118.413 143.663 119.065V122.704Z" fill="white"/>
<path d="M137.289 124.255C137.289 123.573 137.596 122.94 138.132 122.518L142.742 118.888L142.877 118.839C142.973 118.839 143.107 118.909 143.107 119.065V122.434L137.289 127.014V124.255Z" fill="#EC8C32"/>
<path d="M124.877 134.629C124.362 134.629 123.843 134.235 123.843 133.479V131.018C123.843 130.329 124.288 129.551 124.879 129.209C128.297 127.659 131.065 126.061 133.401 124.291L133.454 124.252L133.643 124.162L133.665 124.158C133.816 124.096 133.971 124.065 134.12 124.065C134.723 124.065 135.159 124.554 135.159 125.226V127.685C135.159 128.382 134.706 129.161 134.101 129.501C132.021 131.187 128.722 132.887 125.481 134.464C125.308 134.568 125.092 134.629 124.877 134.629Z" fill="#741130"/>
<path d="M134.518 125.226V127.686C134.518 128.147 134.197 128.711 133.787 128.942C131.749 130.582 128.597 132.235 125.2 133.888C124.803 134.119 124.483 133.941 124.483 133.479V131.018C124.483 130.557 124.803 129.993 125.2 129.762C128.404 128.314 131.301 126.686 133.787 124.802L133.877 124.764C134.249 124.597 134.518 124.802 134.518 125.226Z" fill="#741130"/>
<path d="M133.877 124.764V127.199C133.877 127.545 133.684 127.967 133.416 128.236L133.147 128.454C133.031 128.545 132.903 128.647 132.775 128.736C132.582 128.891 132.378 129.045 132.16 129.198C131.954 129.338 131.736 129.48 131.518 129.62C131.314 129.762 131.109 129.891 130.903 130.018C130.699 130.147 130.481 130.275 130.263 130.402C130.058 130.518 129.852 130.646 129.648 130.762C129.443 130.877 129.225 131.005 129.007 131.12C128.802 131.235 128.597 131.351 128.392 131.453C128.186 131.569 127.968 131.684 127.751 131.8C127.546 131.902 127.341 132.017 127.135 132.12C126.931 132.223 126.713 132.337 126.495 132.453C126.29 132.557 126.085 132.659 125.88 132.761C125.662 132.864 125.457 132.966 125.238 133.068C125.009 133.184 124.791 133.286 124.56 133.401L124.483 133.441V131.018C124.483 130.557 124.803 129.993 125.2 129.762L125.238 129.749C125.405 129.672 125.585 129.582 125.751 129.505C125.995 129.39 126.251 129.275 126.495 129.16C126.713 129.056 126.918 128.954 127.135 128.852C127.341 128.736 127.546 128.634 127.751 128.545C127.968 128.429 128.174 128.314 128.392 128.211C128.597 128.096 128.802 127.981 129.007 127.865C129.225 127.75 129.443 127.634 129.648 127.506C129.852 127.391 130.058 127.276 130.263 127.147C130.481 127.032 130.685 126.903 130.903 126.763C131.109 126.648 131.314 126.506 131.518 126.379C131.736 126.237 131.942 126.11 132.16 125.955C132.365 125.828 132.569 125.686 132.775 125.533C132.993 125.392 133.211 125.237 133.416 125.071C133.544 124.982 133.66 124.892 133.787 124.802L133.877 124.764Z" fill="#741130"/>
<path d="M125.733 129.505V133.441H125.092V129.749C125.258 129.672 125.438 129.582 125.605 129.505H125.733Z" fill="#741130"/>
<path d="M126.989 128.852V132.697H126.347V129.16C126.566 129.056 126.771 128.954 126.989 128.852Z" fill="#741130"/>
<path d="M128.244 128.212V131.941H127.604V128.545C127.822 128.429 128.026 128.314 128.244 128.212Z" fill="#741130"/>
<path d="M129.501 127.506V131.197H128.859V127.865C129.077 127.75 129.295 127.634 129.501 127.506Z" fill="#741130"/>
<path d="M130.756 126.763V130.454H130.116V127.147C130.334 127.032 130.539 126.903 130.756 126.763Z" fill="#741130"/>
<path d="M132.012 125.955V129.698H131.372V126.379C131.59 126.237 131.794 126.11 132.012 125.955Z" fill="#741130"/>
<path d="M133.269 125.071V128.954H132.627V125.533C132.845 125.392 133.063 125.237 133.269 125.071Z" fill="#741130"/>
<path d="M126.637 113.035C126.633 112.947 126.63 112.859 126.63 112.769C126.63 110.192 128.378 107.167 130.608 105.879C131.286 105.488 131.949 105.29 132.58 105.29C133.828 105.29 134.759 106.074 135.122 107.334C134.683 107.414 134.23 107.541 133.776 107.71C133.632 107.193 133.304 106.693 132.58 106.693C132.203 106.693 131.765 106.831 131.31 107.095C129.695 108.026 128.308 110.259 128.071 112.199C127.597 112.472 127.12 112.75 126.637 113.035Z" fill="#7EB3B1"/>
<path d="M110.162 127.062L109.316 124.313C115.394 120.02 121.27 116.198 126.637 113.035C127.12 112.751 127.598 112.473 128.071 112.2C128.11 112.176 128.15 112.154 128.191 112.13C129.472 110.192 131.651 108.5 133.777 107.71C134.231 107.541 134.683 107.414 135.123 107.334C135.472 107.271 135.814 107.237 136.143 107.237C136.369 107.237 136.588 107.252 136.802 107.285C137.917 108.217 138.973 109.229 139.958 110.307C140.646 109.632 141.297 108.951 141.887 108.263L141.122 105.788C141.316 105.712 141.492 105.643 141.642 105.582L142.51 108.389C136.263 115.838 124.95 121.996 110.162 127.062Z" fill="#84B9B7"/>
<path d="M139.958 110.306C138.973 109.229 137.917 108.216 136.802 107.285C136.949 107.307 137.092 107.337 137.232 107.376C138.192 106.928 139.982 106.238 141.122 105.788L141.887 108.262C141.296 108.951 140.646 109.632 139.958 110.306Z" fill="#B1CBCA"/>
<path d="M127.649 78.9227C121.418 76.2227 116.943 73.7222 112.552 73.7222C110.985 73.7222 109.429 74.041 107.808 74.7822L113.133 71.6139C113.407 71.4513 113.717 71.3686 114.025 71.3686C114.324 71.3686 114.623 71.446 114.894 71.6008L127.649 78.9227Z" fill="#9A0034"/>
<path d="M111.041 136.271V131.695C111.041 130.988 111.515 130.376 112.199 130.203C116.799 129.041 123.385 125.604 130.116 122C121.792 126.877 114.529 132.561 111.041 136.271Z" fill="#9A0034"/>
<path d="M66.8253 14.6871C58.3726 10.1085 50.1665 6.62404 42.7437 6.62404C40.2759 6.62404 37.8961 7.00974 35.6226 7.86774L46.3646 2.16088L66.8253 14.6871Z" fill="#942245"/>
<path d="M9.29597 79.8278L1.77734 75.1456V56.4442C2.57762 66.4174 4.05747 75.5234 9.29597 79.8278Z" fill="#741130"/>
<path d="M19.5372 54.1878V59.5916L20.1171 59.9274C20.445 60.1164 20.6418 60.035 20.6418 59.4945V55.5614C20.6418 55.0209 20.445 54.7125 20.1171 54.5236L19.5372 54.1878ZM18.5073 52.5138L20.1354 53.4531C21.1653 54.0474 21.6704 54.9999 21.6704 56.2095V60.035C21.6704 61.2459 21.1653 61.6132 20.1354 61.0189L18.5073 60.0783V52.5138Z" fill="white"/>
<path d="M23.3537 58.4999L24.768 59.3159V60.3957L23.3537 59.5796V61.7955L25.1327 62.8227V63.9037L22.3252 62.2822V54.7164L25.1327 56.3379V57.4189L23.3537 56.3917V58.4999Z" fill="white"/>
<path d="M25.769 56.7054L26.7976 57.2997V63.7845L28.4926 64.7619V65.8429L25.769 64.2712V56.7054Z" fill="white"/>
<path d="M28.9395 58.5368L29.9693 59.1312V66.6957L28.9395 66.1014V58.5368Z" fill="white"/>
<path d="M32.2716 66.6313L33.0575 60.9139L34.0034 61.4597L32.9919 68.4417L31.4569 67.5549L30.4468 59.4065L31.4845 60.0061L32.2716 66.6313Z" fill="white"/>
<path d="M35.5094 65.5175L36.9223 66.3335V67.4132L35.5094 66.5972V68.8131L37.287 69.8403V70.9214L34.4795 69.2998V61.7353L37.287 63.3555V64.4365L35.5094 63.4106V65.5175Z" fill="white"/>
<path d="M38.9517 65.398V67.7214L39.3545 67.9537C39.7376 68.1754 39.9711 68.115 39.9711 67.5102V66.765C39.9711 66.2245 39.8124 65.8952 39.4477 65.684L38.9517 65.398ZM40.0747 72.5309C40.0196 72.304 39.9816 72.1636 39.9816 71.547V70.3584C39.9816 69.6565 39.7756 69.2774 39.3073 69.0071L38.9517 68.8025V71.8815L37.9219 71.2872V63.7227L39.4765 64.6201C40.5431 65.2354 41.0023 66.0737 41.0023 67.2413V67.8343C41.0023 68.6136 40.7871 68.9966 40.3279 68.9809C40.8422 69.5267 41.0101 70.1957 41.0101 70.9855V72.1531C41.0101 72.5205 41.0206 72.7946 41.1229 73.1357L40.0747 72.5309Z" fill="white"/>
<path d="M42.5549 71.4553L41.2534 65.6448L42.3305 66.2666L43.1164 70.1683L43.9022 67.1745L44.8862 67.7425L43.5847 72.0496V74.5567L42.5549 73.9624V71.4553Z" fill="white"/>
<path d="M46.3262 84.2295L18.415 68.1151V61.2132L46.3262 77.3275V84.2295Z" fill="white"/>
<path d="M44.583 86.6539L54.9052 85.7316L44.583 72.8892V86.6539Z" fill="white"/>
</svg>
