<svg width="156" height="143" viewBox="0 0 156 143" fill="none" xmlns="http://www.w3.org/2000/svg">
<path d="M3.93421 107.109C3.98555 107.517 3.79215 107.881 3.50433 107.917C3.21651 107.953 3.01686 108.278 3.06095 108.638C3.10373 108.999 2.83756 110.051 2.469 110.976C-0.876131 119.364 6.52867 134.163 13.6234 133.269C16.3564 132.925 20.4958 128.859 20.2335 126.777C20.1812 126.362 20.4509 125.38 20.8323 124.598C22.0503 122.102 21.6284 117.801 20.308 113.638C19.8144 111.235 19.1659 109.105 18.4756 108.041C17.4086 106.397 16.2688 105.094 15.0974 104.147C14.2043 103.252 13.2775 102.634 12.3584 102.399C11.9102 102.284 11.4093 102.252 10.881 102.288C9.27587 102.16 7.70196 102.702 6.26087 103.943C4.81885 104.883 3.80354 106.072 3.93421 107.109Z" fill="#0E0C16"/>
<path d="M5.02826 106.971C5.0796 107.379 4.81181 107.752 4.43308 107.8C4.05435 107.848 3.77991 108.182 3.82358 108.542C3.86554 108.903 3.47539 109.971 2.956 110.915C-1.7578 119.475 7.36982 134.057 16.7056 132.881C20.3018 132.428 25.8877 128.18 25.6253 126.098C25.573 125.682 25.9651 124.685 26.4956 123.885C28.1902 121.328 27.8055 117.023 26.2375 112.891C25.6846 110.496 24.918 108.381 24.0546 107.339C22.7203 105.728 21.2771 104.464 19.7786 103.557C18.6428 102.693 17.452 102.108 16.2563 101.908C15.6733 101.81 15.0178 101.798 14.3239 101.855C12.2247 101.788 10.1402 102.395 8.20239 103.698C6.27518 104.699 4.8976 105.934 5.02826 106.971Z" fill="#0E0C16"/>
<path fill-rule="evenodd" clip-rule="evenodd" d="M66.6408 4.96586C66.3088 5.05016 65.8021 5.11303 65.5148 5.10579C65.2275 5.09854 65.499 5.0295 66.1183 4.95245C66.7375 4.87539 66.9728 4.88156 66.6408 4.96586ZM71.9044 4.7372C72.1129 4.8379 71.6634 4.95371 70.4736 5.10549C69.4401 5.23759 68.7289 5.2508 68.7148 5.13897C68.6842 4.89558 71.498 4.54113 71.9044 4.7372ZM64.4934 5.67072C64.4426 5.78213 64.1313 5.90583 63.8019 5.9459C63.3461 6.00092 63.2646 5.96632 63.4615 5.8007C63.8031 5.51281 64.6117 5.41095 64.4934 5.67072ZM48.2337 7.85062C48.059 7.92035 47.7635 7.95757 47.577 7.93333C47.3905 7.90862 47.5333 7.85148 47.8945 7.80599C48.2557 7.76049 48.4083 7.78041 48.2337 7.85062ZM76.2906 4.75747C76.4992 4.85817 76.0497 4.97398 74.8599 5.12576C73.8264 5.25786 73.1152 5.27107 73.1011 5.15924C73.0705 4.91585 75.8843 4.56141 76.2906 4.75747ZM63.1573 6.41182C63.1703 6.51519 63.0069 6.62169 62.7944 6.64845C62.582 6.67521 62.4498 6.60594 62.5006 6.49454C62.5514 6.38313 62.7147 6.27663 62.8634 6.2579C63.0121 6.23917 63.1442 6.30845 63.1573 6.41182ZM80.0602 4.79147C80.1967 4.82726 80.27 4.94022 80.2238 5.04246C80.1222 5.2648 77.4981 5.39343 77.2123 5.18982C77.0035 5.04142 79.6209 4.67496 80.0602 4.79147ZM84.0179 5.0261C84.3349 5.14416 85.0791 5.17786 85.6837 5.1017C86.2851 5.02596 86.8398 5.042 86.9166 5.13733C87.1374 5.41119 84.7636 5.62716 84.1843 5.38605C83.8911 5.26356 83.158 5.23943 82.4254 5.3279C81.7345 5.41111 81.1062 5.40147 81.0294 5.30613C80.8012 5.02271 83.3626 4.78264 84.0179 5.0261ZM90.1772 5.29941C90.3494 5.51303 88.6805 5.72325 88.1134 5.55937C87.833 5.4787 88.0564 5.39853 88.8775 5.28556C89.5154 5.19804 90.1004 5.20407 90.1772 5.29941ZM92.2819 5.36365C93.5922 5.3332 93.5923 5.6592 92.2823 5.76025C91.6325 5.8106 91.0862 5.76724 91.0689 5.6644C91.0316 5.4438 91.2576 5.38766 92.2819 5.36365ZM96.2293 5.68263C96.4454 5.78668 96.2209 5.86984 95.4552 5.96821C94.8592 6.04471 94.3661 6.02281 94.3531 5.91897C94.3228 5.67839 95.8275 5.48885 96.2293 5.68263ZM99.2084 5.88016C99.2943 5.98676 98.9877 6.09889 98.4098 6.17168C97.8939 6.23667 97.409 6.21183 97.3322 6.11649C97.2463 6.00989 97.5529 5.89776 98.1308 5.82497C98.6467 5.75998 99.1316 5.78482 99.2084 5.88016ZM60.6524 10.5617C60.8233 10.9693 61.7208 18.1092 61.6559 18.5436C61.5721 19.104 61.5647 19.0978 61.3415 18.2872C60.8867 16.6357 60.2618 9.62855 60.6524 10.5617ZM101.437 6.17221C101.465 6.39681 100.955 6.46109 100.405 6.3022C100.088 6.21045 100.149 6.16793 100.711 6.08605C101.098 6.03026 101.424 6.06884 101.437 6.17221ZM54.0239 12.2978C54.7413 12.3908 57.3782 14.2863 58.1016 15.2286C59.4948 17.044 59.3931 20.1785 57.8733 22.2563C57.5346 22.719 57.2433 23.3571 57.2256 23.6744C57.1615 24.8333 58.9049 37.0432 59.1702 37.2919C59.436 37.5415 59.6617 39.0113 60.7312 47.4718C61.1396 50.7024 61.4074 52.2725 61.5918 52.5185C61.8941 52.921 63.4996 62.7879 65.4141 76.0077C66.3426 82.4187 66.6679 84.2779 66.9329 84.6947C67.2091 85.1286 67.5017 87.0091 68.5453 95.0595C69.3715 101.429 69.9161 105.087 70.0923 105.442C70.2552 105.771 70.6039 107.876 70.9643 110.707C71.2944 113.301 71.8055 116.724 72.1 118.312C72.395 119.901 72.5969 121.251 72.5492 121.311C72.4 121.5 66.2336 122.108 65.5197 122.005C65.1459 121.95 64.1579 121.937 63.324 121.974C62.4901 122.012 61.6981 121.977 61.5644 121.896C61.4304 121.815 60.8238 121.766 60.2166 121.787C59.6088 121.808 58.8312 121.74 58.4878 121.636C58.1439 121.531 57.6643 121.468 57.4218 121.495C57.005 121.542 55.2585 121.233 54.8195 121.036C54.7084 120.986 54.3346 120.92 53.9892 120.89C53.4738 120.846 52.2833 120.526 52.0028 120.357C51.9651 120.334 52.0087 120.121 52.0998 119.883C52.2199 119.569 51.7887 115.518 50.5419 105.242C48.5536 88.8556 48.9566 90.4893 46.4406 88.6311L44.979 87.5512L44.2834 82.0289C43.5058 75.8557 43.6623 76.2656 42.1576 76.4552C40.477 76.6668 40.5006 76.0333 41.7805 86.6219C42.5737 93.184 43.021 96.3109 43.2959 97.2185C43.8134 98.9252 45.7352 112.177 45.4939 112.372C45.2543 112.566 42.1584 112.576 40.9858 112.387C40.4654 112.303 39.7523 112.271 39.402 112.315C39.0511 112.359 38.6077 112.335 38.4163 112.26C38.225 112.186 37.6214 111.983 37.0753 111.809C36.5292 111.635 36.0463 111.432 36.0023 111.359C35.9578 111.286 35.8209 111.239 35.698 111.254C35.3377 111.3 33.8461 109.849 33.1769 108.803C32.2828 107.406 32.0252 106.216 30.9247 98.395C30.1463 92.8621 29.7581 90.563 29.5413 90.2037C29.3581 89.8998 29.1213 88.807 28.9366 87.4159C28.7699 86.1572 28.478 84.4599 28.2885 83.6437C28.0989 82.8275 27.7355 81.2551 27.481 80.1502C27.2265 79.0448 26.9145 77.9943 26.7881 77.8155C26.6617 77.6367 26.5274 77.2474 26.49 76.9504C26.4525 76.653 26.2774 76.2617 26.1006 76.0797C25.9238 75.8982 25.7627 75.6406 25.7426 75.5076C25.6256 74.7338 22.9114 72.7697 22.1 72.872C21.9152 72.8952 21.5889 72.8471 21.3751 72.7652C21.1618 72.6832 20.4424 72.6803 19.7767 72.7594C18.1569 72.9505 18.2712 73.2111 17.3596 67.2639C16.2078 59.7508 16.0586 58.6006 16.2119 58.4028C16.2874 58.3059 21.3443 57.5973 27.4494 56.8283L38.5504 55.43L37.5289 46.5105L36.8803 45.9349C36.523 45.6181 35.9184 45.2556 35.5366 45.1299C35.1543 45.0039 34.8327 44.8296 34.8218 44.7432C34.8108 44.6562 34.4167 44.576 33.9459 44.5647C33.4752 44.5538 33.0311 44.4709 32.9588 44.3812C32.8793 44.2828 29.2731 44.6645 23.8788 45.3421C14.1766 46.5609 14.2944 46.5585 14.6112 45.5396C14.7268 45.1675 14.8849 44.0097 14.9622 42.9665C15.1272 40.7505 15.8372 37.831 16.5212 36.5616C16.7853 36.0706 17.0687 35.5103 17.1511 35.3171C17.2339 35.1234 17.6766 34.5526 18.135 34.049C18.5937 33.5449 19.1576 32.9259 19.3878 32.6731C20.426 31.5337 22.5063 29.6421 23.5185 28.917C24.1287 28.4802 25.7463 27.2316 27.1134 26.142C29.3491 24.3601 31.1252 23.239 31.8574 23.1468C32.3668 23.0826 34.0292 21.8565 34.0958 21.4959C34.2025 20.913 35.3448 20.3357 35.7833 20.6427C36.0958 20.8616 36.2834 20.7812 37.661 19.8363C38.5027 19.2587 39.2771 18.7754 39.3822 18.7622C39.4868 18.749 40.0514 18.4197 40.6371 18.0309C41.6453 17.3607 42.3003 17.0991 44.8597 16.3433C46.7101 15.7967 47.4027 15.4431 47.8766 14.802C49.0406 13.2272 51.9753 12.0318 54.0239 12.2978ZM103.947 6.42882C103.977 6.66798 103.221 6.76323 102.821 6.57062C102.595 6.46165 102.697 6.4006 103.22 6.33232C103.607 6.28216 103.934 6.32545 103.947 6.42882ZM106.27 6.70906C106.283 6.81243 105.998 6.93423 105.637 6.97972C105.275 7.02522 104.969 6.97787 104.956 6.8745C104.943 6.77113 105.228 6.64932 105.589 6.60383C105.95 6.55833 106.257 6.60569 106.27 6.70906ZM50.1217 13.9044C49.8176 14.115 49.4512 14.3764 49.3076 14.4847C49.164 14.593 48.8871 14.7778 48.6922 14.8954C48.1768 15.2067 47.4457 16.3479 47.4977 16.7604C47.5222 16.9554 47.3721 17.2617 47.1642 17.4416C46.6403 17.8937 46.9493 20.6915 47.6084 21.4672C51.2191 25.7145 57.0107 24.5287 57.987 19.3422C58.345 17.4408 56.5159 13.992 55.2097 14.105C55.0773 14.1164 54.9036 14.0051 54.825 13.8575C54.7459 13.71 54.531 13.6082 54.3477 13.6313C54.1643 13.6544 53.7562 13.5774 53.4412 13.46C52.6699 13.1734 50.8194 13.4208 50.1217 13.9044ZM108.404 7.01293C108.417 7.1163 108.222 7.22681 107.97 7.25854C107.718 7.29027 107.449 7.23825 107.373 7.14292C107.291 7.04195 107.472 6.93943 107.807 6.8973C108.122 6.85754 108.391 6.90956 108.404 7.01293ZM110.445 7.32862C110.525 7.42654 110.381 7.52767 110.116 7.56106C109.858 7.59355 109.584 7.54213 109.507 7.44679C109.428 7.34887 109.572 7.24773 109.837 7.21435C110.095 7.18186 110.369 7.23329 110.445 7.32862ZM111.736 7.73884C111.749 7.84222 111.596 7.94741 111.396 7.97264C111.195 7.99787 110.969 7.94053 110.892 7.8452C110.813 7.74681 110.96 7.64567 111.232 7.6114C111.496 7.57813 111.723 7.63547 111.736 7.73884ZM113.493 8.07166C113.505 8.1647 113.779 8.29771 114.102 8.36679C114.629 8.47947 115.128 9.41182 114.692 9.46677C114.511 9.48952 113.567 8.65993 113.542 8.45601C113.529 8.35828 113.356 8.29855 113.155 8.32378C112.955 8.34901 112.728 8.29167 112.651 8.19633C112.572 8.09795 112.72 7.99681 112.992 7.96254C113.256 7.92928 113.482 7.97816 113.493 8.07166ZM121.886 11.149C122.162 11.2627 122.581 11.3326 122.816 11.3045C125.481 10.9864 128.159 16.039 126.987 19.1752C126.671 20.0212 125.379 21.6765 124.998 21.7245C124.845 21.7438 124.61 21.9023 124.474 22.0769C124.339 22.2514 123.914 22.4339 123.529 22.4824C123.144 22.5309 122.742 22.6832 122.635 22.8207C122.365 23.1693 122.097 22.9062 122.293 22.4857C122.382 22.2956 122.734 22.0564 123.077 21.954C124.12 21.6413 125.533 20.2232 125.889 19.1301C126.705 16.6298 126.439 15.2151 124.824 13.4663C123.842 12.4029 121.434 11.4814 120.082 11.6517C119.81 11.6859 119.656 11.6128 119.685 11.463C119.752 11.1181 121.28 10.9004 121.886 11.149ZM117.231 12.7746C117.307 12.8699 117.243 12.9639 117.089 12.9834C116.934 13.0029 116.745 12.9408 116.668 12.8455C116.591 12.7502 116.655 12.6562 116.81 12.6367C116.964 12.6172 117.154 12.6793 117.231 12.7746ZM14.6647 50.1333C14.7493 50.8052 14.7497 51.0844 14.6661 50.7536C14.5821 50.4229 14.5128 49.8732 14.5122 49.532C14.5112 49.1908 14.5801 49.4614 14.6647 50.1333ZM90.8999 40.4177C90.9484 40.4545 93.7862 40.2293 97.2061 39.9169C100.626 39.6049 103.684 39.3719 104.002 39.3997L104.581 39.4505L104.128 39.643C103.247 40.0185 94.6658 40.793 94.4522 40.5163C94.294 40.3119 93.6001 40.3563 90.5762 40.7639C84.3598 41.6028 82.5465 41.7864 82.8308 41.5467C83.0751 41.3413 90.7101 40.2726 90.8999 40.4177ZM115.185 38.6646C115.242 38.7361 113.404 39.0173 111.1 39.289C106.416 39.8417 106.689 39.7214 111.738 39.0071C113.576 38.7474 115.127 38.593 115.185 38.6646ZM0.485505 53.1805C0.673091 53.3268 0.881612 55.1864 0.799673 55.9848C0.752243 56.4442 0.685691 56.2941 0.477492 55.2616C0.208528 53.9247 0.211938 52.9681 0.485505 53.1805ZM118.193 38.9487C117.863 39.0328 117.314 39.1019 116.973 39.1023C116.633 39.1032 116.903 39.0343 117.573 38.9499C118.244 38.8654 118.523 38.8651 118.193 38.9487ZM124.64 38.7065C124.413 38.7809 124.075 38.8216 123.889 38.7972C123.704 38.7728 123.89 38.7117 124.303 38.662C124.716 38.6119 124.868 38.6319 124.64 38.7065ZM129.369 38.569C129.557 38.6571 129.45 38.7245 129.035 38.7786C128.7 38.8223 128.422 38.8258 128.417 38.7863C128.395 38.6153 129.117 38.4504 129.369 38.569ZM126.364 45.9427C129.525 45.6104 129.465 45.5955 129.61 46.7444C129.812 48.3485 129.894 48.3916 132.03 48.0018C134.509 47.5496 134.751 47.5946 135.226 48.5959L135.611 49.4089L133.033 49.7336C130.002 50.1155 130.068 50.0618 130.234 52.0041L130.355 53.4123L125.256 54.1051C119.36 54.9066 119.814 55.0069 119.365 52.8062C118.944 50.7484 119.671 50.8445 111.897 51.8184C108.16 52.2868 104.742 52.633 104.3 52.5878C103.86 52.5426 99.8699 52.8705 95.4342 53.3161C90.9989 53.7617 86.6849 54.138 85.8481 54.1523C85.0112 54.166 83.4374 54.2688 82.3507 54.3795C81.264 54.4906 83.9131 54.0729 88.2376 53.4518C93.5726 52.6852 96.3023 52.2225 96.7284 52.0118C97.1788 51.7894 100.38 51.2941 108.039 50.262C119.453 48.7235 119.193 48.7825 119.064 47.7582C118.941 46.7799 119.331 46.6825 126.364 45.9427ZM78.4465 54.8421C77.8024 54.9605 76.7892 55.0877 76.1949 55.1248C75.6011 55.1619 76.1283 55.0649 77.3666 54.9094C78.6049 54.7534 79.091 54.7232 78.4465 54.8421ZM95.3758 60.7172C92.4702 62.529 91.2637 65.1769 91.7021 68.7823C91.9321 70.676 92.0116 70.8951 93.1625 72.8064C95.7445 77.0955 103.684 76.9121 105.089 72.5308C105.14 72.3707 105.245 72.1026 105.322 71.9353C105.399 71.7682 105.494 71.4985 105.533 71.336C105.571 71.1737 105.661 70.9046 105.731 70.7382C106.798 68.223 105.685 63.7102 103.56 61.9335C102.791 61.29 101.09 60.249 100.856 60.2784C100.757 60.2909 100.417 60.2053 100.102 60.0879C99.2726 59.7796 96.2302 60.1843 95.3758 60.7172ZM3.09961 73.7856C3.37083 74.4522 3.60215 76.697 3.41492 76.8485C3.30418 76.9379 3.16047 76.3417 3.01564 75.1919C2.78511 73.3618 2.80305 73.0578 3.09961 73.7856ZM145.718 61.4054C145.874 62.7151 145.873 62.7176 145.597 61.8698C145.428 61.3513 145.367 60.8358 145.44 60.5531C145.533 60.1987 145.599 60.3999 145.718 61.4054ZM146.068 64.1299C146.192 65.0259 146.176 65.2703 146.009 65.0513C145.862 64.8593 145.802 64.4235 145.84 63.8316L145.899 62.9101L146.068 64.1299ZM145.85 66.7234C145.896 67.0913 145.849 67.4031 145.746 67.4161C145.643 67.4291 145.527 67.1912 145.489 66.8872C145.451 66.5832 145.497 66.2714 145.592 66.1945C145.695 66.1113 145.799 66.3254 145.85 66.7234ZM145.525 68.6851C145.56 68.9651 145.5 69.1374 145.385 69.0846C145.273 69.0337 145.168 68.8752 145.15 68.7323C145.132 68.5895 145.195 68.4097 145.29 68.3328C145.389 68.2531 145.49 68.405 145.525 68.6851ZM140.704 93.5819C140.993 93.589 141.238 93.6673 141.25 93.7556C141.261 93.844 141.53 93.9399 141.848 93.969C142.166 93.9982 142.437 94.1016 142.449 94.1984C142.472 94.384 141.556 94.3419 141.203 94.1415C141.09 94.0774 140.716 94.0005 140.371 93.9708C140.027 93.9416 139.735 93.8395 139.723 93.7441C139.701 93.5688 139.766 93.5578 140.704 93.5819ZM9.45558 112.858C9.09374 113.227 8.81287 113.649 8.83134 113.796C8.84975 113.942 8.78041 114.072 8.67722 114.085C8.57403 114.098 8.50245 114.215 8.51825 114.344C8.53359 114.473 8.43816 114.85 8.30602 115.182C7.10671 118.189 9.76152 123.495 12.3052 123.175C13.285 123.051 14.7691 121.594 14.6751 120.847C14.6563 120.698 14.753 120.346 14.8898 120.066C15.306 119.213 14.7337 115.191 14.0448 114.13C12.6227 111.938 10.8398 111.443 9.45558 112.858ZM133.079 117.207C127.386 119.484 129.458 129.611 135.462 128.854C136.3 128.749 138.109 127.835 138.071 127.535C138.061 127.451 138.159 127.369 138.289 127.353C138.42 127.336 138.745 126.875 139.012 126.328C140.934 122.386 139.004 117.661 135.19 116.969C134.08 116.767 134.217 116.752 133.079 117.207Z" fill="#160A06"/>
<path fill-rule="evenodd" clip-rule="evenodd" d="M76.1963 1.73883C80.6715 1.28871 84.1338 1.14948 87.9537 1.26544C90.2554 1.33541 93.6532 1.61909 94.7918 1.83653C95.0603 1.88767 95.8055 2.01623 96.4479 2.12242C99.0546 2.55206 103.189 3.47093 104.684 3.95326C105.558 4.23503 106.538 4.52918 106.862 4.60624C108.98 5.1099 113.449 7.1307 113.188 7.46664C113.111 7.56656 112.152 7.40625 111.128 7.12242C110.771 7.02317 110.287 6.96673 110.052 6.99627C109.817 7.02587 109.446 6.94662 109.226 6.82014C109.007 6.6936 108.659 6.60909 108.452 6.63227C108.245 6.65545 107.681 6.60053 107.197 6.51008C106.714 6.42009 105.753 6.27724 105.061 6.19305C104.369 6.10886 103.358 5.97274 102.814 5.89085C102.271 5.80848 101.596 5.77038 101.314 5.80583C101.032 5.84134 100.612 5.79742 100.379 5.70784C100.146 5.61832 99.478 5.54309 98.8934 5.53988C98.3089 5.53667 97.4394 5.49202 96.9611 5.4401C95.3665 5.26769 93.4127 5.11905 91.5727 5.03006C90.5707 4.98158 89.2518 4.8828 88.6412 4.80983C88.0308 4.73732 87.2556 4.71182 86.9187 4.75283C86.5818 4.79431 85.8258 4.76162 85.239 4.68041C84.6522 4.59919 83.8341 4.57336 83.4211 4.623C83.008 4.67265 82.19 4.64681 81.6032 4.5656C81.0164 4.48438 80.1561 4.46387 79.6914 4.51907C79.2266 4.57475 78.3244 4.5619 77.6864 4.49001C77.0484 4.41811 76.1457 4.4015 75.6804 4.45248C75.2151 4.50345 74.3125 4.48684 73.6744 4.41495C73.0364 4.34305 72.0498 4.34084 71.4819 4.40951C70.9139 4.47771 69.9692 4.46784 69.3824 4.38662C64.73 3.74356 61.3826 5.8282 60.3514 10.0111C59.9684 11.5629 61.3129 20.6889 62.0264 21.3828C62.1377 21.491 62.3619 22.6656 62.5243 23.9931C62.8533 26.6762 63.1981 28.2185 63.4274 28.0335C63.5104 27.9662 63.6619 28.5715 63.7645 29.3786C63.8671 30.1857 64.1291 31.5541 64.3462 32.4194C64.5639 33.2846 64.9358 34.9131 65.1724 36.0385C65.9019 39.5074 66.4798 41.247 67.0697 41.746C67.4019 42.0268 67.443 42.1409 67.2635 42.2862C67.0974 42.4203 67.1563 42.483 67.4804 42.5176C67.7243 42.5437 67.9233 42.648 67.9222 42.7488C67.9175 43.1356 68.7905 43.0982 73.6121 42.5037C77.3465 42.0433 78.9688 41.9177 80.1241 41.9989C81.0914 42.0671 83.5159 41.9359 86.6551 41.645C89.401 41.3907 91.9914 41.1881 92.4116 41.1948C92.8317 41.2015 95.4657 41.0039 98.2647 40.7554C107.791 39.91 115.298 39.3219 115.482 39.4066C115.584 39.4529 117.056 39.3301 118.754 39.1334C121.02 38.8709 122.024 38.8289 122.532 38.9749C123.03 39.1179 123.842 39.0886 125.426 38.8715C126.694 38.6979 127.637 38.6445 127.649 38.7465C127.687 39.043 129.027 39.2098 129.68 38.9995C130.033 38.8863 130.356 38.8781 130.439 38.9808C130.702 39.3076 131.125 39.102 131.071 38.6735C130.852 36.935 133.767 43.3277 134.63 46.4777L134.857 47.3083L130.165 47.7828L129.937 46.5882C129.644 45.0551 130.262 45.1309 124.159 45.8811C118.176 46.6171 118.341 46.5558 118.519 47.9705L118.609 48.6866L107.828 50.0447C99.0805 51.1466 96.901 51.4717 96.2755 51.7677C95.6536 52.0622 92.8411 52.4876 81.7271 53.9687C73.4784 55.0679 67.7328 55.9077 67.41 56.0605C66.9262 56.2904 66.987 56.3042 67.999 56.1978C68.6197 56.132 72.1827 55.8202 75.9168 55.5049C79.651 55.1897 85.8821 54.6115 89.764 54.2208C93.6458 53.8297 98.8594 53.3443 101.35 53.1418C103.84 52.9398 108.739 52.4664 112.238 52.0902L118.597 51.4061L118.83 51.844C118.957 52.0847 119.136 52.8637 119.225 53.5742C119.433 55.2215 118.937 55.1526 125.112 54.3958C131.331 53.634 130.884 53.832 130.646 51.9422L130.459 50.4598L133.077 50.0723C135.925 49.6505 135.881 49.6403 136.026 50.7566C136.068 51.084 136.266 51.7608 136.464 52.2609C136.939 53.4597 136.895 53.8296 136.264 53.908C135.988 53.9424 135.102 54.1795 134.295 54.4348C131.252 55.398 130.357 55.6278 127.279 56.2345C122.093 57.2568 115.424 57.9217 110.903 57.8673C110.063 57.8571 108.389 57.8455 107.183 57.8414C105.977 57.8372 104.388 57.8183 103.652 57.7989C102.916 57.7794 101.672 57.7781 100.888 57.7957C100.104 57.8138 99.2126 57.7633 98.9075 57.6833C98.6026 57.6039 97.8622 57.6007 97.2627 57.6762C96.6633 57.7517 95.7979 57.7319 95.3398 57.632C94.8817 57.5322 93.9792 57.517 93.3343 57.5983C92.6893 57.6795 91.7868 57.6643 91.3287 57.5645C90.8706 57.4647 90.0206 57.4424 89.4403 57.5146C88.8595 57.5868 87.8271 57.6261 87.1451 57.6018C79.1453 57.315 76.023 62.8347 78.2413 73.3418C78.9134 76.5245 79.4136 77.1708 81.5833 77.6569C82.5601 77.8761 84.302 78.2452 87.1468 78.8367C89.4607 79.3176 90.7423 79.6191 91.2781 79.8094C91.4462 79.8694 91.8845 79.9449 92.2523 79.9779C92.62 80.0108 93.1018 80.1329 93.3233 80.2491C93.5447 80.3654 93.8689 80.4425 94.0443 80.4204C94.2193 80.3983 94.6169 80.4719 94.9279 80.584C95.6596 80.8474 96.9083 81.2052 97.0382 81.1888C97.2863 81.1576 103.55 83.2459 103.734 83.4212C103.794 83.4777 104.112 83.6228 104.442 83.7435C106.227 84.3965 107.339 86.1099 108.192 89.5213C108.851 92.1584 110.044 102.32 110.088 105.68C110.107 107.187 110.187 108.938 110.264 109.571C110.341 110.204 110.364 111.071 110.314 111.497C110.264 111.924 110.277 113.34 110.342 114.644C110.408 115.948 110.403 117.435 110.332 117.948L110.202 118.881L108.32 119.787C107.283 120.285 106.307 120.844 106.148 121.029C105.99 121.214 105.729 121.333 105.569 121.293C105.408 121.254 104.94 121.473 104.527 121.78C104.114 122.088 103.656 122.405 103.509 122.485C103.362 122.565 103.124 122.723 102.981 122.837C100.176 125.062 98.4645 125.701 95.8821 125.487C95.2995 125.439 93.9615 125.371 92.9088 125.336C91.8561 125.301 90.3882 125.223 89.6468 125.163C88.9054 125.102 88.0353 125.087 87.7128 125.129C87.3908 125.171 86.752 125.124 86.2939 125.024C85.8358 124.924 85.0277 124.894 84.4986 124.957C83.9691 125.02 83.3099 124.977 83.0333 124.862C82.7568 124.747 82.1576 124.696 81.7017 124.75C81.2458 124.804 80.4282 124.782 79.8848 124.7C79.3414 124.619 78.0343 124.517 76.9804 124.472C75.9264 124.427 74.6141 124.328 74.0642 124.252C73.5147 124.176 72.6975 124.156 72.2481 124.209C71.7992 124.262 71.2057 124.211 70.9292 124.096C70.6526 123.98 70.0352 123.932 69.5572 123.989C69.0793 124.045 68.3687 124.003 67.9791 123.894C67.589 123.786 66.9267 123.741 66.5074 123.793C66.0881 123.846 65.4257 123.801 65.0356 123.692C64.646 123.584 64.0095 123.535 63.6221 123.584C63.2346 123.633 62.5981 123.584 62.2085 123.476C61.8184 123.367 61.1692 123.32 60.7658 123.371C60.362 123.422 59.7128 123.375 59.3231 123.266C58.9331 123.158 58.2521 123.112 57.8098 123.164C57.3676 123.217 56.8262 123.156 56.6068 123.029C56.3818 122.9 55.7936 122.849 55.258 122.913C54.7219 122.977 54.1338 122.927 53.9091 122.797C53.6893 122.67 53.2548 122.599 52.9424 122.638C52.2623 122.724 50.7442 122.395 50.2133 122.046C49.8222 121.79 49.4872 119.236 49.5908 117.301C49.638 116.424 49.3777 116.302 47.6435 116.386C46.9583 116.42 46.0922 116.354 45.7189 116.239C45.3456 116.124 44.696 116.02 44.2752 116.008C43.8543 115.996 43.2001 115.909 42.8213 115.814C42.4425 115.72 41.6993 115.608 41.1699 115.566C40.6404 115.523 39.6849 115.427 39.0464 115.352C37.9442 115.223 37.2075 115.132 32.6572 114.562C27.5884 113.928 26.0922 113.81 24.668 113.935C23.239 114.06 22.7913 113.835 24.1337 113.666C24.9362 113.565 24.9545 113.547 24.9779 112.843C25.0037 112.054 24.7685 111.295 24.5077 111.327C24.4162 111.339 24.271 110.712 24.1846 109.935C23.8324 106.753 20.9944 101.049 18.1436 97.7926C16.5763 96.0025 12.9545 93.5021 12.0831 93.609C11.9701 93.6233 11.5855 93.5319 11.229 93.4064C10.5629 93.1724 7.9665 93.5013 7.499 93.8791C7.05966 94.2346 7.60153 94.364 8.86327 94.2051C10.1391 94.0444 11.6983 94.3138 12.0553 94.7572C12.1326 94.8529 12.3201 94.9152 12.4721 94.8961C12.6245 94.8769 13.0284 95.0837 13.37 95.3557C13.7116 95.6277 14.0335 95.845 14.0851 95.8385C14.1939 95.8248 15.6677 96.9522 15.6813 97.0598C15.6862 97.0993 16.0524 97.4341 16.4954 97.804C16.938 98.1741 17.6524 99.0149 18.0827 99.6728C18.5128 100.33 18.9524 100.987 19.0587 101.131C19.921 102.298 20.9329 103.95 20.9708 104.251C20.9962 104.452 21.1525 104.77 21.3184 104.956C21.4843 105.143 21.7211 105.615 21.8452 106.006C21.9688 106.397 22.1559 106.846 22.261 107.004C22.4983 107.36 22.9853 108.562 23.5117 110.093C23.7327 110.736 24.0078 111.304 24.1236 111.358C24.3648 111.468 24.7061 113.137 24.5331 113.36C24.47 113.442 23.4475 113.529 22.2614 113.554C21.0752 113.58 19.4688 113.68 18.6916 113.778C17.6085 113.915 17.2452 113.894 17.1349 113.688C17.0563 113.54 16.8621 113.436 16.7045 113.456C16.5464 113.476 16.4023 113.376 16.3844 113.233C16.3664 113.091 16.2118 112.885 16.0408 112.776C15.8698 112.667 15.6952 112.302 15.6529 111.965C15.6105 111.629 15.4359 111.264 15.2649 111.155C15.0939 111.046 14.931 110.774 14.903 110.552C14.8749 110.329 14.7198 109.994 14.5581 109.807C14.3963 109.62 14.0645 109.085 13.8207 108.617C13.5774 108.15 13.2711 107.716 13.1408 107.653C13.0099 107.59 12.7038 107.263 12.4598 106.926C11.9194 106.181 11.1151 105.568 10.7394 105.615C10.5865 105.635 10.397 105.53 10.3184 105.382C10.2393 105.235 10.054 105.129 9.90668 105.148C9.75939 105.166 9.40373 105.066 9.11629 104.925C8.40123 104.575 6.21274 104.859 5.94883 105.336C5.84761 105.519 5.62613 105.687 5.4568 105.708C5.28747 105.729 5.15975 105.831 5.17277 105.935C5.18579 106.038 5.06981 106.139 4.91502 106.158C4.75883 106.178 4.65467 106.361 4.68095 106.57C4.70699 106.776 4.64761 106.956 4.54912 106.968C4.45062 106.98 4.35211 107.288 4.33059 107.65C4.30868 108.014 4.18818 108.366 4.06277 108.433C3.9043 108.518 3.89231 108.956 4.02337 109.864L4.21256 111.173L3.636 111.018C0.727551 110.236 1.43549 101.818 4.87571 96.2758L5.71897 94.9167L4.74112 87.3883C3.55079 78.2262 3.61833 78.925 3.93968 79.1232C4.21396 79.292 4.63859 79.3192 7.06188 79.3218C12.1597 79.3279 18.3143 78.5278 18.9243 77.7798C19.061 77.6123 19.0588 76.8197 18.9181 75.4604L18.7041 73.3952L20.2323 73.2332C23.0061 72.9392 26.0637 75.0801 26.3726 77.5323C26.4075 77.809 26.624 78.5064 26.8538 79.0822C27.0835 79.6575 27.3517 80.7235 27.4494 81.4506C27.5472 82.1776 27.7594 83.1853 27.9212 83.6899C28.0824 84.1947 28.6998 87.7684 29.2927 91.6317C30.608 100.204 31.866 107.022 32.2882 107.865C33.0047 109.298 33.6572 110.131 34.6692 110.907C35.6207 111.636 36.2233 111.918 38.0168 112.474C38.5231 112.632 39.581 112.712 41.9617 112.773C42.6979 112.792 43.6063 112.855 43.9806 112.913C44.3548 112.971 44.9952 112.948 45.4037 112.863L46.1464 112.707L45.9406 111.205C45.8276 110.379 45.1342 105.741 44.3993 100.898C41.9901 85.0213 40.9857 77.5851 41.2049 77.2406C41.323 77.0548 41.7236 76.8917 42.2157 76.8297C43.46 76.673 43.4695 76.7028 44.0757 82.5624L44.6033 87.6668L46.1986 88.8582C48.3368 90.4557 48.0462 89.163 50.0347 105.913L51.7809 120.619L52.2984 120.873C52.5832 121.012 52.912 121.114 53.0288 121.1C53.1461 121.085 53.522 121.153 53.8651 121.251C54.2076 121.349 55.0127 121.51 55.6541 121.609C56.2954 121.707 57.2268 121.861 57.7241 121.95C58.2209 122.04 58.8428 122.086 59.1064 122.053C59.3696 122.019 59.8345 122.056 60.1393 122.134C62.2206 122.668 72.3718 122.256 72.8661 121.618C73.1116 121.301 72.7199 118.021 72.1861 115.928C71.9771 115.109 71.265 110.855 70.6042 106.475C69.9429 102.096 69.2394 97.5019 69.04 96.2668C68.8406 95.0318 68.3355 91.6158 67.9179 88.6755C67.4999 85.7354 67.0404 83.0706 66.8966 82.7536C66.7528 82.4367 66.1378 78.6478 65.5306 74.3339C64.9228 70.02 64.2138 65.443 63.9554 64.1629C63.6965 62.8829 63.1117 59.2621 62.6559 56.1166C62.1997 52.9713 61.5783 49.0973 61.2747 47.5079C60.9715 45.9184 60.2009 41.204 59.5629 37.0315C58.9248 32.8589 58.1881 28.092 57.9254 26.4383L57.4481 23.4316L58.1162 22.5322C58.4842 22.0376 58.7758 21.5612 58.7648 21.4738C58.7538 21.3864 58.8414 21.1888 58.9593 21.0355C60.3191 19.2642 59.1331 15.1716 56.7931 13.5605C55.8117 12.8846 55.7924 12.8187 55.4956 9.18741C55.3406 7.28714 55.1345 5.70786 55.029 5.6042C54.3607 4.9514 66.7527 2.6883 76.1963 1.73883ZM82.8201 44.4011C82.6125 44.5728 82.6214 44.6891 82.873 45.0975C83.0742 45.4239 83.2567 46.3504 83.4197 47.8749C83.741 50.8803 83.2078 50.6644 88.6216 49.9791C94.6325 49.2181 94.2072 49.5184 93.8678 46.2791C93.485 42.6238 93.9258 42.8212 87.8671 43.5882C85.2284 43.9221 82.9569 44.2884 82.8201 44.4011ZM139.863 73.0674C140.066 73.093 140.6 73.3164 141.051 73.5642C141.501 73.8115 141.984 73.9998 142.123 73.9823C142.434 73.9431 143.269 80.1299 143.155 81.6231C143.117 82.132 143.097 83.3631 143.112 84.3588C143.211 90.8032 142.872 93.9555 142.122 93.6009C141.879 93.4864 141.065 93.2739 140.313 93.1285C139.053 92.8854 138.331 92.5262 138.473 92.2133C138.505 92.1434 138.516 91.2308 138.498 90.1858C138.48 89.1404 138.499 87.8945 138.54 87.4168C138.582 86.939 138.615 85.8179 138.613 84.9255C138.608 81.2479 138.706 77.5684 138.847 76.1582C138.892 75.7048 138.886 74.991 138.833 74.5723C138.78 74.1537 138.804 73.6362 138.886 73.423C139.034 73.0339 139.179 72.9813 139.863 73.0674ZM7.52008 97.3337C7.4111 97.5049 7.07856 97.6757 6.78071 97.7132C6.13249 97.7949 5.31167 98.6701 5.144 99.4573C5.01773 100.051 5.47951 100.033 5.74516 99.4331C5.81049 99.286 5.95862 99.1533 6.07401 99.1387C6.18987 99.1241 6.42922 98.9436 6.60577 98.7376C7.04164 98.2297 9.11793 97.9515 9.67403 98.3263C9.88647 98.4695 10.1625 98.6066 10.287 98.631C10.4121 98.6553 10.9458 98.9542 11.4733 99.2949C13.1499 100.379 16.0352 104.409 16.2274 105.935C16.2671 106.25 16.4519 106.639 16.6384 106.799C16.8249 106.96 17.0667 107.43 17.1765 107.845C17.2859 108.259 17.4588 108.588 17.5601 108.575C17.8814 108.534 16.7568 104.025 16.3464 103.706C16.2186 103.606 16.097 103.386 16.0756 103.217C16.0543 103.047 15.7797 102.562 15.4657 102.138C15.1517 101.715 14.8289 101.248 14.7484 101.101C13.3045 98.4594 8.42253 95.915 7.52008 97.3337ZM46.4127 103.09C46.6164 104.45 46.4955 103.278 46.1439 100.487C45.7924 97.6964 45.6256 96.5843 45.7735 98.0158C45.9214 99.4472 46.2091 101.731 46.4127 103.09ZM80.7197 96.5345C80.0769 96.879 80.8079 98.0523 81.4585 97.7207C81.8458 97.523 83.2378 97.8273 83.8021 98.2326C85.1234 99.1822 84.8041 101.444 83.28 101.934C81.75 102.426 80.8875 101.479 82.1858 100.733C83.4219 100.022 82.6976 99.2242 81.01 99.4368L80.0822 99.5537L79.9311 100.805C79.6615 103.031 79.7504 103.184 81.4687 103.464C85.0333 104.047 87.4354 101.604 86.2204 98.6306C85.5217 96.9201 82.2934 95.69 80.7197 96.5345ZM94.8945 95.1213C93.8686 95.8285 94.3427 96.3087 95.9753 96.2152C97.7693 96.1129 98.5397 96.6531 98.7277 98.1458C98.8954 99.477 98.1807 100.226 96.3874 100.599C94.7366 100.941 95.3222 102.027 97.0382 101.805C100.45 101.364 101.807 98.1951 99.6086 95.8034C98.5517 94.653 96.0911 94.2971 94.8945 95.1213ZM91.1713 96.0862C91.1053 96.2358 90.7388 97.0787 90.3565 97.9593C89.4946 99.9451 89.343 99.9447 89.0236 97.9539C88.7422 96.2042 88.2589 95.6283 87.6888 96.3641C87.2896 96.8793 87.5801 102.329 88.036 102.88C88.9157 103.944 90.8132 101.985 91.4493 99.3562C91.7107 98.2765 92.2226 98.7433 92.4699 100.286C92.799 102.339 92.905 102.557 93.5045 102.409C94.3924 102.192 94.2804 99.8841 93.1934 96.0172C93.0052 95.3474 91.4741 95.3994 91.1713 96.0862ZM135.189 94.0599C135.465 94.1712 136.182 94.2011 136.784 94.1268C137.501 94.0384 137.985 94.0767 138.193 94.2386C138.377 94.3815 138.85 94.4421 139.321 94.3829C139.868 94.3139 140.178 94.368 140.275 94.5491C140.358 94.7038 140.653 94.7878 140.974 94.7474C141.279 94.709 141.672 94.7884 141.846 94.924C142.02 95.0595 142.296 95.1537 142.458 95.1333C142.62 95.1129 142.763 95.1807 142.776 95.2841C142.809 95.5397 143.321 95.4589 143.374 95.1897C143.402 95.0536 143.675 95.0888 144.117 95.2852C144.502 95.4567 144.951 95.6388 145.115 95.6907C146.869 96.2464 151.388 99.4976 153.093 101.431C154.704 103.256 154.644 105.214 152.943 106.366C152.014 106.995 146.192 107.888 145.975 107.435C145.893 107.266 145.007 107.318 142.404 107.646C138.628 108.122 138.102 108.061 137.59 107.097C137.462 106.856 137.291 106.667 137.212 106.676C137.131 106.686 136.369 106.18 135.517 105.553C134.666 104.926 133.85 104.428 133.704 104.446C133.559 104.464 133.375 104.358 133.296 104.211C133.217 104.063 133.046 103.956 132.914 103.973C132.783 103.989 132.555 103.889 132.407 103.75C132.259 103.611 131.979 103.518 131.786 103.542C131.592 103.566 131.425 103.522 131.415 103.443C131.398 103.306 130.319 102.942 128.827 102.569C127.759 102.301 123.832 102.724 123.571 103.134C123.458 103.312 123.223 103.475 123.05 103.497C122.426 103.575 118.947 107.163 118.993 107.68C119 107.756 118.75 108.389 118.438 109.086C117.752 110.619 117.029 112.749 116.946 113.48C116.912 113.774 116.816 114.07 116.731 114.138C116.647 114.207 116.615 114.576 116.662 114.957C116.716 115.4 116.679 115.569 116.559 115.424C116.338 115.156 116.245 113.322 116.437 113.005C116.51 112.883 116.564 112.275 116.557 111.653C116.551 111.031 116.613 110.463 116.697 110.392C116.781 110.32 116.86 109.923 116.873 109.51C116.885 109.097 116.967 108.698 117.054 108.624C117.141 108.549 117.247 108.192 117.289 107.831C117.404 106.851 117.676 105.83 117.906 105.515C118.017 105.363 118.088 105.075 118.063 104.875C118.038 104.676 118.094 104.503 118.186 104.491C118.279 104.48 118.494 104.087 118.665 103.62C119.321 101.816 121.066 99.2489 121.843 98.9434C122.067 98.855 122.237 98.6652 122.218 98.5214C122.2 98.3772 122.312 98.2437 122.467 98.2242C122.622 98.2047 122.732 98.0619 122.713 97.9069C122.693 97.7518 122.84 97.6044 123.039 97.5794C123.238 97.5543 123.517 97.3846 123.658 97.2021C123.809 97.0075 124.07 96.8987 124.291 96.9391C124.559 96.9889 124.686 96.8951 124.739 96.6097C124.796 96.296 124.972 96.1904 125.556 96.1168C126.044 96.0553 126.324 95.9216 126.372 95.7276C126.424 95.5153 126.731 95.396 127.462 95.3038C128.022 95.2333 128.767 95.0106 129.118 94.8088C129.975 94.3162 134.452 93.7642 135.189 94.0599Z" fill="#812F48"/>
<path d="M75.5931 95.0871L77.4325 109.69L101.878 103.913L102.418 90.3595L75.5931 95.0871Z" fill="#812F48"/>
<path fill-rule="evenodd" clip-rule="evenodd" d="M55.4956 9.18741C55.3431 7.31833 55.1726 5.73026 55.1178 5.65841C54.9186 5.39711 52.8521 5.87794 49.2262 7.02919C45.0943 8.34058 42.6112 9.18319 40.7266 9.91224C40.1768 10.1252 39.1534 10.5114 38.4523 10.771C37.7511 11.0302 36.7288 11.4254 36.1803 11.6481C35.6319 11.8714 34.8567 12.1862 34.4578 12.3482C33.7628 12.6295 32.8007 13.0676 30.8526 13.9894C30.358 14.2235 29.8153 14.4318 29.6464 14.4526C29.4774 14.4734 29.1134 14.6471 28.8373 14.839C28.5612 15.0303 28.1504 15.2109 27.9244 15.2403C27.6984 15.2693 27.4755 15.3761 27.4293 15.4779C27.3825 15.5797 27.0153 15.7625 26.6122 15.8839C26.2092 16.0053 25.8419 16.1881 25.7952 16.2899C25.7489 16.3917 25.5686 16.4956 25.3946 16.5213C25.2205 16.5466 24.7611 16.7734 24.3735 17.0251C23.9859 17.2768 23.5266 17.5036 23.3525 17.5289C23.1785 17.5546 22.9978 17.6595 22.9507 17.7623C22.904 17.8651 22.6042 18.0422 22.285 18.1559C21.0355 18.6007 15.1379 22.4815 14.3942 23.3485C14.2462 23.5208 14.0733 23.6686 14.0105 23.6765C13.0822 23.7934 6.96812 30.3282 5.4044 32.8751C5.05652 33.442 4.63986 34.095 4.4784 34.3263C4.31741 34.5576 3.86557 35.3887 3.47454 36.173C2.46584 38.197 2.41394 38.3186 2.1905 39.151C2.15377 39.2869 1.98892 39.6728 1.82395 40.0086C1.65897 40.3444 1.49068 40.7523 1.45018 40.9149C1.41014 41.0774 1.19971 41.7483 0.982802 42.4057C0.766366 43.0631 0.56834 43.8818 0.543415 44.2248C0.518533 44.5682 0.426395 44.9073 0.338583 44.978C0.250815 45.0492 0.214597 45.4199 0.257963 45.802C0.301799 46.1841 0.258029 46.8502 0.161416 47.2824C0.0648193 47.7146 0.0421904 48.5337 0.110522 49.1027C0.178853 49.6716 0.176608 50.66 0.1051 51.299C0.0336061 51.9381 0.0266293 52.7982 0.0890388 53.2104C0.152794 53.6334 0.214769 53.7697 0.230487 53.5238C0.282967 52.7072 0.633735 53.2563 0.746876 54.3323C0.924588 56.0268 0.762004 56.8506 0.52698 55.4463L0.339453 54.3244L0.290722 55.1897C0.227473 56.3103 2.07748 71.1106 2.78147 75.1145C3.43914 78.8564 3.63146 79.2408 4.86841 79.2898C10.3928 79.5084 18.1983 78.6699 18.9243 77.7798C19.061 77.6123 19.0588 76.8197 18.9181 75.4604L18.7041 73.3952L20.2323 73.2332C23.0061 72.9392 26.0637 75.0801 26.3726 77.5323C26.4075 77.809 26.624 78.5064 26.8538 79.0822C27.0835 79.6575 27.3517 80.7235 27.4494 81.4506C27.5472 82.1776 27.7594 83.1853 27.9212 83.6899C28.0824 84.1947 28.6998 87.7684 29.2927 91.6317C30.608 100.204 31.866 107.022 32.2882 107.865C33.0047 109.298 33.6572 110.131 34.6692 110.907C35.6207 111.636 36.2233 111.918 38.0168 112.474C38.5231 112.632 39.581 112.712 41.9617 112.773C42.6979 112.792 43.6063 112.855 43.9806 112.913C44.3548 112.971 44.9952 112.948 45.4037 112.863L46.1464 112.707L45.9406 111.205C45.8276 110.379 45.1342 105.741 44.3993 100.898C41.9901 85.0213 40.9857 77.5851 41.2049 77.2406C41.323 77.0548 41.7236 76.8917 42.2157 76.8297C43.46 76.673 43.4695 76.7028 44.0757 82.5624L44.6033 87.6668L46.1986 88.8582C46.6446 89.1915 46.985 89.3989 47.2624 89.6707C48.3148 90.7015 48.4611 92.6573 50.0347 105.913L51.7809 120.619L52.2984 120.873C52.5832 121.012 52.912 121.114 53.0288 121.1C53.1461 121.085 53.522 121.153 53.8651 121.251C54.2076 121.349 55.0127 121.51 55.6541 121.609C56.2954 121.707 57.2268 121.861 57.7241 121.95C58.2209 122.04 58.8428 122.086 59.1064 122.053C59.3696 122.019 59.8345 122.056 60.1393 122.134C62.2206 122.668 72.3718 122.256 72.8661 121.618C73.1116 121.301 72.7199 118.021 72.1861 115.928C71.9771 115.109 71.265 110.855 70.6042 106.475C69.9429 102.096 69.2394 97.5019 69.04 96.2668C68.8406 95.0318 68.3355 91.6158 67.9179 88.6755C67.4999 85.7354 67.0404 83.0706 66.8966 82.7536C66.7528 82.4367 66.1378 78.6478 65.5306 74.3339C64.9228 70.02 64.2138 65.443 63.9554 64.1629C63.6965 62.8829 63.1117 59.2621 62.6559 56.1166C62.1997 52.9713 61.5783 49.0973 61.2747 47.5079C60.9715 45.9184 60.2009 41.204 59.5629 37.0315C58.9248 32.8589 58.1881 28.092 57.9254 26.4383L57.4481 23.4316L58.1162 22.5322C58.4842 22.0376 58.7758 21.5612 58.7648 21.4738C58.7538 21.3864 58.8414 21.1888 58.9593 21.0355C60.3191 19.2642 59.1331 15.1716 56.7931 13.5605C55.8117 12.8846 55.7924 12.8187 55.4956 9.18741ZM71.4819 4.40951C70.9139 4.47725 70.012 4.46674 69.4779 4.38796C68.0675 4.17994 64.8412 4.59255 63.998 5.08922C61.701 6.44108 60.9972 7.39082 60.3514 10.0111C59.9943 11.4584 61.3672 21.0711 61.9704 21.3469C62.0372 21.3776 62.0132 20.669 61.9169 19.7718C61.811 18.787 61.7087 18.3345 61.6581 18.6292C61.5847 19.0604 61.5483 19.0206 61.3439 18.2869C61.0475 17.2236 60.3456 10.8419 60.5021 10.6393C60.5677 10.5552 60.6366 10.6062 60.655 10.7523C60.6739 10.8988 60.823 10.7206 60.9862 10.3559C61.15 9.99161 61.2729 9.60907 61.2599 9.50617C61.2469 9.40327 61.3946 8.97894 61.5875 8.56275C61.781 8.1465 61.9027 7.70159 61.8584 7.57304C61.8141 7.44449 61.8334 7.42439 61.9013 7.52801C61.9868 7.65853 62.0959 7.63953 62.258 7.4659C62.3869 7.32841 62.4264 7.1349 62.3467 7.03563C62.2666 6.93642 62.288 6.89458 62.3937 6.94332C62.4998 6.99152 62.6994 6.93822 62.8371 6.82446C63.0435 6.65431 63.0273 6.62437 62.7479 6.65717C62.5611 6.67928 62.4473 6.61199 62.4942 6.50823C62.5417 6.4044 62.8342 6.29452 63.1449 6.26445C63.4551 6.23444 63.7573 6.14769 63.8158 6.07158C63.8748 5.99542 63.7608 5.9525 63.5632 5.97597C63.2617 6.01155 63.2452 5.9826 63.4615 5.8007C63.8367 5.48471 64.6114 5.41195 64.4777 5.70515C64.4016 5.87273 64.4694 5.88473 64.7098 5.74657C65.3042 5.40439 66.8744 5.1412 67.7737 5.23317C68.3187 5.28863 68.6576 5.25167 68.6824 5.13447C68.7348 4.8892 71.5102 4.54723 71.9044 4.7372C72.1215 4.84159 71.8866 4.93276 71.0865 5.05311L69.9643 5.22263L71.0139 5.23314C71.5912 5.23918 72.3034 5.27595 72.5967 5.31586C72.9428 5.36248 73.1207 5.31477 73.1037 5.17944C73.0707 4.91726 75.8564 4.54821 76.2906 4.75747C76.5012 4.85888 76.0767 4.98013 74.9107 5.15039L73.2263 5.39598L74.9309 5.31061C75.8683 5.26317 76.8061 5.27487 77.0144 5.33598C77.2836 5.4152 77.346 5.38872 77.2297 5.24443C77.1106 5.09667 77.4381 4.99575 78.4378 4.87172C79.9791 4.68092 80.5705 4.80643 80.0398 5.2117C79.7964 5.39797 79.7857 5.45324 79.9971 5.43282C80.1525 5.41802 80.4895 5.43476 80.7465 5.46969C81.0733 5.51492 81.1649 5.47426 81.0514 5.33343C80.8018 5.02359 83.3121 4.7637 84.0179 5.0261C84.3349 5.14416 85.0791 5.17786 85.6837 5.1017C87.0224 4.93308 87.4491 5.24878 86.1577 5.45203L85.2587 5.59343L86.3067 5.59125C86.8832 5.59024 87.6154 5.61542 87.9339 5.64738C88.3736 5.69176 88.4171 5.67434 88.1154 5.57535C87.8157 5.47706 88.003 5.40574 88.8775 5.28556C90.069 5.12163 90.8279 5.38879 89.6992 5.57442C89.1016 5.6726 89.1065 5.67723 89.8472 5.70565C90.2685 5.72179 90.7291 5.78835 90.8712 5.85351C91.0356 5.92875 91.099 5.884 91.0462 5.72932C90.9834 5.54534 91.2152 5.4708 92.0032 5.42118C93.4696 5.32858 93.7022 5.61242 92.3298 5.82013L91.2169 5.988L92.549 5.94479C93.2817 5.92075 93.9933 5.95236 94.1303 6.01529C94.2678 6.07815 94.3683 6.03972 94.3545 5.93024C94.3231 5.68121 95.8173 5.48393 96.2293 5.68263C96.4484 5.7882 96.2453 5.87394 95.5054 5.98861L94.4773 6.14819L95.4318 6.16018C95.9567 6.16661 96.6397 6.20992 96.9496 6.25633C97.3551 6.31695 97.4678 6.28509 97.3525 6.14162C97.2407 6.00249 97.4736 5.90775 98.1308 5.82497C99.2992 5.67779 99.675 6.00181 98.5429 6.18021L97.7375 6.30744L98.6011 6.35474C100.493 6.45861 100.823 6.45149 100.407 6.31676C100.077 6.20986 100.128 6.17047 100.711 6.08605C101.395 5.9871 101.785 6.29736 101.135 6.42313C100.956 6.45763 101.114 6.51654 101.485 6.55328C101.857 6.59048 102.379 6.65118 102.646 6.68822C103.022 6.74064 103.062 6.7184 102.824 6.58988C102.584 6.45977 102.67 6.40403 103.22 6.33232C103.902 6.24359 104.197 6.45648 103.744 6.70974C103.622 6.77814 103.738 6.81365 104.002 6.78849C104.266 6.76381 104.596 6.832 104.736 6.94044C104.933 7.09366 104.983 7.08734 104.961 6.91208C104.944 6.77958 105.204 6.6524 105.589 6.60383C106.367 6.50587 106.511 6.8095 105.784 7.01509C105.423 7.11733 105.505 7.13812 106.068 7.08772C106.502 7.04875 106.921 7.09484 106.997 7.19018C107.074 7.28551 107.221 7.3529 107.324 7.3399C107.428 7.3269 107.449 7.23825 107.373 7.14292C107.291 7.04195 107.472 6.93943 107.807 6.8973C108.472 6.81352 108.62 7.11081 108.013 7.3095C107.648 7.42853 107.658 7.43969 108.103 7.40699C108.379 7.38612 109.201 7.55221 109.93 7.77541C110.659 7.99861 111.484 8.15243 111.763 8.11728C112.043 8.08207 112.398 8.14471 112.554 8.25638C112.779 8.41886 112.803 8.41585 112.674 8.24125C112.562 8.09155 112.662 8.00402 112.992 7.96254C113.256 7.92928 113.483 7.98661 113.496 8.08998C113.509 8.19335 113.372 8.29795 113.191 8.32211C112.916 8.3592 112.911 8.38892 113.162 8.50675C113.35 8.59477 113.494 8.57276 113.552 8.44713C113.611 8.31651 113.823 8.29169 114.167 8.37537C114.802 8.52968 114.848 8.36929 114.222 8.17991C113.977 8.10578 113.462 7.87174 113.08 7.66026C112.697 7.44838 112.206 7.29496 111.989 7.31849C111.771 7.34209 111.367 7.26697 111.09 7.15193C110.814 7.03689 110.371 6.96667 110.106 6.99617C109.842 7.02562 109.446 6.94662 109.226 6.82014C109.007 6.6936 108.659 6.60909 108.452 6.63227C108.245 6.65545 107.681 6.60053 107.197 6.51008C106.714 6.42009 105.753 6.27724 105.061 6.19305C104.369 6.10886 103.358 5.97274 102.814 5.89085C102.271 5.80848 101.596 5.77038 101.314 5.80583C101.032 5.84134 100.612 5.79742 100.379 5.70784C100.146 5.61832 99.478 5.54309 98.8934 5.53988C98.3089 5.53667 97.4394 5.49202 96.9611 5.4401C95.3665 5.26769 93.4127 5.11905 91.5727 5.03006C90.5707 4.98158 89.2518 4.8828 88.6412 4.80983C88.0308 4.73732 87.2556 4.71182 86.9187 4.75283C86.5818 4.79431 85.8258 4.76162 85.239 4.68041C84.6522 4.59919 83.8341 4.57336 83.4211 4.623C83.008 4.67265 82.19 4.64681 81.6032 4.5656C81.0164 4.48438 80.1561 4.46387 79.6914 4.51907C79.2266 4.57475 78.3244 4.5619 77.6864 4.49001C77.0484 4.41811 76.1457 4.4015 75.6804 4.45248C75.2151 4.50345 74.3125 4.48684 73.6744 4.41495C73.0364 4.34305 72.0498 4.34084 71.4819 4.40951ZM66.6408 4.96586C66.3088 5.05016 65.8021 5.11303 65.5148 5.10579C65.2275 5.09854 65.499 5.0295 66.1183 4.95245C66.7375 4.87539 66.9728 4.88156 66.6408 4.96586ZM47.8945 7.80599C48.2557 7.76049 48.4083 7.78041 48.2337 7.85062C48.059 7.92035 47.7635 7.95757 47.577 7.93333C47.3905 7.90862 47.5333 7.85148 47.8945 7.80599ZM77.8538 5.4589C78.0897 5.47452 78.512 5.42229 78.7922 5.34308C79.0719 5.26393 78.8783 5.25109 78.3621 5.31467C77.846 5.37825 77.6174 5.44333 77.8538 5.4589ZM84.6916 5.6305L84.1865 5.40343C83.8698 5.26099 83.2625 5.23629 82.558 5.33649L81.4345 5.49615L82.4841 5.50665C83.0615 5.51269 83.7943 5.54258 84.1127 5.5736L84.6916 5.6305ZM47.8766 14.802C48.1274 14.4625 48.7748 13.8679 49.3155 13.4804C50.3425 12.7439 52.7687 12.1347 54.0239 12.2978C54.7413 12.3908 57.3782 14.2863 58.1016 15.2286C59.4948 17.044 59.3931 20.1785 57.8733 22.2563C57.5346 22.719 57.2433 23.3571 57.2256 23.6744C57.1615 24.8333 58.9049 37.0432 59.1702 37.2919C59.436 37.5415 59.6617 39.0113 60.7312 47.4718C61.1396 50.7024 61.4074 52.2725 61.5918 52.5185C61.8941 52.921 63.4996 62.7879 65.4141 76.0077C66.3426 82.4187 66.6679 84.2779 66.9329 84.6947C67.2091 85.1286 67.5017 87.0091 68.5453 95.0595C69.3715 101.429 69.9161 105.087 70.0923 105.442C70.2552 105.771 70.6039 107.876 70.9643 110.707C71.2944 113.301 71.8055 116.724 72.1 118.312C72.395 119.901 72.5969 121.251 72.5492 121.311C72.4 121.5 66.2336 122.108 65.5197 122.005C65.1459 121.95 64.1579 121.937 63.324 121.974C62.4901 122.012 61.6981 121.977 61.5644 121.896C61.4304 121.815 60.8238 121.766 60.2166 121.787C59.6088 121.808 58.8312 121.74 58.4878 121.636C58.1439 121.531 57.6643 121.468 57.4218 121.495C57.005 121.542 55.2585 121.233 54.8195 121.036C54.7084 120.986 54.3346 120.92 53.9892 120.89C53.4738 120.846 52.2833 120.526 52.0028 120.357C51.9651 120.334 52.0087 120.121 52.0998 119.883C52.2199 119.569 51.7887 115.518 50.5419 105.242C49.0292 92.7755 48.9007 90.7389 47.8179 89.6597C47.4774 89.3203 47.0425 89.0756 46.4406 88.6311L44.979 87.5512L44.2834 82.0289C43.7469 77.7702 43.6551 76.6445 43.1556 76.4182C42.9311 76.3164 42.6242 76.3964 42.1576 76.4552C41.7234 76.5098 41.403 76.5081 41.1886 76.658C40.573 77.0884 40.8312 78.7686 41.7805 86.6219C42.5737 93.184 43.021 96.3109 43.2959 97.2185C43.8134 98.9252 45.7352 112.177 45.4939 112.372C45.2543 112.566 42.1584 112.576 40.9858 112.387C40.4654 112.303 39.7523 112.271 39.402 112.315C39.0511 112.359 38.6077 112.335 38.4163 112.26C38.225 112.186 37.6214 111.983 37.0753 111.809C36.5292 111.635 36.0463 111.432 36.0023 111.359C35.9578 111.286 35.8209 111.239 35.698 111.254C35.3377 111.3 33.8461 109.849 33.1769 108.803C32.2828 107.406 32.0252 106.216 30.9247 98.395C30.1463 92.8621 29.7581 90.563 29.5413 90.2037C29.3581 89.8998 29.1213 88.807 28.9366 87.4159C28.7699 86.1572 28.478 84.4599 28.2885 83.6437C28.0989 82.8275 27.7355 81.2551 27.481 80.1502C27.2265 79.0448 26.9145 77.9943 26.7881 77.8155C26.6617 77.6367 26.5274 77.2474 26.49 76.9504C26.4525 76.653 26.2774 76.2617 26.1006 76.0797C25.9238 75.8982 25.7627 75.6406 25.7426 75.5076C25.6256 74.7338 22.9114 72.7697 22.1 72.872C21.9152 72.8952 21.5889 72.8471 21.3751 72.7652C21.1618 72.6832 20.4424 72.6803 19.7767 72.7594C19.2722 72.8189 18.936 72.8852 18.6845 72.7685C18.1286 72.5107 17.9873 71.3589 17.3596 67.2639C16.2078 59.7508 16.0586 58.6006 16.2119 58.4028L16.1732 58.0957L16.0264 57.599C15.6073 57.1286 14.8676 47.5751 14.6964 47.0173C14.4635 46.2585 14.6112 45.5396 14.6112 45.5396C14.7268 45.1675 14.8849 44.0097 14.9622 42.9665C15.1272 40.7505 15.8372 37.831 16.5212 36.5616C16.7853 36.0706 17.0687 35.5103 17.1511 35.3171C17.2339 35.1234 17.6766 34.5526 18.135 34.049C18.4547 33.6977 18.8255 33.2905 19.0988 32.9904L19.3878 32.6731C20.426 31.5337 22.5063 29.6421 23.5185 28.917C24.1287 28.4802 25.7463 27.2316 27.1134 26.142C29.3491 24.3601 31.1252 23.239 31.8574 23.1468C32.3668 23.0826 34.0292 21.8565 34.0958 21.4959C34.2025 20.913 35.3448 20.3357 35.7833 20.6427C36.0958 20.8616 36.2834 20.7812 37.661 19.8363C38.5027 19.2587 39.2771 18.7754 39.3822 18.7622C39.4868 18.749 40.0514 18.4197 40.6371 18.0309C41.6453 17.3607 42.3003 17.0991 44.8597 16.3433C46.7101 15.7967 47.4027 15.4431 47.8766 14.802ZM54.3477 13.6313C54.1643 13.6544 53.7562 13.5774 53.4412 13.46C53.1248 13.3423 52.3772 13.3086 51.7716 13.3839C50.7808 13.5078 50.3405 13.7045 49.3076 14.4847C49.164 14.593 48.8871 14.7778 48.6922 14.8954C48.1768 15.2067 47.4457 16.3479 47.4977 16.7604C47.5222 16.9554 47.3721 17.2617 47.1642 17.4416C46.6403 17.8937 46.9493 20.6915 47.6084 21.4672C51.2191 25.7145 57.0107 24.5287 57.987 19.3422C58.345 17.4408 56.5159 13.992 55.2097 14.105C55.0773 14.1164 54.9036 14.0051 54.825 13.8575C54.7459 13.71 54.531 13.6082 54.3477 13.6313ZM61.1494 14.2542C61.2284 14.533 61.2343 14.296 61.1627 13.7275C61.091 13.1589 61.0266 12.9308 61.0192 13.2205C61.0124 13.5101 61.0709 13.9753 61.1494 14.2542ZM110.116 7.56106C109.858 7.59355 109.584 7.54213 109.507 7.44679C109.428 7.34887 109.572 7.24773 109.837 7.21435C110.095 7.18186 110.369 7.23329 110.445 7.32862C110.525 7.42654 110.381 7.52767 110.116 7.56106ZM111.396 7.97264C111.195 7.99787 110.969 7.94053 110.892 7.8452C110.813 7.74681 110.96 7.64567 111.232 7.6114C111.496 7.57813 111.723 7.63547 111.736 7.73884C111.749 7.84222 111.596 7.94741 111.396 7.97264ZM114.373 9.51687C114.683 9.75994 115.015 9.50712 114.934 9.09066C114.881 8.8205 114.865 8.82627 114.827 9.12945C114.797 9.36572 114.673 9.45721 114.455 9.40403C114.205 9.3433 114.186 9.37005 114.373 9.51687ZM115.277 9.88855C115.422 9.95517 115.449 9.91938 115.346 9.7924C115.15 9.54843 114.848 9.7506 114.892 10.0978C114.909 10.2341 115.063 10.4347 115.234 10.544C115.449 10.6811 115.537 10.6772 115.519 10.5316C115.504 10.4155 115.408 10.3312 115.304 10.3442C115.201 10.3572 115.1 10.2358 115.08 10.0747C115.058 9.90129 115.138 9.82534 115.277 9.88855ZM116.24 11.7218C116.208 11.4634 116.118 11.2026 116.04 11.1427C115.813 10.9656 115.794 11.0195 115.909 11.5096C116.058 12.1409 116.314 12.3054 116.24 11.7218ZM120.198 11.0047C120.383 11.029 120.721 10.9884 120.949 10.9139C121.177 10.8394 121.025 10.8193 120.612 10.8695C120.199 10.9191 120.013 10.9803 120.198 11.0047ZM123.14 11.2712L122.45 11.0843C121.612 10.8571 121.322 10.8535 121.606 11.0745C121.72 11.1628 122.112 11.2437 122.477 11.2536L123.14 11.2712ZM120.077 11.6523C119.756 11.6928 119.649 11.6251 119.701 11.4133C119.792 11.0444 119.453 11.087 118.883 11.5164C118.643 11.6964 118.288 11.8671 118.094 11.8955C117.899 11.9238 117.649 12.1085 117.539 12.3062C117.378 12.5942 117.285 12.6251 117.071 12.4606C116.749 12.2138 116.494 12.2235 116.527 12.4814C116.54 12.5848 116.672 12.6541 116.82 12.6353C116.969 12.6166 117.164 12.6914 117.253 12.8019C117.366 12.9419 117.273 12.9854 116.949 12.9452C116.556 12.8969 116.533 12.9173 116.808 13.076C116.987 13.1795 117.221 13.4894 117.327 13.7648C117.434 14.0402 117.604 14.255 117.705 14.2423C117.806 14.2296 117.93 14.5405 117.979 14.9333C118.028 15.3261 118.155 15.7183 118.26 15.8048C118.365 15.8914 118.696 16.4039 118.996 16.9437C119.296 17.4834 119.683 18.165 119.856 18.4582C120.029 18.7514 120.362 19.3539 120.596 19.797C120.83 20.24 121.167 20.8123 121.345 21.0686C121.523 21.325 121.717 21.9139 121.776 22.3781C121.851 22.9791 121.973 23.244 122.198 23.2997C122.378 23.3438 122.482 23.5035 122.441 23.671C122.352 24.034 122.59 24.5099 122.845 24.4779C122.949 24.4647 122.965 24.205 122.88 23.9001C122.715 23.3075 122.974 22.854 123.615 22.6089C123.867 22.5128 123.802 22.4857 123.404 22.52C123.088 22.5479 122.742 22.6832 122.635 22.8207C122.365 23.1693 122.097 22.9062 122.293 22.4857C122.382 22.2956 122.734 22.0564 123.077 21.954C124.12 21.6413 125.533 20.2232 125.889 19.1301C126.705 16.6298 126.439 15.2151 124.824 13.4663C123.841 12.4012 121.434 11.4814 120.077 11.6523ZM125.667 12.6665C125.358 12.3379 124.748 11.8807 124.311 11.6503C123.287 11.111 123.115 11.134 124.05 11.6855C124.447 11.9191 125.099 12.3701 125.5 12.6871L126.229 13.264L125.667 12.6665ZM127.453 17.3103C127.48 16.8868 127.392 16.0602 127.257 15.4734C126.904 13.9379 126.875 14.1626 127.156 16.2499C127.346 17.665 127.414 17.9057 127.453 17.3103ZM63.4109 27.9363C63.5557 27.6369 62.9934 24.3006 62.7207 23.8414C62.4854 23.4453 62.6767 25.6679 62.9956 27.034C63.186 27.8496 63.316 28.1325 63.4109 27.9363ZM126.126 20.941C126.233 20.8539 126.469 20.5087 126.649 20.1744C127.114 19.3062 126.891 19.4407 126.368 20.3434C126.127 20.7595 126.018 21.0286 126.126 20.941ZM124.018 25.7296C123.832 25.4561 123.594 25.0708 123.491 24.8738C123.336 24.5788 123.304 24.6295 123.313 25.1625C123.319 25.5184 123.414 25.851 123.525 25.9015C123.635 25.952 123.818 26.2387 123.931 26.5386C124.044 26.8385 124.208 27.1605 124.296 27.2544C124.384 27.3484 124.54 27.6509 124.644 27.9266C124.747 28.2023 124.915 28.4175 125.016 28.4047C125.304 28.3685 125.121 27.4966 124.768 27.2221C124.594 27.0866 124.43 26.8075 124.404 26.6017C124.378 26.3958 124.205 26.0034 124.018 25.7296ZM126.332 29.862C126.211 29.6671 125.996 29.2808 125.855 29.0037C125.575 28.4552 125.222 28.5512 125.298 29.1554C125.324 29.3622 125.422 29.4691 125.516 29.3934C125.614 29.3142 125.655 29.3854 125.612 29.5607C125.563 29.7617 125.644 29.8531 125.85 29.8272C126.022 29.8056 126.119 29.884 126.065 30.002C125.906 30.3504 126.289 31.1084 126.604 31.0687C126.903 31.0311 126.815 30.6431 126.332 29.862ZM128.445 33.6053C127.988 32.8618 127.643 32.2734 127.295 31.65L126.996 31.1148L126.991 31.6571C126.989 31.9739 127.127 32.3202 127.324 32.4897C127.509 32.6492 127.682 32.9501 127.708 33.1587C127.751 33.5027 128.15 34.2463 128.721 35.0479C128.84 35.2152 128.957 35.5107 128.982 35.7052C129.006 35.8992 129.221 36.2512 129.46 36.4865C129.698 36.7224 129.937 37.0689 129.991 37.2568C130.045 37.4448 130.168 37.696 130.265 37.8151C130.551 38.1662 130.33 38.3692 129.66 38.3711C129.179 38.3724 129.104 38.411 129.338 38.5361C129.577 38.6631 129.5 38.7149 128.987 38.7714C128.449 38.8305 128.394 38.8055 128.684 38.6348C128.969 38.4672 128.899 38.4411 128.333 38.5014C127.946 38.5431 127.638 38.6549 127.65 38.7502C127.687 39.0434 129.03 39.2088 129.68 38.9995C130.033 38.8863 130.356 38.8781 130.439 38.9808C130.991 39.6664 131.3 38.4065 130.765 37.6544C130.22 36.8891 129.796 36.1167 129.759 35.8207C129.736 35.6421 129.587 35.4132 129.427 35.3111C129.268 35.209 129.055 34.9032 128.954 34.6314C128.853 34.3596 128.625 33.8977 128.445 33.6053ZM94.451 39.9842C91.3886 40.2229 84.99 40.8332 80.2318 41.3405C68.9282 42.5453 68.1201 42.6442 68.0335 42.8341C67.8842 43.1617 68.9461 43.0996 73.7073 42.5027C77.391 42.0406 78.9626 41.9171 80.1241 41.9989C81.0914 42.0671 83.5159 41.9359 86.6551 41.645C89.401 41.3907 91.9914 41.1881 92.4116 41.1948C92.8317 41.2015 95.4657 41.0039 98.2647 40.7554C107.791 39.91 115.298 39.3219 115.482 39.4066C115.584 39.4529 117.056 39.3301 118.754 39.1334C120.815 38.8957 122.069 38.8356 122.529 38.949C123.318 39.1437 123.976 39.1195 125.934 38.8246C128.037 38.5077 127.298 38.2844 124.556 38.4073C118.214 38.6925 116.542 38.6759 115.912 38.3219C115.342 38.0013 115.244 38.0032 114.329 38.3485C113.115 38.807 107.043 39.3856 104.747 39.261C103.903 39.2151 102.707 39.2554 102.09 39.3499C101.004 39.5162 100.999 39.5198 101.914 39.4628C106.438 39.1807 104.599 39.7403 99.1604 40.3003C95.5192 40.6754 94.6076 40.7172 94.4522 40.5163C94.294 40.3119 93.6001 40.3563 90.5762 40.7639C84.0969 41.6383 82.5311 41.7893 82.9051 41.5045C83.1402 41.325 84.6829 41.1039 88.1472 40.7534C100.079 39.5474 100.13 39.541 94.451 39.9842ZM111.1 39.289C108.795 39.5611 107.244 39.715 107.653 39.6315C109.388 39.2774 115.089 38.5454 115.185 38.6646C115.242 38.7361 113.404 39.0173 111.1 39.289ZM117.573 38.9499C118.244 38.8654 118.523 38.8651 118.193 38.9487C117.863 39.0328 117.314 39.1019 116.973 39.1023C116.633 39.1032 116.903 39.0343 117.573 38.9499ZM124.64 38.7065C124.413 38.7809 124.075 38.8216 123.889 38.7972C123.704 38.7728 123.89 38.7117 124.303 38.662C124.716 38.6119 124.868 38.6319 124.64 38.7065ZM93.6928 49.0964C94.3463 48.6551 93.8921 43.9983 93.1345 43.3701C92.6657 42.9814 92.6609 42.9815 87.8671 43.5882C82.6672 44.2466 82.3987 44.3277 82.873 45.0975C83.0742 45.4239 83.2567 46.3504 83.4197 47.8749C83.5543 49.1329 83.7374 50.253 83.8271 50.3639C84.0666 50.6612 93.0925 49.5018 93.6928 49.0964ZM129.728 45.6065C129.349 45.1701 128.242 45.3657 124.467 45.8037C120.001 46.3221 118.784 46.4461 118.522 47.0124C118.416 47.2412 118.465 47.5422 118.519 47.9705L118.6 48.6117C118.907 48.4925 119.034 48.3711 119.077 48.2252C119.115 48.0946 119.088 47.9443 119.064 47.7582C119.021 47.4152 119.083 47.0556 119.202 46.9595C119.527 46.6956 128.07 45.6477 129.056 45.7507C129.436 45.7902 129.505 45.915 129.61 46.7444C129.812 48.3485 129.894 48.3916 132.03 48.0018C134.509 47.5496 134.751 47.5946 135.226 48.5959L135.611 49.4089L133.033 49.7336C131.299 49.952 130.579 50.028 130.311 50.4163C130.11 50.707 130.163 51.1727 130.234 52.0041L130.355 53.4123L125.256 54.1051C121.493 54.6166 120.317 54.8425 119.841 54.3671C119.572 54.0975 119.527 53.6025 119.365 52.8062C119.228 52.1375 119.213 51.6963 118.987 51.4387C118.519 50.9036 117.145 51.161 111.897 51.8184C108.16 52.2868 104.742 52.633 104.3 52.5878C103.86 52.5426 99.8699 52.8705 95.4342 53.3161C90.9989 53.7617 86.6849 54.138 85.8481 54.1523C85.0112 54.166 83.4374 54.2688 82.3507 54.3795C81.264 54.4906 83.9131 54.0729 88.2376 53.4518C93.5726 52.6852 96.3023 52.2225 96.7284 52.0118C97.1788 51.7894 100.38 51.2941 108.039 50.262C114.249 49.4249 117.004 49.0608 118.204 48.7377L107.828 50.0447C99.0805 51.1466 96.901 51.4717 96.2755 51.7677C95.6536 52.0622 92.8411 52.4876 81.7271 53.9687C73.4784 55.0679 67.7328 55.9077 67.41 56.0605C66.9262 56.2904 66.987 56.3042 67.999 56.1978C68.6197 56.132 72.1827 55.8202 75.9168 55.5049C79.651 55.1897 85.8821 54.6115 89.764 54.2208C93.6458 53.8297 98.8594 53.3443 101.35 53.1418C103.84 52.9398 108.739 52.4664 112.238 52.0902L118.597 51.4061L118.83 51.844C118.957 52.0847 119.136 52.8637 119.225 53.5742C119.292 54.1082 119.286 54.4619 119.457 54.6702C119.812 55.1046 120.939 54.9073 125.112 54.3958C129.22 53.8926 130.419 53.8087 130.692 53.2626C130.832 52.9816 130.726 52.5782 130.645 51.9324L130.457 50.4401L132.967 50.1239C135.569 49.7961 136.218 49.5182 135.654 48.9739C135.534 48.8578 135.336 48.4747 135.214 48.1225C134.908 47.2407 134.823 47.2232 132.33 47.5339L130.125 47.8088L130.01 46.9163C129.925 46.2573 129.931 45.8408 129.728 45.6065ZM118.204 48.7377C118.361 48.6953 118.492 48.6536 118.6 48.6117L118.609 48.6866L118.204 48.7377ZM78.4465 54.8421C77.8024 54.9605 76.7892 55.0877 76.1949 55.1248C75.6011 55.1619 76.1283 55.0649 77.3666 54.9094C78.6049 54.7534 79.091 54.7232 78.4465 54.8421ZM89.3449 57.5137C88.7117 57.5858 87.8056 57.625 87.3308 57.6003C85.5506 57.5095 82.1889 58.3077 80.7869 59.154C77.6801 61.0293 76.7436 66.2485 78.2413 73.3418C78.9134 76.5245 79.4136 77.1708 81.5833 77.6569C82.5601 77.8761 84.302 78.2452 87.1468 78.8367C89.4607 79.3176 90.7423 79.6191 91.2781 79.8094C91.4462 79.8694 91.8845 79.9449 92.2523 79.9779C92.62 80.0108 93.1018 80.1329 93.3233 80.2491C93.5447 80.3654 93.8689 80.4425 94.0443 80.4204C94.2193 80.3983 94.6169 80.4719 94.9279 80.584C95.6596 80.8474 96.9083 81.2052 97.0382 81.1888C97.2863 81.1576 103.55 83.2459 103.734 83.4212C103.794 83.4777 104.112 83.6228 104.442 83.7435C106.227 84.3965 107.339 86.1099 108.192 89.5213C108.851 92.1584 110.044 102.32 110.088 105.68C110.107 107.187 110.183 108.896 110.257 109.477C110.33 110.058 110.347 111.212 110.294 112.042C110.241 112.872 110.266 114.087 110.348 114.743C110.431 115.399 110.447 116.564 110.384 117.333C110.325 118.05 110.271 118.469 110.455 118.685C110.725 119.004 111.514 118.883 113.569 118.626L116.351 118.278L116.275 119.529L116.506 118.971C116.869 118.089 116.661 118.048 113.704 118.421L110.944 118.769L110.739 116.647C110.626 115.479 110.587 114.26 110.653 113.937C110.719 113.613 110.705 112.498 110.623 111.458C110.541 110.419 110.497 109.092 110.526 108.511C110.554 107.93 110.538 106.428 110.49 105.174C110.441 103.92 110.356 101.525 110.3 99.8523C110.244 98.1792 110.138 95.7209 110.065 94.3893C109.992 93.0583 109.971 91.5143 110.02 90.9583C110.073 90.343 109.911 88.5701 109.604 86.4212L109.1 82.8942L108.398 82.6203C107.464 82.2554 105.882 81.7932 105.662 81.8209C105.565 81.8332 105.228 81.7472 104.913 81.6298C104.598 81.513 104.199 81.4343 104.026 81.4551C103.854 81.4763 103.459 81.4034 103.148 81.2932C102.652 81.117 101.696 80.9343 97.5179 80.2196C96.9823 80.1281 96.2523 79.9728 95.8954 79.8746C95.539 79.7763 95.1164 79.7125 94.9569 79.7326C94.797 79.7528 94.0356 79.6434 93.2648 79.4894C92.494 79.3359 91.2064 79.1005 90.4033 78.9668C89.6003 78.8331 88.7653 78.6725 88.5478 78.6101C88.3302 78.5473 87.8046 78.4603 87.3797 78.416C86.5344 78.3287 85.5917 78.1419 84.5875 77.8637C84.2309 77.7644 83.79 77.7025 83.6075 77.7255C83.4256 77.7484 83.1873 77.7068 83.0784 77.6327C82.9695 77.5586 82.4393 77.4011 81.9002 77.2824C79.1923 76.685 78.9 76.1615 78.2087 70.6729C77.7571 67.0883 77.7473 65.406 78.1709 64.2185C78.2818 63.9072 78.3517 63.4865 78.3262 63.284C78.1935 62.23 80.0874 59.8612 81.6807 59.0886C83.2376 58.3336 88.6744 57.5657 90.4209 57.8545C90.9903 57.9489 91.8425 57.9809 92.3144 57.9258C92.7864 57.8711 93.5628 57.8611 94.0398 57.9032C94.8253 57.9732 96.724 58.029 100.162 58.0829C100.844 58.0933 101.819 58.1371 102.327 58.18C102.836 58.2233 103.607 58.2135 104.041 58.1589C104.476 58.1042 105.137 58.1092 105.511 58.1704C105.884 58.2317 107.087 58.2478 108.182 58.2062C109.278 58.1647 110.565 58.1682 111.042 58.214C111.519 58.2593 112.755 58.1958 113.788 58.0719C114.821 57.9485 116.356 57.8849 117.201 57.9303C118.121 57.98 119.937 57.8615 121.738 57.6347C123.539 57.4079 125.327 57.0723 126.206 56.7959C127.013 56.5425 128.391 56.2421 129.267 56.1283C130.144 56.0145 131.31 55.7383 131.858 55.5141C132.407 55.2899 133.242 55.0567 133.716 54.996C134.19 54.935 134.976 54.7071 135.463 54.4891C135.95 54.2717 136.643 54.0488 137.004 53.9944C137.364 53.9399 137.938 53.7363 138.281 53.5423C138.641 53.338 138.711 53.2575 138.447 53.3519C138.197 53.4412 137.532 53.6156 136.971 53.7392C136.41 53.8633 135.249 54.1743 134.39 54.4305C133.531 54.6866 132.291 55.0571 131.635 55.2539C126.949 56.6565 116.781 57.9383 110.903 57.8673C110.063 57.8571 108.389 57.8455 107.183 57.8414C105.977 57.8372 104.388 57.8183 103.652 57.7989C102.916 57.7794 101.672 57.7781 100.888 57.7957C100.104 57.8138 99.2126 57.7633 98.9075 57.6833C98.6026 57.6039 97.8622 57.6007 97.2627 57.6762C96.6633 57.7517 95.7979 57.7319 95.3398 57.632C94.8817 57.5322 93.9792 57.517 93.3343 57.5983C92.6893 57.6795 91.7868 57.6643 91.3287 57.5645C90.8706 57.4647 89.9778 57.4421 89.3449 57.5137ZM143.118 53.0824C143.155 52.9403 143.016 52.6785 142.809 52.5008C142.6 52.3209 142.219 52.2157 141.95 52.2639C141.47 52.3501 141.47 52.3515 141.93 52.3796C142.457 52.412 142.936 52.7306 143.004 53.0938C143.042 53.2953 143.063 53.2931 143.118 53.0824ZM139.83 52.9018C139.916 52.7941 140.235 52.6379 140.539 52.5548C141.056 52.4133 141.059 52.4057 140.594 52.4376C140.32 52.4564 139.87 52.6286 139.594 52.8204C139.317 53.0117 139.222 53.1526 139.382 53.1334C139.542 53.1137 139.744 53.0096 139.83 52.9018ZM100.856 60.2784C100.757 60.2909 100.417 60.2053 100.102 60.0879C97.0075 58.937 92.3361 62.1264 91.6638 65.8487C91.4208 67.1925 91.7825 70.3961 92.2769 71.2875C93.3191 73.1648 93.7959 73.772 94.8417 74.5543C98.2652 77.1149 103.981 75.9864 105.089 72.5308C105.14 72.3707 105.245 72.1026 105.322 71.9353C105.399 71.7682 105.494 71.4985 105.533 71.336C105.571 71.1737 105.661 70.9046 105.731 70.7382C106.798 68.223 105.685 63.7102 103.56 61.9335C102.791 61.29 101.09 60.249 100.856 60.2784ZM143.562 56.8417C143.355 56.3804 142.203 55.3895 141.737 55.2706C140.625 54.9883 138.675 56.674 138.817 57.796C138.837 57.9586 138.751 58.2716 138.624 58.4918C138.498 58.7115 138.423 59.1325 138.456 59.4275C138.49 59.7221 138.42 60.2617 138.3 60.6262C138.039 61.4223 138.656 65.7441 139.223 67.0922C139.858 68.6012 140.955 70.5018 141.174 70.4742C141.228 70.4673 141.53 70.646 141.843 70.871C142.822 71.5744 143.373 71.4855 144.211 70.4877C144.614 70.0093 144.972 69.6139 145.006 69.6096C145.196 69.5857 145.13 70.4279 144.921 70.6977C144.785 70.8722 144.686 71.1052 144.7 71.2152C144.714 71.3247 144.867 71.1784 145.04 70.8898C145.213 70.6006 145.338 70.2237 145.316 70.0517C145.294 69.8797 145.387 69.5964 145.522 69.4219C145.658 69.2473 145.749 68.9509 145.725 68.7634C145.702 68.5759 145.778 68.1644 145.895 67.8489C146.012 67.5335 146.083 67.0792 146.054 66.8399C146.024 66.6002 146.07 66.2217 146.155 65.9981C146.267 65.7056 146.236 65.4595 146.041 65.1183C145.862 64.8039 145.79 64.3371 145.826 63.7307C145.857 63.2022 145.763 62.4527 145.604 61.953C145.433 61.4203 145.37 60.8602 145.439 60.494C145.504 60.1527 145.44 59.5054 145.289 58.9773C145.031 58.0695 145.026 58.0653 144.975 58.6957C144.909 59.5183 144.613 59.3776 144.318 58.3828C144.19 57.953 144.01 57.5251 143.919 57.4316C143.827 57.3382 143.666 57.0725 143.562 56.8417ZM144.815 57.4367C144.853 57.2863 144.714 56.7104 144.505 56.1568C144.297 55.6026 144.105 55.2535 144.08 55.3803C144.055 55.5076 144.16 55.8643 144.313 56.1734C144.466 56.4825 144.626 56.955 144.668 57.2227C144.71 57.4904 144.776 57.5866 144.815 57.4367ZM3.41492 76.8485C3.30418 76.9379 3.16047 76.3417 3.01564 75.1919C2.89117 74.2038 2.8217 73.3911 2.8611 73.3861C3.1763 73.3464 3.69945 76.6184 3.41492 76.8485ZM94.3968 65.2768C94.3232 64.6923 95.8058 62.8177 96.8297 62.2004C98.3567 61.2802 99.6958 61.2742 101.487 62.1803C102.214 62.5479 103.574 63.9881 103.632 64.4524C103.657 64.6516 103.822 64.9625 103.999 65.1445C104.453 65.6101 104.877 68.906 104.556 69.4658C104.43 69.6855 104.342 70.0153 104.362 70.1985C104.452 71.0302 103.336 72.7956 102.41 73.2864C102.14 73.4298 101.928 73.6235 101.94 73.7165C101.952 73.81 101.172 73.9855 100.207 74.1071C97.7612 74.4152 96.467 73.7334 94.9773 71.3525C94.3591 70.3641 93.8266 66.6589 94.2077 65.9961C94.3339 65.7759 94.4189 65.4525 94.3968 65.2768ZM142.828 68.7384C139.969 69.0985 137.995 60.9277 140.313 58.3269C140.923 57.6424 142.817 57.7804 142.91 58.5162C142.926 58.6478 143.073 58.7878 143.235 58.828C143.397 58.8677 143.558 59.1205 143.592 59.3897C143.626 59.659 143.796 59.9898 143.97 60.1253C144.22 60.3196 144.354 60.9004 144.602 62.8729C144.853 64.8666 144.866 65.4282 144.665 65.643C144.527 65.7912 144.443 66.146 144.479 66.4312C144.556 67.0477 143.398 68.6665 142.828 68.7384ZM145.848 61.7232C145.922 61.9502 145.934 61.7553 145.876 61.2901C145.817 60.8249 145.757 60.6392 145.741 60.8774C145.726 61.1157 145.773 61.4963 145.848 61.7232ZM146.227 64.7303C146.3 64.9573 146.313 64.7624 146.254 64.2972C146.196 63.8321 146.135 63.6464 146.12 63.8846C146.104 64.1228 146.152 64.5034 146.227 64.7303ZM145.746 67.4161C145.643 67.4291 145.527 67.1912 145.489 66.8872C145.451 66.5832 145.497 66.2714 145.592 66.1945C145.695 66.1113 145.799 66.3254 145.85 66.7234C145.896 67.0913 145.849 67.4031 145.746 67.4161ZM145.385 69.0846C145.273 69.0337 145.168 68.8752 145.15 68.7323C145.132 68.5895 145.195 68.4097 145.29 68.3328C145.389 68.2531 145.49 68.405 145.525 68.6851C145.56 68.9651 145.5 69.1374 145.385 69.0846ZM141.348 73.329C140.95 73.0924 140.269 72.8049 139.835 72.6896C138.397 72.308 137.309 72.8116 137.409 73.8124C137.424 73.968 137.339 74.3596 137.219 74.6831C137.099 75.006 136.961 75.5818 136.913 75.9626C136.865 76.3429 136.755 77.1787 136.669 77.8196C136.238 81.0343 136.307 84.5257 136.899 89.3806C137.35 93.0884 137.55 93.4485 139.044 93.2697C139.277 93.2419 139.478 93.3087 139.492 93.4186C139.518 93.6244 138.083 93.67 137.309 93.4874C135.403 93.0387 128.826 93.9502 126.444 94.9935C122.466 96.7356 119.596 99.6026 117.958 103.47C117.378 104.841 116.37 108.073 116.414 108.422C116.431 108.562 116.35 108.935 116.233 109.25C116.116 109.565 116.044 110.036 116.072 110.295C116.1 110.554 116.029 110.992 115.914 111.269C115.8 111.546 115.758 112.211 115.822 112.748C115.885 113.285 115.88 113.962 115.81 114.254C115.739 114.545 115.706 115.402 115.738 116.157C115.813 118.001 116.082 118.118 117.066 116.734C118.422 114.827 121.468 111.906 122.197 111.814C122.399 111.789 122.598 111.635 122.637 111.472C122.677 111.31 122.851 111.159 123.023 111.137C123.195 111.116 123.519 110.932 123.742 110.73C124.113 110.393 125.068 110.256 134.944 109.122L145.74 107.882L146.733 108.67C148.424 110.01 149.795 111.45 150.485 112.609C150.729 113.021 151.375 113.614 151.348 113.403C151.341 113.342 151.06 112.963 150.724 112.561C150.389 112.158 149.904 111.538 149.645 111.183C149.14 110.485 147.868 109.268 146.767 108.43C146.39 108.143 146.065 107.778 146.045 107.618C145.99 107.181 145.413 107.191 142.137 107.685C138.829 108.184 138.119 108.093 137.595 107.106C137.464 106.86 137.291 106.667 137.212 106.676C137.131 106.686 136.369 106.18 135.517 105.553C134.666 104.926 133.85 104.428 133.704 104.446C133.559 104.464 133.375 104.358 133.296 104.211C133.217 104.063 133.046 103.956 132.914 103.973C132.783 103.989 132.555 103.889 132.407 103.75C132.259 103.611 131.979 103.518 131.786 103.542C131.592 103.566 131.425 103.522 131.415 103.443C131.398 103.306 130.319 102.942 128.827 102.569C127.759 102.301 123.832 102.724 123.571 103.134C123.458 103.312 123.223 103.475 123.05 103.497C122.426 103.575 118.947 107.163 118.993 107.68C119 107.756 118.75 108.389 118.438 109.086C117.752 110.619 117.029 112.749 116.946 113.48C116.912 113.774 116.816 114.07 116.731 114.138C116.647 114.207 116.615 114.576 116.662 114.957C116.716 115.4 116.679 115.569 116.559 115.424C116.338 115.156 116.245 113.322 116.437 113.005C116.51 112.883 116.564 112.275 116.557 111.653C116.551 111.031 116.613 110.463 116.697 110.392C116.781 110.32 116.86 109.923 116.873 109.51C116.885 109.097 116.967 108.698 117.054 108.624C117.141 108.549 117.247 108.192 117.289 107.831C117.404 106.851 117.676 105.83 117.906 105.515C118.017 105.363 118.088 105.075 118.063 104.875C118.038 104.676 118.094 104.503 118.186 104.491C118.279 104.48 118.494 104.087 118.665 103.62C119.321 101.816 121.066 99.2489 121.843 98.9434C122.067 98.855 122.237 98.6652 122.218 98.5214C122.2 98.3772 122.312 98.2437 122.467 98.2242C122.622 98.2047 122.732 98.0619 122.713 97.9069C122.693 97.7518 122.84 97.6044 123.039 97.5794C123.238 97.5543 123.517 97.3846 123.658 97.2021C123.809 97.0075 124.07 96.8987 124.291 96.9391C124.559 96.9889 124.686 96.8951 124.739 96.6097C124.796 96.296 124.972 96.1904 125.556 96.1168C126.044 96.0553 126.324 95.9216 126.372 95.7276C126.424 95.5153 126.731 95.396 127.462 95.3038C128.022 95.2333 128.767 95.0106 129.118 94.8088C130.014 94.2942 134.312 93.7518 135.118 94.0521C135.434 94.1694 136.182 94.2036 136.784 94.1287C137.503 94.0386 137.984 94.0763 138.193 94.2386C138.377 94.3815 138.85 94.4421 139.321 94.3829C139.868 94.3139 140.178 94.368 140.275 94.5491C140.358 94.7038 140.653 94.7878 140.974 94.7474C141.279 94.709 141.672 94.7884 141.846 94.924C142.02 95.0595 142.296 95.1537 142.458 95.1333C142.62 95.1129 142.763 95.1807 142.776 95.2841C142.789 95.3875 142.927 95.4561 143.081 95.4366C143.424 95.3935 143.37 94.7343 142.995 94.3711C142.22 93.6229 141.691 93.3755 140.324 93.1252C139.048 92.8917 138.236 92.4761 138.469 92.1761C138.503 92.1317 138.516 91.2384 138.498 90.1906C138.48 89.1427 138.499 87.8945 138.54 87.4168C138.582 86.939 138.615 85.8179 138.613 84.9255C138.608 81.2479 138.706 77.5684 138.847 76.1582C138.892 75.7048 138.886 74.991 138.833 74.5723C138.629 72.9494 139.343 72.6261 141.055 73.5665C141.578 73.8538 142.077 73.979 142.448 73.9155C142.955 73.8288 142.967 73.8129 142.55 73.7882C142.288 73.7721 141.747 73.5657 141.348 73.329ZM143.333 73.6389C143.373 73.6339 143.658 73.2921 143.967 72.8789C144.276 72.4662 144.409 72.1974 144.263 72.2822C144.017 72.4238 143.171 73.6593 143.333 73.6389ZM14.7484 101.101C13.8072 99.3789 11.7839 97.8037 9.85258 97.2885C8.32707 96.8816 7.80087 96.8921 7.52008 97.3337C7.4111 97.5049 7.07856 97.6757 6.78071 97.7132C6.13249 97.7949 5.31167 98.6701 5.144 99.4573C5.01773 100.051 5.47951 100.033 5.74516 99.4331C5.81049 99.286 5.95862 99.1533 6.07401 99.1387C6.18987 99.1241 6.42922 98.9436 6.60577 98.7376C7.04164 98.2297 9.11793 97.9515 9.67403 98.3263C9.88647 98.4695 10.1625 98.6066 10.287 98.631C10.4121 98.6553 10.9458 98.9542 11.4733 99.2949C13.1499 100.379 16.0352 104.409 16.2274 105.935C16.2671 106.25 16.4519 106.639 16.6384 106.799C16.8249 106.96 17.0667 107.43 17.1765 107.845C17.2859 108.259 17.4588 108.588 17.5601 108.575C17.8814 108.534 16.7568 104.025 16.3464 103.706C16.2186 103.606 16.097 103.386 16.0756 103.217C16.0543 103.047 15.7797 102.562 15.4657 102.138C15.1517 101.715 14.8289 101.248 14.7484 101.101ZM46.4127 103.09C46.6164 104.45 46.4955 103.278 46.1439 100.487C45.7924 97.6964 45.6256 96.5843 45.7735 98.0158C45.9214 99.4472 46.2091 101.731 46.4127 103.09ZM140.371 93.9708C140.027 93.9416 139.735 93.8395 139.723 93.7441C139.711 93.6492 139.809 93.5706 139.94 93.5698C140.867 93.5642 141.232 93.6161 141.25 93.7556C141.261 93.844 141.53 93.9399 141.848 93.969C142.166 93.9982 142.437 94.1016 142.449 94.1984C142.472 94.384 141.556 94.3419 141.203 94.1415C141.09 94.0774 140.716 94.0005 140.371 93.9708ZM14.8898 120.066C15.8865 118.023 13.82 112.61 11.8516 112.107C10.7409 111.823 8.72486 112.95 8.83134 113.796C8.84975 113.942 8.78041 114.072 8.67722 114.085C8.57403 114.098 8.50245 114.215 8.51825 114.344C8.53359 114.473 8.43816 114.85 8.30602 115.182C7.10671 118.189 9.76152 123.495 12.3052 123.175C13.285 123.051 14.7691 121.594 14.6751 120.847C14.6563 120.698 14.753 120.346 14.8898 120.066ZM24.7178 116.975C25.007 116.982 25.4714 116.923 25.7497 116.845C26.0281 116.766 25.7915 116.76 25.2239 116.831C24.6564 116.903 24.4286 116.967 24.7178 116.975ZM27.3114 116.759C26.7438 116.831 26.5161 116.895 26.8053 116.903C27.0945 116.91 27.5588 116.851 27.8372 116.773C28.1156 116.694 27.8789 116.688 27.3114 116.759ZM29.8279 116.707C30.0134 116.732 30.3514 116.691 30.5788 116.617C30.8067 116.542 30.6551 116.522 30.2421 116.572C29.829 116.622 29.6428 116.683 29.8279 116.707ZM32.7402 116.734C33.2826 116.664 33.2787 116.659 32.6287 116.605C31.6623 116.525 30.7932 116.635 31.5968 116.735C31.9163 116.775 32.4308 116.775 32.7402 116.734ZM35.6241 116.553C35.8619 116.569 36.2418 116.521 36.4683 116.447C36.6949 116.373 36.5003 116.36 36.036 116.419C35.5716 116.477 35.3862 116.538 35.6241 116.553ZM37.658 116.722C38.0527 116.659 38.0528 116.653 37.6716 116.543C37.1272 116.385 36.9438 116.409 37.1088 116.614C37.1856 116.709 37.4328 116.757 37.658 116.722ZM39.8612 116.525C38.9841 116.635 38.6294 116.713 39.0729 116.697C39.5164 116.681 40.2341 116.591 40.6677 116.496C41.1012 116.401 40.7383 116.414 39.8612 116.525ZM42.4541 116.682C42.7615 116.63 42.7415 116.603 42.3393 116.527C41.6493 116.398 41.4209 116.427 41.7765 116.598C41.9439 116.679 42.2488 116.717 42.4541 116.682ZM47.6389 116.433C46.9423 116.52 46.3097 116.514 46.2329 116.419C46.1561 116.324 45.5296 116.328 44.8409 116.429C43.3947 116.64 43.7397 116.682 47.0077 116.688C48.0779 116.69 48.5984 116.653 48.8735 116.895C49.1717 117.157 49.1818 117.747 49.2913 119.069C49.5662 122.382 50.1776 123.177 52.2503 122.916C52.5965 122.873 53.0755 122.912 53.315 123.005C53.5548 123.097 54.3137 123.209 55.0017 123.254C56.5709 123.357 58.7382 123.529 60.4905 123.689C61.2328 123.757 62.3562 123.824 62.9869 123.838C63.6176 123.851 64.3832 123.926 64.6879 124.003C64.9926 124.081 65.622 124.096 66.0864 124.037C66.5508 123.979 67.1281 124.007 67.3685 124.101C67.7678 124.256 68.9131 124.352 71.7002 124.467C72.2592 124.49 73.1239 124.546 73.6219 124.591C74.1202 124.636 75.2627 124.718 76.1606 124.773C77.0585 124.827 78.3998 124.922 79.1413 124.982C79.8827 125.043 80.8272 125.051 81.2402 125.001C81.6533 124.952 82.2176 125.006 82.4942 125.121C82.7707 125.236 83.3354 125.293 83.7489 125.247C84.1624 125.201 84.8498 125.21 85.2763 125.268C86.0499 125.372 88.0093 125.486 90.3645 125.564C91.0488 125.587 91.9144 125.651 92.2882 125.705C92.6619 125.759 93.3057 125.763 93.7187 125.713C94.1316 125.663 94.9496 125.688 95.5364 125.769C96.8976 125.957 99.3942 125.656 100.013 125.23C100.269 125.053 100.987 124.598 101.608 124.218C102.229 123.838 102.889 123.357 103.075 123.149C103.261 122.942 103.569 122.753 103.759 122.729C103.95 122.704 104.096 122.607 104.084 122.512C104.046 122.21 105.24 121.762 106.107 121.752C106.566 121.746 106.77 121.714 106.56 121.679C106.351 121.645 105.985 121.522 105.748 121.405C105.364 121.218 105.23 121.258 104.546 121.767C104.123 122.082 103.656 122.405 103.509 122.485C103.362 122.565 103.124 122.723 102.981 122.837C100.176 125.062 98.4645 125.701 95.8821 125.487C95.2995 125.439 93.9615 125.371 92.9088 125.336C91.8561 125.301 90.3882 125.223 89.6468 125.163C88.9054 125.102 88.0353 125.087 87.7128 125.129C87.3908 125.171 86.752 125.124 86.2939 125.024C85.8358 124.924 85.0277 124.894 84.4986 124.957C83.9691 125.02 83.3099 124.977 83.0333 124.862C82.7568 124.747 82.1576 124.696 81.7017 124.75C81.2458 124.804 80.4282 124.782 79.8848 124.7C79.3414 124.619 78.0343 124.517 76.9804 124.472C75.9264 124.427 74.6141 124.328 74.0642 124.252C73.5147 124.176 72.6975 124.156 72.2481 124.209C71.7992 124.262 71.2057 124.211 70.9292 124.096C70.6526 123.98 70.0352 123.932 69.5572 123.989C69.0793 124.045 68.3687 124.003 67.9791 123.894C67.589 123.786 66.9267 123.741 66.5074 123.793C66.0881 123.846 65.4257 123.801 65.0356 123.692C64.646 123.584 64.0095 123.535 63.6221 123.584C63.2346 123.633 62.5981 123.584 62.2085 123.476C61.8184 123.367 61.1692 123.32 60.7658 123.371C60.362 123.422 59.7128 123.375 59.3231 123.266C58.9331 123.158 58.2521 123.112 57.8098 123.164C57.3676 123.217 56.8262 123.156 56.6068 123.029C56.3818 122.9 55.7936 122.849 55.258 122.913C54.7219 122.977 54.1338 122.927 53.9091 122.797C53.6893 122.67 53.2548 122.599 52.9424 122.638C52.2623 122.724 50.7442 122.395 50.2133 122.046C49.8175 121.786 49.4607 119.049 49.6006 117.348C49.6759 116.433 49.243 116.231 47.6389 116.433ZM151.79 114.689C152.21 115.297 152.218 114.958 151.799 114.278C151.639 114.019 151.492 113.89 151.472 113.992C151.452 114.094 151.595 114.407 151.79 114.689ZM139.012 126.328C140.934 122.386 139.004 117.661 135.19 116.969C134.654 116.871 134.409 116.817 134.17 116.839C133.915 116.862 133.667 116.972 133.079 117.207C127.386 119.484 129.458 129.611 135.462 128.854C136.3 128.749 138.109 127.835 138.071 127.535C138.061 127.451 138.159 127.369 138.289 127.353C138.42 127.336 138.745 126.875 139.012 126.328ZM116.143 122.269C116.257 122.358 116.405 120.433 116.322 119.943C116.284 119.717 116.21 120.134 116.158 120.87C116.106 121.605 116.099 122.235 116.143 122.269ZM108.232 122.152C108.395 122.131 108.302 122.028 108.01 121.907C107.349 121.631 107.044 121.666 107.552 121.958C107.771 122.085 108.077 122.172 108.232 122.152ZM110.273 122.466C110.559 122.428 110.506 122.372 110.052 122.229C109.256 121.978 109.01 122.004 109.499 122.286C109.719 122.412 110.067 122.493 110.273 122.466ZM153.401 118.13C153.311 117.949 153.207 117.662 153.172 117.491C153.136 117.32 153.094 117.386 153.079 117.636C153.063 117.887 153.166 118.174 153.308 118.275C153.507 118.417 153.529 118.384 153.401 118.13ZM114.449 123.087C114.603 123.063 114.42 122.969 114.041 122.877C113.663 122.786 113.184 122.726 112.976 122.744C112.769 122.763 112.952 122.857 113.384 122.954C113.815 123.051 114.295 123.111 114.449 123.087ZM115.284 123.193C115.708 123.39 116.18 123.197 116.131 122.847C116.105 122.662 116.068 122.67 115.969 122.882C115.886 123.058 115.674 123.133 115.378 123.09C114.977 123.032 114.964 123.045 115.284 123.193ZM154.255 124.518C154.338 124.184 154.239 122.862 154.005 121.208L153.616 118.453L153.911 121.266C154.074 122.814 154.14 124.186 154.058 124.316C153.975 124.445 153.929 125.058 153.955 125.678C153.999 126.717 154.007 126.737 154.06 125.939C154.091 125.462 154.179 124.823 154.255 124.518ZM153.626 127.807C153.545 128.556 153.685 128.373 153.863 127.496C153.939 127.121 153.931 126.907 153.845 127.02C153.759 127.134 153.661 127.488 153.626 127.807ZM153.012 130.462C153.257 129.871 153.651 128.653 153.636 128.536C153.601 128.263 153.307 128.787 153.256 129.212C153.222 129.492 153.087 129.86 152.957 130.029C152.826 130.197 152.738 130.477 152.762 130.651C152.792 130.875 152.864 130.821 153.012 130.462ZM152.095 132.426C152.143 132.462 152.32 132.17 152.489 131.777C152.659 131.384 152.737 131.07 152.664 131.08C152.497 131.103 151.977 132.334 152.095 132.426Z" fill="#62162E"/>
<path d="M115.895 125.972C117.126 135.748 126.755 143.484 137.263 142.16C147.772 140.837 155.624 130.898 154.392 121.123C153.161 111.347 143.532 103.611 133.024 104.935C122.515 106.258 114.663 116.197 115.895 125.972Z" fill="#160A06"/>
<path d="M128.285 124.412C128.695 127.67 132.003 130.236 135.626 129.78C139.25 129.324 142.744 125.001 142.333 121.743C141.923 118.484 138.615 115.918 134.992 116.374C131.368 116.831 127.874 121.153 128.285 124.412Z" fill="#812F48"/>
<path d="M140.022 51.834L139.945 51.8726L139.879 51.928C139.246 52.4551 137.907 53.1646 135.664 53.8969C133.441 54.6228 130.387 55.3531 126.376 55.9542C118.357 57.1558 106.549 57.8357 89.9826 56.9491C87.4411 56.6975 83.6971 56.8791 80.7731 58.3214C79.2939 59.051 77.9893 60.1217 77.186 61.655C76.3798 63.1939 76.1208 65.1188 76.592 67.4747C77.144 70.2351 77.4197 72.1651 77.6039 73.5345C77.6246 73.6884 77.6442 73.8362 77.6631 73.9781C77.7276 74.4634 77.7829 74.8791 77.8381 75.2275C77.9089 75.6739 77.987 76.0633 78.1054 76.3889C78.2297 76.7307 78.4084 77.0314 78.6935 77.2731C78.9662 77.5045 79.2841 77.6365 79.6008 77.7355C79.8769 77.8218 80.2095 77.8991 80.577 77.9846C80.6239 77.9955 80.6714 78.0066 80.7194 78.0178C81.1557 78.1197 81.675 78.2439 82.3065 78.4244C84.1224 78.9432 87.6391 79.7304 91.4985 80.5943C93.2086 80.9771 94.986 81.375 96.7125 81.7712C99.5384 82.4198 102.236 83.0656 104.317 83.6404C105.358 83.9281 106.232 84.1944 106.885 84.431C107.211 84.5494 107.471 84.656 107.662 84.7493C107.758 84.7957 107.829 84.8353 107.88 84.8673C107.89 84.8736 107.898 84.8793 107.906 84.8843C107.921 84.9221 107.941 84.9797 107.964 85.0616C108.02 85.2615 108.078 85.5482 108.137 85.9254C108.254 86.6764 108.362 87.7157 108.458 88.9864C108.652 91.5237 108.8 94.926 108.911 98.6644C109.133 106.138 109.207 114.918 109.207 120.723V121.563L110.041 121.459L115.973 120.717L116.623 120.636V119.981V117.015V116.987L116.621 116.96C115.833 106.472 119.053 100.822 123.386 97.7454C127.785 94.6215 133.495 94.0261 137.908 94.0261H139.004L138.597 93.0091C138.332 92.3475 138.086 91.2872 137.874 89.9579C137.664 88.6425 137.494 87.1102 137.368 85.5318C137.119 82.3954 137.046 79.1231 137.163 77.0644L137.861 73.571C138.037 73.3681 138.265 73.2932 138.626 73.314C139.099 73.3413 139.672 73.5336 140.355 73.7894C140.427 73.8165 140.5 73.8444 140.575 73.8728C141.152 74.0913 141.806 74.339 142.389 74.4322C143.073 74.5416 143.924 74.4745 144.458 73.6733C144.692 73.323 144.903 73.0225 145.104 72.737C145.222 72.5704 145.336 72.4089 145.448 72.2456C145.739 71.8222 146.008 71.4056 146.203 70.9703C146.625 70.0324 146.668 69.0954 146.248 67.8363C146.178 67.6255 146.093 67.2043 145.993 66.5716C145.896 65.9564 145.793 65.1964 145.677 64.3393L145.676 64.3304C145.444 62.6268 145.164 60.5598 144.789 58.6164C144.417 56.6871 143.939 54.8035 143.287 53.5054C142.964 52.8631 142.555 52.2715 142.013 51.9217C141.41 51.5331 140.714 51.4892 140.022 51.834Z" fill="#420D1D" stroke="#420D1D" stroke-width="1.48316"/>
<path fill-rule="evenodd" clip-rule="evenodd" d="M91.28 63.3648C91.8839 61.9807 92.9267 60.8325 94.4159 59.9039C94.6542 59.7553 95.0628 59.6166 95.5461 59.5006C96.7785 59.0011 98.0574 58.8711 99.1425 59.2747C99.4575 59.392 99.7971 59.4777 99.8965 59.4651C100.13 59.4357 101.831 60.4768 102.6 61.1202C104.725 62.8969 105.838 67.4097 104.772 69.925C104.701 70.0914 104.612 70.3604 104.573 70.5228C104.534 70.6852 104.439 70.9549 104.362 71.1221C104.285 71.2893 104.18 71.5574 104.129 71.7175C103.579 73.4343 102.025 74.5065 100.183 74.9177C98.3073 75.3687 96.1261 75.141 94.3923 74.086C93.5028 73.5788 92.7376 72.882 92.2025 71.9932C92.0905 71.8071 91.9886 71.637 91.8957 71.4799C91.72 71.1896 91.5303 70.8585 91.317 70.4742C91.2285 70.3147 91.1443 70.0813 91.0671 69.7977C90.9553 69.4435 90.8865 69.0697 90.8165 68.5544C90.6297 67.3117 90.5584 65.8401 90.7038 65.0355C90.8075 64.4612 91.0064 63.8997 91.28 63.3648ZM102.826 69.7543C104.05 65.8426 102.199 61.8509 98.865 61.2103C96.4734 60.7512 94.2269 62.6289 93.6945 65.5327C93.4631 66.7943 93.6115 68.063 94.0676 68.7215C94.2587 68.9982 94.4558 69.5418 94.5056 69.9293C94.5549 70.3169 94.6713 70.6245 94.7646 70.6127C94.8575 70.601 95.0463 70.8178 95.1832 71.095C96.7675 74.2907 101.676 73.4299 102.826 69.7543Z" fill="#812F48"/>
<path fill-rule="evenodd" clip-rule="evenodd" d="M91.28 63.3648C91.8839 61.9807 92.9267 60.8325 94.4159 59.9039C94.6542 59.7553 95.0628 59.6166 95.5461 59.5006C96.7785 59.0011 98.0574 58.8711 99.1425 59.2747C99.4575 59.392 99.7971 59.4777 99.8965 59.4651C100.13 59.4357 101.831 60.4768 102.6 61.1202C104.725 62.8969 105.838 67.4097 104.772 69.925C104.701 70.0914 104.612 70.3604 104.573 70.5228C104.534 70.6852 104.439 70.9549 104.362 71.1221C104.285 71.2893 104.18 71.5574 104.129 71.7175C103.579 73.4343 102.025 74.5065 100.183 74.9177C98.3073 75.3687 96.1261 75.141 94.3923 74.086C93.5028 73.5788 92.7376 72.882 92.2025 71.9932C92.0905 71.8071 91.9886 71.637 91.8957 71.4799C91.72 71.1896 91.5303 70.8585 91.317 70.4742C91.2285 70.3147 91.1443 70.0813 91.0671 69.7977C90.9553 69.4435 90.8865 69.0697 90.8165 68.5544C90.6297 67.3117 90.5584 65.8401 90.7038 65.0355C90.8075 64.4612 91.0064 63.8997 91.28 63.3648ZM102.826 69.7543C104.05 65.8426 102.199 61.8509 98.865 61.2103C96.4734 60.7512 94.2269 62.6289 93.6945 65.5327C93.4631 66.7943 93.6115 68.063 94.0676 68.7215C94.2587 68.9982 94.4558 69.5418 94.5056 69.9293C94.5549 70.3169 94.6713 70.6245 94.7646 70.6127C94.8575 70.601 95.0463 70.8178 95.1832 71.095C96.7675 74.2907 101.676 73.4299 102.826 69.7543Z" fill="#812F48"/>
<path d="M98.865 61.2103C102.199 61.8509 104.05 65.8426 102.826 69.7543C101.676 73.4299 96.7675 74.2907 95.1832 71.095C95.0463 70.8178 94.8575 70.601 94.7646 70.6127C94.6713 70.6245 94.5549 70.3169 94.5056 69.9293C94.4558 69.5418 94.2587 68.9982 94.0676 68.7215C93.6115 68.063 93.4631 66.7943 93.6945 65.5327C94.2269 62.6289 96.4734 60.7512 98.865 61.2103Z" fill="white"/>
<path fill-rule="evenodd" clip-rule="evenodd" d="M136.771 58.2292C137.006 56.8915 137.487 55.8142 138.215 54.9815C138.332 54.8482 138.539 54.7349 138.786 54.6486C139.405 54.2264 140.07 54.1737 140.666 54.639C140.838 54.7742 141.022 54.8795 141.074 54.873C141.195 54.8577 142.153 55.9924 142.596 56.6769C143.82 58.5671 144.675 63.1123 144.264 65.545C144.237 65.706 144.206 65.9677 144.195 66.1265C144.184 66.2854 144.15 66.5474 144.12 66.7087C144.09 66.8701 144.05 67.1299 144.033 67.2858C143.845 68.9568 143.092 69.9283 142.147 70.2265C141.186 70.5622 140.025 70.2061 139.049 69.0555C138.551 68.4991 138.106 67.7619 137.772 66.8478C137.701 66.6564 137.638 66.4816 137.579 66.3201C137.47 66.0215 137.35 65.6816 137.215 65.2874C137.159 65.1239 137.101 64.8872 137.043 64.6012C136.963 64.2429 136.904 63.8678 136.837 63.3522C136.664 62.1077 136.539 60.6429 136.568 59.853C136.588 59.2892 136.659 58.7438 136.771 58.2292ZM143.23 65.2596C143.641 61.4503 142.428 57.3782 140.635 56.5435C139.349 55.9452 138.278 57.6747 138.171 60.525C138.125 61.7633 138.279 63.0312 138.558 63.712C138.675 63.998 138.811 64.5493 138.861 64.9369C138.91 65.3245 138.989 65.6367 139.038 65.6306C139.086 65.6245 139.198 65.8509 139.287 66.1343C140.311 69.4004 142.844 68.839 143.23 65.2596Z" fill="white"/>
<path d="M140.635 56.5435C142.428 57.3782 143.641 61.4503 143.23 65.2596C142.844 68.839 140.311 69.4004 139.287 66.1343C139.198 65.8509 139.086 65.6245 139.038 65.6306C138.989 65.6367 138.91 65.3245 138.861 64.9369C138.811 64.5493 138.675 63.998 138.558 63.712C138.279 63.0312 138.125 61.7633 138.171 60.525C138.278 57.6747 139.349 55.9452 140.635 56.5435Z" fill="white"/>
<path fill-rule="evenodd" clip-rule="evenodd" d="M136.771 58.2292C137.006 56.8915 137.487 55.8142 138.215 54.9815C138.332 54.8482 138.539 54.7349 138.786 54.6486C139.405 54.2264 140.07 54.1737 140.666 54.639C140.838 54.7742 141.022 54.8795 141.074 54.873C141.195 54.8577 142.153 55.9924 142.596 56.6769C143.82 58.5671 144.675 63.1123 144.264 65.545C144.237 65.706 144.206 65.9677 144.195 66.1265C144.184 66.2854 144.15 66.5474 144.12 66.7087C144.09 66.8701 144.05 67.1299 144.033 67.2858C143.845 68.9568 143.092 69.9283 142.147 70.2265C141.186 70.5622 140.025 70.2061 139.049 69.0555C138.551 68.4991 138.106 67.7619 137.772 66.8478C137.701 66.6564 137.638 66.4816 137.579 66.3201C137.47 66.0215 137.35 65.6816 137.215 65.2874C137.159 65.1239 137.101 64.8872 137.043 64.6012C136.963 64.2429 136.904 63.8678 136.837 63.3522C136.664 62.1077 136.539 60.6429 136.568 59.853C136.588 59.2892 136.659 58.7438 136.771 58.2292ZM143.23 65.2596C143.641 61.4503 142.428 57.3782 140.635 56.5435C139.349 55.9452 138.278 57.6747 138.171 60.525C138.125 61.7633 138.279 63.0312 138.558 63.712C138.675 63.998 138.811 64.5493 138.861 64.9369C138.91 65.3245 138.989 65.6367 139.038 65.6306C139.086 65.6245 139.198 65.8509 139.287 66.1343C140.311 69.4004 142.844 68.839 143.23 65.2596Z" fill="#AB4061"/>
</svg>
