<svg width="118" height="136" viewBox="0 0 118 136" fill="none" xmlns="http://www.w3.org/2000/svg">
<path d="M18.6636 47.1598L19.516 51.2382L20.2769 54.9311L20.8852 57.8834L21.0276 58.5733L21.19 59.324L22.3361 64.9547L23.0059 68.8606L23.1074 69.4389V69.4592L23.1481 69.6621L23.2186 69.8447L23.229 69.8345H23.2393L24.6291 69.3171L31.1729 66.8518L30.8178 65.9185V65.9083L30.5336 65.1576L30.3612 64.0213L29.032 55.2963L29.1743 53.247L29.2758 51.6948L29.0931 48.2251L28.8291 42.7456L24.5681 45.8409L18.6636 47.1598Z" fill="#9A0034"/>
<path d="M0.858787 85.2311C-0.164872 85.642 -0.29168 86.5277 0.575742 87.2094L5.4962 91.0748C6.36464 91.7565 7.89758 91.9757 8.92225 91.5658C9.94591 91.1549 10.0727 90.2692 9.20531 89.5875L4.28485 85.7221C3.41641 85.0404 1.88346 84.8212 0.858787 85.2311Z" fill="#1D1715"/>
<path d="M10.6641 84.4591L5.39156 84.8994C2.45653 83.6556 0.264139 84.3251 0.0145655 86.0691L9.78346 90.602L10.6641 84.4591Z" fill="#1D1715"/>
<path d="M8.34606 63.3417L8.39678 63.3722L8.41707 63.3823L15.7927 67.4506L15.9956 67.1564L19.9724 60.3692L21.0275 58.5735L23.2087 55.2965L23.9085 54.2414L26.7698 49.95L27.5303 48.8137L24.568 45.8411L24.1016 45.3745L20.0838 41.3366L14.8999 45.9527L14.626 46.1962L15.0825 50.3964L15.0014 50.5587L8.34606 63.3417Z" fill="#9A0034"/>
<path d="M4.5453 83.0174C2.67654 83.3065 2.12159 84.736 3.30656 86.2091C4.49153 87.6832 6.96697 88.644 8.83574 88.3548C10.7055 88.0657 11.2595 86.6362 10.0755 85.1621C8.89053 83.689 6.41407 82.7283 4.5453 83.0174Z" fill="#9A0034"/>
<path d="M10.5999 87.2035C12.6655 81.3233 16.1301 67.8433 15.9932 67.057C15.8369 66.1642 16.4233 62.4714 15.8704 61.7541C15.0903 60.7436 14.1173 59.7382 12.8542 59.5576C11.3284 59.3395 8.88133 62.447 8.13971 63.7973C7.39708 65.1487 2.8033 83.257 2.77997 84.1691C2.75562 85.0801 2.75155 85.0355 3.49419 85.5651L10.5999 87.2035Z" fill="#9A0034"/>
<path d="M40.9157 80.8118C40.8712 80.9255 40.8162 81.034 40.7516 81.1385C40.6311 81.3374 40.481 81.519 40.3263 81.6955C39.3729 82.781 38.2022 83.6758 36.9051 84.313C36.632 84.4469 36.2865 84.595 35.9247 84.7097C35.1686 84.9511 34.3443 85.0505 33.9776 84.5767C33.9011 84.4783 33.9146 84.3404 33.9372 84.2186C34.0323 83.7276 34.2729 83.2863 34.5737 82.8845C34.7052 82.7049 34.8491 82.5345 34.9961 82.3701C35.9318 81.3333 37.0708 80.4821 38.3282 79.8754C38.4852 79.7983 38.6449 79.7273 38.8049 79.6583C39.1779 79.5011 39.5746 79.3621 39.9789 79.3834C40.383 79.4057 40.8007 79.6238 40.9498 80.0022C41.0508 80.2589 41.0155 80.5531 40.9157 80.8118Z" fill="#A34121"/>
<path d="M41.6196 81.3678L36.4127 91.1133C35.5254 90.7035 35.2368 89.3227 35.3661 88.226C35.5372 86.7762 35.6649 84.735 35.6784 84.4033C35.7164 83.4668 34.1978 82.2697 34.3445 82.1053C35.28 81.0685 35.8765 79.8845 37.134 79.2779C37.522 79.3793 38.9454 79.6258 40.3194 80.4202C40.7843 80.6891 41.2008 81.0391 41.6196 81.3678Z" fill="#1D1715"/>
<path d="M41.7167 81.4986C41.3746 80.7448 39.1831 81.5169 38.6513 83.967C38.2652 85.7444 37.3216 88.9767 36.4605 90.4691C35.5661 92.0183 39.2818 91.3396 40.7627 87.5655C40.9739 87.0268 42.1728 82.502 41.7167 81.4986Z" fill="#1D1715"/>
<path d="M23.006 68.8608L23.1074 69.4391V69.4593C23.1379 69.5801 23.1684 69.6825 23.2089 69.784L23.229 69.8347H23.2394C23.3916 70.1898 23.9392 71.0319 24.7105 72.158C27.5915 76.3683 33.628 84.4439 33.9731 84.5758C33.8511 84.2004 34.2267 83.541 34.8557 82.8308C35.8599 81.6641 37.5442 80.3452 38.8932 79.767C39.6748 79.4322 40.3342 79.3408 40.7197 79.6756L40.7804 79.7467L40.8818 79.8684C37.7776 74.6233 31.7411 66.6491 30.8178 65.9186V65.9085L30.7567 65.8679C29.9757 65.4114 28.9917 63.7171 28.0988 63.5345L27.8555 63.4939C26.6784 63.2809 25.3798 63.2099 24.3858 63.8591C23.3103 64.5592 22.8232 67.1665 23.006 68.8608Z" fill="#9A0034"/>
<path d="M23.2187 69.8447L23.2291 69.8345L23.2089 69.7838C23.1684 69.6824 23.138 69.5799 23.1075 69.4592L23.1482 69.6621L23.2187 69.8447ZM23.006 68.8606C22.8233 67.1663 23.3104 64.559 24.3859 63.859C24.9732 63.4745 25.6667 63.3426 26.3789 63.3426C26.8719 63.3426 27.374 63.4065 27.8555 63.4937C27.9689 63.4836 28.0826 63.4785 28.1967 63.4785C28.7872 63.4785 29.3824 63.6074 29.9353 63.8285C30.0772 63.8894 30.2293 63.9503 30.3613 64.0213L29.1724 56.2165L25.3053 53.9805C24.8397 54.0678 24.3744 54.155 23.9087 54.2412L23.2089 55.2963L21.0277 58.5733L21.1901 59.324L22.3362 64.9547L23.006 68.8606Z" fill="#9A0034"/>
<path d="M19.9721 60.3691L21.0271 58.5734L23.2084 55.2965L23.9082 54.2414C22.7011 54.4747 21.4837 54.7081 20.2765 54.9313C19.7792 55.0226 19.2719 55.124 18.775 55.2153C19.1808 56.9299 19.5763 58.6546 19.9721 60.3691Z" fill="#9A0034"/>
<path d="M24.7104 72.158C24.6799 71.2145 24.6597 70.271 24.6292 69.3275V69.3173C24.5681 67.3897 24.6695 65.1476 26.2421 64.0418C26.7192 63.707 27.2772 63.5345 27.8555 63.4939C27.3739 63.4067 26.8718 63.3428 26.3788 63.3428C25.6666 63.3428 24.9731 63.4746 24.3858 63.8591C23.3103 64.5592 22.8232 67.1665 23.0059 68.8608L23.1074 69.439V69.4593C23.1379 69.5801 23.1683 69.6825 23.2088 69.784L23.229 69.8347H23.2394C23.3915 70.1898 23.9392 71.0319 24.7104 72.158Z" fill="#9A0034"/>
<path d="M31.8966 44.509C32.0654 46.9063 27.6859 46.6334 27.4604 45.1339C27.307 44.1133 24.2361 26.6198 23.51 20.8066C22.9437 16.2736 29.0032 17.2273 29.2889 21.0227C29.302 21.1941 31.8966 44.509 31.8966 44.509Z" fill="#9A0034"/>
<path d="M12.5488 23.7134C12.7618 22.7384 13.8808 21.7715 14.6641 21.1567L14.7259 21.105C15.3864 20.5937 16.0874 20.128 16.8037 19.6917C17.5118 19.2667 18.2433 18.8669 18.9744 18.4723C19.6247 18.1202 20.2266 17.8676 20.7883 17.7033C22.4436 17.1859 23.749 17.3482 25.0036 17.5765C25.2327 17.6181 25.4614 17.6587 25.6892 17.7063C28.0671 18.1507 28.6484 20.6748 28.7816 22.7424C28.8704 24.0786 28.9207 25.9798 28.9428 28.1184H28.9425C29.0122 35.0213 28.8018 44.4564 28.7519 45.7357C28.6861 47.4239 15.8521 47.4249 14.6641 46.4053C14.1923 42.6404 13.4162 32.5154 12.7395 27.1141L12.7415 27.1181C12.6076 25.9859 12.5214 25.1591 12.5021 24.8273C12.4838 24.456 12.4666 24.0766 12.5488 23.7134Z" fill="#9A0034"/>
<path d="M25.9958 47.2735L26.4302 46.7398C26.1635 46.7834 25.8789 46.822 25.5816 46.8575L25.9958 47.2735Z" fill="#9A0034"/>
<path d="M21.4664 50.157C22.3847 50.157 23.2863 49.7705 24.1379 49.392C24.2077 49.3606 24.277 49.3302 24.3468 49.2987L25.9961 47.2737L25.582 46.8578C24.1855 47.0241 22.4928 47.1013 20.8577 47.1013C19.7184 47.1013 18.6071 47.0637 17.6435 46.9917C17.816 47.3711 18.0168 47.7394 18.2492 48.0935C18.8976 49.0826 19.8551 49.9561 21.0249 50.1255C21.1727 50.1468 21.3198 50.157 21.4664 50.157Z" fill="#9A0034"/>
<path d="M31.0366 36.7782C31.0323 33.407 30.7715 30.0357 30.2566 26.703L29.8932 26.4889C30.2329 29.5487 30.6625 33.4141 31.0366 36.7782Z" fill="#E8E8E8"/>
<path d="M28.8025 43.8262L30.8392 41.3264C30.9331 40.5513 30.9775 39.7671 31.0024 38.9991C31.0262 38.2595 31.0378 37.5189 31.0365 36.7783C30.6624 33.4141 30.2328 29.5487 29.8932 26.4889L29.4204 26.211L29.5877 24.8363C29.384 24.9773 29.1497 25.1345 28.8913 25.303C28.9152 26.1663 28.9318 27.1159 28.942 28.1183H28.9417C28.996 33.5054 28.8798 40.4357 28.8025 43.8262Z" fill="#9A0034"/>
<path d="M20.857 47.101C22.4921 47.101 24.1848 47.0239 25.5813 46.8575C25.8785 46.822 26.1631 46.7835 26.4298 46.7399L28.8024 43.8261C28.8797 40.4356 28.9959 33.5053 28.9416 28.1182H28.9419C28.9317 27.1158 28.915 26.1662 28.8912 25.3029C26.2923 27.0012 21.2387 29.916 20.0545 29.9839C19.9705 29.988 19.8872 29.991 19.8049 29.991C18.0151 29.991 16.6445 28.8679 16.5887 27.0966C16.5836 31.2216 16.5775 35.3457 16.5725 39.4708C16.5684 42.0193 16.6049 44.7088 17.6428 46.9915C18.6064 47.0635 19.7177 47.101 20.857 47.101ZM16.5887 27.0966C16.5887 27.0174 16.5887 26.9383 16.5897 26.8592C16.5867 26.9393 16.5867 27.0184 16.5887 27.0966Z" fill="#9A0034"/>
<path d="M21.9262 12.6183C21.9044 13.4036 21.8819 14.1929 21.725 14.9619C21.5676 15.7309 21.2688 16.4867 20.7516 17.0772C20.1695 17.7417 19.3186 18.1536 18.4404 18.2246C18.1647 18.249 17.8867 18.2398 17.6138 18.1921C17.3419 18.1455 17.07 18.0643 16.8427 17.9061C16.4877 17.6616 16.2787 17.2669 16.1265 16.856V16.853C16.093 16.7617 16.0616 16.6693 16.0321 16.578C15.3575 14.4658 15.2023 12.2156 15.2844 9.99883C15.2976 9.67114 15.3149 9.33735 15.4102 9.02183C15.6892 8.08948 16.6216 7.45541 17.5854 7.30932C18.5486 7.16424 19.5306 7.43206 20.4223 7.82468C20.6668 7.93425 20.9117 8.05295 21.109 8.23354C21.2977 8.40601 21.4352 8.62616 21.6092 8.81283C21.824 9.04212 21.9591 11.4384 21.9262 12.6183Z" fill="#FFCEA1"/>
<path d="M16.8691 18.4061L16.8681 18.3723L16.8691 18.4061Z" fill="#FFCEA1"/>
<path d="M18.1511 18.2378C18.2475 18.2378 18.3449 18.2337 18.441 18.2246L18.5342 18.0927C18.5737 17.9994 18.5737 17.8939 18.5737 17.7924C18.5737 17.7204 18.5737 17.6484 18.5737 17.5763C18.1501 17.0741 17.9319 16.3924 17.8538 15.7299C17.8416 15.6335 17.8345 15.5361 17.8285 15.4336C17.8092 15.1627 17.8021 14.8919 17.8021 14.6149C17.8021 14.6119 17.8021 14.6088 17.8021 14.6058C17.7909 14.5551 17.7808 14.5003 17.7716 14.4414C17.6631 16.2899 17.3263 17.1898 16.7825 17.1888C16.5897 17.1888 16.3716 17.0761 16.1271 16.8529V16.856C16.2793 17.2669 16.4883 17.6615 16.8434 17.906C17.0706 18.0643 17.3425 18.1455 17.6144 18.1921C17.7919 18.2226 17.9715 18.2378 18.1511 18.2378Z" fill="#E8BC93"/>
<path d="M23.2001 12.1801L17.7164 12.3221L17.901 19.4197L23.3848 19.2767L23.2001 12.1801Z" fill="#FFCEA1"/>
<path d="M22.56 17.9791C23.6495 18.5706 23.6756 19.576 22.6183 20.2233C21.561 20.8716 19.8204 20.9172 18.7306 20.3247C17.6413 19.7333 17.6149 18.7279 18.6724 18.0806C19.7297 17.4323 21.4702 17.3867 22.56 17.9791Z" fill="#FFCEA1"/>
<path d="M24.4645 13.6744C24.3999 14.0539 24.3095 14.4536 24.2065 14.8726C24.0068 15.6649 23.7297 16.5283 23.3691 17.4759L23.3366 17.5469C23.2205 17.8046 23.0145 17.9791 22.7569 18.1008C22.2737 18.327 21.6226 18.3717 21.0817 18.391C20.4242 18.4163 19.7414 18.397 19.1676 18.0815L18.9484 17.9334C18.8069 17.837 18.6781 17.7143 18.5747 17.5793C18.149 17.0761 17.9309 16.3934 17.8527 15.7299C17.8406 15.6335 17.8335 15.5361 17.8274 15.4336C17.8081 15.1627 17.801 14.8919 17.801 14.6149C17.801 14.0539 17.8142 13.4938 17.7503 12.9338L17.731 12.7979C17.7117 12.669 17.6924 12.5463 17.66 12.4245C17.4794 11.6961 17.0989 11.0519 16.4354 10.6907C16.1524 10.5365 15.4879 10.4005 15.2819 10.0718C13.9285 7.94538 17.2349 6.14154 19.9859 6.30894C20.6561 6.34749 25.695 6.75331 24.4645 13.6744Z" fill="#1D1715"/>
<path d="M17.9463 12.3169C17.644 12.3331 17.4319 12.6131 17.3477 12.882C17.2432 13.2168 17.2595 13.5698 17.2757 13.9148C17.298 14.3531 17.3244 14.8086 17.5506 15.19C17.6115 15.2925 17.6927 15.3919 17.8124 15.4335C17.9909 15.4944 18.203 15.398 18.3186 15.2529C18.4346 15.1079 18.4754 14.9273 18.5059 14.7518C18.5951 14.2445 18.6276 13.7301 18.6038 13.2198C18.5943 13.0159 18.5737 12.8069 18.4722 12.6273C18.3704 12.4478 18.1695 12.3047 17.9463 12.3169Z" fill="#FFCEA1"/>
<path d="M12.6356 8.83003C12.4245 9.25715 12.7745 9.78672 13.1489 10.0819C13.5233 10.3762 15.6041 11.065 16.0576 11.2101C15.8942 10.645 15.9449 9.64875 16.3771 9.24902C16.8103 8.85031 19.302 8.18175 19.8667 8.34712C19.3282 7.82768 17.0832 6.80097 16.3355 6.84663C15.5077 6.89634 13.507 7.06374 12.6356 8.83003Z" fill="#A34121"/>
<path d="M24.8564 11.0996C24.581 11.4202 24.1982 11.7104 23.6901 11.9457C23.2122 12.1659 22.6708 12.313 22.1041 12.4043L21.9488 13.082C22.3395 13.0434 22.7208 12.9836 23.0731 12.875C23.8328 12.6417 24.3725 12.2694 24.6908 11.8199L24.8564 11.0996Z" fill="#EDEDED"/>
<path d="M24.9994 11.1118L24.9935 11.1108C24.9297 11.5531 24.6903 11.968 24.2869 12.3069L24.4343 11.6647C24.5449 11.1828 24.2551 10.916 23.7844 11.058C23.3132 11.2011 22.8392 11.7114 22.7298 12.1872L22.5292 13.0617C20.3833 13.4898 17.5964 12.7817 16.0482 11.3431C15.2437 10.5944 14.9272 9.78884 15.0459 9.08374L15.0408 9.07663C15.2478 7.90282 15.6353 7.03338 16.1517 6.39423C16.3353 6.16697 16.5443 5.96508 16.7604 5.78855C16.9349 5.65362 17.1206 5.52781 17.3144 5.42128C18.426 4.80648 20.1353 4.86026 21.3658 5.17476C21.9502 5.32795 22.4373 5.55216 22.8741 5.85855L22.9117 5.88595C23.3932 6.21567 23.8069 6.64887 24.2127 7.17439C24.4148 7.4402 24.579 7.73441 24.7034 8.06312L24.7081 8.07023C25.085 9.02185 25.1722 10.1683 24.9994 11.1118Z" fill="#9A0034"/>
<path d="M20.7302 11.2711C21.0083 10.0577 20.6782 8.74191 19.9412 7.75274C19.1992 6.75647 18.0652 6.07574 16.8549 5.81095L16.7605 5.78863C16.5444 5.96516 16.3354 6.16704 16.1518 6.3943C17.2698 6.43184 18.3706 6.87315 19.1925 7.631C20.1975 8.54408 20.7734 9.90962 20.7302 11.2711Z" fill="#CB542D"/>
<path d="M24.686 9.72482C24.8101 9.18408 24.8153 8.61495 24.7087 8.07015L24.7039 8.06304C24.5795 7.73433 24.4154 7.44012 24.2133 7.17431C23.8075 6.64878 23.3937 6.21559 22.9122 5.88586L23.1484 6.08471C24.1523 7.00387 24.7277 8.36941 24.686 9.72482Z" fill="#CB542D"/>
<path d="M20.0551 49.6253L15.1304 50.5059V55.7764L20.7007 59.0442L20.0551 49.6253Z" fill="#9C5C54"/>
<path d="M40.8096 0.745262L37.7144 26.2606V41.1874C37.7144 42.3856 36.8739 43.8455 35.8372 44.444L16.4467 55.6363C15.4098 56.2359 14.5637 55.752 14.5637 54.5548V36.9558C14.5637 35.7577 15.4098 34.3028 16.4467 33.7042L29.4207 26.2109L31.3281 10.4989C31.6499 7.8561 33.4769 4.97789 35.6307 3.73409L40.8096 0.745262Z" fill="#9C5C54"/>
<path d="M46.2993 3.97445L41.1209 6.96426C38.9662 8.20807 37.1357 11.0843 36.8147 13.7291L34.9085 29.4411L21.9328 36.9324C20.8953 37.532 20.0544 38.9889 20.0544 40.187V57.783C20.0544 58.9811 20.8957 59.4671 21.9332 58.8675L41.325 47.6722C42.3625 47.0726 43.2039 45.6157 43.2039 44.4186L43.2035 29.4929L46.2993 3.97445Z" fill="#57332F"/>
<path d="M84.228 93.4774L23.0924 58.1251V48.899L84.228 84.2512V93.4774Z" fill="#57332F"/>
<path d="M35.1982 35.9737L24.7304 42.0081C23.2558 42.8593 22.0609 44.929 22.0609 46.6323V52.1047L35.1982 44.5292V35.9737Z" fill="#854F48"/>
<path d="M83.1967 87.456L22.061 52.1048L35.1983 35.9738L96.334 71.326L83.1967 87.456Z" fill="#854F48"/>
<path d="M108.439 39.8533L97.0459 65.318L91.5598 62.0877L85.9487 65.3281L37.7146 37.4286L35.1981 35.9738L34.9064 29.4412L29.4204 26.211L31.3282 10.498C31.6505 7.85614 33.477 4.97791 35.6308 3.73512L40.8097 0.745308L46.3004 3.97659L108.439 39.8533Z" fill="#71433D"/>
<path d="M108.439 39.8513L103.26 42.8411C101.106 44.085 99.2752 46.9611 98.9542 49.606L97.048 65.318L84.0724 72.8093C83.0348 73.4089 82.1939 74.8657 82.1939 76.0639V93.6599C82.1939 94.858 83.0352 95.344 84.0728 94.7444L103.464 83.5491C104.502 82.9495 105.343 81.4926 105.343 80.2955V65.3697L108.439 39.8513Z" fill="#57332F"/>
<path d="M82.1912 93.6669L82.1908 76.0709C82.1908 74.8728 83.0318 73.4159 84.0692 72.8163L97.0453 65.3251L97.0461 65.318L97.0429 65.3251L91.5569 62.0938V62.0948V62.0958L78.5813 69.5871C77.5434 70.1867 76.7024 71.6435 76.7024 72.8417L76.7028 90.4377C76.7028 91.0454 76.92 91.4674 77.2683 91.6592V91.6622L82.7175 94.863C82.3929 94.6611 82.1912 94.2503 82.1912 93.6669Z" fill="#9C5C54"/>
<path d="M90.807 88.1772C90.9794 88.3699 91.4561 88.583 92.1461 88.796C92.2983 88.8468 92.4505 88.8873 92.6228 88.9381C93.3231 89.141 94.1752 89.3337 95.0985 89.5062C95.8895 89.6584 96.742 89.8106 97.6044 89.9212C98.9636 90.1149 100.344 90.257 101.52 90.2975C103.357 90.3686 104.726 90.1961 104.838 89.6685C104.858 89.5671 104.889 89.4048 104.919 89.1917C105.02 88.653 105.172 87.8018 105.365 86.7365C105.862 83.8654 106.634 79.4117 107.273 75.2927C107.425 74.2578 107.587 73.2636 107.719 72.2998C108.034 70.1794 108.277 68.2823 108.389 66.9533C108.571 64.8938 108.389 62.3067 106.096 61.4951C105.883 61.4241 105.66 61.3531 105.447 61.2719C104.949 61.0994 104.432 60.9371 103.894 60.8255L103.823 60.8154C103.174 60.6835 102.484 60.6226 101.693 60.6936C101.551 60.7038 101.409 60.7241 101.257 60.7443C100.83 60.8052 100.374 60.9067 99.887 61.0487C99.7146 61.0994 99.532 61.1603 99.3492 61.2313C98.974 61.3733 98.5884 61.5052 98.2131 61.6473H98.1825C97.7866 61.7994 97.4015 61.9415 97.0158 62.1038C96.245 62.4285 95.4837 62.7835 94.7434 63.1792L94.6721 63.2198C93.9924 63.6053 93.0694 64.1734 92.5317 64.843C92.3894 65.0358 92.2677 65.2286 92.1968 65.4213L92.1766 65.5025C92.0549 65.8271 92.0245 66.1822 91.9737 66.517C91.9432 66.8518 91.9127 67.6736 91.8619 68.82C91.8215 70.1389 91.7505 71.7215 91.659 73.4259C91.6487 73.6593 91.6388 73.9028 91.6186 74.1361C91.5881 74.7651 91.5476 75.4043 91.5068 76.0434C91.4561 76.8753 91.4054 77.7275 91.3447 78.5696C91.1114 82.3132 90.8882 85.9249 90.8169 87.954L90.807 88.1772Z" fill="#9A0034"/>
<path d="M103.163 55.8991C103.021 56.6722 102.877 57.4483 102.605 58.1838C102.332 58.9204 101.92 59.6214 101.319 60.1256C100.642 60.6927 99.7379 60.9697 98.8589 60.9058C98.583 60.8875 98.31 60.8348 98.0473 60.7465C97.7853 60.6582 97.5296 60.5365 97.3292 60.3458C97.0153 60.0495 96.8698 59.6275 96.7826 59.1983L96.783 59.1953C96.7632 59.0999 96.7461 59.0046 96.7319 58.9092C96.3887 56.7188 96.5801 54.4717 97.001 52.2935C97.0636 51.9708 97.1326 51.6442 97.2744 51.3469C97.6937 50.4683 98.7122 49.9844 99.6863 49.9885C100.66 49.9925 101.59 50.4075 102.411 50.932C102.636 51.0771 102.86 51.2323 103.027 51.4413C103.187 51.6401 103.29 51.8785 103.433 52.0906C103.61 52.3503 103.376 54.7385 103.163 55.8991Z" fill="#FFCEA1"/>
<path d="M97.2785 60.8438L97.2825 60.811L97.2785 60.8438Z" fill="#FFCEA1"/>
<path d="M98.8592 60.9059L98.9713 60.7902C99.0252 60.703 99.0411 60.5985 99.057 60.498C99.068 60.427 99.0788 60.356 99.0898 60.285C98.7478 59.724 98.6365 59.0168 98.6618 58.3503C98.6638 58.2529 98.6722 58.1565 98.6817 58.053C98.7042 57.7832 98.7391 57.5143 98.7815 57.2404C98.7819 57.2373 98.7827 57.2343 98.7832 57.2313C98.7796 57.1795 98.778 57.1237 98.7776 57.0639C98.4042 58.7916 97.9593 59.6337 97.4516 59.6337C97.2395 59.6337 97.0165 59.4866 96.7834 59.1954L96.783 59.1984C96.8702 59.6276 97.0156 60.0496 97.3295 60.3459C97.53 60.5366 97.7857 60.6583 98.0476 60.7466C98.3104 60.8349 98.5834 60.8876 98.8592 60.9059Z" fill="#E8BC93"/>
<path d="M104.489 55.6607L99.0484 54.9617L98.1437 62.0036L103.585 62.7026L104.489 55.6607Z" fill="#FFCEA1"/>
<path d="M102.968 61.2933C103.954 62.0451 103.826 63.0424 102.682 63.5212C101.538 63.9991 99.8111 63.7769 98.8246 63.0251C97.8386 62.2733 97.9666 61.2761 99.1107 60.7982C100.255 60.3204 101.982 60.5415 102.968 61.2933Z" fill="#FFCEA1"/>
<path d="M105.51 57.3316C105.388 57.6978 105.238 58.0783 105.072 58.477C104.753 59.2288 104.347 60.0404 103.845 60.921L103.802 60.9859C103.648 61.2233 103.418 61.3633 103.144 61.4445C102.632 61.5936 101.982 61.5388 101.444 61.4749C100.791 61.3988 100.119 61.2751 99.6003 60.8753L99.4065 60.6958C99.2813 60.5781 99.1728 60.4381 99.0919 60.2879C98.7483 59.7259 98.6365 59.0177 98.6619 58.3502C98.6639 58.2528 98.6722 58.1564 98.6817 58.0529C98.7043 57.7831 98.7392 57.5142 98.7816 57.2403C98.8676 56.6864 98.9662 56.1345 98.9884 55.5704L98.9901 55.4334C98.9909 55.3035 98.9905 55.1798 98.9774 55.054C98.9107 54.3063 98.6338 53.6113 98.0329 53.1538C97.7766 52.9569 97.1413 52.7216 96.9879 52.3655C95.9766 50.0564 99.5194 48.7801 102.213 49.3675C102.869 49.5086 107.787 50.6814 105.51 57.3316Z" fill="#1D1715"/>
<path d="M99.277 54.9921C98.9758 54.9616 98.723 55.2061 98.5985 55.4588C98.4436 55.7733 98.4056 56.1243 98.3695 56.4672C98.3239 56.9045 98.2804 57.359 98.4459 57.7699C98.4904 57.8804 98.555 57.992 98.6667 58.0509C98.834 58.1381 99.0583 58.0752 99.195 57.9505C99.3317 57.8247 99.3999 57.6522 99.4569 57.4838C99.6226 56.9958 99.7336 56.4926 99.7883 55.9853C99.8101 55.7824 99.8219 55.5714 99.749 55.3786C99.6757 55.1869 99.4993 55.0134 99.277 54.9921Z" fill="#FFCEA1"/>
<path d="M94.562 50.7322C94.2886 51.1228 94.5529 51.699 94.8779 52.048C95.2029 52.396 97.1538 53.3953 97.5798 53.6094C97.5046 53.025 97.7067 52.048 98.1958 51.7203C98.6844 51.3916 101.249 51.1136 101.782 51.3632C101.33 50.7677 99.2681 49.4092 98.5226 49.3392C97.6972 49.2621 95.6947 49.1201 94.562 50.7322Z" fill="#A34121"/>
<path d="M106.292 54.847C105.97 55.122 105.548 55.3502 105.01 55.5045C104.503 55.6495 103.946 55.7114 103.372 55.7155L103.114 56.3607C103.507 56.382 103.893 56.382 104.257 56.3293C105.044 56.2146 105.634 55.9295 106.017 55.5339L106.292 54.847Z" fill="#EDEDED"/>
<path d="M106.431 54.8815L106.426 54.8795C106.294 55.3066 105.994 55.68 105.544 55.9529L105.788 55.3411C105.971 54.8815 105.726 54.5741 105.239 54.6421C104.752 54.7111 104.204 55.1433 104.024 55.5968L103.692 56.4297C101.506 56.5241 98.8602 55.3969 97.5508 53.7382C96.87 52.8748 96.6809 52.0307 96.9057 51.352L96.9025 51.3439C97.2865 50.2157 97.8025 49.4163 98.4104 48.8644C98.6268 48.6675 98.8645 48.5001 99.1048 48.3591C99.2985 48.2526 99.501 48.1562 99.7083 48.0811C100.901 47.6429 102.582 47.9584 103.75 48.4575C104.305 48.698 104.751 48.9942 105.136 49.3645L105.168 49.398C105.594 49.7977 105.937 50.2888 106.257 50.8701C106.416 51.1633 106.533 51.4788 106.606 51.8237L106.609 51.8319C106.836 52.8291 106.747 53.9756 106.431 54.8815Z" fill="#9A0034"/>
<path d="M102.187 54.3844C102.648 53.2289 102.523 51.8775 101.946 50.7869C101.366 49.6881 100.35 48.8431 99.1949 48.3957L99.1042 48.3591C98.864 48.5001 98.6263 48.6675 98.4099 48.8643C99.5092 49.0723 100.53 49.677 101.226 50.5525C102.079 51.6087 102.439 53.0462 102.187 54.3844Z" fill="#CB542D"/>
<path d="M106.333 53.4633C106.539 52.9469 106.631 52.3859 106.609 51.8319L106.606 51.8238C106.533 51.4789 106.416 51.1633 106.257 50.8701C105.937 50.2888 105.594 49.7978 105.168 49.3981L105.372 49.6304C106.223 50.6916 106.582 52.1302 106.333 53.4633Z" fill="#CB542D"/>
<path d="M116.863 124.248C116.819 124.362 116.763 124.469 116.699 124.574C116.578 124.773 116.428 124.955 116.274 125.132C115.32 126.217 114.149 127.112 112.852 127.748C112.579 127.882 112.234 128.031 111.872 128.146C111.116 128.387 110.291 128.487 109.925 128.012C109.848 127.914 109.862 127.776 109.884 127.655C109.98 127.164 110.22 126.721 110.521 126.32C110.653 126.141 110.797 125.97 110.943 125.806C111.879 124.769 113.018 123.918 114.275 123.312C114.432 123.234 114.592 123.162 114.753 123.094C115.125 122.937 115.522 122.798 115.926 122.818C116.33 122.842 116.748 123.06 116.897 123.437C116.998 123.695 116.963 123.989 116.863 124.248Z" fill="#A34121"/>
<path d="M117.567 124.803L112.36 134.549C111.473 134.14 111.184 132.759 111.313 131.662C111.484 130.212 111.612 128.171 111.626 127.839C111.664 126.903 110.145 125.705 110.292 125.541C111.228 124.505 111.824 123.321 113.081 122.714C113.469 122.815 114.893 123.061 116.267 123.856C116.731 124.125 117.148 124.475 117.567 124.803Z" fill="#1D1715"/>
<path d="M117.664 124.934C117.322 124.181 115.13 124.953 114.598 127.403C114.212 129.18 113.269 132.413 112.408 133.904C111.513 135.454 115.229 134.776 116.71 131.002C116.921 130.462 118.12 125.938 117.664 124.934Z" fill="#1D1715"/>
<path d="M98.9535 112.303L99.0546 112.881V112.901C99.0851 113.013 99.1156 113.124 99.1564 113.216L99.1865 113.276C99.552 114.088 101.885 117.416 104.29 120.693C106.948 124.335 109.687 127.926 109.92 128.008C109.799 127.632 110.174 126.983 110.803 126.263C111.817 125.106 113.502 123.777 114.851 123.199C115.602 122.874 116.261 122.783 116.636 123.086L116.647 123.097L116.738 123.189L116.839 123.31C113.725 118.075 107.688 110.091 106.765 109.35V109.34L106.704 109.3C105.923 108.853 104.939 107.149 104.046 106.976C102.798 106.723 101.398 106.601 100.333 107.301C99.968 107.534 99.6736 107.991 99.4608 108.549C99.0042 109.655 98.8315 111.176 98.9535 112.303Z" fill="#9A0034"/>
<path d="M94.6112 90.592L95.4632 94.6704L96.8328 101.326L96.9751 102.005L97.1372 102.756L98.2837 108.387L98.9534 112.303L99.0545 112.881V112.902L99.0953 113.104L99.1663 113.276H99.1864L100.222 112.881L107.12 110.284L106.765 109.351V109.341L106.481 108.59L104.98 98.7387L105.223 95.127L105.041 91.6674L104.919 89.192V89.1819L104.777 86.189L100.516 89.2732H100.505L97.6041 89.9214L94.6112 90.592Z" fill="#9A0034"/>
<path d="M104.29 120.693C103.225 118.44 101.206 115.113 100.222 112.881L99.1869 113.276C99.5523 114.088 101.886 117.416 104.29 120.693Z" fill="#9A0034"/>
<path d="M99.1664 113.276H99.1866L100.222 112.881C99.8159 112.008 99.5825 111.299 99.6229 110.893C99.6637 110.436 99.5825 109.593 99.4608 108.549C99.1358 105.769 98.5271 101.498 99.2171 98.6362L99.1564 98.7286L99.1462 98.7387L96.9752 102.005L97.1373 102.756L98.2838 108.387L98.9535 112.303L99.0546 112.881V112.902L99.0955 113.104L99.1664 113.276Z" fill="#9A0034"/>
<path d="M76.8064 128.667C75.7824 129.078 75.6555 129.964 76.5231 130.645L81.4439 134.511C82.3118 135.193 83.8454 135.412 84.8695 135.001C85.8936 134.591 86.0208 133.705 85.1528 133.023L80.232 129.158C79.3642 128.476 77.8304 128.256 76.8064 128.667Z" fill="#1D1715"/>
<path d="M86.6111 127.895L81.3387 128.335C78.4038 127.092 76.2122 127.761 75.9625 129.505L85.7313 134.038L86.6111 127.895Z" fill="#1D1715"/>
<path d="M84.2934 106.784L84.3442 106.804L84.3645 106.814L91.74 110.893L91.9329 110.609L91.9429 110.588L96.4068 102.979V102.959L96.975 102.005L99.146 98.7386L99.1563 98.7284L99.2169 98.6361L102.707 93.392L103.468 92.2558L101.52 90.2977L100.516 89.2832V89.2731H100.505L100.049 88.8064L96.0315 84.7787L92.7747 86.8991L90.8067 88.1774L90.4009 95.0254L86.5048 102.523C86.4541 102.655 86.3832 102.776 86.3122 102.898L85.9975 103.517H85.9877L85.7439 103.974L84.2934 106.784Z" fill="#9A0034"/>
<path d="M78.7273 127.605C78.751 126.693 83.345 108.584 84.0869 107.233C84.8292 105.883 87.2759 102.775 88.8013 102.992C90.0651 103.173 91.0376 104.179 91.8175 105.19C92.3708 105.907 91.7842 109.6 91.9403 110.493C92.0775 111.279 88.613 124.758 86.5475 130.638C86.3232 131.217 85.7173 131.647 84.7828 131.791C82.9139 132.08 80.4381 131.119 79.2532 129.645C78.6608 128.909 78.503 128.182 78.7273 127.605Z" fill="#9A0034"/>
<path d="M88.9094 82.7293C90.0555 80.8525 90.9991 79.1785 91.3442 78.5698C91.4049 77.7277 91.4556 76.8755 91.5064 76.0436C91.5471 75.4044 91.5876 74.7653 91.6182 74.1363C90.7149 75.2624 90.0555 76.6523 89.5482 78.2045C89.0715 79.6655 88.9499 81.1974 88.9094 82.7293Z" fill="#51312D"/>
<path d="M90.8068 88.1773L92.7748 86.899C93.1604 81.4408 93.3431 76.5305 95.6562 71.5999C95.5548 71.6202 95.4431 71.6506 95.3416 71.6912C93.7588 72.1173 92.5619 72.9797 91.6184 74.1362C91.5879 74.7653 91.5474 75.4044 91.5066 76.0436C91.4559 76.8755 91.4052 77.7277 91.3445 78.5697C91.1112 82.3133 90.888 85.9251 90.8166 87.9541L90.8068 88.1773Z" fill="#9A0034"/>
<path d="M85.7441 103.974C88.8182 99.8648 90.4415 97.7749 91.7298 95.6139C92.4705 94.366 92.2676 92.55 92.4198 91.1094C92.5011 90.3688 92.5621 89.6485 92.6227 88.9383C92.6838 88.2484 92.7345 87.5687 92.7749 86.8991L90.8069 88.1774L90.4011 95.0255L86.505 102.523C86.4543 102.655 86.3834 102.776 86.3125 102.898L85.9978 103.517H85.9879L85.7441 103.974Z" fill="#9A0034"/>
<path d="M79.4053 89.3249C79.3372 89.544 79.269 89.7641 79.2305 89.9894C79.1818 90.2755 79.1576 91.9007 79.1545 92.1899C79.1489 92.6718 79.3681 93.3819 79.7719 94.7708C79.823 94.9453 79.9534 95.1056 80.1226 95.1716C80.2918 95.2385 80.532 95.13 80.5249 94.9484C80.5233 95.3238 80.7876 95.6849 81.1463 95.7975C81.3456 95.8594 81.6349 95.7854 81.6381 95.5754C81.6068 95.827 81.8596 96.0613 82.1124 96.042C82.3653 96.0217 82.5718 95.7864 82.5928 95.5338C82.5995 95.762 82.8773 95.9142 83.0961 95.8473C83.3148 95.7803 83.4563 95.5571 83.4924 95.3309C83.5284 95.1056 83.4785 94.8753 83.4258 94.6532C83.1749 93.593 82.8381 92.9802 82.9177 92.4719C82.9534 92.2426 83.1789 90.7269 83.2454 90.5058C83.4396 89.8585 83.4092 90.105 83.5142 89.4375C83.8867 87.0685 80.8249 85.4189 79.7041 88.3347C79.7041 88.3347 79.6209 88.6309 79.4053 89.3249Z" fill="#FFCEA1"/>
<path d="M78.3139 91.9695C78.5156 92.1673 78.8607 92.1379 79.0981 91.9847C79.3359 91.8325 79.4948 91.587 79.6573 91.3557C79.8083 91.1396 79.9684 90.9316 80.1369 90.7297C80.3691 90.4508 80.6216 90.1809 80.7729 89.8512C80.9247 89.5214 80.9584 89.1106 80.7551 88.8103C80.6014 88.584 80.3366 88.4542 80.0687 88.3973C79.9395 88.37 79.7822 88.3669 79.701 88.4704L79.6384 88.6317C79.4814 89.3064 79.269 89.9922 78.8187 90.5187C78.6333 90.7358 78.4094 90.9245 78.2719 91.1741C78.1347 91.4237 78.1106 91.7696 78.3139 91.9695Z" fill="#FFCEA1"/>
<path d="M79.8093 87.2643C79.7891 87.4367 79.8398 87.6397 79.9516 87.8426C80.0835 88.1063 80.3166 88.3904 80.6111 88.644L80.6415 88.6745C81.4024 89.3644 82.5691 89.902 83.4616 89.7499C83.6951 89.7194 83.9083 89.6383 84.0909 89.4962C85.2676 88.5121 87.2867 85.4178 88.9099 82.7293C90.056 80.8525 90.9997 79.1785 91.3448 78.5698C91.4257 78.4277 91.4665 78.3466 91.4764 78.3263L95.3419 71.6913L97.1276 68.6071C97.929 67.2071 97.4621 65.4215 96.0723 64.6099C95.9102 64.5186 95.7477 64.4475 95.5956 64.3867C94.4289 63.9707 93.1302 64.3157 92.3387 65.2795L92.1767 65.5026L92.0649 65.6751L90.6854 68.0593C90.6854 68.0593 79.2617 84.6671 79.8093 87.2643Z" fill="#9A0034"/>
<path d="M14.0803 53.3423C14.1026 53.5706 14.1259 53.7999 14.1777 54.0231C14.2446 54.3051 14.8534 55.8117 14.9639 56.0795C15.1455 56.5259 15.6234 57.0951 16.5365 58.2171C16.6511 58.3582 16.8337 58.4545 17.0153 58.4505C17.1969 58.4454 17.3765 58.2527 17.2984 58.0883C17.4435 58.4343 17.827 58.6645 18.2013 58.628C18.4093 58.6077 18.6466 58.4272 18.5686 58.2334C18.6375 58.4769 18.9613 58.5945 19.1867 58.4779C19.4118 58.3612 19.5106 58.0639 19.4312 57.8225C19.5264 58.0305 19.8418 58.0629 20.0174 57.9168C20.1925 57.7697 20.2362 57.509 20.1815 57.2868C20.1268 57.0646 19.9916 56.8719 19.8565 56.6872C19.2129 55.8086 18.6644 55.3754 18.54 54.8763C18.4841 54.6511 18.1019 53.1668 18.0775 52.9365C18.0045 52.2649 18.0725 52.5043 17.9101 51.8489C17.3319 49.5206 13.8693 49.1919 13.9707 52.3136C13.9707 52.3136 14.0093 52.619 14.0803 53.3423Z" fill="#FFCEA1"/>
<path d="M14.1035 56.2034C14.3662 56.3069 14.6726 56.1456 14.8329 55.9133C14.9922 55.6799 15.0429 55.3918 15.1028 55.1159C15.1576 54.8582 15.2245 54.6035 15.3006 54.3519C15.4071 54.005 15.534 53.658 15.5451 53.2958C15.5573 52.9326 15.4284 52.542 15.1241 52.3442C14.8948 52.195 14.5996 52.1778 14.3307 52.2295C14.2019 52.2549 14.0558 52.3137 14.0213 52.4405L14.0264 52.613C14.143 53.2958 14.2151 54.011 14.0051 54.6705C13.9188 54.9424 13.7849 55.2031 13.7555 55.4872C13.7271 55.7702 13.8387 56.0979 14.1035 56.2034Z" fill="#FFCEA1"/>
<path d="M18.0542 49.8089C17.969 52.2113 13.643 51.4778 13.5771 49.9631C13.5314 48.9324 12.3231 31.2116 12.2136 25.3547C12.1283 20.7873 18.0542 22.3751 17.9375 26.1795C17.9325 26.351 18.0542 49.8089 18.0542 49.8089Z" fill="#9A0034"/>
</svg>
