<svg width="231" height="224" viewBox="0 0 231 224" fill="none" xmlns="http://www.w3.org/2000/svg">
<path d="M109.906 81.163V154.294L75.152 134.235L66.7796 129.381L39.6246 113.711V40.5801L66.9809 56.3862L75.2498 61.1396L109.906 81.163Z" fill="#6C6C6C"/>
<path d="M96.5559 100.591V99.1283C93.6151 96.916 91.3257 92.7875 91.3257 89.2513V75.7257L103.687 82.8631V96.3888C103.687 96.4155 103.687 96.4451 103.687 96.4717L96.5559 100.591Z" fill="#575757"/>
<path d="M180.225 40.5801V113.711L150.893 130.654L142.52 135.476L109.907 154.294V81.163L142.52 62.3449L150.893 57.5235V57.4909L180.225 40.5801Z" fill="#9A9A9A"/>
<path d="M180.224 40.5799L150.892 57.4907V57.5233L142.52 62.3448L109.906 81.1628L75.2498 61.1394L66.9809 56.386H66.9484L39.6246 40.5799L74.0444 20.7254L82.3162 15.9364L109.906 1.52588e-05L135.554 14.7992L143.826 19.5881L180.224 40.5799Z" fill="#CCCCCC"/>
<path d="M150.893 120.908L142.52 116.101V62.3449L150.893 57.5235V57.4908V120.908Z" fill="#575757"/>
<path d="M142.52 62.345V62.2117L107.999 41.285L116.067 36.3954L150.892 57.4909V57.5235L142.52 62.345ZM99.9291 36.3954L74.0447 20.7256L82.3164 15.9366L107.999 31.5087L99.9291 36.3954Z" fill="#7D7D7D"/>
<path d="M75.1526 105.113L66.7802 100.28V56.4868L66.949 56.3861H66.9815L75.2504 61.1395L75.1526 61.2076V105.113Z" fill="#525252"/>
<path d="M75.2503 61.1394L66.9814 56.386L99.9293 36.3952L108 41.2848L75.2503 61.1394ZM116.067 36.3952L108 31.5085L135.554 14.7992L143.826 19.5881L116.067 36.3952Z" fill="#7D7D7D"/>
<path d="M107.999 41.2853L99.9291 36.3957L107.999 31.509L116.067 36.3957L107.999 41.2853Z" fill="#575757"/>
<path d="M230.033 142.003V179.707L218.112 186.605L209.743 191.426L194.908 199.997V162.296L198.693 160.119L200.499 159.08L209.473 153.858H209.509L217.777 149.102L230 142.003H230.033Z" fill="#9A9A9A"/>
<path d="M140.814 131.037V168.744L194.914 199.986V162.279L140.814 131.037Z" fill="#6C6C6C"/>
<path d="M230.166 142.104L230.033 142.172L217.846 149.138L209.541 153.891L200.5 159.08L194.908 162.264L156.872 140.33L140.832 131.055L156.771 121.915L165.076 117.159L176.057 110.865L230 142.004L230.033 142.039L230.166 142.104Z" fill="#CCCCCC"/>
<path d="M209.743 191.426V154.024L209.541 153.891L217.846 149.138L218.112 149.303V186.605L209.743 191.426Z" fill="#575757"/>
<path d="M209.541 153.891L209.509 153.858H209.473L156.771 121.915L165.076 117.158L217.778 149.102L217.846 149.138L209.541 153.891Z" fill="#7D7D7D"/>
<path d="M90.0522 113.696V151.398L78.1317 158.295L69.7622 163.117L54.9275 171.69V133.986L58.7124 131.809L60.5219 130.773L69.4956 125.549H69.5282L77.797 120.795L90.0196 113.696H90.0522Z" fill="#9A9A9A"/>
<path d="M0.833862 102.729V140.436L54.9365 171.678V133.971L0.833862 102.729Z" fill="#6C6C6C"/>
<path d="M90.1887 113.797L90.0525 113.862L77.8654 120.828L69.5611 125.581L60.5222 130.773L54.9278 133.954L16.8919 112.023L0.851807 102.747L16.7912 93.6049L25.0955 88.8515L36.0772 82.5552L90.0199 113.696L90.0525 113.729L90.1887 113.797Z" fill="#CCCCCC"/>
<path d="M61.6151 120.771L16.7911 93.6046L25.0955 88.8512L69.8868 116L61.6151 120.771Z" fill="#7D7D7D"/>
<path d="M78.8663 169.025V223.202L56.5684 210.345L48.1959 205.524L28.3739 194.071V139.862L28.442 139.895L48.1959 151.312L56.5684 156.133L78.8663 169.025Z" fill="#6C6C6C"/>
<path d="M156.585 124.157V178.301L140.814 187.408L132.442 192.265L104.315 208.503L95.9456 213.325L78.8661 223.202V169.025L95.9101 159.181H95.9456L104.214 154.395L132.442 138.085L140.713 133.299L156.549 124.157H156.585Z" fill="#9A9A9A"/>
<path d="M156.549 124.157L140.713 133.299L132.442 138.085L104.215 154.395L95.9458 159.181H95.9102L78.8662 169.025L56.5683 156.269L48.1958 151.448L28.3738 140.096L28.2405 140.028L28.3738 139.963L28.4419 139.895L46.7239 129.348L54.9927 124.592L83.2553 108.286L91.5241 103.497L105.956 95.1597L123.637 105.274L131.941 110.027L156.549 124.157Z" fill="#CCCCCC"/>
<path d="M56.5685 210.345L48.196 205.524V151.448L56.5685 156.269V210.345Z" fill="#525252"/>
<path d="M56.5685 156.269L48.196 151.448V150.977L65.3082 140.632L73.3756 145.522L56.5685 155.701V156.269ZM81.4785 140.632H81.446L73.3756 135.71L100.969 119.001L109.036 123.923L81.4785 140.632ZM117.139 119.001L109.036 114.111L123.637 105.274L131.941 110.027L117.139 119.001Z" fill="#7D7D7D"/>
<path d="M95.9457 213.324V159.18H95.9102H95.9457L104.215 154.394L104.315 154.46V208.503L95.9457 213.324Z" fill="#575757"/>
<path d="M95.9461 159.18H95.9105L73.3757 145.521L81.4461 140.632H81.4786L104.215 154.394L95.9461 159.18ZM65.3083 140.632L46.7242 129.348L54.993 124.592L73.3757 135.71L65.3083 140.632Z" fill="#7D7D7D"/>
<path d="M73.3753 145.522L65.3079 140.632L73.3753 135.71L81.4456 140.632L73.3753 145.522Z" fill="#575757"/>
<path d="M132.442 192.265V138.085L140.714 133.299L140.814 133.364V187.408L132.442 192.265Z" fill="#575757"/>
<path d="M132.442 138.085L109.036 123.923L117.139 119L140.713 133.299L132.442 138.085ZM100.969 119L83.2554 108.285L91.5242 103.496L109.036 114.111L100.969 119Z" fill="#7D7D7D"/>
<path d="M109.036 123.923L100.969 119L109.036 114.111L117.139 119L109.036 123.923Z" fill="#575757"/>
</svg>
